<?xml version="1.0" encoding="UTF-8" standalone="no"?>
<svg width="21px" height="21px" viewBox="0 0 21 21" version="1.1" xmlns="http://www.w3.org/2000/svg" xmlns:xlink="http://www.w3.org/1999/xlink" xmlns:sketch="http://www.bohemiancoding.com/sketch/ns">
    <!-- Generator: Sketch Beta 3.2 (9885) - http://www.bohemiancoding.com/sketch -->
    <title>Imported Layers 5</title>
    <desc>Created with Sketch Beta.</desc>
    <defs></defs>
    <g id="Campaign-Detail---Donations" stroke="none" stroke-width="1" fill="none" fill-rule="evenodd" sketch:type="MSPage">
        <g id="Desktop-HD" sketch:type="MSArtboardGroup" transform="translate(-265.000000, -671.000000)" fill="#00C051">
            <g id="bottom" sketch:type="MSLayerGroup" transform="translate(0.000000, 623.000000)">
                <g id="wallposts" transform="translate(247.000000, 17.000000)" sketch:type="MSShapeGroup">
                    <g id="update-status" transform="translate(0.000000, 15.000000)">
                        <g id="header" transform="translate(18.000000, 17.000000)">
                            <path d="M19.6875,-1 C18.9616875,-1 18.375,-0.4133125 18.375,0.3125 L18.375,0.5631875 L1.036875,4.2801875 C0.4318125,4.4088125 0,4.943 0,5.5625 L0,10.8125 C0,11.432 0.4318125,11.9661875 1.036875,12.0948125 L3.9375,12.7169375 L3.9375,16.0625 C3.9375,16.5993125 4.2643125,17.081 4.7630625,17.2818125 L11.3255625,19.9068125 C11.48175,19.9698125 11.647125,20 11.8125,20 C12.0710625,20 12.3283125,19.9225625 12.5475,19.77425 C12.9084375,19.530125 13.125,19.12325 13.125,18.6875 L13.125,14.6856875 L18.375,15.8118125 L18.375,16.0625 C18.375,16.7883125 18.9616875,17.375 19.6875,17.375 C20.4133125,17.375 21,16.7883125 21,16.0625 L21,0.3125 C21,-0.4133125 20.4133125,-1 19.6875,-1 L19.6875,-1 Z M10.5,16.7489375 L6.5625,15.1739375 L6.5625,13.28 L10.5,14.1239375 L10.5,16.7489375 L10.5,16.7489375 Z M2.625,9.7506875 L2.625,6.6243125 L18.375,3.2485625 L18.375,13.1264375 L2.625,9.7506875 L2.625,9.7506875 Z" id="Imported-Layers-5"></path>
                        </g>
                    </g>
                </g>
            </g>
        </g>
    </g>
</svg>