<?xml version="1.0" encoding="UTF-8" standalone="no"?>
<svg width="12px" height="12px" viewBox="0 0 12 12" version="1.1" xmlns="http://www.w3.org/2000/svg" xmlns:xlink="http://www.w3.org/1999/xlink" xmlns:sketch="http://www.bohemiancoding.com/sketch/ns">
    <!-- Generator: Sketch Beta 3.2 (9885) - http://www.bohemiancoding.com/sketch -->
    <title>photo-icon</title>
    <desc>Created with Sketch Beta.</desc>
    <defs></defs>
    <g id="Campaign-Detail---Donations" stroke="none" stroke-width="1" fill="none" fill-rule="evenodd" sketch:type="MSPage">
        <g id="Desktop-HD" sketch:type="MSArtboardGroup" transform="translate(-542.000000, -676.000000)" fill="#9F9F9F">
            <g id="bottom" sketch:type="MSLayerGroup" transform="translate(0.000000, 623.000000)">
                <g id="wallposts" transform="translate(247.000000, 17.000000)" sketch:type="MSShapeGroup">
                    <g id="update-status" transform="translate(0.000000, 15.000000)">
                        <g id="add-media" transform="translate(295.000000, 13.000000)">
                            <g id="photo-icon" transform="translate(0.000000, 8.000000)">
                                <path d="M6.75,7.5 L4.01475,4.76475 C3.8685,4.6185 3.6315,4.6185 3.48525,4.76475 L2.51475,5.7345 C2.3685,5.8815 2.25,6.168 2.25,6.375 L2.25,9.375 C2.25,9.582 2.418,9.75 2.625,9.75 L9.375,9.75 C9.582,9.75 9.75,9.582 9.75,9.375 L9.75,7.875 C9.75,7.668 9.6315,7.3815 9.4845,7.2345 L8.51475,6.2655 C8.3685,6.1185 8.1315,6.1185 7.98525,6.2655 L6.75,7.5" id="Fill-1"></path>
                                <path d="M7.875,5.25 C8.496,5.25 9,4.746 9,4.125 C9,3.504 8.496,3 7.875,3 C7.254,3 6.75,3.504 6.75,4.125 C6.75,4.746 7.254,5.25 7.875,5.25" id="Fill-2"></path>
                                <path d="M11.25,0 L0.75,0 C0.33525,0 0,0.33525 0,0.75 L0,11.25 C0,11.66475 0.33525,12 0.75,12 L11.25,12 C11.66475,12 12,11.66475 12,11.25 L12,0.75 C12,0.33525 11.66475,0 11.25,0 L11.25,0 Z M1.5,1.5 L10.5,1.5 L10.5,10.5 L1.5,10.5 L1.5,1.5 Z" id="Fill-3"></path>
                            </g>
                        </g>
                    </g>
                </g>
            </g>
        </g>
    </g>
</svg>