<svg width="inherit" height="inherit"  viewBox="0 0 34 29" fill="inherit" xmlns="http://www.w3.org/2000/svg">
    <path
        d="M23.56 14.8C22.087 12.42 19.634 11 17 11c-2.634 0-5.087 1.42-6.56 3.8a1.141 1.141 0 0 0-.034.06l-2.64 4.987c-1.281 2.42-.919 5.377.903 7.36 1.593 1.735 3.894 2.253 6.01 1.357 1.632-.695 2.952-.72 4.642 0 2.098.893 4.406.388 6.01-1.357 1.821-1.983 2.183-4.94.902-7.36L23.56 14.8ZM12.093 9.998c2.28 0 4.05-2.38 3.902-5.207V4.79c-.146-2.752-2.019-4.893-4.257-4.783-2.202.116-3.877 2.45-3.733 5.203.141 2.682 1.958 4.788 4.088 4.788ZM7.948 11.545c-.67-2.177-2.64-3.898-4.669-3.272-1.876.578-2.764 2.92-2.022 5.33.723 2.351 2.74 3.86 4.669 3.273 1.876-.578 2.763-2.92 2.022-5.331ZM30.72 8.273c-2.022-.626-3.996 1.088-4.668 3.272-.742 2.412.146 4.753 2.022 5.331 1.873.576 3.926-.858 4.669-3.273.741-2.41-.147-4.752-2.023-5.33ZM21.728 9.993c2.4.12 4.129-2.222 4.265-4.776.163-2.972-1.666-5.098-3.722-5.21-2.383-.123-4.127 2.205-4.264 4.776-.163 2.972 1.666 5.098 3.721 5.21Z" />
</svg>
