<svg width="inherit" height="inherit"  viewBox="0 0 48 48" fill="inherit" xmlns="http://www.w3.org/2000/svg">
    <path
        d="M46.12 29.934a3.268 3.268 0 0 0-3.845-.608l-8.529 4.26a5.225 5.225 0 0 1-4.565 3.575l-11.1.793h-.073a1 1 0 1 1-.07-2l.071-.005 11.008-.573a3.222 3.222 0 0 0 0-6.427l-10.3-1.872a7.937 7.937 0 0 1-1.379-.38L11.8 24.621a8.02 8.02 0 0 0-3.693-.461l-6.207.69a1 1 0 0 0-.89.994v12.1a1 1 0 0 0 1 1h.838a8.02 8.02 0 0 1 4.031 1.09l7.469 4.366a7.994 7.994 0 0 0 5.678.918l14.259-3a7.99 7.99 0 0 0 3.155-1.43l8.276-6.213a3.192 3.192 0 0 0 .404-4.741ZM29 22a1 1 0 0 1-.713-.3l-8.4-8.538a6.615 6.615 0 0 1 0-9.241A6.394 6.394 0 0 1 29 3.9a6.401 6.401 0 0 1 9.115.026 6.618 6.618 0 0 1 0 9.241l-8.4 8.538A.998.998 0 0 1 29 22Z" />
</svg>
