<svg viewBox="0 0 40 40" fill="inherit" xmlns="http://www.w3.org/2000/svg">
    <path
        d="M31.0001 17H21.2571L23.9751 5.22503C24.0262 5.0052 24.0015 4.77453 23.9049 4.57053C23.8083 4.36654 23.6456 4.20121 23.4432 4.10143C23.2407 4.00166 23.0105 3.9733 22.7898 4.02098C22.5692 4.06865 22.3712 4.18956 22.2281 4.36403L8.22807 21.364C8.10746 21.5104 8.03095 21.688 8.00746 21.8761C7.98397 22.0643 8.01446 22.2553 8.09539 22.4268C8.17632 22.5983 8.30434 22.7432 8.46452 22.8447C8.6247 22.9462 8.81044 23.0001 9.00007 23H18.7431L16.0251 34.775C15.9739 34.9949 15.9986 35.2255 16.0952 35.4295C16.1918 35.6335 16.3545 35.7988 16.557 35.8986C16.7594 35.9984 16.9897 36.0267 17.2103 35.9791C17.4309 35.9314 17.6289 35.8105 17.7721 35.636L31.7721 18.636C31.8927 18.4897 31.9692 18.3121 31.9927 18.1239C32.0162 17.9357 31.9857 17.7448 31.9047 17.5733C31.8238 17.4018 31.6958 17.2568 31.5356 17.1553C31.3754 17.0538 31.1897 17 31.0001 17Z" />
</svg>