<svg width="inherit" height="inherit"  viewBox="0 0 32 31" fill="inherit" xmlns="http://www.w3.org/2000/svg">
    <path
        d="M6 9a3 3 0 1 0 0-6 3 3 0 0 0 0 6ZM7 25V15c0-1.479.464-2.85 1.25-3.982C8.167 11.013 8.084 11 8 11H4c-2.206 0-4 1.794-4 4v6h2v7h7v-3H7ZM26 9a3 3 0 1 0 0-6 3 3 0 0 0 0 6ZM25 25V15c0-1.479-.464-2.85-1.25-3.982.083-.005.166-.018.25-.018h4c2.206 0 4 1.794 4 4v6h-2v7h-7v-3h2ZM18 10h-4c-2.757 0-5 2.243-5 5v8h3v8h8v-8h3v-8c0-2.757-2.243-5-5-5ZM16 8a4 4 0 1 0 0-8 4 4 0 0 0 0 8Z" />
</svg>
