<svg width="inherit" height="inherit"  viewBox="12 7 24 34" fill="inherit" xmlns="http://www.w3.org/2000/svg">
    <path
        d="M29.526 22.367a30.052 30.052 0 0 0-1.53-5.084 10.884 10.884 0 0 1-.82-2.752v-3.266h-6.352v3.266a10.88 10.88 0 0 1-.82 2.752 30.06 30.06 0 0 0-1.53 5.084h11.052ZM29.114 31.783c.018-.966.096-1.93.236-2.884.07-.568.145-1.189.211-1.899H18.436c.071.71.142 1.331.212 1.9.14.954.218 1.917.236 2.883a10.772 10.772 0 0 1-.505 3.112 7.689 7.689 0 0 0-.377 2.082 3.066 3.066 0 0 0 .716 2.09 2.612 2.612 0 0 0 1.866.933h6.832a2.612 2.612 0 0 0 1.866-.934 3.066 3.066 0 0 0 .716-2.089 7.69 7.69 0 0 0-.38-2.082 10.775 10.775 0 0 1-.504-3.112ZM27.175 8h-6.35c-.39 0-.706.292-.706.653V9.96c0 .36.316.653.705.653h6.351c.39 0 .706-.292.706-.653V8.653c0-.36-.316-.653-.706-.653Z" />
</svg>
