<svg xmlns="http://www.w3.org/2000/svg" width="10" height="12"><path fill="#999" fill-rule="evenodd" d="M10,97.9395 L12,97.9395 L12,105.6395 L10,105.6395 L10,97.9395 Z M15,105.6395 L15,102.3395 C15,101.2395 15.625,100.1395 16.75,100.1395 C17.75,100.1395 18,101.3066 18,102.3395 L18,105.6395 L20,105.6395 L20,101.2109 C20,98.8459 18.795,97.7173 16.853,98.0077 C15.937,98.1452 15.305,98.8514 15,99.5895 L15,97.9395 L13.031,97.9395 C13.062,97.9395 13.016,105.6395 13.016,105.6395 L15,105.6395 Z M11,96.8395 C11.553,96.8395 12,96.3478 12,95.7395 C12,95.1312 11.553,94.6395 11,94.6395 C10.447,94.6395 10,95.1312 10,95.7395 C10,96.3478 10.447,96.8395 11,96.8395 Z" transform="translate(-1019.000000, -221.000000) translate(1009.000000, 127.000000)"/></svg>