<?xml version="1.0" encoding="UTF-8" standalone="no"?>
<svg width="21px" height="29px" viewBox="0 0 21 29" version="1.1" xmlns="http://www.w3.org/2000/svg" xmlns:xlink="http://www.w3.org/1999/xlink" xmlns:sketch="http://www.bohemiancoding.com/sketch/ns">
    <!-- Generator: Sketch Beta 3.1 (8715) - http://www.bohemiancoding.com/sketch -->
    <title>Imported Layers</title>
    <desc>Created with Sketch Beta.</desc>
    <defs></defs>
    <g id="Docdata-Payment" stroke="none" stroke-width="1" fill="none" fill-rule="evenodd" sketch:type="MSPage">
        <g id="Docdata-Payment-Screen" sketch:type="MSArtboardGroup" transform="translate(-876.000000, -432.000000)" fill="#D8D8D8">
            <g id="Content" sketch:type="MSLayerGroup" transform="translate(208.000000, 57.000000)">
                <g id="Secured" transform="translate(553.000000, 375.000000)" sketch:type="MSShapeGroup">
                    <path d="M125.5,0 C121.6395,0 118.5,3.251625 118.5,7.25 L118.5,9.0625 L115.8925,9.0625 C115.40775,9.0625 115,9.4685 115,9.96875 L115,27.1875 C115,28.1898125 115.79975,29 116.7675,29 L134.2675,29 C135.2335,29 136,28.1898125 136,27.1875 L136,9.96875 C136,9.4685 135.6255,9.0625 135.1425,9.0625 L132.5,9.0625 L132.5,7.25 C132.5,3.251625 129.3605,0 125.5,0 Z M122,9 L122,7.33333333 C122,5.495 123.56975,4 125.5,4 C127.4285,4 129,5.495 129,7.33333333 L129,9 L122,9 L122,9 Z" id="Imported-Layers"></path>
                </g>
            </g>
        </g>
    </g>
</svg>