<svg xmlns="http://www.w3.org/2000/svg" width="15" height="11"><path fill="#00C051" fill-rule="evenodd" d="M149.913824,7.81433333 L146.084412,3.33183333 C145.926471,3.1485 145.615882,3 145.389118,3 L137.305882,3 C136.849706,3 136,3.45558333 136,3.9625 L136,13.0375 C136,13.5444167 136.849706,14 137.305882,14 L145.389118,14 C145.615882,14 145.926471,13.8515 146.083529,13.6681667 L149.913824,9.17375 C150.229706,8.808 150.229706,8.181 149.913824,7.81433333 L149.913824,7.81433333 Z M143.941176,8.5 C143.941176,7.488 144.730882,6.66666667 145.705882,6.66666667 C146.680882,6.66666667 147.470588,7.488 147.470588,8.5 C147.470588,9.512 146.680882,10.3333333 145.705882,10.3333333 C144.730882,10.3333333 143.941176,9.512 143.941176,8.5 L143.941176,8.5 Z" transform="translate(-387.000000, -137.000000) translate(250.000000, 134.000000) translate(1.000000, 0.000000)"/></svg>