<svg xmlns="http://www.w3.org/2000/svg" width="12" height="15"><path fill="#00C051" fill-rule="evenodd" d="M5.63828571,2 C2.52385714,2 0,4.39911765 0,7.35852941 C0,11.1429412 4.05135714,14.9282353 5.28542857,15.9941176 C5.47764286,16.1591176 5.79892857,16.1591176 5.99114286,15.9941176 C7.22521429,14.9282353 11.2765714,11.1429412 11.2765714,7.35852941 C11.2765714,4.39911765 8.75178571,2 5.63828571,2 L5.63828571,2 Z M5.63828571,9.94117647 C4.10057143,9.94117647 2.85257143,8.75617647 2.85257143,7.29411765 C2.85257143,5.83294118 4.10057143,4.64705882 5.63828571,4.64705882 C7.176,4.64705882 8.424,5.83294118 8.424,7.29411765 C8.424,8.75617647 7.176,9.94117647 5.63828571,9.94117647 L5.63828571,9.94117647 Z" transform="translate(-251.000000, -136.000000) translate(250.000000, 134.000000) translate(1.000000, 0.000000)"/></svg>