<svg xmlns="http://www.w3.org/2000/svg" width="21" height="20"><path fill="#F8F7F8" fill-rule="evenodd" d="M10.7108871,3 C5.22821573,3 0.7875,7.42688172 0.7875,12.8924731 C0.7875,18.3580645 5.22821573,22.7849462 10.7108871,22.7849462 C16.1935585,22.7849462 20.6342742,18.3580645 20.6342742,12.8924731 C20.6342742,7.42688172 16.1935585,3 10.7108871,3 L10.7108871,3 Z M10.7108871,20.311828 C6.60508569,20.311828 3.26834677,16.9854839 3.26834677,12.8924731 C3.26834677,8.79946237 6.60508569,5.47311828 10.7108871,5.47311828 C14.8166885,5.47311828 18.1534274,8.79946237 18.1534274,12.8924731 C18.1534274,16.9854839 14.8166885,20.311828 10.7108871,20.311828 Z M13.1917339,12.8924731 L10.7108871,12.8924731 L10.7108871,10.4193548 C10.7108871,9.73553763 10.1564178,9.1827957 9.47046371,9.1827957 C8.78450958,9.1827957 8.23004032,9.73553763 8.23004032,10.4193548 L8.23004032,14.1290323 C8.23004032,14.8128495 8.78450958,15.3655914 9.47046371,15.3655914 L13.1917339,15.3655914 C13.877688,15.3655914 14.4321573,14.8128495 14.4321573,14.1290323 C14.4321573,13.4452151 13.877688,12.8924731 13.1917339,12.8924731 Z" transform="translate(-652.000000, -441.000000) translate(251.000000, 402.000000) translate(0.000000, 6.000000) translate(401.000000, 30.000000)"/></svg>