<svg xmlns="http://www.w3.org/2000/svg" width="21" height="21"><path fill="#999" fill-rule="evenodd" d="M17.3313125,11.9725 C18.39575,10.8056875 19.0625,9.2674375 19.0625,7.5625 C19.0625,3.937375 16.125125,1 12.5,1 C8.874875,1 5.9375,3.937375 5.9375,7.5625 C5.9375,9.2674375 6.60425,10.8056875 7.6686875,11.9725 C4.286375,12.9188125 2.3346875,15.3915625 2,19.375 L2,20.6875 C2,21.4133125 2.588,22 3.3125,22 L21.6875,22 C22.412,22 23,21.4133125 23,20.6875 L23,19.375 C22.6653125,15.3915625 20.713625,12.9188125 17.3313125,11.9725 L17.3313125,11.9725 Z M4.688,19.375 C5.0384375,15.902125 6.811625,14.93875 8.376125,14.500375 C9.252875,14.25625 9.9419375,13.5724375 10.192625,12.697 C10.444625,11.82025 10.2228125,10.8765625 9.6085625,10.2045625 C9.132125,9.680875 8.5625,8.7975625 8.5625,7.5625 C8.5625,5.391625 10.329125,3.625 12.5,3.625 C14.670875,3.625 16.4375,5.391625 16.4375,7.5625 C16.4375,8.7975625 15.867875,9.680875 15.3914375,10.2045625 C14.7771875,10.8765625 14.555375,11.82025 14.807375,12.697 C15.0580625,13.5724375 15.747125,14.25625 16.623875,14.500375 C18.188375,14.93875 19.9615625,15.902125 20.312,19.375 L4.688,19.375 L4.688,19.375 Z" transform="translate(-832.000000, -1255.000000) translate(0.000000, 608.000000) translate(830.000000, 46.000000) translate(0.000000, 600.000000)"/></svg>