<svg xmlns="http://www.w3.org/2000/svg" width="27" height="27"><path fill="#fff" fill-rule="evenodd" d="M0,23.7931689 L0,27.0493359 L3.25616698,27.0493359 L11.3965844,18.9089184 L8.14041746,15.6527514 L0,23.7931689 Z M25.5853321,4.72017078 C26.2202846,4.08359013 26.2202846,3.05464137 25.5853321,2.41806072 L24.6312751,1.4640038 C23.9946945,0.829051233 22.9657457,0.829051233 22.3291651,1.4640038 L19.5370019,4.25616698 L22.7931689,7.51233397 L25.5853321,4.72017078 Z M26.0493359,21.3510436 C26.0493359,22.2464896 25.3166983,22.9791271 24.4212524,22.9791271 C23.5258065,22.9791271 22.7931689,22.2464896 22.7931689,21.3510436 C22.7931689,19.9997343 21.7023529,18.9089184 20.3510436,18.9089184 C20.2045161,18.9089184 20.0579886,18.9251992 19.9130892,18.9577609 C19.8626186,18.9577609 19.8300569,18.9577609 19.7974953,18.9740417 C19.6672486,19.0066034 19.5532827,19.0391651 19.4376888,19.0880076 C19.3741935,19.1042884 19.325351,19.1368501 19.2602277,19.1856926 C18.7880835,19.3973435 18.3973435,19.7880835 18.1856926,20.2602277 C18.1384782,20.325351 18.1042884,20.3741935 18.0863795,20.4393169 C18.0391651,20.5532827 18.0082315,20.6672486 17.9740417,20.7974953 C17.9561328,20.8300569 17.9561328,20.8626186 17.9561328,20.9114611 C17.9251992,21.0579886 17.9089184,21.2045161 17.9089184,21.3510436 C17.9089184,22.7023529 18.9997343,23.7931689 20.3510436,23.7931689 C21.2464896,23.7931689 21.9791271,24.5258065 21.9791271,25.4212524 C21.9791271,26.3166983 21.2464896,27.0493359 20.3510436,27.0493359 C17.2088425,27.0493359 14.6527514,24.4932448 14.6527514,21.3510436 C14.6527514,21.0905503 14.6690323,20.8300569 14.7178748,20.5679355 C14.7504364,20.3090702 14.8644023,19.8043643 14.8644023,19.8043643 C14.9132448,19.641556 15.0125579,19.4950285 15.0760531,19.3322201 L7.71711575,11.9732827 C7.55593548,12.0384061 7.22706262,12.1686528 7.22706262,12.1686528 C6.98447818,12.2337761 6.74189374,12.2988994 6.48140038,12.3314611 C6.21927894,12.3803036 5.95878558,12.3965844 5.69829222,12.3965844 C2.55609108,12.3965844 0,9.84049336 0,6.69829222 C0,5.8028463 0.732637571,5.07020873 1.62808349,5.07020873 C2.52352941,5.07020873 3.25616698,5.8028463 3.25616698,6.69829222 C3.25616698,8.04960152 4.34698292,9.14041746 5.69829222,9.14041746 C7.04960152,9.14041746 8.14041746,8.04960152 8.14041746,6.69829222 C8.14041746,5.34698292 7.04960152,4.25616698 5.69829222,4.25616698 C4.8028463,4.25616698 4.07020873,3.52352941 4.07020873,2.62808349 C4.07020873,1.73263757 4.8028463,1 5.69829222,1 C8.84049336,1 11.3965844,3.55609108 11.3965844,6.69829222 C11.3965844,6.95878558 11.3803036,7.21927894 11.3314611,7.4797723 C11.2972713,7.74026565 11.2337761,7.98447818 11.1670247,8.2286907 C11.1670247,8.2286907 11.036778,8.5543074 10.9732827,8.71711575 L13.0246679,10.7685009 L17.9089184,5.88425047 L21.1650854,9.14041746 L16.2808349,14.0246679 L18.3322201,16.0760531 C18.4934004,16.0109298 18.8206452,15.8806831 18.8206452,15.8806831 C19.0648577,15.8155598 19.3074421,15.7504364 19.5695636,15.7178748 C19.8300569,15.6690323 20.0905503,15.6527514 20.3510436,15.6527514 C23.4932448,15.6527514 26.0493359,18.2088425 26.0493359,21.3510436 Z" transform="translate(-1143.000000, -719.000000) translate(0.000000, 606.000000) translate(829.000000, 97.000000) translate(1.000000, 0.000000) translate(313.000000, 15.000000)"/></svg>