<svg xmlns="http://www.w3.org/2000/svg" width="14" height="14"><path fill="#9F9F9F" fill-rule="evenodd" d="M13.125,6.125 L12.17125,6.125 C12.04,5.32875 11.73375,4.59375 11.27875,3.962875 L11.94375,3.29 C12.285,2.94875 12.285,2.389625 11.94375,2.0475 C11.6025,1.70625 11.05125,1.70625 10.71,2.0475 L10.03625,2.720375 C9.40625,2.26625 8.75,1.96 7.875,1.82875 L7.875,0.875 C7.875,0.39375 7.48125,0 7,0 C6.51875,0 6.125,0.39375 6.125,0.875 L6.125,1.82875 C5.25,1.96 4.59375,2.26625 3.96375,2.720375 L3.29,2.0475 C2.949625,1.70625 2.38875,1.70625 2.0475,2.0475 C1.70625,2.389625 1.70625,2.94875 2.0475,3.29 L2.72125,3.962875 C2.26625,4.59375 1.96,5.32875 1.82875,6.125 L0.875,6.125 C0.39375,6.125 0,6.545875 0,7.025375 C0,7.5075 0.39375,7.875 0.98,7.875 L1.82875,7.875 C1.96,8.67125 2.26625,9.40625 2.72125,10.037125 L2.0475,10.71 C1.70625,11.05125 1.70625,11.610375 2.0475,11.9525 C2.38875,12.29375 2.94,12.29375 3.28125,11.9525 L3.96375,11.279625 C4.59375,11.73375 5.25,12.04 6.125,12.17125 L6.125,13.125 C6.125,13.60625 6.51875,14 7,14 C7.48125,14 7.875,13.60625 7.875,13.125 L7.875,12.17125 C8.75,12.04 9.40625,11.73375 10.03625,11.279625 L10.71,11.9525 C11.052125,12.29375 11.6025,12.29375 11.94375,11.9525 C12.285,11.610375 12.285,11.05125 11.94375,10.71 L11.27875,10.045 C11.725,9.415 12.04,8.68 12.17125,7.875 L13.125,7.875 C13.60625,7.875 14,7.48125 14,7 C14,6.51875 13.60625,6.125 13.125,6.125 L13.125,6.125 Z M7,9.625 C5.5475,9.625 4.375,8.44375 4.375,7 C4.375,5.55625 5.5475,4.375 7,4.375 C8.44375,4.375 9.625,5.55625 9.625,7 C9.625,8.44375 8.44375,9.625 7,9.625 L7,9.625 Z" transform="translate(-1177.000000, -691.000000) translate(0.000000, 528.000000) translate(831.000000, 47.000000) translate(0.000000, 56.000000) translate(280.000000, 0.000000) translate(66.000000, 60.000000)"/></svg>