<svg width="43" height="28" viewBox="0 0 43 28" xmlns="http://www.w3.org/2000/svg" xmlns:sketch="http://www.bohemiancoding.com/sketch/ns"><title>creditcard-american</title><desc>Created with Sketch.</desc><g sketch:type="MSShapeGroup" fill="none"><path d="M41.966 25.062c0 .769-.624 1.392-1.393 1.392h-38.983c-.769 0-1.392-.623-1.392-1.392v-23.321c0-.769.623-1.392 1.392-1.392h38.983c.769 0 1.393.623 1.393 1.392v23.321" fill="#006E95"/><path d="M13.157 12.794v-.418l-.199.418h-1.73l-.217-.448v.448h-3.232l-.382-.904h-.648l-.405.904h-1.676v-2.729l1.229-2.78h2.352l.33.788v-.782h2.877l.633 1.326.619-1.332h9.082s.476-.007.79.214l-.002-.214h2.288v.301s.412-.301 1.02-.301h4.038l.354.799v-.799h2.587l.47.799v-.799h2.473v5.514h-2.541l-.597-.961v.956h-3.158l-.444-.985h-.619l-.416.985h-1.911s-.713-.009-1.247-.392v.392h-3.805v-1.286c0-.187-.143-.174-.143-.174h-.139v1.46h-7.629" fill="#fff"/><path d="M11.258 13.988h5l.722.817.738-.817h3.844s.361.009.704.192v-.192h3.423c.435 0 .799.217.799.217v-.217h4.401v.2s.314-.2.735-.2h2.867v.2s.361-.2.743-.2h2.251v5.196s-.296.335-.908.335h-2.968v-.165s-.282.165-.713.165h-7.883v-1.343c0-.132-.057-.156-.175-.156h-.109v1.499h-2.463v-1.49s-.273.147-.73.147h-.886v1.343h-3.037l-.691-.843-.739.843h-4.927v-5.531" fill="#fff"/><path d="M27.017 14.818h3.138v.841h-2.177v.734h2.117v.742h-2.117v.772h2.177v.82h-3.138v-3.909" fill="#006E95"/><path d="M36.218 16.341c1.179.061 1.278.65 1.278 1.278 0 .732-.602 1.126-1.23 1.126h-2.016v-.838h1.571c.267 0 .663 0 .663-.375 0-.178-.07-.292-.353-.322-.126-.018-.593-.044-.664-.046-1.065-.028-1.314-.558-1.314-1.203 0-.733.515-1.134 1.144-1.134h2.015v.838h-1.475c-.336.003-.698-.04-.698.34 0 .24.179.288.406.31l.672.027" fill="#006E95"/><path d="M32.604 16.341c1.18.061 1.279.65 1.279 1.278 0 .732-.602 1.126-1.231 1.126h-2.015v-.838h1.57c.266 0 .664 0 .664-.375 0-.178-.07-.292-.354-.322-.126-.018-.593-.044-.663-.046-1.067-.028-1.313-.558-1.313-1.203 0-.733.514-1.134 1.143-1.134h2.016v.838h-1.474c-.336.003-.699-.04-.699.34 0 .24.18.288.407.31l.671.027" fill="#006E95"/><path d="M21.223 14.826h-3.368l-1.1 1.213-1.064-1.221h-3.783v3.909h3.661l1.152-1.292 1.125 1.301h1.842v-1.328h1.291c.497 0 1.405-.017 1.405-1.387 0-.977-.689-1.195-1.161-1.195zm-6.156 3.08h-2.213v-.772h2.117v-.742h-2.117v-.734l2.334.005.935 1.064-1.056 1.178zm3.669.454l-1.379-1.632 1.379-1.527v3.159zm2.164-1.757h-1.195v-.938h1.199c.402 0 .529.257.529.45 0 .262-.14.489-.533.489z" fill="#006E95"/><path d="M25.86 16.955c.524-.261.663-.611.663-1.082 0-.837-.68-1.047-1.152-1.047h-2.495v3.91h.96v-1.38h1.256c.332 0 .463.332.471.663l.025.716h.935l-.035-.804c0-.629-.174-.925-.628-.977zm-.828-.405h-1.195v-.886h1.199c.401 0 .528.257.528.45 0 .261-.139.436-.532.436z" fill="#006E95"/><path d="M23.26 8.068h.96v3.914h-.96v-3.914z" fill="#006E95"/><path d="M15.403 8.073h3.137v.842h-2.177v.734h2.116v.741h-2.116v.772h2.177v.821h-3.137v-3.909" fill="#006E95"/><path d="M22.094 10.202c.524-.261.663-.611.663-1.082 0-.838-.681-1.047-1.152-1.047h-2.496v3.909h.96v-1.379h1.257c.332 0 .463.331.472.663l.026.716h.934l-.034-.803c0-.628-.175-.925-.629-.977zm-.829-.405h-1.195v-.886h1.2c.401 0 .528.257.528.449 0 .262-.14.437-.533.437z" fill="#006E95"/><path d="M13.189 8.073l-1.178 2.622-1.174-2.622h-1.505v3.765l-1.675-3.765h-1.27l-1.71 3.909h1.013l.375-.873h1.916l.38.873h1.932v-2.902l1.283 2.902h.873l1.313-2.854v2.854h.96v-3.909h-1.532zm-6.763 2.193l.572-1.366.596 1.366h-1.169z" fill="#006E95"/><path d="M34.125 8.071v2.707l-1.619-2.707h-1.419v3.672l-1.635-3.67h-1.27l-1.322 3.028s-.559 0-.615-.014c-.231-.048-.592-.211-.597-.9v-.284c0-.916.497-.983 1.136-.983h.593v-.849h-1.253c-.437 0-1.386.333-1.418 1.939-.022 1.082.45 1.974 1.514 1.974h1.266l.375-.873h1.915l.38.873h1.894v-2.863l1.727 2.863h1.309v-3.913h-.96zm-5.896 2.197l.572-1.367.602 1.367h-1.174z" fill="#006E95"/></g></svg>