<svg width="44" height="27" viewBox="0 0 44 27" xmlns="http://www.w3.org/2000/svg" xmlns:sketch="http://www.bohemiancoding.com/sketch/ns"><title>creditcard-diners</title><desc>Created with Sketch.</desc><g sketch:type="MSShapeGroup" fill="none"><path d="M43.244 25.025c0 .775-.632 1.403-1.41 1.403h-39.471c-.779 0-1.409-.628-1.409-1.403v-23.498c0-.775.631-1.403 1.409-1.403h39.471c.779 0 1.41.628 1.41 1.403v23.498" fill="#074D95"/><path d="M23.11 14.472c2.39.011 4.571-1.939 4.571-4.312 0-2.595-2.181-4.388-4.571-4.387h-2.057c-2.417-.001-4.408 1.793-4.408 4.387 0 2.374 1.991 4.324 4.408 4.312h2.057" fill="#fff"/><path d="M21.971 12.47v-4.712c.952.363 1.627 1.28 1.628 2.356-.001 1.075-.677 1.992-1.628 2.356m-3.444-2.356c.002-1.075.677-1.992 1.628-2.356v4.711c-.951-.364-1.626-1.28-1.628-2.355m2.536-3.983c-2.209.001-4 1.783-4.001 3.983.001 2.199 1.792 3.981 4.001 3.982 2.211-.001 4.001-1.783 4.002-3.982-.001-2.2-1.791-3.982-4.002-3.983" fill="#074D95"/><path d="M12.175 17.44c0 .354.255.396.48.396.998 0 1.327-.75 1.327-1.435 0-.86-.555-1.481-1.447-1.481l-.361.018v2.502zm-.452-2.157c0-.414-.217-.386-.425-.391v-.12l.546.009.799-.009c1.197 0 1.849.795 1.849 1.61 0 .455-.268 1.6-1.904 1.6l-.67-.009-.62.009v-.119c.277-.028.412-.037.425-.35v-2.231z" fill="#fff"/><path d="M15.147 15.173c-.12 0-.227-.111-.227-.23 0-.116.111-.221.227-.221.12 0 .226.097.226.221s-.101.23-.226.23m-.495 2.691h.088c.13 0 .222 0 .222-.152v-1.247c0-.202-.069-.23-.24-.322v-.073c.217-.065.476-.152.495-.165l.083-.023.032.064v1.766c0 .152.101.152.231.152h.079v.119l-.486-.009-.504.009v-.119" fill="#fff"/><path d="M16.08 16.493c0-.17-.052-.215-.267-.303v-.088c.198-.064.388-.124.609-.221l.028.046v.299c.264-.188.491-.345.801-.345.392 0 .531.285.531.644v1.186c0 .152.102.152.231.152h.084v.119l-.49-.009-.499.009v-.119h.082c.129 0 .222 0 .222-.152v-1.191c0-.262-.161-.391-.425-.391-.147 0-.383.12-.537.221v1.361c0 .152.103.152.232.152h.083v.119l-.49-.009-.499.009v-.119h.084c.129 0 .222 0 .222-.152v-1.219" fill="#fff"/><path d="M19.265 16.567c.116 0 .129-.06.129-.115 0-.235-.143-.423-.402-.423-.282 0-.476.207-.531.538h.804zm-.818.147v.266c.028.437.31.796.679.796.255 0 .454-.138.624-.308l.065.064c-.213.281-.476.519-.855.519-.735 0-.883-.708-.883-1.002 0-.902.61-1.168.934-1.168.375 0 .777.235.781.722l-.004.083-.042.028h-1.299z" fill="#fff"/><path d="M19.898 17.864h.124c.129 0 .222 0 .222-.152v-1.292c0-.142-.171-.17-.24-.207v-.069l.564-.262.041.06v.414h.01c.115-.18.309-.474.591-.474.116 0 .264.078.264.244 0 .124-.088.235-.217.235l-.305-.11c-.079 0-.336.106-.336.382v1.08c0 .152.092.152.222.152h.258v.119l-.647-.009-.55.009v-.119" fill="#fff"/><path d="M21.677 17.344c.06.304.245.561.582.561.272 0 .374-.166.374-.327 0-.543-1.007-.368-1.007-1.109 0-.258.207-.589.716-.589.147 0 .346.041.527.133l.032.469h-.107c-.046-.289-.208-.455-.504-.455-.185 0-.36.106-.36.304 0 .538 1.072.372 1.072 1.094 0 .304-.245.625-.795.625-.185 0-.402-.064-.564-.156l-.051-.529.083-.023" fill="#fff"/><path d="M27.178 15.605h-.116c-.088-.538-.472-.754-.989-.754-.531 0-1.304.354-1.304 1.458 0 .929.667 1.596 1.378 1.596.458 0 .837-.312.93-.796l.106.028-.106.671c-.195.12-.717.244-1.022.244-1.081 0-1.765-.694-1.765-1.729 0-.943.846-1.619 1.751-1.619.374 0 .735.12 1.091.244l.046.657" fill="#fff"/><path d="M27.344 17.864h.088c.129 0 .222 0 .222-.152v-2.561c0-.299-.069-.308-.246-.359v-.073c.186-.06.38-.142.477-.198l.101-.05.037.064v3.178c0 .152.102.152.232.152h.078v.119l-.485-.009-.504.009v-.119" fill="#fff"/><path d="M30.311 17.73c0 .083.051.088.129.088l.185-.004v.097c-.199.018-.578.115-.666.142l-.023-.013v-.372c-.277.225-.49.386-.818.386-.25 0-.508-.16-.508-.547v-1.178c0-.119-.018-.235-.277-.257v-.088l.596-.032c.051 0 .051.032.051.133v1.187c0 .138 0 .533.402.533.157 0 .365-.119.559-.28v-1.238c0-.092-.222-.142-.388-.188v-.083c.416-.027.675-.064.721-.064l.038.083v1.696" fill="#fff"/><path d="M31.231 17.463c0 .175.167.47.476.47.495 0 .702-.484.702-.893 0-.496-.379-.91-.739-.91-.171 0-.314.111-.439.217v1.117zm0-1.251c.185-.156.435-.331.689-.331.536 0 .859.465.859.966 0 .603-.444 1.205-1.104 1.205-.343 0-.522-.11-.643-.16l-.138.106-.097-.051c.041-.271.064-.538.064-.819v-1.978c0-.299-.07-.308-.245-.359v-.073c.185-.06.379-.142.476-.198l.102-.05.036.064v1.678z" fill="#fff"/><path d="M11.291 20.658h.036c.09 0 .186-.013.186-.143v-1.311c0-.131-.095-.143-.186-.143h-.036v-.075l.373.01.394-.01v.075h-.035c-.09 0-.186.012-.186.143v1.311c0 .131.096.143.186.143h.035v.075l-.397-.01-.37.01v-.075" fill="#fff"/><path d="M12.048 20.722v-.053h-.025c-.089 0-.197-.015-.198-.154v-1.311c.001-.139.108-.154.198-.154h.025v-.053l-.384.01-.361-.01v.053h.024c.09 0 .197.015.197.154v1.311c0 .139-.107.154-.197.154h-.024v.053l.359-.01.387.01m.01.021l-.397-.009-.37.009h-.01v-.097h.046c.092-.002.175-.009.175-.132v-1.311c-.001-.123-.083-.131-.175-.132h-.046v-.097h.01l.373.01.394-.01h.011v.097h-.046c-.091.002-.175.009-.175.132v1.311c0 .123.084.13.175.132h.046v.097h-.011" fill="#fff"/><path d="M13.787 20.24l.005-.005v-.938c0-.205-.143-.235-.219-.235h-.055v-.075l.352.01.309-.01v.075h-.037c-.106 0-.224.02-.224.318v1.139l.015.253h-.096l-1.295-1.436v1.031c0 .218.042.293.236.293h.043v.075l-.325-.01-.342.01v-.075h.036c.173 0 .226-.118.226-.318v-1.054c0-.14-.116-.225-.228-.225h-.033v-.075l.289.01.225-.01 1.119 1.254" fill="#fff"/><path d="M13.781 20.234v-.001l-.003-.002.003.003zm.005.005l.008-.007-.008.007zm.05.519h.084l-.014-.242v-1.139c0-.3.126-.328.235-.328h.027v-.053l-.298.01-.341-.01v.053h.044c.077 0 .23.034.23.247l-.003.946-.005.005-.008.008-1.118-1.259-.225.01-.277-.01-.001.053h.023c.118 0 .24.09.24.236v1.054c0 .2-.056.328-.237.329l-.025-.001v.054l.331-.01.313.01v-.053h-.031c-.198-.001-.247-.086-.247-.304v-1.059l1.306 1.454zm.096.022l-.104-.004-1.277-1.416v1.003c.003.218.036.28.226.282h.054v.097h-.011l-.325-.009-.342.009h-.011v-.097h.047c.166-.001.213-.107.216-.306v-1.054c-.001-.133-.111-.214-.218-.214h-.044v-.096h.011l.289.009.233-.006 1.106 1.238v-.92c-.002-.199-.136-.223-.209-.225h-.066v-.096h.011l.352.009.309-.009h.011v.096h-.049c-.104.003-.21.012-.213.307v1.139l.014.25.003.013h-.012z" fill="#fff"/><path d="M14.556 19.111c-.189 0-.197.045-.234.227h-.076l.031-.213.014-.212h.06c.02.075.083.072.151.072h1.297c.068 0 .131-.002.136-.078l.061.01-.028.202-.005.203-.076.028c-.005-.093-.018-.241-.186-.241h-.412v1.332c0 .193.088.215.209.215h.048v.075l-.41-.01-.425.01v-.075h.048c.139 0 .209-.013.209-.21v-1.336h-.412" fill="#fff"/><path d="M15.547 20.743l-.41-.009-.425.009h-.011v-.097h.059c.139-.003.194-.005.198-.199v-1.326h-.401v-.022h.423v1.348c0 .201-.081.221-.219.221h-.037v.053l.414-.01.399.01v-.053h-.037c-.122 0-.219-.03-.219-.226v-1.343h.423c.168.001.19.144.196.236l.055-.02.005-.197.026-.192-.038-.006c-.012.072-.082.076-.146.075h-1.31c-.059 0-.124-.002-.146-.072h-.041l-.015.203-.028.201h.053c.034-.174.055-.231.243-.228v.022c-.186.004-.182.034-.224.219l-.001.009h-.097l.002-.013.03-.213.015-.211v-.011h.08l.001.007c.017.063.064.064.128.065h1.31c.07-.001.121-.002.126-.067l.001-.012.012.002.071.011-.002.011-.028.202-.005.202v.008l-.007.003-.089.032-.001-.014c-.007-.094-.017-.23-.175-.23h-.402v1.321c.002.189.077.201.198.204h.059v.097h-.01" fill="#fff"/><path d="M16.076 20.658h.036c.09 0 .186-.013.186-.143v-1.311c0-.131-.095-.143-.186-.143h-.036v-.075l.626.01.644-.01.005.383-.076.02c-.012-.163-.042-.292-.307-.292h-.349v.655h.299c.151 0 .184-.085.199-.22h.075l-.007.293.007.286-.075.014c-.015-.15-.023-.247-.197-.247h-.301v.582c0 .163.146.163.306.163.302 0 .435-.02.51-.305l.071.017-.086.399-.676-.01-.67.01v-.075" fill="#fff"/><path d="M17.412 20.722l.082-.379-.049-.012c-.076.28-.222.305-.518.303-.158 0-.317 0-.318-.174v-.593h.312c.176-.002.194.103.206.246l.055-.011-.007-.276.007-.282h-.055c-.014.131-.055.222-.208.22h-.31v-.677h.36c.262-.002.305.133.317.29l.054-.014-.007-.245.002-.119-.632.01-.615-.01v.053h.025c.089 0 .196.015.197.154v1.311c-.001.139-.108.154-.197.154h-.025v.053l.658-.01.667.01m.01.021l-.676-.01-.67.01h-.01v-.097h.046c.091-.001.174-.009.175-.132v-1.311c-.001-.122-.084-.13-.175-.132h-.046v-.096h.01l.626.009.644-.009h.011v.011l-.003.129.008.252v.009l-.008.002-.088.023-.001-.013c-.014-.162-.036-.28-.296-.283h-.339v.633h.289c.145-.001.171-.075.188-.21l.001-.01h.096l-.001.011-.007.293.007.285.001.009-.009.002-.087.018-.001-.012c-.017-.153-.019-.236-.186-.238h-.291v.572c.001.152.133.151.297.152.302-.002.424-.016.5-.298l.003-.01.01.002.081.02-.003.011-.085.398-.002.008h-.009" fill="#fff"/><path d="M18.168 19.831h.124c.252 0 .387-.094.387-.39 0-.222-.142-.365-.367-.365l-.144.01v.745zm-.321-.58c0-.182-.101-.19-.179-.19h-.045v-.075l.39.01.404-.01c.317 0 .599.085.599.441 0 .225-.152.363-.35.441l.43.641c.07.106.12.135.244.15v.075l-.247-.01-.236.01c-.194-.253-.36-.523-.523-.811h-.167v.536c0 .193.091.2.206.2h.046v.075l-.432-.01-.365.01v-.075h.045c.094 0 .179-.043.179-.135v-1.272z" fill="#fff"/><path d="M18.292 19.821c.249-.002.374-.088.377-.379-.002-.218-.138-.354-.357-.355l-.133.009v.725h.113zm-.124.021h-.01v-.766l.01-.001.144-.01c.229 0 .378.148.379.376-.001.299-.146.401-.399.401h-.124zm0 .068h.173l.003.006c.164.288.329.558.514.806l.236-.01.236.01v-.055c-.118-.014-.174-.05-.242-.154l-.437-.651.012-.005c.197-.077.343-.211.343-.43 0-.347-.272-.428-.588-.43l-.404.01-.379-.01v.053h.034c.079 0 .189.013.189.201v1.272c0 .1-.094.146-.189.146h-.034v.053l.354-.01.421.01v-.053h-.034c-.115 0-.216-.014-.216-.212v-.547h.01zm1.173.832l-.248-.009-.244.006c-.193-.252-.358-.521-.521-.807h-.149v.524c.003.188.079.187.195.189h.057v.097h-.011l-.433-.009-.364.009h-.011v-.097h.056c.091-.001.167-.039.168-.124v-1.272c-.002-.177-.089-.176-.168-.179h-.056v-.097h.011l.39.01.404-.01c.318.001.609.088.61.452 0 .225-.15.367-.344.446l.422.629c.07.104.115.13.237.145l.009.002v.095h-.01z" fill="#fff"/><path d="M21.048 20.24l.005-.005v-.938c0-.205-.144-.235-.219-.235h-.055v-.075l.352.01.31-.01v.075h-.037c-.106 0-.224.02-.224.318v1.139l.014.253h-.096l-1.294-1.436v1.031c0 .218.042.293.236.293h.043v.075l-.325-.01-.342.01v-.075h.034c.174 0 .227-.118.227-.318v-1.054c0-.14-.116-.225-.229-.225h-.032v-.075l.289.01.224-.01 1.119 1.254" fill="#fff"/><path d="M21.041 20.234l-.002-.002.002.002zm.007.005l.008-.007-.008.007zm.05.519h.083l-.014-.242v-1.139c.001-.3.128-.328.236-.328h.026v-.053l-.298.01-.341-.01v.053h.044c.078.001.23.034.23.246l-.004.946-.004.005-.008.008-1.119-1.259-.224.01-.279-.01v.053h.023c.118.001.24.09.24.236v1.054c0 .201-.057.329-.238.329h-.025v.053l.331-.01.315.01v-.053h-.032c-.198 0-.248-.086-.248-.304v-1.059l1.307 1.454zm.096.022l-.104-.004-1.276-1.416v1.003c.003.218.035.28.226.282h.053v.097h-.011l-.325-.01-.341.01h-.012v-.097h.046c.166-.001.214-.107.216-.307v-1.054c-.001-.133-.111-.214-.218-.214h-.044v-.097h.012l.289.01.232-.006 1.105 1.239v-.921c0-.199-.134-.223-.207-.224h-.066v-.097h.011l.352.01.309-.01h.012v.097h-.049c-.104.003-.211.012-.213.307v1.139l.014.251.001.012h-.012z" fill="#fff"/><path d="M22.212 19.266h-.005l-.234.709h.47l-.231-.709zm-.368 1.109l-.056.195c0 .075.106.088.189.088h.028v.075l-.306-.01-.27.01v-.075h.015c.097 0 .181-.058.218-.163l.403-1.149.094-.311.229-.107.02-.005.018.008.023.062.462 1.309.093.256c.03.07.083.1.167.1h.014v.075l-.347-.01-.378.01v-.075h.028c.057 0 .156-.01.156-.072l-.051-.181-.098-.29h-.57l-.081.26z" fill="#fff"/><path d="M22.201 19.269l.006-.002-.006.002zm-.213.694h.441l-.219-.67-.222.67zm-.03.022l.241-.73h.014v.011l-.003.001.003-.001v-.011h.007l.239.73h-.501zm.515.736l.366-.009.336.009v-.052h-.004c-.086.001-.146-.033-.176-.107l-.094-.256-.463-1.309-.021-.06-.004-.002h-.005l-.014.003-.224.1-.093.312-.403 1.149c-.039.109-.126.17-.228.17h-.005v.052l.261-.009.293.009v-.052h-.016c-.082-.001-.196-.01-.2-.098l.055-.199.011.003-.011-.003.083-.268h.587l.101.298.052.184c-.004.077-.11.082-.167.083h-.017v.052zm.712.022l-.346-.01-.377.01-.011.001v-.098h.038c.058 0 .144-.013.145-.06l-.05-.177-.095-.284h-.555l-.078.253-.056.192c.001.061.095.075.179.075h.039v.098l-.012-.001-.304-.01-.27.01-.012.001v-.098h.026c.093 0 .171-.053.207-.154l.403-1.149.1-.317.228-.107.024-.006.028.015.023.063.463 1.309.093.254c.028.067.075.093.156.093h.026v.098l-.012-.001z" fill="#fff"/><path d="M23.295 19.111c-.188 0-.196.045-.234.227h-.076l.031-.213.014-.212h.061c.021.075.084.072.151.072h1.298c.068 0 .13-.002.135-.078l.06.01-.027.202-.005.203-.076.028c-.005-.093-.017-.241-.186-.241h-.413v1.332c0 .193.088.215.209.215h.048v.075l-.41-.01-.425.01v-.075h.048c.139 0 .209-.013.209-.21v-1.336h-.412" fill="#fff"/><path d="M24.286 20.743l-.41-.009-.425.009h-.011v-.097h.059c.139-.003.194-.005.198-.199l-.001-1.326h-.401v-.022h.423v1.348c0 .201-.082.221-.22.221h-.037v.053l.414-.01.399.01v-.053h-.037c-.121 0-.219-.029-.219-.226v-1.343h.423c.169.001.19.144.196.236l.055-.02.005-.196.025-.192-.037-.006c-.012.072-.082.076-.145.075h-1.311c-.059.001-.123-.002-.146-.073h-.041l-.014.203-.029.201h.054c.033-.174.055-.231.243-.228v.022c-.186.003-.182.034-.223.219l-.001.009h-.097l.002-.012.03-.213.015-.211v-.011h.08l.002.007c.019.063.064.064.128.065l.013.001h1.298c.069-.002.121-.003.125-.068v-.012l.011.002.072.011-.002.011-.028.202-.005.202v.008l-.007.003-.089.032v-.014c-.007-.094-.016-.23-.175-.23h-.402v1.321c.003.189.078.201.198.204h.059v.097h-.011" fill="#fff"/><path d="M24.829 20.658h.035c.09 0 .186-.013.186-.143v-1.311c0-.131-.095-.143-.186-.143h-.035v-.075l.372.01.395-.01v.075h-.035c-.092 0-.187.012-.187.143v1.311c0 .131.095.143.187.143h.035v.075l-.397-.01-.37.01v-.075" fill="#fff"/><path d="M25.585 20.722v-.053h-.024c-.091 0-.198-.015-.198-.154v-1.311c0-.139.107-.154.198-.154h.024v-.053l-.384.01-.361-.01v.053h.025c.089 0 .197.015.197.154v1.311c0 .139-.108.154-.197.154h-.025v.053l.359-.01.386.01m.011.021l-.397-.01-.37.01h-.011v-.097h.047c.09-.001.174-.009.175-.132v-1.311c-.001-.122-.084-.131-.175-.132h-.047v-.096h.011l.372.009.395-.009h.01v.096h-.045c-.093.002-.175.01-.176.132v1.311c.001.123.083.131.176.132h.045v.097h-.01" fill="#fff"/><path d="M26.637 20.66c.488 0 .573-.428.573-.793 0-.366-.198-.808-.616-.808-.44 0-.571.39-.571.725 0 .448.206.876.614.876m-.038-1.712c.536 0 .963.331.963.864 0 .576-.414.958-.949.958-.533 0-.941-.36-.941-.898 0-.52.405-.924.928-.924" fill="#fff"/><path d="M26.013 19.784c0-.337.132-.736.582-.736.427.001.626.452.627.819-.001.365-.087.803-.584.803v-.021c.478-.001.561-.417.562-.782 0-.363-.197-.797-.605-.798-.432.001-.559.382-.56.715.001.446.205.865.603.866v.021c-.417-.001-.624-.436-.625-.886m-.352.088c.001-.527.41-.933.939-.935v.022c-.517 0-.917.397-.917.913.001.532.402.887.93.887.531 0 .94-.378.94-.948 0-.526-.421-.852-.953-.852v-.022c.54.001.973.335.974.874-.001.582-.421.969-.962.97-.538-.001-.951-.365-.951-.909" fill="#fff"/><path d="M29.258 20.24l.005-.005v-.938c0-.205-.144-.235-.22-.235h-.054v-.075l.351.01.31-.01v.075h-.038c-.106 0-.224.02-.224.318v1.139l.015.253h-.095l-1.295-1.436v1.031c0 .218.042.293.236.293h.043v.075l-.324-.01-.343.01v-.075h.036c.174 0 .226-.118.226-.318v-1.054c0-.14-.115-.225-.229-.225h-.033v-.075l.29.01.224-.01 1.12 1.254" fill="#fff"/><path d="M29.251 20.234l-.001-.002.001.002zm.007.005l.007-.007-.007.007zm.05.519h.082l-.012-.242v-1.139c0-.301.127-.328.234-.328h.027v-.053l-.299.01-.34-.01v.053h.043c.078.001.23.035.23.247l-.002.946-.005.005-.007.008-1.12-1.259-.224.01-.278-.01v.053h.022c.119.001.24.09.24.236v1.054c0 .2-.056.328-.236.329h-.025v.053l.331-.01.314.01v-.053h-.033c-.197 0-.247-.086-.247-.304v-1.059l1.307 1.454zm.095.022l-.104-.004-1.276-1.416v1.003c.003.218.037.28.225.281h.054v.097h-.011l-.325-.009-.342.009h-.01v-.097h.047c.166 0 .213-.106.215-.306v-1.054c0-.133-.11-.214-.218-.214h-.043v-.096h.01l.29.009.232-.006 1.105 1.238v-.92c-.001-.199-.134-.223-.208-.225h-.066v-.096h.011l.351.009.311-.009h.01v.096h-.049c-.103.003-.211.012-.213.307v1.139l.015.251.002.012h-.012z" fill="#fff"/><path d="M30.422 19.266h-.006l-.234.709h.471l-.231-.709zm-.368 1.109l-.055.195c0 .075.106.088.189.088h.028v.075l-.305-.01-.271.01v-.075h.014c.099 0 .182-.058.219-.163l.403-1.149.092-.311.23-.107.02-.005.017.008.023.062.462 1.309.093.256c.03.07.083.1.166.1h.015v.075l-.348-.01-.377.01v-.075h.028c.058 0 .156-.01.156-.072l-.051-.181-.098-.29h-.571l-.08.26z" fill="#fff"/><path d="M30.411 19.269l.005-.002-.005.002zm-.214.694h.44l-.219-.67-.221.67zm-.03.022l.241-.73h.014v.011l-.003.001.003-.001v-.011h.007l.238.73h-.5zm.513.737l.366-.01.336.009-.001-.052h-.004c-.085 0-.144-.033-.175-.107l-.093-.256-.463-1.309-.021-.059-.004-.003h-.005l-.014.003-.224.1-.094.312-.403 1.149c-.038.109-.126.17-.229.17h-.003v.052l.26-.009.294.009v-.052h-.017c-.082-.001-.196-.01-.199-.099l.056-.198.01.003-.01-.003.084-.268h.586l.1.298.051.184c-.004.077-.109.082-.167.083h-.017v.053zm.713.021l-.347-.009-.376.009-.011.001v-.098h.038c.059 0 .145-.013.145-.061l-.05-.177-.095-.284h-.555l-.077.253-.055.192c0 .062.094.077.177.077h.039v.098l-.011-.001-.304-.009-.271.009-.011.001v-.098h.025c.094-.001.173-.054.21-.155l.402-1.149.099-.317.229-.107.024-.006.028.015.023.062.462 1.309.093.254c.03.066.075.093.155.093h.027v.098l-.012-.001z" fill="#fff"/><path d="M32.028 20.488c0 .1.07.13.151.14l.332-.006c.106-.012.196-.072.241-.135l.078-.181h.073l-.093.426-.664-.01-.665.01v-.075h.035c.091 0 .189-.013.189-.168v-1.286c0-.131-.098-.143-.189-.143h-.035v-.075l.398.01.382-.01v.075h-.063c-.095 0-.171.002-.171.135v1.291" fill="#fff"/><path d="M32.801 20.722l.089-.403h-.052l-.077.176c-.047.064-.14.125-.249.139l-.192.011-.142-.006c-.082-.009-.162-.044-.161-.151v-1.291c0-.14.088-.146.182-.146h.052v-.053l-.371.01-.387-.01v.053h.024c.089 0 .2.015.2.154v1.286c0 .162-.11.179-.2.179h-.024v.053l.654-.01.654.01m.009.021l-.664-.009-.665.009h-.01v-.097h.046c.091-.002.177-.008.178-.156v-1.286c-.001-.122-.086-.13-.178-.132h-.046v-.096h.01l.399.009.382-.009h.01v.096h-.074c-.097.003-.158-.002-.16.124v1.291c.001.093.062.118.141.129l.14.005.19-.009c.103-.012.191-.071.234-.131l.076-.176.003-.008h.095l-.002.013-.094.425-.002.008h-.008" fill="#fff"/></g></svg>