<?xml version="1.0" encoding="UTF-8" standalone="no"?>
<svg width="10px" height="13px" viewBox="0 0 10 13" version="1.1" xmlns="http://www.w3.org/2000/svg" xmlns:xlink="http://www.w3.org/1999/xlink" xmlns:sketch="http://www.bohemiancoding.com/sketch/ns">
    <!-- Generator: Sketch 3.0.4 (8053) - http://www.bohemiancoding.com/sketch -->
    <title>Imported Layers</title>
    <desc>Created with Sketch.</desc>
    <defs></defs>
    <g id="Campaign-Detail-Copy" stroke="none" stroke-width="1" fill="none" fill-rule="evenodd" sketch:type="MSPage">
        <g id="Desktop" sketch:type="MSArtboardGroup" transform="translate(-445.000000, -469.000000)" fill="#9F9F9F">
            <g id="Lightbox---Support" sketch:type="MSLayerGroup" transform="translate(-9.000000, -29.000000)">
                <g id="2" transform="translate(367.000000, 91.000000)" sketch:type="MSShapeGroup">
                    <g id="Back">
                        <g id="Docdata" transform="translate(76.000000, 407.000000)">
                            <path d="M19.3333333,3.25 C19.3333333,1.457625 17.8383333,0 16,0 C14.1616667,0 12.6666667,1.457625 12.6666667,3.25 L12.6666667,4.0625 L11.425,4.0625 C11.1941667,4.0625 11,4.2445 11,4.46875 L11,12.1875 C11,12.6368125 11.3808333,13 11.8416667,13 L20.175,13 C20.635,13 21,12.6368125 21,12.1875 L21,4.46875 C21,4.2445 20.8216667,4.0625 20.5916667,4.0625 L19.3333333,4.0625 L19.3333333,3.25 L19.3333333,3.25 Z M14.3333333,4.0625 L14.3333333,3.25 C14.3333333,2.3538125 15.0808333,1.625 16,1.625 C16.9183333,1.625 17.6666667,2.3538125 17.6666667,3.25 L17.6666667,4.0625 L14.3333333,4.0625 L14.3333333,4.0625 Z" id="Imported-Layers"></path>
                        </g>
                    </g>
                </g>
            </g>
        </g>
    </g>
</svg>