<?xml version="1.0" encoding="UTF-8" standalone="no"?>
<svg width="20px" height="27px" viewBox="0 0 20 27" version="1.1" xmlns="http://www.w3.org/2000/svg" xmlns:xlink="http://www.w3.org/1999/xlink" xmlns:sketch="http://www.bohemiancoding.com/sketch/ns">
    <!-- Generator: Sketch Beta 3.2 (9961) - http://www.bohemiancoding.com/sketch -->
    <title>icon-task-location</title>
    <desc>Created with Sketch Beta.</desc>
    <defs></defs>
    <g id="Campaign-Detail" stroke="none" stroke-width="1" fill="none" fill-rule="evenodd" sketch:type="MSPage">
        <g id="Task-Detail" sketch:type="MSArtboardGroup" transform="translate(-837.000000, -193.000000)" fill="#F8F7F8">
            <g id="Campaign-Overview" sketch:type="MSLayerGroup" transform="translate(0.000000, 77.000000)">
                <g id="Group" transform="translate(835.000000, 116.000000)" sketch:type="MSShapeGroup">
                    <g id="Location" transform="translate(2.500000, 0.500000)">
                        <path d="M9.5,0 C4.25283333,0 0,4.418375 0,9.867 C0,16.83825 6.82733333,23.807875 8.90625,25.770875 C9.06775,25.923625 9.28308333,26 9.5,26 C9.71691667,26 9.93225,25.923625 10.09375,25.770875 C12.17425,23.807875 19,16.83825 19,9.867 C19,4.418375 14.7471667,0 9.5,0 L9.5,0 Z M9.5,21.854625 C6.19875,18.354375 3.13025,13.745875 3.13025,9.867 C3.13025,6.218875 5.98658333,3.25 9.5,3.25 C13.0134167,3.25 15.86975,6.218875 15.86975,9.867 C15.86975,13.7475 12.7996667,18.356 9.5,21.854625 Z M9.5,6.5 C7.752,6.5 6.33333333,7.954375 6.33333333,9.75 C6.33333333,11.544 7.752,13 9.5,13 C11.248,13 12.6666667,11.544 12.6666667,9.75 C12.6666667,7.954375 11.248,6.5 9.5,6.5 Z" id="icon-task-location"></path>
                    </g>
                </g>
            </g>
        </g>
    </g>
</svg>