<?xml version="1.0" encoding="UTF-8" standalone="no"?>
<svg width="23px" height="22px" viewBox="0 0 23 22" version="1.1" xmlns="http://www.w3.org/2000/svg" xmlns:xlink="http://www.w3.org/1999/xlink" xmlns:sketch="http://www.bohemiancoding.com/sketch/ns">
    <!-- Generator: Sketch Beta 3.2 (9961) - http://www.bohemiancoding.com/sketch -->
    <title>icon-task-users</title>
    <desc>Created with Sketch Beta.</desc>
    <defs></defs>
    <g id="Campaign-Detail" stroke="none" stroke-width="1" fill="none" fill-rule="evenodd" sketch:type="MSPage">
        <g id="Task-Detail" sketch:type="MSArtboardGroup" transform="translate(-835.000000, -344.000000)" fill="#F8F7F8">
            <g id="Campaign-Overview" sketch:type="MSLayerGroup" transform="translate(0.000000, 77.000000)">
                <g id="Group" transform="translate(835.000000, 116.000000)" sketch:type="MSShapeGroup">
                    <g id="Supporters" transform="translate(0.500000, 151.000000)">
                        <path d="M16.061375,11.495 C17.1765,10.272625 17.875,8.661125 17.875,6.875 C17.875,3.07725 14.79775,0 11,0 C7.20225,0 4.125,3.07725 4.125,6.875 C4.125,8.661125 4.8235,10.272625 5.938625,11.495 C2.39525,12.486375 0.350625,15.076875 0,19.25 L0,20.625 C0,21.385375 0.616,22 1.375,22 L20.625,22 C21.384,22 22,21.385375 22,20.625 L22,19.25 C21.649375,15.076875 19.60475,12.486375 16.061375,11.495 L16.061375,11.495 Z M2.816,19.25 C3.183125,15.61175 5.04075,14.6025 6.67975,14.14325 C7.59825,13.8875 8.320125,13.171125 8.58275,12.254 C8.84675,11.3355 8.614375,10.346875 7.970875,9.642875 C7.47175,9.09425 6.875,8.168875 6.875,6.875 C6.875,4.60075 8.72575,2.75 11,2.75 C13.27425,2.75 15.125,4.60075 15.125,6.875 C15.125,8.168875 14.52825,9.09425 14.029125,9.642875 C13.385625,10.346875 13.15325,11.3355 13.41725,12.254 C13.679875,13.171125 14.40175,13.8875 15.32025,14.14325 C16.95925,14.6025 18.816875,15.61175 19.184,19.25 L2.816,19.25 L2.816,19.25 Z" id="icon-task-users"></path>
                    </g>
                </g>
            </g>
        </g>
    </g>
</svg>