<?xml version="1.0" encoding="UTF-8" standalone="no"?>
<svg width="23px" height="25px" viewBox="0 0 23 25" version="1.1" xmlns="http://www.w3.org/2000/svg" xmlns:xlink="http://www.w3.org/1999/xlink" xmlns:sketch="http://www.bohemiancoding.com/sketch/ns">
    <!-- Generator: Sketch Beta 3.2 (9961) - http://www.bohemiancoding.com/sketch -->
    <title>icon-task-time</title>
    <desc>Created with Sketch Beta.</desc>
    <defs></defs>
    <g id="Campaign-Detail" stroke="none" stroke-width="1" fill="none" fill-rule="evenodd" sketch:type="MSPage">
        <g id="Task-Detail" sketch:type="MSArtboardGroup" transform="translate(-835.000000, -244.000000)" fill="#F8F7F8">
            <g id="Campaign-Overview" sketch:type="MSLayerGroup" transform="translate(0.000000, 77.000000)">
                <g id="Group" transform="translate(835.000000, 116.000000)" sketch:type="MSShapeGroup">
                    <g id="TIme" transform="translate(0.500000, 51.000000)">
                        <path d="M12.5714286,3.2484375 L12.5714286,1.5625 L13.3571429,1.5625 C13.7908571,1.5625 14.1428571,1.2125 14.1428571,0.78125 C14.1428571,0.35 13.7908571,0 13.3571429,0 L8.64285714,0 C8.20914286,0 7.85714286,0.35 7.85714286,0.78125 C7.85714286,1.2125 8.20914286,1.5625 8.64285714,1.5625 L9.42857143,1.5625 L9.42857143,3.2484375 C4.09985714,4.0078125 0,8.5546875 0,14.0625 C0,20.103125 4.92485714,25 11,25 C17.0751429,25 22,20.103125 22,14.0625 C22,8.5546875 17.9001429,4.0078125 12.5714286,3.2484375 L12.5714286,3.2484375 Z M11,21.875 C6.66757143,21.875 3.14285714,18.3703125 3.14285714,14.0625 C3.14285714,9.7546875 6.66757143,6.25 11,6.25 C15.3324286,6.25 18.8571429,9.7546875 18.8571429,14.0625 C18.8571429,18.3703125 15.3324286,21.875 11,21.875 Z M14.1428571,14.0625 L11,14.0625 L11,10.9375 C11,10.0734375 10.2975714,9.375 9.42857143,9.375 C8.55957143,9.375 7.85714286,10.0734375 7.85714286,10.9375 L7.85714286,15.625 C7.85714286,16.4890625 8.55957143,17.1875 9.42857143,17.1875 L14.1428571,17.1875 C15.0118571,17.1875 15.7142857,16.4890625 15.7142857,15.625 C15.7142857,14.7609375 15.0118571,14.0625 14.1428571,14.0625 Z" id="icon-task-time"></path>
                    </g>
                </g>
            </g>
        </g>
    </g>
</svg>