<?xml version="1.0" encoding="UTF-8" standalone="no"?>
<svg width="23px" height="22px" viewBox="0 0 23 22" version="1.1" xmlns="http://www.w3.org/2000/svg" xmlns:xlink="http://www.w3.org/1999/xlink" xmlns:sketch="http://www.bohemiancoding.com/sketch/ns">
    <!-- Generator: Sketch Beta 3.2 (9961) - http://www.bohemiancoding.com/sketch -->
    <title>icon-task-deadline</title>
    <desc>Created with Sketch Beta.</desc>
    <defs></defs>
    <g id="Campaign-Detail" stroke="none" stroke-width="1" fill="none" fill-rule="evenodd" sketch:type="MSPage">
        <g id="Task-Detail" sketch:type="MSArtboardGroup" transform="translate(-835.000000, -294.000000)" fill="#F8F7F8">
            <g id="Campaign-Overview" sketch:type="MSLayerGroup" transform="translate(0.000000, 77.000000)">
                <g id="Group" transform="translate(835.000000, 116.000000)" sketch:type="MSShapeGroup">
                    <g id="Days-left" transform="translate(0.500000, 101.000000)">
                        <path d="M6.1875,0 L4.8125,0 C4.433,0 4.125,0.308 4.125,0.6875 L4.125,2.0625 C4.125,2.442 4.433,2.75 4.8125,2.75 L6.1875,2.75 C6.567,2.75 6.875,2.442 6.875,2.0625 L6.875,0.6875 C6.875,0.308 6.567,0 6.1875,0 Z M17.1875,0 L15.8125,0 C15.433,0 15.125,0.308 15.125,0.6875 L15.125,2.0625 C15.125,2.442 15.433,2.75 15.8125,2.75 L17.1875,2.75 C17.567,2.75 17.875,2.442 17.875,2.0625 L17.875,0.6875 C17.875,0.308 17.567,0 17.1875,0 Z M19.25,0.6875 L19.25,3.4375 C19.25,3.817 18.942,4.125 18.5625,4.125 L14.4375,4.125 C14.058,4.125 13.75,3.817 13.75,3.4375 L13.75,0.6875 C13.75,0.308 13.442,0 13.0625,0 L8.9375,0 C8.558,0 8.25,0.308 8.25,0.6875 L8.25,3.4375 C8.25,3.817 7.942,4.125 7.5625,4.125 L3.4375,4.125 C3.058,4.125 2.75,3.817 2.75,3.4375 L2.75,0.6875 C2.75,0.308 2.442,0 2.0625,0 L1.375,0 C0.616,0 0,0.614625 0,1.375 L0,20.625 C0,21.385375 0.616,22 1.375,22 L20.625,22 C21.384,22 22,21.385375 22,20.625 L22,1.375 C22,0.614625 21.384,0 20.625,0 L19.9375,0 C19.558,0 19.25,0.308 19.25,0.6875 Z M2.75,6.875 L19.25,6.875 L19.25,19.25 L2.75,19.25 L2.75,6.875 Z" id="icon-task-deadline"></path>
                    </g>
                </g>
            </g>
        </g>
    </g>
</svg>