<?xml version="1.0" encoding="UTF-8" standalone="no"?>
<svg width="14px" height="14px" viewBox="0 0 14 14" version="1.1" xmlns="http://www.w3.org/2000/svg" xmlns:xlink="http://www.w3.org/1999/xlink" xmlns:sketch="http://www.bohemiancoding.com/sketch/ns">
    <!-- Generator: Sketch Beta 3.1.1 (8761) - http://www.bohemiancoding.com/sketch -->
    <title>Fill 2 + Fill 3 + Fill 4</title>
    <desc>Created with Sketch Beta.</desc>
    <defs></defs>
    <g id="Widget" stroke="none" stroke-width="1" fill="none" fill-rule="evenodd" sketch:type="MSPage">
        <g id="Embed" sketch:type="MSArtboardGroup" transform="translate(-74.000000, -140.000000)" fill="#9B9B9B">
            <g id="Sharing-Menu" sketch:type="MSLayerGroup">
                <g id="Share-:Hover" transform="translate(61.000000, 48.000000)" sketch:type="MSShapeGroup">
                    <g id="Dropdown" transform="translate(88.500000, 101.000000) scale(-1, 1) translate(-88.500000, -101.000000) translate(0.000000, 29.000000)">
                        <g id="LinkedIn" transform="translate(157.000000, 70.000000) scale(-1, 1) translate(-157.000000, -70.000000) translate(147.000000, 60.000000)">
                            <g id="Fill-2-+-Fill-3-+-Fill-4" transform="translate(4.000000, 4.000000)">
                                <path d="M-0.25,3.5 L2.25,3.5 L2.25,12.25 L-0.25,12.25 L-0.25,3.5 Z" id="Fill-2"></path>
                                <path d="M6,12.25 L6,8.5 C6,7.25 6.78125,6 8.1875,6 C9.4375,6 9.75,7.32625 9.75,8.5 L9.75,12.25 L12.25,12.25 L12.25,7.2175 C12.25,4.53 10.74375,3.2475 8.31625,3.5775 C7.17125,3.73375 6.38125,4.53625 6,5.375 L6,3.5 L3.53875,3.5 C3.5775,3.5 3.52,12.25 3.52,12.25 L6,12.25" id="Fill-3"></path>
                                <path d="M1,2.25 C1.69125,2.25 2.25,1.69125 2.25,1 C2.25,0.30875 1.69125,-0.25 1,-0.25 C0.30875,-0.25 -0.25,0.30875 -0.25,1 C-0.25,1.69125 0.30875,2.25 1,2.25" id="Fill-4"></path>
                            </g>
                        </g>
                    </g>
                </g>
            </g>
        </g>
    </g>
</svg>