<?xml version="1.0" encoding="UTF-8" standalone="no"?>
<svg width="8px" height="14px" viewBox="0 0 8 14" version="1.1" xmlns="http://www.w3.org/2000/svg" xmlns:xlink="http://www.w3.org/1999/xlink" xmlns:sketch="http://www.bohemiancoding.com/sketch/ns">
    <!-- Generator: Sketch Beta 3.1.1 (8761) - http://www.bohemiancoding.com/sketch -->
    <title>Fill 1</title>
    <desc>Created with Sketch Beta.</desc>
    <defs></defs>
    <g id="Widget" stroke="none" stroke-width="1" fill="none" fill-rule="evenodd" sketch:type="MSPage">
        <g id="Embed" sketch:type="MSArtboardGroup" transform="translate(-77.000000, -90.000000)" fill="#9B9B9B">
            <g id="Sharing-Menu" sketch:type="MSLayerGroup">
                <g id="Share-:Hover" transform="translate(61.000000, 48.000000)" sketch:type="MSShapeGroup">
                    <g id="Dropdown" transform="translate(88.500000, 101.000000) scale(-1, 1) translate(-88.500000, -101.000000) translate(0.000000, 29.000000)">
                        <g id="Facebook" transform="translate(157.000000, 20.000000) scale(-1, 1) translate(-157.000000, -20.000000) translate(147.000000, 10.000000)">
                            <path d="M8.75,16.25 L11.25,16.25 L11.25,11.25 L13.75,11.25 L13.75,8.75 L11.25,8.75 C11.25,6.25 11.44,6.25 12.5,6.25 L13.75,6.25 L13.75,3.75 L12.5,3.75 C8.75,3.75 8.75,6.75875 8.75,8.75 L6.25,8.75 L6.25,11.25 L8.75,11.25 L8.75,16.25" id="Fill-1"></path>
                        </g>
                    </g>
                </g>
            </g>
        </g>
    </g>
</svg>