<?xml version="1.0" encoding="UTF-8" standalone="no"?>
<svg width="13px" height="13px" viewBox="0 0 13 13" version="1.1" xmlns="http://www.w3.org/2000/svg" xmlns:xlink="http://www.w3.org/1999/xlink" xmlns:sketch="http://www.bohemiancoding.com/sketch/ns">
    <!-- Generator: Sketch Beta 3.1.1 (8761) - http://www.bohemiancoding.com/sketch -->
    <title>Imported Layers 7</title>
    <desc>Created with Sketch Beta.</desc>
    <defs></defs>
    <g id="Widget" stroke="none" stroke-width="1" fill="none" fill-rule="evenodd" sketch:type="MSPage">
        <g id="Embed" sketch:type="MSArtboardGroup" transform="translate(-147.000000, -58.000000)" fill="#00C051">
            <g id="Sharing-Menu" sketch:type="MSLayerGroup">
                <g id="Share-:Hover" transform="translate(61.000000, 48.000000)" sketch:type="MSShapeGroup">
                    <path d="M96.15625,17.3125 C95.27225,17.3125 94.4914375,17.72525 93.970625,18.3581875 L92.3171875,17.531875 C92.426875,17.20525 92.5,16.862375 92.5,16.5 C92.5,16.137625 92.426875,15.79475 92.3171875,15.468125 L93.970625,14.6418125 C94.4914375,15.27475 95.27225,15.6875 96.15625,15.6875 C97.7268125,15.6875 99,14.4143125 99,12.84375 C99,11.2731875 97.7268125,10 96.15625,10 C94.5856875,10 93.3125,11.2731875 93.3125,12.84375 C93.3125,12.9453125 93.3311875,13.040375 93.3425625,13.1386875 L91.422625,14.0990625 C90.8465625,13.576625 90.0885,13.25 89.25,13.25 C87.4551875,13.25 86,14.7051875 86,16.5 C86,18.2948125 87.4551875,19.75 89.25,19.75 C90.0885,19.75 90.8465625,19.423375 91.422625,18.9009375 L93.3425625,19.8613125 C93.3311875,19.959625 93.3125,20.0546875 93.3125,20.15625 C93.3125,21.7268125 94.5856875,23 96.15625,23 C97.7268125,23 99,21.7268125 99,20.15625 C99,18.5856875 97.7268125,17.3125 96.15625,17.3125 L96.15625,17.3125 Z M96.15625,11.38125 C96.96225,11.38125 97.61875,12.03775 97.61875,12.84375 C97.61875,13.64975 96.96225,14.30625 96.15625,14.30625 C95.35025,14.30625 94.69375,13.64975 94.69375,12.84375 C94.69375,12.03775 95.35025,11.38125 96.15625,11.38125 L96.15625,11.38125 Z M89.25,18.1713125 C88.3278125,18.1713125 87.5786875,17.4221875 87.5786875,16.5 C87.5786875,15.5778125 88.3278125,14.8286875 89.25,14.8286875 C90.1721875,14.8286875 90.9213125,15.5778125 90.9213125,16.5 C90.9213125,17.4221875 90.1721875,18.1713125 89.25,18.1713125 L89.25,18.1713125 Z M96.15625,21.61875 C95.35025,21.61875 94.69375,20.96225 94.69375,20.15625 C94.69375,19.35025 95.35025,18.69375 96.15625,18.69375 C96.96225,18.69375 97.61875,19.35025 97.61875,20.15625 C97.61875,20.96225 96.96225,21.61875 96.15625,21.61875 L96.15625,21.61875 Z" id="Imported-Layers-7"></path>
                </g>
            </g>
        </g>
    </g>
</svg>