<?xml version="1.0" encoding="UTF-8" standalone="no"?>
<svg width="12px" height="12px" viewBox="0 0 12 12" version="1.1" xmlns="http://www.w3.org/2000/svg" xmlns:xlink="http://www.w3.org/1999/xlink" xmlns:sketch="http://www.bohemiancoding.com/sketch/ns">
    <!-- Generator: Sketch Beta 3.1.1 (8761) - http://www.bohemiancoding.com/sketch -->
    <title>Fill 2</title>
    <desc>Created with Sketch Beta.</desc>
    <defs></defs>
    <g id="Widget" stroke="none" stroke-width="1" fill="none" fill-rule="evenodd" sketch:type="MSPage">
        <g id="Embed" sketch:type="MSArtboardGroup" transform="translate(-75.000000, -193.000000)" fill="#9B9B9B">
            <g id="Sharing-Menu" sketch:type="MSLayerGroup">
                <g id="Share-:Hover" transform="translate(61.000000, 48.000000)" sketch:type="MSShapeGroup">
                    <g id="Dropdown" transform="translate(88.500000, 101.000000) scale(-1, 1) translate(-88.500000, -101.000000) translate(0.000000, 29.000000)">
                        <g id="Copy" transform="translate(147.000000, 112.000000)">
                            <path d="M10.80875,5.22875 L8.775,7.26125 C8.59875,7.43875 8.54625,7.68125 8.5925,7.90875 C8.57875,7.91 9.01125,10.07625 9.01125,10.07625 L7.75875,11.32875 C7.4775,11.61 7.4775,12.065 7.75875,12.34625 C8.04,12.6275 8.495,12.6275 8.775,12.34625 L9.35125,11.77125 L9.52,12.61875 L8.2675,13.8725 C7.98625,14.15125 7.53125,14.1525 7.25,13.8725 L6.23375,12.855 C5.9525,12.57375 5.9525,12.11875 6.23375,11.8375 L7.78125,10.29125 C8.1525,9.92 7.9,9.43625 7.75875,9.29625 C7.4775,9.015 7.02375,9.015 6.7425,9.295 L4.7075,11.32875 C4.14625,11.89 4.14625,12.8025 4.7075,13.3625 L6.7425,15.3975 C7.30375,15.95875 8.21375,15.96 8.775,15.3975 L10.80875,13.36125 C10.98625,13.1875 11.03875,12.945 10.99375,12.71625 C11.00625,12.71375 10.5725,10.5475 10.5725,10.5475 L11.82625,9.295 C12.1075,9.015 12.1075,8.56 11.82625,8.27875 C11.545,7.9975 11.09,7.9975 10.80875,8.27875 L10.235,8.85375 L10.065,8.00625 L11.3175,6.7525 C11.59875,6.4725 12.05375,6.4725 12.33375,6.7525 L13.35125,7.77 C13.6325,8.05125 13.6325,8.50625 13.35125,8.78625 L11.805,10.33375 C11.53625,10.6025 11.61,11.14 11.82625,11.32875 C12.1075,11.61 12.5625,11.61 12.8425,11.32875 L14.8775,9.295 C15.43875,8.73375 15.43875,7.82375 14.8775,7.26125 L12.8425,5.2275 C12.28125,4.665 11.37125,4.66625 10.80875,5.22875" id="Fill-2" transform="translate(9.792500, 10.312578) scale(-1, 1) translate(-9.792500, -10.312578) "></path>
                        </g>
                    </g>
                </g>
            </g>
        </g>
    </g>
</svg>