<?xml version="1.0" encoding="UTF-8" standalone="no"?>
<svg width="43px" height="28px" viewBox="0 0 43 28" version="1.1" xmlns="http://www.w3.org/2000/svg" xmlns:xlink="http://www.w3.org/1999/xlink" xmlns:sketch="http://www.bohemiancoding.com/sketch/ns">
    <!-- Generator: Sketch 3.0.4 (8053) - http://www.bohemiancoding.com/sketch -->
    <title>Discover</title>
    <desc>Created with Sketch.</desc>
    <defs></defs>
    <g id="Campaign-Detail" stroke="none" stroke-width="1" fill="none" fill-rule="evenodd" sketch:type="MSPage">
        <g id="Desktop" sketch:type="MSArtboardGroup" transform="translate(-723.000000, -283.000000)">
            <g id="Lightbox---Support" sketch:type="MSLayerGroup" transform="translate(-9.000000, -29.000000)">
                <g id="2" transform="translate(367.000000, 91.000000)" sketch:type="MSShapeGroup">
                    <g id="Payment---Paypal" transform="translate(26.000000, 140.000000)">
                        <g id="Cards" transform="translate(162.000000, 81.000000)">
                            <g id="Discover" transform="translate(177.199195, 0.360570)">
                                <path d="M41.721677,24.7909869 C41.721677,25.5598675 41.0979813,26.1835632 40.3291007,26.1835632 L1.3469562,26.1835632 C0.57807564,26.1835632 -0.0449540388,25.5598675 -0.0449540388,24.7909869 L-0.0449540388,1.47116255 C-0.0449540388,0.701615999 0.57807564,0.0785863198 1.3469562,0.0785863198 L40.3291007,0.0785863198 C41.0979813,0.0785863198 41.721677,0.701615999 41.721677,1.47116255 L41.721677,24.7909869" id="Fill-1" stroke="#F58220" fill="#FFFFFF"></path>
                                <path d="M11.4356415,26.1835632 L40.3291007,26.1835632 C41.0979813,26.1835632 41.721677,25.5598675 41.721677,24.7909869 L41.721677,15.0166469 C38.9485123,16.7745163 28.4928688,22.8353198 11.4356415,26.1835632" id="Fill-2" fill="#F6821F"></path>
                                <path d="M21.3485066,11.0979867 C20.1973502,11.0979867 19.2643041,11.9967345 19.2643041,13.1062668 C19.2643041,14.2860606 20.156392,15.1674927 21.3485066,15.1674927 C22.5096527,15.1674927 23.4267151,14.2744058 23.4267151,13.1292433 C23.4267151,11.9917396 22.5153136,11.0979867 21.3485066,11.0979867" id="Fill-3" fill="#F6821F"></path>
                                <path d="M9.51493856,11.1709122 L8.39508351,11.1709122 L8.39508351,15.0795826 L9.50994367,15.0795826 C10.101006,15.0795826 10.5289019,14.9390596 10.9041849,14.6290432 C11.3490633,14.2587551 11.6131267,13.701991 11.6131267,13.1272453 C11.6131267,11.973425 10.7513411,11.1709122 9.51493856,11.1709122 L9.51493856,11.1709122 Z M10.4066935,14.1065774 C10.1652737,14.3240217 9.85592327,14.4175927 9.36209483,14.4175927 L9.15730421,14.4175927 L9.15730421,11.832902 L9.36209483,11.832902 C9.85592327,11.832902 10.1536189,11.9208121 10.4066935,12.1489122 C10.6700909,12.3836722 10.8269305,12.7466345 10.8269305,13.1212515 C10.8269305,13.4972004 10.6700909,13.8731494 10.4066935,14.1065774 L10.4066935,14.1065774 Z" id="Fill-4" fill="#001722"></path>
                                <path d="M11.9651002,11.1709122 L12.7259889,11.1709122 L12.7259889,15.0795826 L11.9651002,15.0795826 L11.9651002,11.1709122 Z" id="Fill-5" fill="#001722"></path>
                                <path d="M14.590416,12.6700461 C14.1325508,12.5008857 13.9986877,12.3890001 13.9986877,12.1782156 C13.9986877,11.9324669 14.2387756,11.7449919 14.5671065,11.7449919 C14.7955397,11.7449919 14.9826817,11.8388959 15.1831434,12.0606691 L15.5810699,11.5402013 C15.2527389,11.2521624 14.8598073,11.1059785 14.4319114,11.1059785 C13.7412842,11.1059785 13.2131575,11.5864873 13.2131575,12.2251676 C13.2131575,12.7649491 13.4589062,13.0400012 14.1741749,13.2977377 C14.4735355,13.4029634 14.6257133,13.4732249 14.7016357,13.5205099 C14.8541464,13.6207408 14.9307348,13.7605978 14.9307348,13.9244303 C14.9307348,14.2417725 14.6789922,14.4755335 14.3383404,14.4755335 C13.9747122,14.4755335 13.6820115,14.2947184 13.5065242,13.9543996 L13.0146937,14.4299135 C13.3653352,14.9450535 13.7872372,15.1738196 14.3683098,15.1738196 C15.1588349,15.1738196 15.715599,14.6456929 15.715599,13.890132 C15.715599,13.2691003 15.4588615,12.9873883 14.590416,12.6700461" id="Fill-6" fill="#001722"></path>
                                <path d="M15.9556869,13.1272453 C15.9556869,14.2770697 16.8584306,15.1674927 18.0192437,15.1674927 C18.3479077,15.1674927 18.6286207,15.1032251 18.9749333,14.9390596 L18.9749333,14.0423098 C18.6695788,14.3473312 18.3998546,14.4695396 18.054541,14.4695396 C17.2869924,14.4695396 16.7412171,13.9127755 16.7412171,13.1212515 C16.7412171,12.3720175 17.303309,11.7796231 18.0192437,11.7796231 C18.382206,11.7796231 18.6579241,11.9091574 18.9749333,12.2191737 L18.9749333,11.3224239 C18.6412744,11.1525975 18.3645574,11.083002 18.0368924,11.083002 C16.8817401,11.083002 15.9556869,11.9917396 15.9556869,13.1272453" id="Fill-7" fill="#001722"></path>
                                <path d="M25.1512852,13.796561 L24.1086845,11.1709122 L23.2755364,11.1709122 L24.9355059,15.1798134 L25.3450871,15.1798134 L27.033694,11.1709122 L26.2075387,11.1709122 L25.1512852,13.796561" id="Fill-8" fill="#001722"></path>
                                <path d="M27.3803396,15.0795826 L29.5421294,15.0795826 L29.5421294,14.4175927 L28.1412283,14.4175927 L28.1412283,13.3620053 L29.4888505,13.3620053 L29.4888505,12.7006814 L28.1412283,12.7006814 L28.1412283,11.832902 L29.5421294,11.832902 L29.5421294,11.1709122 L27.3803396,11.1709122 L27.3803396,15.0795826" id="Fill-9" fill="#001722"></path>
                                <path d="M32.5597108,12.3247325 C32.5597108,11.5921482 32.0565586,11.1709122 31.1771244,11.1709122 L30.0456146,11.1709122 L30.0456146,15.0795826 L30.8085013,15.0795826 L30.8085013,13.5088552 L30.9077332,13.5088552 L31.9626546,15.0795826 L32.9000296,15.0795826 L31.6689549,13.4329328 C32.2437006,13.3157193 32.5597108,12.9231207 32.5597108,12.3247325 L32.5597108,12.3247325 Z M31.0302745,12.9697397 L30.8085013,12.9697397 L30.8085013,11.785617 L31.0425953,11.785617 C31.5177761,11.785617 31.7755126,11.9857457 31.7755126,12.3656906 C31.7755126,12.7582892 31.5177761,12.9697397 31.0302745,12.9697397 L31.0302745,12.9697397 Z" id="Fill-10" fill="#001722"></path>
                                <path id="Fill-11" fill="#231F1F"></path>
                                <path d="M32.9846098,11.226855 C32.8174473,11.226855 32.6839172,11.3607181 32.6839172,11.5278805 C32.6839172,11.694377 32.8181133,11.8285731 32.9846098,11.8285731 C33.1477763,11.8285731 33.2816394,11.693045 33.2816394,11.5278805 C33.2816394,11.3627161 33.1477763,11.226855 32.9846098,11.226855 L32.9846098,11.226855 Z M32.9839438,11.7742953 C32.8504136,11.7742953 32.7431899,11.6650736 32.7431899,11.5285465 C32.7431899,11.3906875 32.8494147,11.2814658 32.9839438,11.2814658 C33.113811,11.2814658 33.2207017,11.3926854 33.2207017,11.5285465 C33.2207017,11.6637416 33.113811,11.7742953 32.9839438,11.7742953 L32.9839438,11.7742953 Z" id="Fill-12" fill="#231F1F"></path>
                            </g>
                        </g>
                    </g>
                </g>
            </g>
        </g>
    </g>
</svg>