<?xml version="1.0" encoding="UTF-8" standalone="no"?>
<svg width="43px" height="28px" viewBox="0 0 43 28" version="1.1" xmlns="http://www.w3.org/2000/svg" xmlns:xlink="http://www.w3.org/1999/xlink" xmlns:sketch="http://www.bohemiancoding.com/sketch/ns">
    <!-- Generator: Sketch 3.0.4 (8053) - http://www.bohemiancoding.com/sketch -->
    <title>American Express</title>
    <desc>Created with Sketch.</desc>
    <defs></defs>
    <g id="Campaign-Detail" stroke="none" stroke-width="1" fill="none" fill-rule="evenodd" sketch:type="MSPage">
        <g id="Desktop" sketch:type="MSArtboardGroup" transform="translate(-679.000000, -283.000000)">
            <g id="Lightbox---Support" sketch:type="MSLayerGroup" transform="translate(-9.000000, -29.000000)">
                <g id="2" transform="translate(367.000000, 91.000000)" sketch:type="MSShapeGroup">
                    <g id="Payment---Paypal" transform="translate(26.000000, 140.000000)">
                        <g id="Cards" transform="translate(162.000000, 81.000000)">
                            <g id="American-Express" transform="translate(133.244135, 0.360570)">
                                <path d="M41.721677,24.7014119 C41.721677,25.4699594 41.0979813,26.0929891 40.3291007,26.0929891 L1.34629022,26.0929891 C0.577409655,26.0929891 -0.0456200246,25.4699594 -0.0456200246,24.7014119 L-0.0456200246,1.38058848 C-0.0456200246,0.612040914 0.577409655,-0.0109887651 1.34629022,-0.0109887651 L40.3291007,-0.0109887651 C41.0979813,-0.0109887651 41.721677,0.612040914 41.721677,1.38058848 L41.721677,24.7014119" id="Fill-1" fill="#006E95"></path>
                                <path d="M12.9131309,12.4332882 L12.9131309,12.0157151 L12.7136682,12.4332882 L10.9841032,12.4332882 L10.7669918,11.9850797 L10.7669918,12.4332882 L7.5346299,12.4332882 L7.15302006,11.5292125 L6.50501592,11.5292125 L6.10042957,12.4332882 L4.4244764,12.4332882 L4.4244764,9.70441151 L5.65322013,6.92458695 L8.00548184,6.92458695 L8.33581077,7.71211511 L8.33581077,6.93058082 L11.2125363,6.93058082 L11.8452227,8.25655847 L12.4645895,6.92458695 L21.5463043,6.92458695 C21.5463043,6.92458695 22.0224841,6.91792709 22.3358304,7.13870137 L22.3338325,6.92458695 L24.6218266,6.92458695 L24.6218266,7.22561251 C24.6218266,7.22561251 25.0337388,6.92458695 25.6417838,6.92458695 L29.6793224,6.92458695 L30.0336269,7.72376986 L30.0336269,6.92458695 L32.6209815,6.92458695 L33.0905015,7.72376986 L33.0905015,6.92458695 L35.5639726,6.92458695 L35.5639726,12.4386161 L33.0229039,12.4386161 L32.4258477,11.4772656 L32.4258477,12.4332882 L29.2677432,12.4332882 L28.8235307,11.4486282 L28.204164,11.4486282 L27.7879229,12.4332882 L25.8765437,12.4332882 C25.8765437,12.4332882 25.163606,12.4239644 24.6291524,12.0416885 L24.6291524,12.4332882 L20.8237098,12.4332882 L20.8237098,11.1469367 C20.8237098,10.9601277 20.6805228,10.9731144 20.6805228,10.9731144 L20.5416648,10.9731144 L20.5416648,12.4332882 L12.9131309,12.4332882" id="Fill-2" fill="#FFFFFF"></path>
                                <path d="M11.0140725,13.6274006 L16.0142936,13.6274006 L16.7362222,14.4442322 L17.4744674,13.6274006 L21.3185372,13.6274006 C21.3185372,13.6274006 21.6795015,13.6363914 22.0224841,13.8192045 L22.0224841,13.6274006 L25.4459839,13.6274006 C25.8805397,13.6274006 26.2451669,13.844512 26.2451669,13.844512 L26.2451669,13.6274006 L30.6456678,13.6274006 L30.6456678,13.8275294 C30.6456678,13.8275294 30.9593471,13.6274006 31.3805831,13.6274006 L34.2476518,13.6274006 L34.2476518,13.8275294 C34.2476518,13.8275294 34.608616,13.6274006 34.9902259,13.6274006 L37.2412578,13.6274006 L37.2412578,18.8230885 C37.2412578,18.8230885 36.9452271,19.1580794 36.3331862,19.1580794 L33.3655536,19.1580794 L33.3655536,18.9929149 C33.3655536,18.9929149 33.0835086,19.1580794 32.6529489,19.1580794 L24.7696754,19.1580794 L24.7696754,17.8151191 C24.7696754,17.6832539 24.7124006,17.6589454 24.5945211,17.6589454 L24.4859655,17.6589454 L24.4859655,19.1580794 L22.0224841,19.1580794 L22.0224841,17.6682692 C22.0224841,17.6682692 21.74943,17.8151191 21.2925637,17.8151191 L20.4068027,17.8151191 L20.4068027,19.1580794 L17.3702406,19.1580794 L16.6796134,18.3152744 L15.9407022,19.1580794 L11.0140725,19.1580794 L11.0140725,13.6274006" id="Fill-3" fill="#FFFFFF"></path>
                                <path d="M26.7732936,14.4565529 L29.9114185,14.4565529 L29.9114185,15.2980259 L27.733978,15.2980259 L27.733978,16.0316092 L29.8504808,16.0316092 L29.8504808,16.7731844 L27.733978,16.7731844 L27.733978,17.5453949 L29.9114185,17.5453949 L29.9114185,18.3658893 L26.7732936,18.3658893 L26.7732936,14.4565529" id="Fill-4" fill="#006E95"></path>
                                <path d="M35.9735539,15.9796623 C37.1526816,16.040267 37.2515805,16.6296644 37.2515805,17.257689 C37.2515805,17.9899404 36.6495294,18.3835379 36.0211718,18.3835379 L34.0048999,18.3835379 L34.0048999,17.5453949 L35.5756274,17.5453949 C35.8423547,17.5453949 36.2389492,17.5453949 36.2389492,17.1701119 C36.2389492,16.9916277 36.1693537,16.8780771 35.8859767,16.8481078 C35.7597724,16.8297932 35.2932494,16.8038197 35.2223219,16.8024877 C34.1570777,16.7745163 33.908665,16.2443917 33.908665,15.5993845 C33.908665,14.8661342 34.423805,14.4655437 35.0528285,14.4655437 L37.0681015,14.4655437 L37.0681015,15.3033538 L35.593276,15.3033538 C35.2576192,15.3066837 34.8953229,15.2637276 34.8953229,15.6430065 C34.8953229,15.8827614 35.0741401,15.9310454 35.3012412,15.9530229 C35.3798276,15.9530229 35.9032924,15.9803283 35.9735539,15.9796623" id="Fill-5" fill="#006E95"></path>
                                <path d="M32.3595821,15.9796623 C33.5393759,16.040267 33.6382748,16.6296644 33.6382748,17.257689 C33.6382748,17.9899404 33.0365567,18.3835379 32.4075331,18.3835379 L30.3922602,18.3835379 L30.3922602,17.5453949 L31.9626546,17.5453949 C32.2287159,17.5453949 32.6263094,17.5453949 32.6263094,17.1701119 C32.6263094,16.9916277 32.5560479,16.8780771 32.272338,16.8481078 C32.1461337,16.8297932 31.6792777,16.8038197 31.6096822,16.8024877 C30.543106,16.7745163 30.2963582,16.2443917 30.2963582,15.5993845 C30.2963582,14.8661342 30.8108322,14.4655437 31.4391898,14.4655437 L33.4547957,14.4655437 L33.4547957,15.3033538 L31.9803032,15.3033538 C31.6439804,15.3066837 31.2816842,15.2637276 31.2816842,15.6430065 C31.2816842,15.8827614 31.4615003,15.9310454 31.6882685,15.9530229 C31.7665218,15.9530229 32.2899866,15.9803283 32.3595821,15.9796623" id="Fill-6" fill="#006E95"></path>
                                <path d="M20.9792174,14.4652107 L17.6109945,14.4652107 L16.511119,15.6779708 L15.4472067,14.4565529 L11.6637416,14.4565529 L11.6637416,18.3658893 L15.3243324,18.3658893 L16.4768207,17.0742099 L17.6016707,18.3752131 L19.4437873,18.3752131 L19.4437873,17.0475705 L20.7348007,17.0475705 C21.232292,17.0475705 22.1400306,17.0305879 22.1400306,15.6603222 C22.1400306,14.6829881 21.4507354,14.4652107 20.9792174,14.4652107 L20.9792174,14.4652107 Z M14.8235111,17.5453949 L12.6101074,17.5453949 L12.6101074,16.7731844 L14.7272761,16.7731844 L14.7272761,16.0316092 L12.6101074,16.0316092 L12.6101074,15.2980259 L14.9443875,15.3033538 L15.8790985,16.3672661 L14.8235111,17.5453949 L14.8235111,17.5453949 Z M18.4920936,17.9992642 L17.1135031,16.3672661 L18.4920936,14.8401607 L18.4920936,17.9992642 L18.4920936,17.9992642 Z M20.6558814,16.2423937 L19.4604369,16.2423937 L19.4604369,15.3040198 L20.6598773,15.3040198 C21.0617997,15.3040198 21.18867,15.5614233 21.18867,15.7535602 C21.18867,16.0156256 21.048813,16.2423937 20.6558814,16.2423937 L20.6558814,16.2423937 Z" id="Fill-7" fill="#006E95"></path>
                                <path d="M25.6158103,16.5943672 C26.1399411,16.3329678 26.2791321,15.9836583 26.2791321,15.5121403 C26.2791321,14.6749962 25.5988277,14.4655437 25.1273098,14.4655437 L22.6318611,14.4655437 L22.6318611,18.3752131 L23.5918796,18.3752131 L23.5918796,16.9956236 L24.8482617,16.9956236 C25.1799226,16.9956236 25.3107888,17.3272845 25.3191137,17.6589454 L25.3444211,18.3752131 L26.2791321,18.3752131 L26.2441679,17.5717013 C26.2441679,16.9430107 26.0703456,16.6463141 25.6158103,16.5943672 L25.6158103,16.5943672 Z M24.787324,16.1897808 L23.5918796,16.1897808 L23.5918796,15.3040198 L24.7909869,15.3040198 C25.1922434,15.3040198 25.3191137,15.5614233 25.3191137,15.7535602 C25.3191137,16.0149596 25.1799226,16.1897808 24.787324,16.1897808 L24.787324,16.1897808 Z" id="Fill-8" fill="#006E95"></path>
                                <path d="M23.0161349,7.70745321 L23.9761534,7.70745321 L23.9761534,11.6214515 L23.0161349,11.6214515 L23.0161349,7.70745321 Z" id="Fill-9" fill="#006E95"></path>
                                <path d="M15.1588349,7.71211511 L18.2956278,7.71211511 L18.2956278,8.55392111 L16.1188534,8.55392111 L16.1188534,9.28750443 L18.2346901,9.28750443 L18.2346901,10.0287466 L16.1188534,10.0287466 L16.1188534,10.8006241 L18.2956278,10.8006241 L18.2956278,11.6214515 L15.1588349,11.6214515 L15.1588349,7.71211511" id="Fill-10" fill="#006E95"></path>
                                <path d="M21.8499938,9.84093859 C22.3741246,9.57987217 22.5133156,9.23022965 22.5133156,8.75871173 C22.5133156,7.92090164 21.8323452,7.71211511 21.3614933,7.71211511 L18.8653786,7.71211511 L18.8653786,11.6214515 L19.8253971,11.6214515 L19.8253971,10.242861 L21.0821122,10.242861 C21.4137732,10.242861 21.5449724,10.5738559 21.5536302,10.9055168 L21.5796036,11.6214515 L22.5133156,11.6214515 L22.4790174,10.8182727 C22.4790174,10.1902481 22.3038631,9.89355147 21.8499938,9.84093859 L21.8499938,9.84093859 Z M21.0208416,9.43635224 L19.8253971,9.43635224 L19.8253971,8.55059118 L21.0255035,8.55059118 C21.4260939,8.55059118 21.5536302,8.80799468 21.5536302,8.99979858 C21.5536302,9.26219697 21.4137732,9.43635224 21.0208416,9.43635224 L21.0208416,9.43635224 Z" id="Fill-11" fill="#006E95"></path>
                                <path d="M12.9450982,7.71211511 L11.7673024,10.334434 L10.5931695,7.71211511 L9.08837468,7.71211511 L9.08837468,11.4772656 L7.4130875,7.71211511 L6.14271966,7.71211511 L4.43246823,11.6214515 L5.44509958,11.6214515 L5.81971657,10.7486772 L7.7357576,10.7486772 L8.11536949,11.6214515 L10.0477272,11.6214515 L10.0477272,8.71941857 L11.3307487,11.6214515 L12.2035231,11.6214515 L13.516847,8.76770254 L13.516847,11.6214515 L14.4768655,11.6214515 L14.4768655,7.71211511 L12.9450982,7.71211511 L12.9450982,7.71211511 Z M6.18234582,9.90520622 L6.75476058,8.53893643 L7.35115083,9.90520622 L6.18234582,9.90520622 L6.18234582,9.90520622 Z" id="Fill-12" fill="#006E95"></path>
                                <path d="M33.8806936,7.71011715 L33.8806936,10.4170163 L32.2620152,7.71011715 L30.8434655,7.71011715 L30.8434655,11.3816967 L29.2084705,7.71211511 L27.9381027,7.71211511 L26.6161209,10.7403524 C26.6161209,10.7403524 26.0573589,10.7403524 26.0007501,10.7266997 C25.769986,10.6790817 25.4083557,10.5159152 25.4036938,9.8266199 L25.4036938,9.54290997 C25.4036938,8.62651356 25.9011852,8.55958199 26.5391996,8.55958199 L27.1319269,8.55958199 L27.1319269,7.71011715 L25.8785417,7.71011715 C25.441988,7.71011715 24.4926253,8.04311003 24.460658,9.64913469 C24.4386805,10.7313616 24.9101984,11.6234495 25.9747766,11.6234495 L27.2404826,11.6234495 L27.6150996,10.7506751 L29.5304746,10.7506751 L29.9100865,11.6234495 L31.80415,11.6234495 L31.80415,8.76070969 L33.5313841,11.6234495 L34.8407121,11.6234495 L34.8407121,7.71011715 L33.8806936,7.71011715 L33.8806936,7.71011715 Z M27.9850547,9.90720418 L28.5568034,8.5406014 L29.1588546,9.90720418 L27.9850547,9.90720418 L27.9850547,9.90720418 Z" id="Fill-13" fill="#006E95"></path>
                            </g>
                        </g>
                    </g>
                </g>
            </g>
        </g>
    </g>
</svg>