<svg width="44" height="28" viewBox="0 0 44 28" xmlns="http://www.w3.org/2000/svg" xmlns:sketch="http://www.bohemiancoding.com/sketch/ns"><title>creditcard-mastercard</title><desc>Created with Sketch.</desc><g sketch:type="MSShapeGroup" fill="none"><path d="M42.011 24.954c0 .769-.624 1.392-1.393 1.392h-38.983c-.769 0-1.392-.623-1.392-1.392v-23.32c0-.769.623-1.393 1.392-1.393h38.983c.769 0 1.393.623 1.393 1.393v23.32" fill="#13457C"/><path d="M26.139 20.787l.387-.01.382-.028.374-.047.372-.066.362-.083.356-.101.349-.119.341-.134.334-.152.324-.164.313-.182.306-.194.293-.209.283-.223.273-.235.26-.25.25-.26.235-.273.223-.283.209-.293.194-.306.182-.314.164-.323.152-.333.134-.342.119-.349.102-.356.083-.362.066-.371.048-.374.028-.382.01-.387-.01-.384-.028-.379-.048-.374-.066-.367-.083-.361-.102-.354-.119-.349-.134-.339-.152-.331-.164-.324-.182-.311-.194-.306-.209-.293-.223-.281-.235-.272-.25-.261-.26-.248-.273-.235-.283-.222-.293-.21-.306-.195-.313-.179-.324-.164-.334-.152-.341-.134-.349-.119-.356-.101-.362-.083-.372-.066-.374-.048-.382-.028-.387-.01-.384.01-.382.028-.374.048-.369.066-.362.083-.357.101-.346.119-.341.134-.331.152-.321.164-.313.179-.304.195-.292.21-.284.222-.271.235-.26.248-.248.261-.235.272-.222.281-.207.293-.195.306-.179.311-.167.324-.149.331-.134.339-.116.349-.101.354-.084.361-.066.367-.048.374-.028.379-.01.384.01.387.028.382.048.374.066.371.084.362.101.356.116.349.134.342.149.333.167.323.179.314.195.306.207.293.222.283.235.273.248.26.26.25.271.235.284.223.292.209.304.194.313.182.321.164.331.152.341.134.346.119.357.101.362.083.369.066.374.047.382.028.384.01" fill="#FBB231"/><path d="M16.114 20.787l.384-.01.382-.028.375-.047.369-.066.362-.083.356-.101.347-.119.341-.134.331-.152.321-.164.313-.182.304-.194.293-.209.283-.223.271-.235.26-.25.248-.26.235-.273.222-.283.207-.293.194-.306.179-.314.167-.323.149-.333.134-.342.117-.349.101-.356.084-.362.065-.371.049-.374.027-.382.01-.387-.01-.384-.027-.379-.049-.374-.065-.367-.084-.361-.101-.354-.117-.349-.134-.339-.149-.331-.167-.324-.179-.311-.194-.306-.207-.293-.222-.281-.235-.272-.248-.261-.26-.248-.271-.235-.283-.222-.293-.21-.304-.195-.313-.179-.321-.164-.331-.152-.341-.134-.347-.119-.356-.101-.362-.083-.369-.066-.375-.048-.382-.028-.384-.01-.387.01-.382.028-.374.048-.372.066-.361.083-.357.101-.349.119-.341.134-.334.152-.323.164-.313.179-.306.195-.293.21-.283.222-.273.235-.26.248-.25.261-.235.272-.222.281-.21.293-.194.306-.182.311-.164.324-.152.331-.133.339-.119.349-.101.354-.083.361-.066.367-.048.374-.028.379-.01.384.01.387.028.382.048.374.066.371.083.362.101.356.119.349.133.342.152.333.164.323.182.314.194.306.21.293.222.283.235.273.25.26.26.25.273.235.283.223.293.209.306.194.313.182.323.164.334.152.341.134.349.119.357.101.361.083.372.066.374.047.382.028.387.01" fill="#EC1C2E"/><path fill="#FBB231" d="M20.25 8.675h3.982v-.407h-3.638l-.344.407"/><path fill="#FBB231" d="M19.653 9.58h4.578v-.407h-4.338l-.24.407"/><path fill="#FBB231" d="M19.208 10.482h5.024v-.407h-4.846l-.178.407"/><path fill="#FBB231" d="M18.902 11.387h5.329v-.407h-5.202l-.127.407"/><path fill="#FBB231" d="M19.08 15.76h5.164v-.407h-5.291l.127.407"/><path fill="#FBB231" d="M19.461 16.665h4.783v-.407h-4.972l.189.407"/><path fill="#FBB231" d="M19.997 17.567h4.247v-.407h-4.503l.256.407"/><path fill="#FBB231" d="M20.735 18.472h3.509v-.41h-3.865l.356.41"/><path fill="#FBB231" d="M18.723 12.289h5.508v-.407h-5.43l-.078.407"/><path fill="#FBB231" d="M22.08 14.858h2.1v-.407h-2.025l-.076.407"/><path fill="#FBB231" d="M22.246 13.955h1.934v-.409h-1.857l-.076.409"/><path fill="#FBB231" d="M18.584 13.546h.546v.409h-.52l-.026-.409"/><path d="M17.565 13.052l-.035-.003-.036-.005-.033-.005-.032-.005-.031-.005-.033-.005-.033-.005-.036-.005-.035-.005-.04-.003-.046-.003-.048-.003h-.053l-.059.003-.066.005-.073.005-.051.008-.048.008-.043.015-.039.015-.035.018-.033.02-.025.026-.023.023-.016.028-.013.028-.005.03v.031l.008.033.01.033.02.033.026.033.051.048.061.038.07.033.076.028.081.026.084.028.083.031.081.033.076.043.07.053.064.064.053.078.04.096.026.114.01.137-.01.159-.018.119-.031.104-.04.096-.051.083-.058.074-.066.063-.071.056-.078.048-.081.038-.084.033-.086.025-.088.02-.086.016-.084.007-.083.005-.078.002h-.109l-.101-.002h-.089l-.083-.002-.076-.003-.068-.005-.061-.005-.058-.008-.053-.005-.048-.01-.047-.008-.044-.012-.043-.01-.04-.015-.04-.015-.043-.015.114-.559.023.005.028.008.035.01.043.011.046.01.05.01.056.012.061.01.063.01.066.01.069.007.07.008.073.002.074.003h.074l.073-.003.073-.015.059-.02.046-.028.035-.035.025-.036.02-.041.013-.04.01-.038.005-.074-.023-.063-.043-.051-.063-.043-.075-.038-.089-.038-.098-.036-.099-.04-.101-.046-.096-.053-.089-.066-.081-.078-.064-.096-.045-.114-.023-.136.003-.162.012-.099.018-.094.025-.086.031-.081.04-.076.046-.066.053-.063.063-.055.074-.048.081-.041.091-.038.101-.028.113-.023.124-.018.136-.01.15-.003h.093l.086.003.079.003.071.002.063.005.059.005.05.005.045.005.043.005.035.008.034.005.03.005.025.005.024.003.023.005.02.003-.129.571" fill="#fff"/><path d="M17.565 13.052l-.035-.003-.036-.005-.033-.005-.032-.005-.031-.005-.033-.005-.033-.005-.036-.005-.035-.005-.04-.003-.046-.003-.048-.003h-.053l-.059.003-.066.005-.073.005-.051.008-.048.008-.043.015-.039.015-.035.018-.033.02-.025.026-.023.023-.016.028-.013.028-.005.03v.031l.008.033.01.033.02.033.026.033.051.048.061.038.07.033.076.028.081.026.084.028.083.031.081.033.076.043.07.053.064.064.053.078.04.096.026.114.01.137-.01.159-.018.119-.031.104-.04.096-.051.083-.058.074-.066.063-.071.056-.078.048-.081.038-.084.033-.086.025-.088.02-.086.016-.084.007-.083.005-.078.002h-.109l-.101-.002h-.089l-.083-.002-.076-.003-.068-.005-.061-.005-.058-.008-.053-.005-.048-.01-.047-.008-.044-.012-.043-.01-.04-.015-.04-.015-.043-.015.114-.559.023.005.028.008.035.01.043.011.046.01.05.01.056.012.061.01.063.01.066.01.069.007.07.008.073.002.074.003h.074l.073-.003.073-.015.059-.02.046-.028.035-.035.025-.036.02-.041.013-.04.01-.038.005-.074-.023-.063-.043-.051-.063-.043-.075-.038-.089-.038-.098-.036-.099-.04-.101-.046-.096-.053-.089-.066-.081-.078-.064-.096-.045-.114-.023-.136.003-.162.012-.099.018-.094.025-.086.031-.081.04-.076.046-.066.053-.063.063-.055.074-.048.081-.041.091-.038.101-.028.113-.023.124-.018.136-.01.15-.003h.093l.086.003.079.003.071.002.063.005.059.005.05.005.045.005.043.005.035.008.034.005.03.005.025.005.024.003.023.005.02.003-.129.571" stroke="#fff" stroke-width=".216"/><path d="M18.165 11.857h.7l-.103.612h.422l-.091.571-.445-.013-.243 1.41-.002.051.012.043.025.033.033.028.046.018.051.015.055.01.06.005.056-.002.051-.005.045-.008.041-.01.033-.01.023-.007.015-.005.005-.002-.089.47-.018.013-.017.01-.018.01-.018.01-.017.008-.02.008-.023.008-.023.008-.025.007-.025.005-.03.005-.031.005-.033.005-.038.005-.041.005-.043.005h-.192l-.101-.008-.089-.01-.081-.015-.068-.018-.059-.023-.048-.025-.043-.031-.033-.033-.025-.035-.018-.043-.013-.043-.007-.048-.002-.053v-.056l.008-.058.007-.063.483-2.758" fill="#fff"/><path d="M18.165 11.857h.7l-.103.612h.422l-.091.571-.445-.013-.243 1.41-.002.051.012.043.025.033.033.028.046.018.051.015.055.01.06.005.056-.002.051-.005.045-.008.041-.01.033-.01.023-.007.015-.005.005-.002-.089.47-.018.013-.017.01-.018.01-.018.01-.017.008-.02.008-.023.008-.023.008-.025.007-.025.005-.03.005-.031.005-.033.005-.038.005-.041.005-.043.005h-.192l-.101-.008-.089-.01-.081-.015-.068-.018-.059-.023-.048-.025-.043-.031-.033-.033-.025-.035-.018-.043-.013-.043-.007-.048-.002-.053v-.056l.008-.058.007-.063.483-2.758m1.576 2.136l-.007.043-.002.045.004.048.011.048.018.048.02.046.027.048.031.043.036.043.038.038.041.038.045.03.045.028.051.022.05.018.051.01.066.01.063.008.066.008.066.005.065.003h.068l.066-.003.068-.005.068-.01.069-.013.07-.015.068-.023.071-.028.074-.031.07-.04.074-.043-.101.622-.04.02-.041.02-.04.015-.038.016-.038.012-.041.013-.04.01-.043.008-.046.008-.051.005-.053.005-.058.005-.066.003h-.068l-.078.002h-.083l-.124-.002-.126-.013-.126-.018-.127-.031-.124-.038-.119-.048-.114-.063-.106-.073-.099-.086-.086-.104-.073-.117-.061-.134-.043-.149-.028-.169-.007-.187.012-.207.011-.081.015-.094.02-.098.028-.107.038-.108.045-.109.059-.111.07-.106.081-.101.098-.096.111-.086.127-.076.146-.063.164-.046.182-.03.205-.011.098.003.104.01.103.018.104.025.102.038.098.046.091.061.083.071.076.086.063.101.051.116.035.134.02.151.003.172-.018.192-.038.213-.013.154h-1.842l.116-.498h1.107l.005-.063-.003-.061-.005-.056-.01-.05-.018-.048-.018-.044-.025-.038-.025-.035-.03-.03-.033-.025-.038-.023-.038-.02-.04-.015-.041-.01-.043-.008-.045-.005-.049.003-.045.008-.043.01-.043.015-.044.02-.038.023-.039.028-.032.03-.033.035-.031.038-.027.041-.023.043-.023.045-.018.05-.015.051-.01.053-.102.523" stroke="#fff" stroke-width=".216"/><path d="M25.77 12.62l-.033-.018-.033-.015-.035-.018-.038-.018-.038-.015-.086-.03-.046-.015-.048-.013-.048-.01-.053-.01-.053-.008-.058-.005-.058-.005h-.187l-.066.005-.068.008-.072.012-.07.02-.071.028-.07.036-.072.045-.068.056-.066.066-.063.081-.061.094-.056.111-.053.127-.048.142-.041.162-.015.091-.01.088-.005.089.003.086.008.086.017.081.023.076.028.076.038.069.046.065.053.058.061.053.068.046.078.038.086.033.097.023.032.007.038.008.045.005.051.005.055.005h.122l.063-.005.066-.008.066-.012.063-.018.063-.02.063-.028.059-.033.053-.041.051-.045-.114.675-.015.012-.016.015-.02.018-.023.014-.027.02-.036.018-.04.018-.046.015-.058.018-.066.013-.076.01-.088.01-.098.005-.114.003-.129-.003-.143-.008-.116-.013-.117-.025-.116-.038-.116-.051-.111-.06-.106-.076-.102-.088-.094-.101-.083-.114-.071-.126-.061-.142-.046-.155-.03-.169-.011-.18.005-.197.027-.21.021-.103.023-.101.025-.099.025-.094.028-.089.033-.088.033-.084.035-.078.038-.078.038-.074.043-.071.046-.066.046-.064.05-.06.051-.056.053-.053.058-.051.058-.048.061-.043.064-.041.068-.038.069-.032.071-.031.073-.028.078-.025.078-.02.081-.018.086-.015.086-.013.091-.01.091-.005.096-.003.081.003.079.005.076.007.076.01.071.01.068.015.065.013.061.015.058.015.051.015.048.015.04.015.035.013.031.01.023.01.015.005-.127.7" fill="#fff"/><path d="M25.77 12.62l-.033-.018-.033-.015-.035-.018-.038-.018-.038-.015-.086-.03-.046-.015-.048-.013-.048-.01-.053-.01-.053-.008-.058-.005-.058-.005h-.187l-.066.005-.068.008-.072.012-.07.02-.071.028-.07.036-.072.045-.068.056-.066.066-.063.081-.061.094-.056.111-.053.127-.048.142-.041.162-.015.091-.01.088-.005.089.003.086.008.086.017.081.023.076.028.076.038.069.046.065.053.058.061.053.068.046.078.038.086.033.097.023.032.007.038.008.045.005.051.005.055.005h.122l.063-.005.066-.008.066-.012.063-.018.063-.02.063-.028.059-.033.053-.041.051-.045-.114.675-.015.012-.016.015-.02.018-.023.014-.027.02-.036.018-.04.018-.046.015-.058.018-.066.013-.076.01-.088.01-.098.005-.114.003-.129-.003-.143-.008-.116-.013-.117-.025-.116-.038-.116-.051-.111-.06-.106-.076-.102-.088-.094-.101-.083-.114-.071-.126-.061-.142-.046-.155-.03-.169-.011-.18.005-.197.027-.21.021-.103.023-.101.025-.099.025-.094.028-.089.033-.088.033-.084.035-.078.038-.078.038-.074.043-.071.046-.066.046-.064.05-.06.051-.056.053-.053.058-.051.058-.048.061-.043.064-.041.068-.038.069-.032.071-.031.073-.028.078-.025.078-.02.081-.018.086-.015.086-.013.091-.01.091-.005.096-.003.081.003.079.005.076.007.076.01.071.01.068.015.065.013.061.015.058.015.051.015.048.015.04.015.035.013.031.01.023.01.015.005-.127.7" stroke="#fff" stroke-width=".216"/><path d="M31.993 15.176h-.7l.051-.28v-.026l-.041.051-.042.045-.043.041-.046.036-.046.033-.046.027-.046.023-.048.023-.047.018-.048.013-.048.012-.051.007-.051.008-.048.005-.05.003h-.051l-.132-.01-.121-.028-.111-.043-.101-.058-.091-.074-.081-.086-.071-.094-.061-.106-.051-.114-.04-.118-.028-.124-.02-.129-.007-.129.002-.131.013-.129.023-.129.038-.15.046-.142.052-.129.064-.121.066-.114.076-.101.079-.091.083-.084.089-.074.094-.063.096-.056.096-.043.101-.036.101-.023.102-.015.104-.005.073.002.07.008.066.013.061.018.057.021.051.022.051.028.045.028.04.03.038.033.032.033.031.033.025.033.024.033.019.031.016.03.177-.994h.688l-.572 3.306" fill="#fff"/><path d="M31.993 15.176h-.7l.051-.28v-.026l-.041.051-.042.045-.043.041-.046.036-.046.033-.046.027-.046.023-.048.023-.047.018-.048.013-.048.012-.051.007-.051.008-.048.005-.05.003h-.051l-.132-.01-.121-.028-.111-.043-.101-.058-.091-.074-.081-.086-.071-.094-.061-.106-.051-.114-.04-.118-.028-.124-.02-.129-.007-.129.002-.131.013-.129.023-.129.038-.15.046-.142.052-.129.064-.121.066-.114.076-.101.079-.091.083-.084.089-.074.094-.063.096-.056.096-.043.101-.036.101-.023.102-.015.104-.005.073.002.07.008.066.013.061.018.057.021.051.022.051.028.045.028.04.03.038.033.032.033.031.033.025.033.024.033.019.031.016.03.177-.994h.688l-.572 3.306" stroke="#fff" stroke-width=".216"/><path d="M30.848 14.564l.071-.005.066-.015.06-.018.059-.028.053-.03.051-.038.047-.043.044-.046.038-.05.035-.056.033-.058.028-.06.025-.064.021-.066.018-.068.012-.068.012-.071.009-.073v-.069l-.003-.07-.007-.066-.01-.063-.018-.061-.02-.058-.025-.05-.03-.048-.033-.041-.038-.035-.043-.03-.046-.02-.047-.013-.053-.005-.069.005-.063.01-.058.02-.059.025-.051.033-.05.04-.043.043-.043.048-.038.055-.035.059-.033.061-.028.066-.025.068-.02.069-.02.073-.016.073-.013.112.006.121.018.124.032.119.051.104.066.083.083.056.101.02" fill="#FBB231"/><path d="M15.326 14.615l-.101.561h-.637l.018-.104.013-.094.01-.071.01-.038-.035.041-.041.041-.047.038-.053.035-.061.036-.064.03-.066.031-.068.025-.074.023-.073.018-.073.015-.076.01-.074.005-.073.002-.071-.008-.069-.01-.088-.023-.081-.026-.071-.033-.063-.038-.055-.04-.051-.046-.04-.048-.036-.05-.03-.053-.025-.056-.02-.055-.015-.056-.011-.058-.008-.058-.005-.056v-.055l.008-.099.016-.094.025-.088.033-.086.041-.081.045-.073.053-.071.061-.064.063-.058.071-.053.073-.048.076-.041.081-.035.084-.028.086-.023.088-.015h.005l.012-.003.018-.002.028-.003.031-.005.035-.003.038-.005.044-.005.043-.005.043-.005.046-.003.04-.005.04-.002.038-.003.035-.002h.086l.061.002.055.003h.055l.046.002.036.002.025.003h.008l.005-.018.015-.045.013-.053.005-.048-.01-.056-.023-.051-.03-.045-.041-.038-.048-.032-.053-.023-.061-.015-.066-.005-.071-.003-.076-.002h-.078l-.081.002-.083.005-.081.007-.081.008-.079.01-.075.01-.074.013-.066.013-.061.013-.056.016-.045.015-.036.018-.028.015.179-.609.056-.023.055-.02.061-.018.06-.013.061-.013.066-.01.066-.01.068-.005.071-.005.073-.003.076-.003h.242l.089.003.088.003.071.005.076.013.079.018.08.023.078.031.077.035.076.043.071.048.063.056.056.061.051.068.038.076.025.081.015.086v.096l-.015.101-.256 1.335" fill="#fff"/><path d="M15.326 14.615l-.101.561h-.637l.018-.104.013-.094.01-.071.01-.038-.035.041-.041.041-.047.038-.053.035-.061.036-.064.03-.066.031-.068.025-.074.023-.073.018-.073.015-.076.01-.074.005-.073.002-.071-.008-.069-.01-.088-.023-.081-.026-.071-.033-.063-.038-.055-.04-.051-.046-.04-.048-.036-.05-.03-.053-.025-.056-.02-.055-.015-.056-.011-.058-.008-.058-.005-.056v-.055l.008-.099.016-.094.025-.088.033-.086.041-.081.045-.073.053-.071.061-.064.063-.058.071-.053.073-.048.076-.041.081-.035.084-.028.086-.023.088-.015h.005l.012-.003.018-.002.028-.003.031-.005.035-.003.038-.005.044-.005.043-.005.043-.005.046-.003.04-.005.04-.002.038-.003.035-.002h.086l.061.002.055.003h.055l.046.002.036.002.025.003h.008l.005-.018.015-.045.013-.053.005-.048-.01-.056-.023-.051-.03-.045-.041-.038-.048-.032-.053-.023-.061-.015-.066-.005-.071-.003-.076-.002h-.078l-.081.002-.083.005-.081.007-.081.008-.079.01-.075.01-.074.013-.066.013-.061.013-.056.016-.045.015-.036.018-.028.015.179-.609.056-.023.055-.02.061-.018.06-.013.061-.013.066-.01.066-.01.068-.005.071-.005.073-.003.076-.003h.242l.089.003.088.003.071.005.076.013.079.018.08.023.078.031.077.035.076.043.071.048.063.056.056.061.051.068.038.076.025.081.015.086v.096l-.015.101-.256 1.335" stroke="#fff" stroke-width=".216"/><path d="M14.717 13.955l-.003-.012-.01-.013-.015-.008-.025-.005-.028-.005-.033-.003h-.076l-.041.003-.043.005-.04.005-.04.005-.038.005-.036.007-.03.008-.028.007-.018.005-.02.008-.028.01-.028.013-.033.015-.033.018-.035.017-.033.021-.035.025-.033.025-.03.031-.028.03-.026.033-.017.036-.016.04-.007.04-.002.086.013.068.025.051.033.038.038.025.043.015.04.008.041.003.076-.003.068-.008.066-.01.057-.015.051-.018.047-.022.043-.023.039-.028.033-.025.03-.03.025-.028.02-.03.017-.03.015-.03.013-.028.007-.028.021-.073.018-.084.015-.081.013-.066" fill="#EC1C2E"/><path d="M10.008 15.176h-.688l.574-3.319h1.196l.113 1.969.827-1.969h1.249l-.587 3.319h-.687l.434-2.479h-.027l-1.029 2.479h-.776l-.004-.104-.018-.276-.023-.392-.051-.902-.023-.397-.018-.288-.005-.122h-.038l-.419 2.479" fill="#fff"/><path d="M10.008 15.176h-.688l.574-3.319h1.196l.113 1.969.827-1.969h1.249l-.587 3.319h-.687l.434-2.479h-.027l-1.029 2.479h-.776l-.004-.104-.018-.276-.023-.392-.051-.902-.023-.397-.018-.288-.005-.122h-.038l-.419 2.479" stroke="#fff" stroke-width=".216"/><path d="M27.871 14.615l-.103.561h-.635l.005-.104.003-.091v-.068l.005-.03-.033.038-.038.038-.046.035-.05.036-.053.032-.06.03-.063.031-.063.025-.069.02-.07.02-.071.013-.07.01-.074.005-.07.002-.069-.008-.068-.01-.091-.023-.081-.026-.071-.033-.066-.038-.056-.04-.048-.046-.04-.048-.036-.05-.03-.053-.023-.056-.02-.055-.013-.056-.01-.058-.008-.058-.005-.056v-.055l.005-.099.016-.094.023-.088.033-.086.038-.081.049-.073.053-.071.058-.064.067-.058.068-.053.074-.048.078-.041.079-.035.083-.028.083-.023.086-.015h.005l.013-.003.018-.002.025-.003.032-.005.036-.003.038-.005.04-.005.043-.005.046-.005.043-.003.043-.005.041-.002.035-.003.035-.002h.088l.061.002.058.003h.056l.047.002.041.002.023.003h.01l.004-.018.008-.045.007-.053.005-.048-.01-.056-.02-.051-.033-.045-.039-.038-.045-.032-.054-.023-.056-.015-.06-.005-.071-.003-.076-.002h-.079l-.081.002-.084.005-.081.007-.081.008-.079.01-.075.01-.074.013-.065.013-.061.013-.056.016-.046.015-.035.018-.028.015.177-.609.055-.023.058-.02.058-.018.061-.013.063-.013.063-.01.066-.01.069-.005.071-.005.074-.003.073-.003h.238l.086.003.086.003.071.005.076.013.078.018.081.023.078.031.078.035.076.043.071.048.063.056.059.061.05.068.038.076.028.081.018.086v.096l-.012.101-.265 1.335" fill="#fff"/><path fill="#fff" d="M27.768 15.194l.015-.015.103-.561-.031-.005-.103.561.016-.016v.036l.012-.003.003-.012-.015.015"/><path fill="#fff" d="M27.117 15.176l.016.018h.635v-.036h-.635l.015.018h-.031l-.002.018h.017l-.016-.018"/><path fill="#fff" d="M27.158 14.892l-.023-.02-.01.041-.003.068v.091l-.005.104h.031l.005-.104.005-.091-.003-.068v-.021l-.022-.02.026.02"/><path fill="#fff" d="M26.175 15.216l.07.01.069.007.07-.002.074-.005.073-.01.071-.013.07-.02.071-.021.063-.025.066-.03.061-.03.053-.036.053-.036.046-.035.04-.041.033-.038-.026-.02-.033.038-.035.035-.045.036-.048.035-.053.03-.061.031-.06.03-.063.025-.066.02-.07.021-.071.013-.068.01-.074.005-.07.002-.069-.008-.066-.01-.005.03"/><path d="M25.562 14.45l.003.055.005.056.007.061.011.058.013.056.02.058.023.058.032.053.036.053.04.048.051.048.058.04.066.041.074.033.083.026.092.023.005-.03-.09-.023-.078-.025-.069-.033-.066-.036-.053-.04-.046-.044-.04-.048-.035-.048-.027-.053-.023-.053-.02-.053-.013-.056-.01-.058-.007-.056-.005-.056.003-.055h-.036" fill="#fff"/><path d="M26.47 13.48l-.088.015-.086.023-.083.028-.081.035-.079.04-.076.051-.068.053-.066.06-.061.063-.053.071-.051.076-.038.084-.033.086-.023.091-.015.096-.008.099h.036l.003-.099.015-.091.023-.086.033-.086.038-.079.046-.071.053-.071.055-.063.065-.056.069-.053.07-.045.079-.041.076-.035.084-.028.081-.023.083-.015v-.031" fill="#fff"/><path fill="#fff" d="M26.991 13.427h-.028l-.035.005-.035.003-.041.002-.043.005-.043.003-.046.005-.043.005-.04.005-.038.005-.036.002-.032.005-.025.002-.02.003-.01.002h-.005v.031h.005l.016-.003.015-.002.025-.003.032-.005.036-.003.038-.005.04-.005.043-.005.046-.005.043-.002.043-.005.041-.002.035-.003h.063v-.035"/><path fill="#fff" d="M27.332 13.454l.016-.013h-.01l-.023-.002-.041-.002-.047-.005h-.114l-.061-.005h-.06v.035h.122l.058.005h.103l.041.003.023.003h.01l.014-.013-.014.013.012.002.002-.015-.03-.005"/><path fill="#fff" d="M27.358 13.293h-.003l-.003.048-.008.051-.007.046-.005.017.03.005.005-.018.008-.046.008-.055.008-.048h-.033"/><path fill="#fff" d="M27.057 13.042v.003l.059.003.053.015.051.023.043.031.035.035.03.043.021.045.01.053h.03l-.01-.058-.02-.056-.036-.048-.04-.041-.048-.035-.056-.023-.058-.015-.063-.008v.033"/><path fill="#fff" d="M25.972 13.164l.025.015.025-.013.033-.018.043-.015.056-.015.06-.013.066-.013.073-.013.073-.01.079-.011.081-.008.081-.007.084-.005h.235l.071.002v-.03l-.071-.002-.076-.005h-.079l-.081.005-.084.005-.081.008-.081.008-.079.01-.078.01-.074.013-.066.013-.061.013-.055.015-.048.016-.039.017-.03.018.026.015-.031-.005"/><path fill="#fff" d="M26.16 12.542l-.01.013-.177.609.031.005.176-.609-.01.013-.01-.031-.008.003-.003.01.01-.013"/><path fill="#fff" d="M27.284 12.426l-.086-.005-.086-.003h-.238l-.073.005-.074.003-.071.005-.069.004-.068.01-.062.01-.064.013-.061.013-.061.018-.058.02-.055.023.01.031.056-.023.058-.02.055-.018.061-.012.063-.013.063-.01.063-.01.069-.005.071-.005.074-.002h.311l.086.002h.086v-.03"/><path d="M28.151 13.283l.013-.104v-.096l-.018-.089-.028-.083-.04-.078-.051-.071-.061-.063-.063-.056-.073-.048-.076-.045-.081-.036-.079-.031-.083-.022-.079-.018-.078-.012-.071-.005v.03l.071.005.073.013.079.018.079.023.078.03.076.036.076.04.068.048.063.056.055.058.051.065.036.074.028.078.018.083v.096l-.013.099.031.005" fill="#fff"/><path fill="#fff" d="M27.886 14.617l.265-1.334-.031-.005-.265 1.334.031.005"/><path d="M27.259 13.955l-.005-.015-.01-.012-.017-.008-.026-.007-.027-.003-.032-.002h-.039l-.038.002-.041.005-.04.005-.04.005-.038.005-.038.008-.033.005-.033.008-.025.005-.018.003-.02.008-.025.008-.028.01-.033.015-.031.016-.035.018-.033.022-.033.023-.032.028-.028.028-.028.033-.022.035-.018.038-.015.041-.008.043-.002.086.012.068.021.051.03.038.038.025.044.015.043.008.043.003.076-.003.071-.008.066-.013.058-.017.055-.02.048-.023.046-.026.04-.03.036-.028.03-.033.028-.031.023-.033.018-.03.012-.03.01-.03.008-.028.01-.071.013-.073.01-.071.005-.064" fill="#FBB231"/><path fill="#fff" d="M32.466 14.83l.005-.059.02-.068.036-.061.043-.053.053-.043.06-.031.066-.021.071-.007.072.007.065.021.061.031.053.043.043.053.035.061.021.068.005.059h-.076l-.002-.046-.015-.056-.026-.05-.033-.043-.04-.035-.048-.025-.056-.018-.059-.005-.058.005-.055.018-.049.025-.04.035-.033.043-.025.05-.015.056-.005.046h-.074"/><path fill="#fff" d="M32.694 14.83v-.152h.139l.031.002.028.005.02.008.018.01.012.015.01.015.005.017.002.018-.002.023-.005.018-.007.015-.005.005h-.106l.01-.003.017-.002.016-.005.013-.005.01-.008.005-.008.005-.012v-.018l-.003-.013-.004-.01-.009-.005-.007-.005-.012-.002-.013-.002h-.103v.099h-.063"/><path fill="#fff" d="M32.466 14.83l-.002.015.007.073.02.068.036.061.043.051.053.043.06.033.066.02.071.007.072-.007.065-.02.061-.033.053-.043.043-.051.035-.061.021-.068.008-.073-.003-.015h-.076l.003.015-.005.061-.015.056-.026.048-.033.042-.04.036-.048.027-.056.018-.059.005-.058-.005-.055-.018-.049-.027-.04-.036-.033-.042-.025-.048-.015-.056-.005-.061v-.015h-.074"/><path fill="#fff" d="M32.694 14.83v.154h.063v-.127h.063l.076.127h.05l-.075-.127h.018l.017-.005.016-.005.013-.01.005-.007h-.106l-.013.002h-.063v-.002h-.063"/><path d="M32.464 14.845l.007-.074.02-.068.036-.061.043-.053.053-.043.06-.031.066-.021.071-.007.072.007.065.021.061.031.053.043.043.053.035.061.021.068.008.074-.008.073-.021.068-.035.061-.043.051-.053.043-.061.033-.065.02-.072.007-.071-.007-.066-.02-.06-.033-.053-.043-.043-.051-.036-.061-.02-.068-.007-.073m.293.139h-.063v-.306h.139l.031.002.028.005.02.008.018.01.012.015.01.015.005.017.002.018-.002.023-.005.018-.007.015-.01.013-.013.01-.016.005-.017.005h-.018l.075.127h-.05l-.076-.127h-.063v.127m.063-.152l.023-.005.017-.002.016-.005.013-.005.01-.008.005-.008.005-.012v-.018l-.003-.013-.004-.01-.009-.005-.007-.005-.012-.002-.013-.002h-.103v.101h.063m0 .306l.059-.005.056-.018.048-.027.04-.036.033-.042.026-.048.015-.056.005-.061-.005-.061-.015-.056-.026-.05-.033-.043-.04-.035-.048-.025-.056-.018-.059-.005-.058.005-.055.018-.049.025-.04.035-.033.043-.025.05-.015.056-.005.061.005.061.015.056.025.048.033.042.04.036.049.027.055.018.058.005" stroke="#fff" stroke-width=".216"/><path d="M28.06 15.176h.713l.256-1.438.01-.055.015-.056.016-.056.02-.056.025-.056.03-.053.033-.05.041-.048.045-.043.051-.041.058-.038.066-.03.074-.025.081-.02.089-.015.099-.005h.063l.114-.649-.071.005-.068.008-.063.012-.06.018-.056.02-.053.026-.051.027-.047.03-.046.036-.043.035-.04.041-.04.04-.038.043-.037.048-.038.046-.036.051.076-.457h-.71l-.473 2.707" fill="#fff"/><path d="M28.06 15.176h.713l.256-1.438.01-.055.015-.056.016-.056.02-.056.025-.056.03-.053.033-.05.041-.048.045-.043.051-.041.058-.038.066-.03.074-.025.081-.02.089-.015.099-.005h.063l.114-.649-.071.005-.068.008-.063.012-.06.018-.056.02-.053.026-.051.027-.047.03-.046.036-.043.035-.04.041-.04.04-.038.043-.037.048-.038.046-.036.051.076-.457h-.71l-.473 2.707" stroke="#fff" stroke-width=".216"/><path d="M21.367 15.176h.725l.242-1.438.01-.055.012-.053.013-.053.017-.051.02-.051.025-.048.03-.045.036-.043.04-.039.046-.037.055-.031.061-.028.071-.023.078-.02.086-.013.099-.008h.007l.01.003.012.003h.013l.013.002.01.003.007.002h.003l.003-.01.007-.03.01-.045.013-.056.018-.066.017-.071.024-.071.022-.071.021-.048.026-.048.025-.048.025-.043.023-.038.018-.03.012-.018.005-.008h-.003l-.01-.003-.013-.003-.018-.002h-.018l-.02-.002-.018-.003h-.018l-.079.005-.07.008-.066.012-.061.016-.059.02-.053.026-.048.025-.046.03-.043.033-.04.038-.038.038-.039.042-.038.044-.036.048-.038.05-.038.051.091-.457h-.725l-.473 2.707" fill="#fff"/><path d="M21.367 15.176h.725l.242-1.438.01-.055.012-.053.013-.053.017-.051.02-.051.025-.048.03-.045.036-.043.04-.039.046-.037.055-.031.061-.028.071-.023.078-.02.086-.013.099-.008h.007l.01.003.012.003h.013l.013.002.01.003.007.002h.003l.003-.01.007-.03.01-.045.013-.056.018-.066.017-.071.024-.071.022-.071.021-.048.026-.048.025-.048.025-.043.023-.038.018-.03.012-.018.005-.008h-.003l-.01-.003-.013-.003-.018-.002h-.018l-.02-.002-.018-.003h-.018l-.079.005-.07.008-.066.012-.061.016-.059.02-.053.026-.048.025-.046.03-.043.033-.04.038-.038.038-.039.042-.038.044-.036.048-.038.05-.038.051.091-.457h-.725l-.473 2.707" stroke="#fff" stroke-width=".216"/><path fill="#FBB231" d="M32.471 17.835v-.01l.02-.066.036-.058.043-.05.053-.041.06-.031.066-.017.071-.008.072.008.065.017.061.031.053.041.043.05.035.058.021.066v.01h-.073l-.015-.053-.026-.048-.033-.043-.04-.035-.048-.028-.056-.018-.059-.005-.058.005-.055.018-.049.028-.04.035-.033.043-.025.048-.015.053h-.073"/><path fill="#FBB231" d="M32.694 17.835v-.088h.169l.028.005.02.004.018.01.012.013.01.015.005.017.002.023h-.05v-.013l-.003-.013-.004-.01-.009-.005-.007-.005-.012-.003-.013-.002h-.103v.051h-.063"/><path fill="#FBB231" d="M32.464 17.89l.007-.055h.073v.002l-.005.053h-.076"/><path fill="#FBB231" d="M32.694 17.89v-.055h.063v.05h.063l.023-.005.017-.003.016-.005.013-.005.01-.007.005-.008.005-.012v-.005h.05l-.002.017-.005.015-.007.013-.01.01h-.24"/><path fill="#FBB231" d="M33.1 17.89l-.005-.053v-.002h.073l.008.055h-.076"/><path fill="#FBB231" d="M32.464 17.89v.008l.007.073.02.068.036.061.043.053.053.043.06.03.066.021.071.007.072-.007.065-.021.061-.03.053-.043.043-.053.035-.061.021-.068.008-.073v-.008h-.076v.008l-.005.061-.015.056-.026.048-.033.043-.04.036-.048.027-.056.018-.059.005-.058-.005-.055-.018-.049-.027-.04-.036-.033-.043-.025-.048-.015-.056-.005-.061v-.008h-.076"/><path fill="#FBB231" d="M32.694 17.89v.147h.063v-.127h.063l.076.127h.05l-.075-.127h.018l.017-.005.016-.005.013-.01h-.24"/><path d="M21.445 13.275l-.02-.151-.035-.134-.051-.116-.063-.101-.076-.086-.083-.071-.091-.061-.098-.046-.102-.038-.104-.025-.103-.018-.104-.01-.098-.003-.205.011-.182.03-.164.046-.146.063-.127.076-.111.086-.098.096-.081.101-.07.106-.059.111-.045.109-.038.108-.028.107-.02.098-.015.094-.011.081-.012.207.007.187.028.169.043.149.061.134.073.117.086.104.099.086.106.073.114.063.119.048.124.038.127.031.126.018.126.013.124.002h.083l.078-.002h.068l.066-.003.058-.005.053-.005.051-.005.046-.008.043-.008.04-.01.041-.013.038-.012.038-.016.04-.015.041-.02.04-.02.101-.622-.074.043-.07.04-.074.031-.071.028-.068.023-.07.015-.069.013-.068.01-.068.005-.066.003h-.068l-.065-.003-.066-.005-.066-.008-.063-.008-.066-.01-.051-.01-.05-.018-.051-.022-.045-.028-.045-.03-.041-.038-.038-.038-.036-.043-.031-.043-.027-.048-.02-.046-.018-.048-.011-.048-.004-.048.002-.043.006-.033h1.64l.013-.154.038-.213.018-.192-.003-.172zm-.685.233h-.924l.001-.002h-.001l.007-.035.01-.053.015-.051.018-.05.023-.045.023-.043.027-.041.031-.038.033-.035.032-.03.039-.028.038-.023.044-.02.043-.015.043-.01.045-.008.049-.003.045.005.043.008.041.01.04.015.038.02.038.023.033.025.03.03.025.035.025.038.018.044.018.048.01.05.005.056.003.061-.005.063z" fill="#fff"/></g></svg>