<?xml version="1.0" encoding="UTF-8" standalone="no"?>
<svg width="44px" height="28px" viewBox="0 0 44 28" version="1.1" xmlns="http://www.w3.org/2000/svg" xmlns:xlink="http://www.w3.org/1999/xlink" xmlns:sketch="http://www.bohemiancoding.com/sketch/ns">
    <!-- Generator: Sketch 3.0.4 (8053) - http://www.bohemiancoding.com/sketch -->
    <title>PayPal</title>
    <desc>Created with Sketch.</desc>
    <defs></defs>
    <g id="Campaign-Detail" stroke="none" stroke-width="1" fill="none" fill-rule="evenodd" sketch:type="MSPage">
        <g id="Desktop" sketch:type="MSArtboardGroup" transform="translate(-546.000000, -282.000000)">
            <g id="Lightbox---Support" sketch:type="MSLayerGroup" transform="translate(-9.000000, -29.000000)">
                <g id="2" transform="translate(367.000000, 91.000000)" sketch:type="MSShapeGroup">
                    <g id="Payment---Paypal" transform="translate(26.000000, 140.000000)">
                        <g id="Cards" transform="translate(162.000000, 81.000000)">
                            <g id="PayPal" transform="translate(0.045961, 0.000000)">
                                <path d="M42.9105873,25.1951013 C42.9105873,25.9845949 42.2720714,26.6243924 41.4840794,26.6243924 L1.53230159,26.6243924 C0.744309524,26.6243924 0.105452381,25.9845949 0.105452381,25.1951013 L0.105452381,1.2604557 C0.105452381,0.470620253 0.744309524,-0.168493671 1.53230159,-0.168493671 L41.4840794,-0.168493671 C42.2720714,-0.168493671 42.9105873,0.470620253 42.9105873,1.2604557 L42.9105873,25.1951013" id="Fill-1" fill="#FFFFFF"></path>
                                <path d="M29.7519048,11.7802025 C29.4809365,11.6291392 29.0577619,11.5525823 28.4782857,11.5525823 C28.1919603,11.5525823 27.9046111,11.575481 27.6155556,11.6205949 C27.4032857,11.6527215 27.3817857,11.6581899 27.2500556,11.686557 C26.9794286,11.7460253 26.9371111,12.0177342 26.9371111,12.0177342 L26.8504286,12.3762532 C26.8012857,12.6052405 26.9313095,12.5956709 26.9889841,12.5782405 C27.107746,12.5423544 27.1715635,12.5064684 27.4131825,12.4517848 C27.643881,12.3998354 27.8875476,12.3601899 28.0817302,12.3618987 C28.3670317,12.3618987 28.5840794,12.3933418 28.7284365,12.4534937 C28.8721111,12.5167215 28.9437778,12.6236962 28.9437778,12.7771519 C28.9448016,12.8137215 28.9451429,12.8478987 28.9321746,12.8783165 C28.9202302,12.9063418 28.8977063,12.9336835 28.8291111,12.9429114 C28.4223175,12.9668354 28.1305317,13.0040886 27.7783413,13.0556962 C27.4316111,13.1045696 27.1275397,13.1883038 26.8736349,13.3045063 C26.6030079,13.4244684 26.4006349,13.585443 26.2607143,13.789481 C26.1252302,13.9942025 26.0566349,14.2423291 26.0562937,14.5345443 C26.0562937,14.8106962 26.1552619,15.0362658 26.3470556,15.2109114 C26.5412381,15.3835063 26.7934365,15.4689494 27.098873,15.4689494 C27.2893016,15.4675823 27.439119,15.4535696 27.5455952,15.4269114 C27.6513889,15.4002532 27.7670794,15.3623165 27.889254,15.3093418 C27.9800317,15.2710633 28.0786587,15.216038 28.1824048,15.1466582 C28.2868333,15.0772785 28.3585,15.0277215 28.4513254,14.9672278 L28.4543968,14.9726962 L28.4284603,15.0882152 C28.428119,15.0888987 28.426754,15.0895823 28.426754,15.0902658 L28.4277778,15.0926582 C28.3974048,15.2310759 28.4810159,15.3459114 28.6175238,15.3602658 L28.6195714,15.3623165 L28.6311746,15.3623165 L28.6321984,15.363 C28.7229762,15.363 29.0345556,15.363 29.180619,15.3623165 L29.2819762,15.3623165 C29.2884603,15.3623165 29.2894841,15.3602658 29.2922143,15.358557 C29.4314524,15.3414684 29.5655714,15.2273165 29.5976508,15.0902658 L30.117746,12.8414051 C30.1293492,12.7884304 30.1389048,12.7275949 30.1443651,12.6568481 C30.1511905,12.5857595 30.1590397,12.5276582 30.1569921,12.4849367 C30.1580159,12.1670886 30.0211667,11.9316076 29.7519048,11.7802025 L29.7519048,11.7802025 Z M28.4905714,14.4603797 C28.4021825,14.5160886 28.3090159,14.5639367 28.2110714,14.6049494 C28.079,14.6579241 27.9547778,14.6859494 27.8394286,14.6859494 C27.6619683,14.6859494 27.5258016,14.6606582 27.434,14.607 C27.3418571,14.5560759 27.2933968,14.467557 27.2951032,14.3411013 C27.2951032,14.1951646 27.3288889,14.0813544 27.3981667,13.9924937 C27.4684683,13.9070506 27.5728968,13.8380127 27.7022381,13.7867468 C27.8312381,13.7426582 27.9895873,13.7071139 28.1718254,13.681481 C28.3346111,13.6609747 28.655746,13.6237215 28.6966984,13.6233797 C28.7379921,13.6233797 28.7656349,13.600481 28.7472063,13.7098481 C28.7390159,13.7573544 28.6461905,14.1391139 28.6031905,14.3123924 C28.5909048,14.3643418 28.5219683,14.4402152 28.4905714,14.4603797 L28.4905714,14.4603797 Z" id="Fill-2" fill="#336699"></path>
                                <path d="M20.7986905,11.6021392 C20.6468254,11.6021392 20.4461587,11.7262025 20.3512857,11.875557 C20.3512857,11.875557 19.3302063,13.6288481 19.2302143,13.8038354 C19.1756111,13.8981646 19.1199841,13.8383544 19.1104286,13.8034937 C19.1036032,13.7607722 18.7950952,11.8871772 18.7950952,11.8871772 C18.7599444,11.7364557 18.6022778,11.6069241 18.4057063,11.6076076 L17.7692381,11.6086329 C17.6153254,11.6086329 17.5194286,11.7313291 17.5535556,11.8803418 C17.5535556,11.8803418 18.0405476,14.6432278 18.1354206,15.2929367 C18.1828571,15.6517975 18.1306429,15.7160506 18.1306429,15.7160506 L17.4992937,16.8179241 C17.4071508,16.9669367 17.4576587,17.0896329 17.6105476,17.0896329 L18.348373,17.0892911 C18.5009206,17.0892911 18.7032937,16.9676203 18.7950952,16.8175823 L21.6330952,12.0095316 C21.6330952,12.0095316 21.9044048,11.5990633 21.654254,11.6021392 C21.483619,11.6052152 20.7986905,11.6021392 20.7986905,11.6021392" id="Fill-3" fill="#003366"></path>
                                <path d="M11.8379683,12.5799494 C11.6229683,12.7371646 11.325381,12.8161139 10.9387222,12.8161139 L10.7639921,12.8161139 C10.6100794,12.8161139 10.5128175,12.6937595 10.5472857,12.5433797 L10.7616032,11.6178608 C10.7940238,11.4688481 10.9475952,11.3447848 11.1018492,11.3464937 L11.3349365,11.3447848 C11.6072698,11.3447848 11.8140794,11.3912658 11.9543413,11.4845696 C12.091873,11.5744557 12.1618333,11.7173165 12.1587619,11.9093924 C12.1631984,12.1981899 12.0536508,12.4217089 11.8379683,12.5799494 M13.376754,11.1527089 C13.2880238,10.9801139 13.1556111,10.8393038 12.986,10.7333544 C12.8105873,10.6243291 12.6054841,10.5498228 12.3672778,10.5043671 C12.1273651,10.4616456 11.8475238,10.4407975 11.5260476,10.4377215 L10.0387937,10.4387468 C9.88385714,10.4407975 9.73301587,10.5617848 9.69718254,10.7104557 L8.69419048,15.077962 C8.65938095,15.2269747 8.75561905,15.3503544 8.90987302,15.3503544 L9.62312698,15.3503544 C9.77635714,15.3503544 9.92992857,15.2300506 9.96371429,15.077962 L10.2094286,14.0177848 C10.2421905,13.8697975 10.3947381,13.7467595 10.5493333,13.7467595 L10.7527302,13.7467595 C11.6243333,13.7460759 12.3003889,13.5676709 12.7860159,13.2101772 C13.2713016,12.8537089 13.5136032,12.381038 13.5125794,11.7959241 C13.5136032,11.5392532 13.4692381,11.3246203 13.376754,11.1527089" id="Fill-4" fill="#003366"></path>
                                <path d="M24.7758492,12.5973797 C24.5625556,12.7532278 24.2629206,12.8311519 23.8769444,12.8311519 L23.6998254,12.8311519 C23.546254,12.832519 23.447627,12.7084557 23.4834603,12.5597848 L23.6977778,11.632557 C23.7295159,11.4855949 23.8851349,11.3608481 24.0363175,11.362557 L24.2704286,11.3608481 C24.544127,11.362557 24.7485476,11.4083544 24.8898333,11.4992658 C25.0283889,11.5915443 25.095619,11.7344051 25.0966429,11.9247722 C25.0973254,12.2149367 24.9901667,12.4384557 24.7758492,12.5973797 M26.3136111,11.1684304 C26.224881,10.9958354 26.0911032,10.8563924 25.9214921,10.7480506 C25.7474444,10.6393671 25.5409762,10.5641772 25.3020873,10.5200886 C25.0655873,10.4783924 24.7840397,10.4544684 24.4639286,10.4541266 L22.9729206,10.4544684 C22.8193492,10.4572025 22.6688492,10.5781899 22.6330159,10.7268608 L21.6313889,15.0950506 C21.5945317,15.2433797 21.6938413,15.367443 21.8450238,15.3664177 L22.5603254,15.3653924 C22.7115079,15.3664177 22.8661032,15.2433797 22.9022778,15.0950506 L23.1438968,14.0352152 C23.1776825,13.8865443 23.3322778,13.7621392 23.4861905,13.7641899 L23.6895873,13.7641899 C24.5625556,13.7641899 25.2392937,13.5847595 25.7235556,13.2272658 C26.2067937,12.8677215 26.4494365,12.3971013 26.4494365,11.8113038 C26.4480714,11.5553165 26.4047302,11.34 26.3136111,11.1684304" id="Fill-5" fill="#336699"></path>
                                <path d="M16.8112937,11.776443 C16.5406667,11.6257215 16.1178333,11.5491646 15.5383571,11.5491646 C15.2520317,11.5491646 14.9643413,11.5717215 14.6752857,11.6168354 C14.4630159,11.6493038 14.4418571,11.6551139 14.3097857,11.683481 C14.0391587,11.7429494 13.9975238,12.0143165 13.9975238,12.0143165 L13.9101587,12.3724937 C13.8606746,12.6021646 13.9917222,12.5925949 14.0497381,12.574481 C14.1674762,12.5389367 14.2319762,12.5037342 14.473254,12.4487089 C14.7032698,12.3960759 14.9472778,12.3571139 15.1418016,12.358481 C15.4271032,12.358481 15.6438095,12.3895823 15.7881667,12.4497342 C15.9321825,12.512962 16.0035079,12.6206203 16.0035079,12.7737342 C16.0041905,12.8103038 16.0052143,12.8451646 15.9919048,12.874557 C15.9803016,12.9032658 15.9574365,12.9299241 15.8891825,12.9391519 C15.4823889,12.9637595 15.1909444,13.0010127 14.8380714,13.0522785 C14.4906587,13.1011519 14.1872698,13.1848861 13.9333651,13.3010886 C13.6627381,13.4217342 13.4607063,13.5823671 13.3207857,13.7864051 C13.184619,13.9911266 13.1163651,14.2392532 13.1163651,14.5311266 C13.1163651,14.8076203 13.2153333,15.0325063 13.407127,15.2074937 C13.6013095,15.3800886 13.8538492,15.4655316 14.1586032,15.4655316 C14.3497143,15.4641646 14.4981667,15.4501519 14.6060079,15.4234937 C14.7114603,15.3964937 14.8271508,15.3588987 14.9489841,15.3059241 C15.0401032,15.2676456 15.1383889,15.2122785 15.2424762,15.1432405 C15.3465635,15.0738608 15.4189127,15.0243038 15.5110556,14.9638101 L15.514127,14.9692785 L15.4881905,15.0841139 C15.4881905,15.085481 15.4868254,15.0861646 15.4868254,15.0875316 L15.4878492,15.0892405 C15.4578175,15.228 15.540746,15.3428354 15.6775952,15.3561646 L15.6793016,15.3588987 L15.691246,15.3588987 L15.6915873,15.3602658 C15.7830476,15.3602658 16.0942857,15.3592405 16.2400079,15.3588987 L16.3420476,15.3588987 C16.348873,15.3588987 16.3495556,15.3565063 16.3519444,15.3547975 C16.4915238,15.3370253 16.6253016,15.2238987 16.657381,15.0875316 L17.1774762,12.8373038 C17.1894206,12.7853544 17.1993175,12.7238354 17.2040952,12.6534304 C17.2112619,12.5823418 17.2187698,12.5238987 17.216381,12.4822025 C17.217746,12.1633291 17.0808968,11.9281899 16.8112937,11.776443 L16.8112937,11.776443 Z M15.5506429,14.4573038 C15.4625952,14.5130127 15.3690873,14.560519 15.2708016,14.6015316 C15.1394127,14.6541646 15.0141667,14.6821899 14.8988175,14.6821899 C14.722381,14.6821899 14.5855317,14.6572405 14.4937302,14.6035823 C14.4015873,14.553 14.3534683,14.4641392 14.3544921,14.3376835 C14.3544921,14.1914051 14.388619,14.0782785 14.4585794,13.9890759 C14.5285397,13.9032911 14.6322857,13.8345949 14.761627,13.7833291 C14.8909683,13.7392405 15.0496587,13.704038 15.2318968,13.6780633 C15.3943413,13.6572152 15.7158175,13.6206456 15.7571111,13.619962 C15.7977222,13.619962 15.8253651,13.5970633 15.8069365,13.7064304 C15.798746,13.7542785 15.7062619,14.1356962 15.6632619,14.3089747 C15.6506349,14.3616076 15.5820397,14.4367975 15.5506429,14.4573038 L15.5506429,14.4573038 Z" id="Fill-6" fill="#003366"></path>
                                <path d="M32.4250714,10.7613797 L31.4695159,15.0902658 C31.4336825,15.2396203 31.2804524,15.3623165 31.1272222,15.3623165 L30.4893889,15.3623165 C30.3365,15.3623165 30.2409444,15.2389367 30.2743889,15.0902658 L31.2275556,10.7627468 C31.2613413,10.6113418 31.4169603,10.4900127 31.5691667,10.4900127" id="Fill-7" fill="#FCBA63"></path>
                                <path d="M30.2726825,15.0902658 C30.3132937,14.9409114 31.2275556,10.7617215 31.2275556,10.7617215 C31.2644127,10.6123671 31.4176429,10.4900127 31.5705317,10.4900127 L32.2083651,10.4900127 C32.361254,10.4900127 32.456127,10.6133924 32.4237063,10.7617215 L31.4695159,15.0895823 C31.4364127,15.239962 31.2804524,15.3623165 31.1279048,15.3623165 L30.4665238,15.3623165" id="Fill-8" fill="#187FAD"></path>
                                <path id="Fill-9" fill="#336699" d="M33.1755238,11.371443 C33.1536825,11.3772532 33.1304762,11.382038 33.1045397,11.3854557 C33.0782619,11.389557 33.0550556,11.3912658 33.0352619,11.3912658 C32.9642778,11.3912658 32.9103571,11.3721266 32.8738413,11.3341899 C32.8369841,11.2959114 32.8185556,11.2347342 32.8185556,11.1506582 L32.8185556,10.7815443 L32.739381,10.7815443 L32.739381,10.6831139 L32.8185556,10.6831139 L32.8185556,10.4838608 L32.9349286,10.4838608 L32.9349286,10.6831139 L33.1755238,10.6831139 L33.1755238,10.7815443 L32.9349286,10.7815443 L32.9349286,11.0980253 C32.9349286,11.1342532 32.9362937,11.1626203 32.9373175,11.1831266 C32.9393651,11.2039747 32.9448254,11.2227722 32.9547222,11.2408861 C32.9639365,11.2576329 32.9762222,11.2695949 32.9926032,11.2774557 C33.0086429,11.2849747 33.032873,11.2887342 33.0656349,11.2887342 C33.084746,11.2887342 33.1045397,11.286 33.1250159,11.2801899 C33.1454921,11.2750633 33.1608492,11.2699367 33.1697222,11.2661772 L33.1755238,11.2661772 L33.1755238,11.371443"></path>
                                <path d="M34.3296984,11.3779367 L34.2123016,11.3779367 L34.2123016,10.9821646 C34.2123016,10.9527722 34.2112778,10.9237215 34.2082063,10.8956962 C34.2054762,10.8680127 34.2000159,10.8457975 34.1911429,10.8290506 C34.1815873,10.8112785 34.1682778,10.7979494 34.1498492,10.7890633 C34.1321032,10.7798354 34.1065079,10.7750506 34.0734048,10.7750506 C34.0406429,10.7750506 34.007881,10.7832532 33.9754603,10.8 C33.9423571,10.8160633 33.9099365,10.8369114 33.8775159,10.8622025 C33.8781984,10.8717722 33.878881,10.8827089 33.8799048,10.8953544 C33.8809286,10.908 33.8816111,10.9203038 33.8816111,10.9326076 L33.8816111,11.3779367 L33.7652381,11.3779367 L33.7652381,10.9821646 C33.7652381,10.9517468 33.7631905,10.9223544 33.7608016,10.8950127 C33.7580714,10.8669873 33.7519286,10.8451139 33.7433968,10.8290506 C33.7338413,10.8109367 33.7205317,10.7976076 33.7024444,10.7883797 C33.6846984,10.7798354 33.6594444,10.7750506 33.6256587,10.7750506 C33.5935794,10.7750506 33.5618413,10.7829114 33.5294206,10.7989747 C33.4973413,10.8143544 33.4659444,10.834519 33.4331825,10.8587848 L33.4331825,11.3779367 L33.3168095,11.3779367 L33.3168095,10.6831139 L33.4331825,10.6831139 L33.4331825,10.7596709 C33.4700397,10.7302785 33.5065556,10.7060127 33.5430714,10.6892658 C33.5789048,10.672519 33.617127,10.6636329 33.6587619,10.6636329 C33.7055159,10.6636329 33.7457857,10.6735443 33.7785476,10.6937089 C33.8113095,10.7135316 33.835881,10.7408734 33.8522619,10.7767595 C33.8990159,10.7367722 33.9423571,10.7077215 33.9812619,10.6902911 C34.0201667,10.6728608 34.0621429,10.6636329 34.1058254,10.6636329 C34.1822698,10.6636329 34.2385794,10.6872152 34.2750952,10.7330127 C34.3109286,10.7794937 34.3296984,10.8444304 34.3296984,10.9267975 L34.3296984,11.3779367" id="Fill-10" fill="#336699"></path>
                            </g>
                        </g>
                    </g>
                </g>
            </g>
        </g>
    </g>
</svg>