<?xml version="1.0" encoding="UTF-8" standalone="no"?>
<svg width="15px" height="15px" viewBox="0 0 15 15" version="1.1" xmlns="http://www.w3.org/2000/svg" xmlns:xlink="http://www.w3.org/1999/xlink" xmlns:sketch="http://www.bohemiancoding.com/sketch/ns">
    <!-- Generator: Sketch 3.0.4 (8053) - http://www.bohemiancoding.com/sketch -->
    <title>Shape</title>
    <desc>Created with Sketch.</desc>
    <defs></defs>
    <g id="Page-1" stroke="none" stroke-width="1" fill="none" fill-rule="evenodd" sketch:type="MSPage">
        <path d="M8.856,6.557 L12.878,2.535 C13.196,2.218 13.196,1.705 12.878,1.386 L11.729,0.237 C11.41,-0.08 10.897,-0.08 10.58,0.237 L6.558,4.259 L2.536,0.237 C2.219,-0.08 1.706,-0.08 1.387,0.237 L0.238,1.386 C-0.08,1.705 -0.08,2.218 0.238,2.535 L4.26,6.557 L0.238,10.579 C-0.081,10.896 -0.081,11.409 0.238,11.728 L1.387,12.877 C1.706,13.194 2.219,13.194 2.536,12.877 L6.558,8.855 L10.58,12.877 C10.897,13.194 11.41,13.194 11.729,12.877 L12.878,11.728 C13.196,11.409 13.196,10.896 12.878,10.579 L8.856,6.557 L8.856,6.557 Z" id="Shape" fill="#444444" sketch:type="MSShapeGroup"></path>
    </g>
</svg>