<?xml version="1.0" encoding="UTF-8" standalone="no"?>
<svg width="15px" height="18px" viewBox="0 0 15 18" version="1.1" xmlns="http://www.w3.org/2000/svg" xmlns:xlink="http://www.w3.org/1999/xlink" xmlns:sketch="http://www.bohemiancoding.com/sketch/ns">
    <!-- Generator: Sketch 3.0.4 (8053) - http://www.bohemiancoding.com/sketch -->
    <title>logo 3</title>
    <desc>Created with Sketch.</desc>
    <defs></defs>
    <g id="Campaign-Detail" stroke="none" stroke-width="1" fill="none" fill-rule="evenodd" sketch:type="MSPage">
        <g id="Desktop" sketch:type="MSArtboardGroup" transform="translate(-403.000000, -248.000000)">
            <g id="Lightbox---Support" sketch:type="MSLayerGroup" transform="translate(-9.000000, -29.000000)">
                <g id="2" transform="translate(367.000000, 91.000000)" sketch:type="MSShapeGroup">
                    <g id="Payment---Paypal" transform="translate(26.000000, 140.000000)">
                        <g id="paypal" transform="translate(0.000000, 33.000000)">
                            <g id="logo-3" transform="translate(19.000000, 14.000000)">
                                <path d="M13.1448173,4.25240404 C13.354837,2.941 13.1434148,2.04858586 12.4192148,1.24031313 C11.6219111,0.350474747 10.1815753,-0.0307373737 8.33873086,-0.0307373737 L2.98918765,-0.0307373737 C2.61262469,-0.0307373737 2.29198519,0.237656566 2.23325679,0.602040404 L0.00578518519,14.4378081 C-0.038217284,14.7108384 0.177237037,14.957596 0.459308642,14.957596 L3.76177284,14.957596 L3.5338716,16.373404 C3.49547901,16.6122626 3.68376049,16.8282828 3.93059506,16.8282828 L6.71414568,16.8282828 C7.04372593,16.8282828 7.32421975,16.5933737 7.37558519,16.2746667 L7.40293333,16.1360909 L7.92728148,12.8789596 L7.96111605,12.699 C8.01248148,12.3801212 8.29297531,12.1453838 8.62238025,12.1453838 L9.03873827,12.1453838 C11.7355111,12.1453838 13.8471037,11.0721515 14.4640148,7.96853535 C14.7218938,6.67172727 14.5886593,5.58922222 13.906884,4.82817172 C13.7005457,4.59807071 13.4440691,4.40763636 13.1448173,4.25240404" id="Fill-8" fill="#238EC2"></path>
                                <path d="M13.1448173,4.25240404 C13.354837,2.941 13.1434148,2.04858586 12.4192148,1.24031313 C11.6219111,0.350474747 10.1815753,-0.0307373737 8.33873086,-0.0307373737 L2.98918765,-0.0307373737 C2.61262469,-0.0307373737 2.29198519,0.237656566 2.23325679,0.602040404 L0.00578518519,14.4378081 C-0.038217284,14.7108384 0.177237037,14.957596 0.459308642,14.957596 L3.76177284,14.957596 L4.59133333,9.80505051 L4.56556296,9.96663636 C4.62429136,9.60225253 4.94230123,9.33368687 5.3188642,9.33368687 L6.88857778,9.33368687 C9.97120494,9.33368687 12.3848543,8.10693939 13.090121,4.55926263 C13.1109827,4.45434343 13.1288642,4.35251515 13.1448173,4.25240404" id="Fill-9" fill="#1F264E"></path>
                                <path d="M5.48242716,4.26991919 C5.51783951,4.05063636 5.66141728,3.87119192 5.85478272,3.78035354 C5.94278765,3.73914141 6.04096049,3.71613131 6.14386667,3.71613131 L10.3370741,3.71613131 C10.8338988,3.71613131 11.2970642,3.74807071 11.7204346,3.81486869 C11.8415728,3.83392929 11.9592049,3.85590909 12.0736815,3.88080808 C12.1879827,3.90553535 12.2991284,3.93335354 12.4065926,3.96426263 C12.4604123,3.97954545 12.5131802,3.99568687 12.5652469,4.01268687 C12.773163,4.08017172 12.9667037,4.1600202 13.1448173,4.25240404 C13.354837,2.941 13.1434148,2.04858586 12.4192148,1.24031313 C11.6219111,0.350474747 10.1815753,-0.0307373737 8.33873086,-0.0307373737 L2.98918765,-0.0307373737 C2.61262469,-0.0307373737 2.29198519,0.237656566 2.23325679,0.602040404 L0.00578518519,14.4378081 C-0.038217284,14.7108384 0.177237037,14.957596 0.459308642,14.957596 L3.76177284,14.957596 L5.48242716,4.26991919" id="Fill-10" fill="#253667"></path>
                            </g>
                        </g>
                    </g>
                </g>
            </g>
        </g>
    </g>
</svg>