<?xml version="1.0" encoding="UTF-8" standalone="no"?>
<svg width="22px" height="14px" viewBox="0 0 22 14" version="1.1" xmlns="http://www.w3.org/2000/svg" xmlns:xlink="http://www.w3.org/1999/xlink" xmlns:sketch="http://www.bohemiancoding.com/sketch/ns">
    <!-- Generator: Sketch 3.1.1 (8761) - http://www.bohemiancoding.com/sketch -->
    <title>logo 2</title>
    <desc>Created with Sketch.</desc>
    <defs></defs>
    <g id="Campaign-Detail" stroke="none" stroke-width="1" fill="none" fill-rule="evenodd" sketch:type="MSPage">
        <g id="Desktop" sketch:type="MSArtboardGroup" transform="translate(-340.000000, -370.000000)">
            <g id="Lightbox---Support" sketch:type="MSLayerGroup" transform="translate(-9.000000, -1.000000)">
                <g id="2" transform="translate(317.000000, 91.000000)" sketch:type="MSShapeGroup">
                    <g id="Menu" transform="translate(16.000000, 123.000000)">
                        <g id="Direct-debit-" transform="translate(16.000000, 155.000000)">
                            <g id="logo-2" transform="translate(0.000000, 2.000000)">
                                <rect id="Rectangle-157" stroke="#D8D8D8" x="0" y="0" width="22" height="14" rx="1"></rect>
                                <path d="M3.574,5.002 L3.574,10 L4.239,10 L4.239,5.002 L3.574,5.002 Z M6.024,7.151 L6.024,5.562 L7.354,5.562 C7.49866739,5.562 7.63516603,5.57016658 7.7635,5.5865 C7.89183398,5.60283341 8.00499951,5.63899972 8.103,5.695 C8.20100049,5.75100028 8.27799972,5.83033282 8.334,5.933 C8.39000028,6.03566718 8.418,6.17566578 8.418,6.353 C8.418,6.61900133 8.3351675,6.81849933 8.1695,6.9515 C8.00383251,7.08450066 7.73200189,7.151 7.354,7.151 L6.024,7.151 Z M5.359,5.002 L5.359,10 L7.774,10 C8.02133457,10 8.23949906,9.95916707 8.4285,9.8775 C8.61750095,9.79583292 8.77616603,9.68850066 8.9045,9.5555 C9.03283398,9.42249933 9.12966634,9.26966753 9.195,9.097 C9.26033366,8.92433247 9.293,8.74700091 9.293,8.565 C9.293,8.25699846 9.21133415,7.99566774 9.048,7.781 C8.88466585,7.56633226 8.64900154,7.42633366 8.341,7.361 L8.341,7.347 C8.57900119,7.2536662 8.76216603,7.11016763 8.8905,6.9165 C9.01883398,6.72283236 9.083,6.49300133 9.083,6.227 C9.083,5.97499874 9.02583391,5.76266753 8.9115,5.59 C8.7971661,5.41733247 8.65833415,5.28200049 8.495,5.184 C8.42033296,5.1373331 8.33050053,5.10233345 8.2255,5.079 C8.12049948,5.05566655 8.00733394,5.03816672 7.886,5.0265 C7.76466606,5.01483327 7.64216729,5.00783334 7.5185,5.0055 C7.39483272,5.00316665 7.27933387,5.002 7.172,5.002 L5.359,5.002 Z M6.024,9.44 L6.024,7.711 L7.543,7.711 C7.6830007,7.711 7.81833268,7.7238332 7.949,7.7495 C8.07966732,7.77516679 8.19516617,7.81949968 8.2955,7.8825 C8.39583384,7.94550031 8.47633303,8.03066613 8.537,8.138 C8.59766697,8.24533387 8.628,8.38066585 8.628,8.544 C8.628,8.8240014 8.5451675,9.04333254 8.3795,9.202 C8.21383251,9.36066746 7.98400147,9.44 7.69,9.44 L6.024,9.44 Z M11.015,7.935 L11.862,5.604 L11.876,5.604 L12.709,7.935 L11.015,7.935 Z M11.512,5.002 L9.566,10 L10.245,10 L10.805,8.495 L12.919,8.495 L13.465,10 L14.2,10 L12.247,5.002 L11.512,5.002 Z M14.683,5.002 L14.683,10 L15.313,10 L15.313,5.989 L15.327,5.989 L17.938,10 L18.666,10 L18.666,5.002 L18.036,5.002 L18.036,9.055 L18.022,9.055 L15.39,5.002 L14.683,5.002 Z" id="IBAN" fill="#9F9F9F"></path>
                            </g>
                        </g>
                    </g>
                </g>
            </g>
        </g>
    </g>
</svg>