<?xml version="1.0" encoding="UTF-8" standalone="no"?>
<svg width="43px" height="28px" viewBox="0 0 43 28" version="1.1" xmlns="http://www.w3.org/2000/svg" xmlns:xlink="http://www.w3.org/1999/xlink" xmlns:sketch="http://www.bohemiancoding.com/sketch/ns">
    <!-- Generator: Sketch 3.0.4 (8053) - http://www.bohemiancoding.com/sketch -->
    <title>Meastro</title>
    <desc>Created with Sketch.</desc>
    <defs></defs>
    <g id="Campaign-Detail" stroke="none" stroke-width="1" fill="none" fill-rule="evenodd" sketch:type="MSPage">
        <g id="Desktop" sketch:type="MSArtboardGroup" transform="translate(-768.000000, -283.000000)">
            <g id="Lightbox---Support" sketch:type="MSLayerGroup" transform="translate(-9.000000, -29.000000)">
                <g id="2" transform="translate(367.000000, 91.000000)" sketch:type="MSShapeGroup">
                    <g id="Payment---Paypal" transform="translate(26.000000, 140.000000)">
                        <g id="Cards" transform="translate(162.000000, 81.000000)">
                            <g id="Meastro" transform="translate(222.153234, 0.360570)">
                                <path d="M41.7003654,24.5931892 C41.7003654,25.3617367 41.0770027,25.9847664 40.3084552,25.9847664 L1.32531166,25.9847664 C0.55609811,25.9847664 -0.066931569,25.3617367 -0.066931569,24.5931892 L-0.066931569,1.27303178 C-0.066931569,0.503818228 0.55609811,-0.119544444 1.32531166,-0.119544444 L40.3084552,-0.119544444 C41.0770027,-0.119544444 41.7003654,0.503818228 41.7003654,1.27303178 L41.7003654,24.5931892" id="Fill-1" fill="#13457C"></path>
                                <path d="M25.7879676,20.4294462 L26.1749054,20.4191234 L26.5568482,20.38982 L26.9314652,20.3428681 L27.3007543,20.2762695 L27.6650485,20.1930213 L28.0220169,20.0914584 L28.3699944,19.9735789 L28.7123111,19.8380508 L29.045304,19.6878711 L29.3676411,19.5223736 L29.6826524,19.3425574 L29.9863419,19.1457586 L30.2813736,18.9363061 L30.5650835,18.7148659 L30.8381377,18.4784409 L31.0992041,18.2293622 L31.3456188,17.9679628 L31.5823767,17.6945757 L31.8068139,17.4115317 L32.0159335,17.118165 L32.2104013,16.8128105 L32.3898845,16.4974663 L32.5577129,16.1744632 L32.7082257,15.8421363 L32.8414228,15.4994866 L32.9596353,15.152508 L33.0605321,14.7952067 L33.1437804,14.4332434 L33.2107119,14.0612904 L33.2576639,13.6866734 L33.2869673,13.3047305 L33.2972901,12.9181258 L33.2869673,12.533852 L33.2576639,12.1542401 L33.2107119,11.7822871 L33.1437804,11.412998 L33.0605321,11.0533657 L32.9596353,10.6987283 L32.8414228,10.3510837 L32.7082257,10.0114309 L32.5577129,9.681435 L32.3898845,9.35809892 L32.2104013,9.04508561 L32.0159335,8.73973114 L31.8068139,8.4470304 L31.5823767,8.16332046 L31.3456188,7.89226426 L31.0992041,7.63153083 L30.8381377,7.38478311 L30.5650835,7.14835816 L30.2813736,6.9265849 L29.9863419,6.71713238 L29.6826524,6.52299753 L29.3676411,6.34318138 L29.045304,6.17501997 L28.7123111,6.02517318 L28.3699944,5.89164303 L28.0220169,5.77376355 L27.6650485,5.67286671 L27.3007543,5.5889525 L26.9314652,5.52235393 L26.5568482,5.47573492 L26.1749054,5.44609856 L25.7879676,5.43644176 L25.4010299,5.44609856 L25.0194201,5.47573492 L24.6454691,5.52235393 L24.275181,5.5889525 L23.9112198,5.67286671 L23.5559164,5.77376355 L23.2059408,5.89164303 L22.8666211,6.02517318 L22.5336282,6.17501997 L22.2116241,6.34318138 L21.8982778,6.52299753 L21.5925903,6.71713238 L21.2998896,6.9265849 L21.0161797,7.14835816 L20.7457894,7.38478311 L20.486055,7.63153083 L20.2376423,7.89226426 L20.0015504,8.16332046 L19.7797771,8.4470304 L19.5703246,8.73973114 L19.3755237,9.04508561 L19.1957076,9.35809892 L19.0305431,9.681435 L18.8823613,10.0114309 L18.7478322,10.3510837 L18.6292867,10.6987283 L18.5303878,11.0533657 L18.4464736,11.412998 L18.380874,11.7822871 L18.333589,12.1542401 L18.3042856,12.533852 L18.2942959,12.9181258 L18.3042856,13.3047305 L18.333589,13.6866734 L18.380874,14.0612904 L18.4464736,14.4332434 L18.5303878,14.7952067 L18.6292867,15.152508 L18.7478322,15.4994866 L18.8823613,15.8421363 L19.0305431,16.1744632 L19.1957076,16.4974663 L19.3755237,16.8128105 L19.5703246,17.118165 L19.7797771,17.4115317 L20.0015504,17.6945757 L20.2376423,17.9679628 L20.486055,18.2293622 L20.7457894,18.4784409 L21.0161797,18.7148659 L21.2998896,18.9363061 L21.5925903,19.1457586 L21.8982778,19.3425574 L22.2116241,19.5223736 L22.5336282,19.6878711 L22.8666211,19.8380508 L23.2059408,19.9735789 L23.5559164,20.0914584 L23.9112198,20.1930213 L24.275181,20.2762695 L24.6454691,20.3428681 L25.0194201,20.38982 L25.4010299,20.4191234 L25.7879676,20.4294462" id="Fill-2" fill="#EC1C2E"></path>
                                <path d="M15.8451332,20.4294462 L16.2320709,20.4191234 L16.6140138,20.38982 L16.9886308,20.3428681 L17.3579199,20.2762695 L17.7228801,20.1930213 L18.0771845,20.0914584 L18.427826,19.9735789 L18.7671457,19.8380508 L19.0994726,19.6878711 L19.4221427,19.5223736 L19.735156,19.3425574 L20.0408435,19.1457586 L20.3338772,18.9363061 L20.6169212,18.7148659 L20.8879774,18.4784409 L21.1490438,18.2293622 L21.3954585,17.9679628 L21.6322165,17.6945757 L21.8539897,17.4115317 L22.0634423,17.118165 L22.2585761,16.8128105 L22.4380593,16.4974663 L22.6032237,16.1744632 L22.7527375,15.8421363 L22.8859347,15.4994866 L23.0038142,15.152508 L23.102713,14.7952067 L23.1872932,14.4332434 L23.2535588,14.0612904 L23.2998448,13.6866734 L23.3298142,13.3047305 L23.339471,12.9181258 L23.3298142,12.533852 L23.2998448,12.1542401 L23.2535588,11.7822871 L23.1872932,11.412998 L23.102713,11.0533657 L23.0038142,10.6987283 L22.8859347,10.3510837 L22.7527375,10.0114309 L22.6032237,9.681435 L22.4380593,9.35809892 L22.2585761,9.04508561 L22.0634423,8.73973114 L21.8539897,8.4470304 L21.6322165,8.16332046 L21.3954585,7.89226426 L21.1490438,7.63153083 L20.8879774,7.38478311 L20.6169212,7.14835816 L20.3338772,6.9265849 L20.0408435,6.71713238 L19.735156,6.52299753 L19.4221427,6.34318138 L19.0994726,6.17501997 L18.7671457,6.02517318 L18.427826,5.89164303 L18.0771845,5.77376355 L17.7228801,5.67286671 L17.3579199,5.5889525 L16.9886308,5.52235393 L16.6140138,5.47573492 L16.2320709,5.44609856 L15.8451332,5.43644176 L15.4588615,5.44609856 L15.0769186,5.47573492 L14.7023017,5.52235393 L14.3330125,5.5889525 L13.9680524,5.67286671 L13.611084,5.77376355 L13.2637724,5.89164303 L12.9211227,6.02517318 L12.5887958,6.17501997 L12.2661257,6.34318138 L11.9507815,6.52299753 L11.647425,6.71713238 L11.3517273,6.9265849 L11.0686833,7.14835816 L10.7949632,7.38478311 L10.5362277,7.63153083 L10.287482,7.89226426 L10.0510571,8.16332046 L9.82728588,8.4470304 L9.61783336,8.73973114 L9.42336552,9.04508561 L9.24321637,9.35809892 L9.07538796,9.681435 L8.92520817,10.0114309 L8.79234401,10.3510837 L8.67413154,10.6987283 L8.5732347,11.0533657 L8.48932049,11.412998 L8.42305491,11.7822871 L8.37610291,12.1542401 L8.34613355,12.533852 L8.33647676,12.9181258 L8.34613355,13.3047305 L8.37610291,13.6866734 L8.42305491,14.0612904 L8.48932049,14.4332434 L8.5732347,14.7952067 L8.67413154,15.152508 L8.79234401,15.4994866 L8.92520817,15.8421363 L9.07538796,16.1744632 L9.24321637,16.4974663 L9.42336552,16.8128105 L9.61783336,17.118165 L9.82728588,17.4115317 L10.0510571,17.6945757 L10.287482,17.9679628 L10.5362277,18.2293622 L10.7949632,18.4784409 L11.0686833,18.7148659 L11.3517273,18.9363061 L11.647425,19.1457586 L11.9507815,19.3425574 L12.2661257,19.5223736 L12.5887958,19.6878711 L12.9211227,19.8380508 L13.2637724,19.9735789 L13.611084,20.0914584 L13.9680524,20.1930213 L14.3330125,20.2762695 L14.7023017,20.3428681 L15.0769186,20.38982 L15.4588615,20.4191234 L15.8451332,20.4294462" id="Fill-3" fill="#0084C4"></path>
                                <path id="Fill-4" fill="#EC1C2E" d="M19.8929947,8.29152272 L23.6937754,8.29152272 L23.6937754,7.87295067 L20.2599528,7.87295067 L19.8929947,8.29152272"></path>
                                <path id="Fill-5" fill="#EC1C2E" d="M19.2966044,9.17861575 L23.6937754,9.17861575 L23.6937754,8.76204166 L19.5626657,8.76204166 L19.2966044,9.17861575"></path>
                                <path id="Fill-6" fill="#EC1C2E" d="M18.850394,10.0800275 L23.6937754,10.0800275 L23.6937754,9.66112244 L19.0555176,9.66112244 L18.850394,10.0800275"></path>
                                <path id="Fill-7" fill="#EC1C2E" d="M18.5603572,10.9671205 L23.6937754,10.9671205 L23.6937754,10.5505464 L18.6885594,10.5505464 L18.5603572,10.9671205"></path>
                                <path id="Fill-8" fill="#EC1C2E" d="M18.3705512,11.8562115 L23.6937754,11.8562115 L23.6937754,11.4373065 L18.4464736,11.4373065 L18.3705512,11.8562115"></path>
                                <path id="Fill-9" fill="#EC1C2E" d="M18.3309251,13.5781177 L23.6937754,13.5781177 L23.6937754,13.1592126 L18.2942959,13.1592126 L18.3309251,13.5781177"></path>
                                <path id="Fill-10" fill="#EC1C2E" d="M18.4597933,14.5168246 L23.6937754,14.5168246 L23.6937754,14.0979196 L18.382872,14.0979196 L18.4597933,14.5168246"></path>
                                <path id="Fill-11" fill="#EC1C2E" d="M18.7132009,15.2783793 L23.6937754,15.2783793 L23.6937754,14.8594743 L18.5846656,14.8594743 L18.7132009,15.2783793"></path>
                                <path id="Fill-12" fill="#EC1C2E" d="M19.0918138,16.2044325 L23.6937754,16.2044325 L23.6937754,15.7855275 L18.8900201,15.7855275 L19.0918138,16.2044325"></path>
                                <path id="Fill-13" fill="#EC1C2E" d="M19.6262674,17.1428065 L23.6937754,17.1428065 L23.6937754,16.7242344 L19.3462204,16.7242344 L19.6262674,17.1428065"></path>
                                <path id="Fill-14" fill="#EC1C2E" d="M20.296915,18.0442182 L23.6574792,18.0442182 L23.6574792,17.6256461 L19.9299569,17.6256461 L20.296915,18.0442182"></path>
                                <path id="Fill-15" fill="#EC1C2E" d="M32.0628855,17.5224184 L32.085196,17.4558198 L32.1221582,17.3942161 L32.1687772,17.3399383 L32.223055,17.2953172 L32.2839927,17.2610189 L32.3509243,17.2390414 L32.4225178,17.2317156 L32.4961092,17.2390414 L32.5657047,17.2610189 L32.6266424,17.2953172 L32.6809203,17.3399383 L32.7248753,17.3942161 L32.7601726,17.4558198 L32.7821501,17.5224184 L32.7062277,17.5224184 L32.690577,17.4754664 L32.6639376,17.4235195 L32.6293064,17.3792314 L32.5870163,17.3446002 L32.5377333,17.3179607 L32.4811245,17.3006451 L32.4225178,17.2953172 L32.363245,17.3006451 L32.3069693,17.3179607 L32.2573533,17.3446002 L32.2123993,17.3792314 L32.178767,17.4235195 L32.1514616,17.4754664 L32.1364769,17.5224184 L32.0628855,17.5224184"></path>
                                <path id="Fill-16" fill="#EC1C2E" d="M32.2943155,17.5224184 L32.2943155,17.4338423 L32.4341725,17.4338423 L32.4668058,17.4358402 L32.4941113,17.4385042 L32.5187527,17.446163 L32.5377333,17.4558198 L32.553384,17.4681405 L32.5657047,17.4827922 L32.5726976,17.5001078 L32.5746955,17.5224184 L32.5110939,17.5224184 L32.5084299,17.5100976 L32.503768,17.5001078 L32.4961092,17.490118 L32.4864524,17.4827922 L32.4737987,17.4777973 L32.4621439,17.4754664 L32.4498232,17.4731354 L32.3589161,17.4731354 L32.3589161,17.5224184 L32.2943155,17.5224184"></path>
                                <path id="Fill-17" fill="#EC1C2E" d="M32.0575576,17.586686 L32.0628855,17.5247493 L32.0628855,17.5224184 L32.1364769,17.5224184 L32.133813,17.5347391 L32.1291511,17.586686 L32.0575576,17.586686"></path>
                                <path id="Fill-18" fill="#EC1C2E" d="M32.2943155,17.586686 L32.2943155,17.5224184 L32.3589161,17.5224184 L32.3589161,17.5740323 L32.4641419,17.5740323 L32.4784606,17.5717013 L32.4907813,17.5663734 L32.4987732,17.5617115 L32.506432,17.5520547 L32.5110939,17.539734 L32.5110939,17.5224184 L32.5746955,17.5224184 L32.5726976,17.5447289 L32.5683687,17.5643755 L32.5603768,17.5790271 L32.553384,17.586686 L32.2943155,17.586686"></path>
                                <path id="Fill-19" fill="#EC1C2E" d="M32.7132206,17.586686 L32.7082257,17.5347391 L32.7062277,17.5224184 L32.7821501,17.5224184 L32.7821501,17.5247493 L32.7894759,17.586686 L32.7132206,17.586686"></path>
                                <path id="Fill-20" fill="#EC1C2E" d="M32.0575576,17.586686 L32.0558926,17.5983407 L32.0628855,17.6722652 L32.085196,17.7415277 L32.1221582,17.8004674 L32.1687772,17.8547453 L32.223055,17.8967024 L32.2839927,17.9290027 L32.3509243,17.9483163 L32.4225178,17.9559751 L32.4961092,17.9483163 L32.5657047,17.9290027 L32.6266424,17.8967024 L32.6809203,17.8547453 L32.7248753,17.8004674 L32.7601726,17.7415277 L32.7821501,17.6722652 L32.7894759,17.5983407 L32.7894759,17.586686 L32.7132206,17.586686 L32.7132206,17.5983407 L32.7082257,17.6626084 L32.690577,17.7218811 L32.6639376,17.773828 L32.6293064,17.818116 L32.5870163,17.8547453 L32.5377333,17.8820507 L32.4811245,17.8990333 L32.4225178,17.9040282 L32.363245,17.8990333 L32.3069693,17.8820507 L32.2573533,17.8547453 L32.2123993,17.818116 L32.178767,17.773828 L32.1514616,17.7218811 L32.133813,17.6626084 L32.1291511,17.5983407 L32.1291511,17.586686 L32.0575576,17.586686"></path>
                                <path id="Fill-21" fill="#EC1C2E" d="M32.2943155,17.586686 L32.2943155,17.7388637 L32.3589161,17.7388637 L32.3589161,17.6136584 L32.4225178,17.6136584 L32.4987732,17.7388637 L32.5630408,17.7388637 L32.4721337,17.6136584 L32.4941113,17.6109945 L32.5160888,17.6083305 L32.5330714,17.6010047 L32.5480561,17.5913479 L32.553384,17.586686 L32.2943155,17.586686"></path>
                                <path d="M24.1646273,12.2874373 L24.1153444,12.2851063 L24.0657285,12.2801114 L24.0217734,12.2724526 L23.9774853,12.2681237 L23.9331973,12.2601319 L23.8889092,12.252806 L23.8422902,12.2454802 L23.7926743,12.2381543 L23.7407274,12.2328265 L23.6867826,12.2281646 L23.6248459,12.2231697 L23.5585803,12.2205057 L23.4849889,12.2205057 L23.4030726,12.2231697 L23.3121656,12.2281646 L23.2139327,12.2354904 L23.1430052,12.2454802 L23.0760736,12.2601319 L23.0141369,12.2801114 L22.9595261,12.302422 L22.9109091,12.3290614 L22.8666211,12.3590308 L22.8296589,12.393329 L22.8003555,12.4276273 L22.777379,12.4672534 L22.7623943,12.5088776 L22.7554015,12.5508347 L22.7554015,12.5951227 L22.7657243,12.6420747 L22.7827069,12.6886937 L22.8093463,12.7356457 L22.8446436,12.7825977 L22.9152381,12.8468653 L22.9991523,12.8984792 L23.0980511,12.9427673 L23.2042759,12.9797295 L23.3148295,13.0163587 L23.430378,13.0536539 L23.5489235,13.095278 L23.6621411,13.144894 L23.7680328,13.2038337 L23.8689297,13.2754272 L23.9571728,13.3666672 L24.0314302,13.4748899 L24.088039,13.6077541 L24.1256672,13.7655927 L24.1379879,13.9527347 L24.1256672,14.1745079 L24.0983618,14.3396724 L24.0534077,14.4871883 L23.9967989,14.6203854 L23.9258714,14.7382649 L23.8422902,14.8418257 L23.7510502,14.9307348 L23.6494874,15.0069901 L23.5409317,15.0735887 L23.4277141,15.1278666 L23.3095016,15.1718216 L23.1892912,15.2091168 L23.0680818,15.2360892 L22.9478714,15.2557358 L22.8296589,15.2680566 L22.7164413,15.2757154 L22.6058877,15.2783793 L22.4530439,15.2783793 L22.3145189,15.2757154 L22.1889806,15.2730515 L22.0730991,15.2707205 L21.9678733,15.2660586 L21.8733033,15.2607307 L21.7843942,15.2537379 L21.7064739,15.2434151 L21.6322165,15.2337583 L21.5639529,15.2211046 L21.4986863,15.2091168 L21.4344187,15.1918012 L21.376478,15.1744856 L21.3168722,15.1575029 L21.2575995,15.1351924 L21.1956628,15.1128819 L21.3485066,14.3396724 L21.3838038,14.3469982 L21.4254279,14.358986 L21.4767088,14.3713067 L21.5333176,14.3859584 L21.6002492,14.3986121 L21.6738406,14.4159278 L21.7530929,14.4302465 L21.8363411,14.4452311 L21.9255832,14.4575519 L22.0191542,14.4702056 L22.1147232,14.4798624 L22.21562,14.4895192 L22.3168498,14.4945141 L22.4204106,14.496845 L22.5239714,14.496845 L22.6298632,14.4921831 L22.728762,14.4748675 L22.8093463,14.4478951 L22.871283,14.4086019 L22.9205659,14.3643139 L22.9575282,14.312034 L22.9848336,14.2584221 L23.0064781,14.2041443 L23.0214628,14.1498665 L23.0291216,14.0932577 L23.0264577,14.0436417 L23.0141369,13.9970227 L22.9948234,13.9577296 L22.9675179,13.9181034 L22.9328867,13.8838052 L22.8912626,13.8515048 L22.8446436,13.8218685 L22.7923637,13.795229 L22.7357549,13.7679236 L22.6741512,13.7409512 L22.6102166,13.7163097 L22.4770194,13.6643628 L22.4087559,13.6373904 L22.3371624,13.6077541 L22.2682329,13.5781177 L22.1986374,13.5461504 L22.1297078,13.5091882 L22.0634423,13.469895 L21.9988416,13.4279379 L21.9405679,13.3809859 L21.8832931,13.3270411 L21.8316792,13.2704323 L21.7843942,13.2061646 L21.7427701,13.1372351 L21.7081389,13.0606468 L21.6788355,12.9797295 L21.6588559,12.8884894 L21.6472012,12.7899235 L21.6445372,12.6813679 L21.6521961,12.5654863 L21.6588559,12.4942259 L21.6691787,12.4252963 L21.6788355,12.3590308 L21.6938202,12.2947631 L21.7081389,12.2328265 L21.7257875,12.1715558 L21.748098,12.114947 L21.7707415,12.0583382 L21.796715,12.0063913 L21.8240204,11.9547774 L21.8566537,11.9078254 L21.890952,11.8612064 L21.9279142,11.8169183 L21.9678733,11.7746282 L22.0094974,11.7353351 L22.0554504,11.6983729 L22.1050664,11.6640746 L22.1570133,11.6321073 L22.2136221,11.6024709 L22.2728948,11.5728346 L22.3344985,11.5481931 L22.4007641,11.5235516 L22.4700266,11.503905 L22.543285,11.4839255 L22.6225373,11.4669428 L22.7041206,11.4522911 L22.7880348,11.4399704 L22.8762779,11.4299806 L22.9698489,11.4226548 L23.0680818,11.4179929 L23.1696446,11.412998 L23.4057366,11.412998 L23.523949,11.4149959 L23.6301738,11.4179929 L23.7290727,11.4226548 L23.8149848,11.4276497 L23.8935711,11.4326446 L23.9651646,11.4399704 L24.0267683,11.4449653 L24.0833771,11.4522911 L24.132327,11.459617 L24.179612,11.4642789 L24.2185722,11.4719377 L24.2538694,11.4769326 L24.2851708,11.4815945 L24.3148071,11.4865894 L24.3417796,11.4892534 L24.1646273,12.2874373" id="Fill-22" fill="#FFFFFF"></path>
                                <path d="M24.1646273,12.2874373 L24.1646273,12.2874373 L24.1153444,12.2851063 L24.0657285,12.2801114 L24.0217734,12.2724526 L23.9774853,12.2681237 L23.9331973,12.2601319 L23.8889092,12.252806 L23.8422902,12.2454802 L23.7926743,12.2381543 L23.7407274,12.2328265 L23.6867826,12.2281646 L23.6248459,12.2231697 L23.5585803,12.2205057 L23.4849889,12.2205057 L23.4030726,12.2231697 L23.3121656,12.2281646 L23.2139327,12.2354904 L23.1430052,12.2454802 L23.0760736,12.2601319 L23.0141369,12.2801114 L22.9595261,12.302422 L22.9109091,12.3290614 L22.8666211,12.3590308 L22.8296589,12.393329 L22.8003555,12.4276273 L22.777379,12.4672534 L22.7623943,12.5088776 L22.7554015,12.5508347 L22.7554015,12.5951227 L22.7657243,12.6420747 L22.7827069,12.6886937 L22.8093463,12.7356457 L22.8446436,12.7825977 L22.9152381,12.8468653 L22.9991523,12.8984792 L23.0980511,12.9427673 L23.2042759,12.9797295 L23.3148295,13.0163587 L23.430378,13.0536539 L23.5489235,13.095278 L23.6621411,13.144894 L23.7680328,13.2038337 L23.8689297,13.2754272 L23.9571728,13.3666672 L24.0314302,13.4748899 L24.088039,13.6077541 L24.1256672,13.7655927 L24.1379879,13.9527347 L24.1256672,14.1745079 L24.0983618,14.3396724 L24.0534077,14.4871883 L23.9967989,14.6203854 L23.9258714,14.7382649 L23.8422902,14.8418257 L23.7510502,14.9307348 L23.6494874,15.0069901 L23.5409317,15.0735887 L23.4277141,15.1278666 L23.3095016,15.1718216 L23.1892912,15.2091168 L23.0680818,15.2360892 L22.9478714,15.2557358 L22.8296589,15.2680566 L22.7164413,15.2757154 L22.6058877,15.2783793 L22.4530439,15.2783793 L22.3145189,15.2757154 L22.1889806,15.2730515 L22.0730991,15.2707205 L21.9678733,15.2660586 L21.8733033,15.2607307 L21.7843942,15.2537379 L21.7064739,15.2434151 L21.6322165,15.2337583 L21.5639529,15.2211046 L21.4986863,15.2091168 L21.4344187,15.1918012 L21.376478,15.1744856 L21.3168722,15.1575029 L21.2575995,15.1351924 L21.1956628,15.1128819 L21.3485066,14.3396724 L21.3838038,14.3469982 L21.4254279,14.358986 L21.4767088,14.3713067 L21.5333176,14.3859584 L21.6002492,14.3986121 L21.6738406,14.4159278 L21.7530929,14.4302465 L21.8363411,14.4452311 L21.9255832,14.4575519 L22.0191542,14.4702056 L22.1147232,14.4798624 L22.21562,14.4895192 L22.3168498,14.4945141 L22.4204106,14.496845 L22.5239714,14.496845 L22.6298632,14.4921831 L22.728762,14.4748675 L22.8093463,14.4478951 L22.871283,14.4086019 L22.9205659,14.3643139 L22.9575282,14.312034 L22.9848336,14.2584221 L23.0064781,14.2041443 L23.0214628,14.1498665 L23.0291216,14.0932577 L23.0264577,14.0436417 L23.0141369,13.9970227 L22.9948234,13.9577296 L22.9675179,13.9181034 L22.9328867,13.8838052 L22.8912626,13.8515048 L22.8446436,13.8218685 L22.7923637,13.795229 L22.7357549,13.7679236 L22.6741512,13.7409512 L22.6102166,13.7163097 L22.4770194,13.6643628 L22.4087559,13.6373904 L22.3371624,13.6077541 L22.2682329,13.5781177 L22.1986374,13.5461504 L22.1297078,13.5091882 L22.0634423,13.469895 L21.9988416,13.4279379 L21.9405679,13.3809859 L21.8832931,13.3270411 L21.8316792,13.2704323 L21.7843942,13.2061646 L21.7427701,13.1372351 L21.7081389,13.0606468 L21.6788355,12.9797295 L21.6588559,12.8884894 L21.6472012,12.7899235 L21.6445372,12.6813679 L21.6521961,12.5654863 L21.6588559,12.4942259 L21.6691787,12.4252963 L21.6788355,12.3590308 L21.6938202,12.2947631 L21.7081389,12.2328265 L21.7257875,12.1715558 L21.748098,12.114947 L21.7707415,12.0583382 L21.796715,12.0063913 L21.8240204,11.9547774 L21.8566537,11.9078254 L21.890952,11.8612064 L21.9279142,11.8169183 L21.9678733,11.7746282 L22.0094974,11.7353351 L22.0554504,11.6983729 L22.1050664,11.6640746 L22.1570133,11.6321073 L22.2136221,11.6024709 L22.2728948,11.5728346 L22.3344985,11.5481931 L22.4007641,11.5235516 L22.4700266,11.503905 L22.543285,11.4839255 L22.6225373,11.4669428 L22.7041206,11.4522911 L22.7880348,11.4399704 L22.8762779,11.4299806 L22.9698489,11.4226548 L23.0680818,11.4179929 L23.1696446,11.412998 L23.4057366,11.412998 L23.523949,11.4149959 L23.6301738,11.4179929 L23.7290727,11.4226548 L23.8149848,11.4276497 L23.8935711,11.4326446 L23.9651646,11.4399704 L24.0267683,11.4449653 L24.0833771,11.4522911 L24.132327,11.459617 L24.179612,11.4642789 L24.2185722,11.4719377 L24.2538694,11.4769326 L24.2851708,11.4815945 L24.3148071,11.4865894 L24.3417796,11.4892534 L24.1646273,12.2874373" id="Stroke-23" stroke="#FFFFFF" stroke-width="0.215"></path>
                                <path d="M24.975132,10.6391225 L25.9657858,10.6391225 L25.8129421,11.5015741 L26.4216531,11.5015741 L26.283794,12.2874373 L25.6600984,12.2747836 L25.3327664,14.2384426 L25.3277715,14.2800667 L25.3277715,14.3170289 L25.3327664,14.3493292 L25.3424232,14.3789656 L25.3567419,14.403607 L25.3737245,14.4282485 L25.396701,14.4478951 L25.4213425,14.4622138 L25.4506458,14.4775315 L25.4806152,14.4895192 L25.5142475,14.499509 L25.5488787,14.5048369 L25.5891709,14.5121627 L25.6281311,14.5141607 L25.6697552,14.5168246 L25.7906316,14.5168246 L25.8595611,14.5121627 L25.9234957,14.5021729 L25.9781066,14.4895192 L26.0197307,14.4775315 L26.051365,14.4648777 L26.0716776,14.4548879 L26.0786704,14.45289 L25.9781066,15.1252026 L25.9524661,15.1401873 L25.9258267,15.152508 L25.8985213,15.1648288 L25.8718818,15.1771495 L25.8452424,15.1868063 L25.8146071,15.1967961 L25.7859697,15.2064529 L25.7510054,15.2164427 L25.7167072,15.2260995 L25.679412,15.2337583 L25.6377878,15.2410841 L25.5934998,15.24841 L25.5468808,15.2557358 L25.4979308,15.2630617 L25.441322,15.2707205 L25.3817163,15.2783793 L25.115655,15.2783793 L24.975132,15.2680566 L24.8495937,15.2537379 L24.7390401,15.2337583 L24.6428051,15.2064529 L24.5615549,15.1771495 L24.4926253,15.1401873 L24.4353506,15.0985632 L24.3890645,15.0512782 L24.3521023,14.9993313 L24.3247969,14.9427225 L24.3078143,14.8814518 L24.2981575,14.8125223 L24.2948276,14.7412618 L24.2981575,14.6623425 L24.3051503,14.5807593 L24.3174711,14.4921831 L24.975132,10.6391225" id="Fill-24" fill="#FFFFFF"></path>
                                <path d="M24.975132,10.6391225 L25.9657858,10.6391225 L25.8129421,11.5015741 L26.4216531,11.5015741 L26.283794,12.2874373 L25.6600984,12.2747836 L25.3327664,14.2384426 L25.3277715,14.2800667 L25.3277715,14.3170289 L25.3327664,14.3493292 L25.3424232,14.3789656 L25.3567419,14.403607 L25.3737245,14.4282485 L25.396701,14.4478951 L25.4213425,14.4622138 L25.4506458,14.4775315 L25.4806152,14.4895192 L25.5142475,14.499509 L25.5488787,14.5048369 L25.5891709,14.5121627 L25.6281311,14.5141607 L25.6697552,14.5168246 L25.7906316,14.5168246 L25.8595611,14.5121627 L25.9234957,14.5021729 L25.9781066,14.4895192 L26.0197307,14.4775315 L26.051365,14.4648777 L26.0716776,14.4548879 L26.0786704,14.45289 L25.9781066,15.1252026 L25.9524661,15.1401873 L25.9258267,15.152508 L25.8985213,15.1648288 L25.8718818,15.1771495 L25.8452424,15.1868063 L25.8146071,15.1967961 L25.7859697,15.2064529 L25.7510054,15.2164427 L25.7167072,15.2260995 L25.679412,15.2337583 L25.6377878,15.2410841 L25.5934998,15.24841 L25.5468808,15.2557358 L25.4979308,15.2630617 L25.441322,15.2707205 L25.3817163,15.2783793 L25.115655,15.2783793 L24.975132,15.2680566 L24.8495937,15.2537379 L24.7390401,15.2337583 L24.6428051,15.2064529 L24.5615549,15.1771495 L24.4926253,15.1401873 L24.4353506,15.0985632 L24.3890645,15.0512782 L24.3521023,14.9993313 L24.3247969,14.9427225 L24.3078143,14.8814518 L24.2981575,14.8125223 L24.2948276,14.7412618 L24.2981575,14.6623425 L24.3051503,14.5807593 L24.3174711,14.4921831 L24.975132,10.6391225" id="Stroke-25" stroke="#FFFFFF" stroke-width="0.215"></path>
                                <path d="M18.9546207,13.6297316 L18.9423,13.6916683 L18.9396361,13.7532719 L18.9449639,13.8195375 L18.9599486,13.8838052 L18.9785962,13.9504037 L19.0085656,14.0166693 L19.0428638,14.0806039 L19.0851539,14.1422076 L19.13144,14.2014804 L19.1860508,14.2584221 L19.2419936,14.3077051 L19.3045963,14.3543241 L19.3701959,14.3936173 L19.4397914,14.4259176 L19.5140488,14.450226 L19.5873072,14.4675417 L19.6758833,14.4798624 L19.7647924,14.4921831 L19.8560325,14.5021729 L19.9469395,14.5068348 L20.0408435,14.5091658 L20.1317506,14.5091658 L20.2279855,14.5048369 L20.3215565,14.496845 L20.4171255,14.4825264 L20.5160244,14.4648777 L20.6142573,14.4402363 L20.7131561,14.4086019 L20.811389,14.3713067 L20.9152828,14.3273517 L21.0161797,14.2730738 L21.1197404,14.2138011 L20.9668967,15.0882404 L20.9102879,15.1178768 L20.8536791,15.1448492 L20.8017322,15.1674927 L20.7477874,15.1868063 L20.6931766,15.2064529 L20.6395647,15.2211046 L20.5826229,15.2337583 L20.5213522,15.246079 L20.4577506,15.2537379 L20.3884881,15.2607307 L20.3118997,15.2680566 L20.2306495,15.2707205 L20.1420733,15.2757154 L20.0431745,15.2757154 L19.9346188,15.2783793 L19.7304941,15.2783793 L19.6412521,15.2730515 L19.5553399,15.2680566 L19.4664308,15.2583998 L19.3755237,15.246079 L19.2869476,15.2310943 L19.1983715,15.2117808 L19.1101284,15.1918012 L19.0228843,15.1648288 L18.9369721,15.1375233 L18.8530579,15.105556 L18.7698097,15.0689268 L18.6885594,15.0266367 L18.6099731,14.9823487 L18.5350497,14.9330657 L18.4614583,14.8791209 L18.3925288,14.8198481 L18.3262632,14.7559135 L18.2619955,14.686651 L18.2053868,14.6127266 L18.1514419,14.5314763 L18.101826,14.4478951 L18.0575379,14.356988 L18.0179118,14.2604201 L17.9836135,14.1575253 L17.9569741,14.0486366 L17.9339976,13.935419 L17.9196789,13.8125447 L17.9100221,13.6840094 L17.9100221,13.5511453 L17.91535,13.4086243 L17.9270047,13.2601095 L17.9339976,13.2088286 L17.9419894,13.1495559 L17.9516462,13.0902831 L17.9639669,13.0266815 L17.9762877,12.9597499 L17.9932703,12.8908204 L18.0135829,12.8195599 L18.0328964,12.7456355 L18.0575379,12.6690471 L18.0851763,12.5951227 L18.1168106,12.5188673 L18.1514419,12.442612 L18.1904021,12.3660236 L18.2326922,12.2897682 L18.2793112,12.2138459 L18.3289271,12.1395884 L18.3848699,12.068328 L18.4441426,11.9967345 L18.5084103,11.927472 L18.5800037,11.8635373 L18.6539282,11.7996027 L18.7355114,11.740663 L18.8210906,11.6860521 L18.9149946,11.6344382 L19.0138935,11.5901502 L19.1197852,11.5481931 L19.2303388,11.5112309 L19.3485513,11.4815945 L19.4740896,11.457286 L19.6076198,11.4399704 L19.7454788,11.4299806 L19.8929947,11.4249857 L19.9619242,11.4249857 L20.0308537,11.4299806 L20.1024472,11.4349755 L20.1740407,11.4423014 L20.2456341,11.4522911 L20.3188926,11.4669428 L20.390486,11.4839255 L20.4620795,11.503905 L20.533673,11.5258826 L20.6046005,11.553188 L20.67353,11.5824914 L20.7404616,11.6174556 L20.8040632,11.6567488 L20.8686638,11.6983729 L20.9279365,11.7479888 L20.9868763,11.7996027 L21.0401551,11.8562115 L21.092435,11.9178152 L21.139054,11.9867447 L21.1813441,12.0583382 L21.2206373,12.1369245 L21.2556015,12.2205057 L21.2849049,12.3120788 L21.3068824,12.4083137 L21.327195,12.5118745 L21.3388498,12.6197642 L21.3441776,12.7356457 L21.3441776,12.8588531 L21.3361858,12.9893863 L21.3245311,13.1272453 L21.3025535,13.2727632 L21.2725842,13.425607 L21.232958,13.6423853 L18.6735747,13.6423853 L18.8264185,12.957419 L20.3611827,12.957419 L20.3685085,12.863848 L20.3685085,12.7776028 L20.3631806,12.6963525 L20.3481959,12.6220951 L20.3288824,12.5558295 L20.3042409,12.4942259 L20.2722736,12.439948 L20.2353114,12.3906651 L20.1936872,12.346377 L20.1467352,12.3097478 L20.0974523,12.2801114 L20.0458384,12.255137 L19.9885636,12.2354904 L19.9299569,12.2205057 L19.8683532,12.2138459 L19.8047516,12.2108489 L19.735156,12.2108489 L19.6712214,12.2205057 L19.6076198,12.2328265 L19.5476811,12.252806 L19.4910723,12.2801114 L19.4371274,12.3120788 L19.3858465,12.349041 L19.3382285,12.3906651 L19.2946065,12.439948 L19.2549803,12.4918949 L19.2180181,12.5485037 L19.1833868,12.6101074 L19.1540835,12.674042 L19.128776,12.7429715 L19.1101284,12.817229 L19.0918138,12.8934843 L18.9546207,13.6297316" id="Fill-26" fill="#FFFFFF"></path>
                                <path d="M18.9546207,13.6297316 L18.9546207,13.6297316 L18.9423,13.6916683 L18.9396361,13.7532719 L18.9449639,13.8195375 L18.9599486,13.8838052 L18.9785962,13.9504037 L19.0085656,14.0166693 L19.0428638,14.0806039 L19.0851539,14.1422076 L19.13144,14.2014804 L19.1860508,14.2584221 L19.2419936,14.3077051 L19.3045963,14.3543241 L19.3701959,14.3936173 L19.4397914,14.4259176 L19.5140488,14.450226 L19.5873072,14.4675417 L19.6758833,14.4798624 L19.7647924,14.4921831 L19.8560325,14.5021729 L19.9469395,14.5068348 L20.0408435,14.5091658 L20.1317506,14.5091658 L20.2279855,14.5048369 L20.3215565,14.496845 L20.4171255,14.4825264 L20.5160244,14.4648777 L20.6142573,14.4402363 L20.7131561,14.4086019 L20.811389,14.3713067 L20.9152828,14.3273517 L21.0161797,14.2730738 L21.1197404,14.2138011 L20.9668967,15.0882404 L20.9102879,15.1178768 L20.8536791,15.1448492 L20.8017322,15.1674927 L20.7477874,15.1868063 L20.6931766,15.2064529 L20.6395647,15.2211046 L20.5826229,15.2337583 L20.5213522,15.246079 L20.4577506,15.2537379 L20.3884881,15.2607307 L20.3118997,15.2680566 L20.2306495,15.2707205 L20.1420733,15.2757154 L20.0431745,15.2757154 L19.9346188,15.2783793 L19.7304941,15.2783793 L19.6412521,15.2730515 L19.5553399,15.2680566 L19.4664308,15.2583998 L19.3755237,15.246079 L19.2869476,15.2310943 L19.1983715,15.2117808 L19.1101284,15.1918012 L19.0228843,15.1648288 L18.9369721,15.1375233 L18.8530579,15.105556 L18.7698097,15.0689268 L18.6885594,15.0266367 L18.6099731,14.9823487 L18.5350497,14.9330657 L18.4614583,14.8791209 L18.3925288,14.8198481 L18.3262632,14.7559135 L18.2619955,14.686651 L18.2053868,14.6127266 L18.1514419,14.5314763 L18.101826,14.4478951 L18.0575379,14.356988 L18.0179118,14.2604201 L17.9836135,14.1575253 L17.9569741,14.0486366 L17.9339976,13.935419 L17.9196789,13.8125447 L17.9100221,13.6840094 L17.9100221,13.5511453 L17.91535,13.4086243 L17.9270047,13.2601095 L17.9339976,13.2088286 L17.9419894,13.1495559 L17.9516462,13.0902831 L17.9639669,13.0266815 L17.9762877,12.9597499 L17.9932703,12.8908204 L18.0135829,12.8195599 L18.0328964,12.7456355 L18.0575379,12.6690471 L18.0851763,12.5951227 L18.1168106,12.5188673 L18.1514419,12.442612 L18.1904021,12.3660236 L18.2326922,12.2897682 L18.2793112,12.2138459 L18.3289271,12.1395884 L18.3848699,12.068328 L18.4441426,11.9967345 L18.5084103,11.927472 L18.5800037,11.8635373 L18.6539282,11.7996027 L18.7355114,11.740663 L18.8210906,11.6860521 L18.9149946,11.6344382 L19.0138935,11.5901502 L19.1197852,11.5481931 L19.2303388,11.5112309 L19.3485513,11.4815945 L19.4740896,11.457286 L19.6076198,11.4399704 L19.7454788,11.4299806 L19.8929947,11.4249857 L19.9619242,11.4249857 L20.0308537,11.4299806 L20.1024472,11.4349755 L20.1740407,11.4423014 L20.2456341,11.4522911 L20.3188926,11.4669428 L20.390486,11.4839255 L20.4620795,11.503905 L20.533673,11.5258826 L20.6046005,11.553188 L20.67353,11.5824914 L20.7404616,11.6174556 L20.8040632,11.6567488 L20.8686638,11.6983729 L20.9279365,11.7479888 L20.9868763,11.7996027 L21.0401551,11.8562115 L21.092435,11.9178152 L21.139054,11.9867447 L21.1813441,12.0583382 L21.2206373,12.1369245 L21.2556015,12.2205057 L21.2849049,12.3120788 L21.3068824,12.4083137 L21.327195,12.5118745 L21.3388498,12.6197642 L21.3441776,12.7356457 L21.3441776,12.8588531 L21.3361858,12.9893863 L21.3245311,13.1272453 L21.3025535,13.2727632 L21.2725842,13.425607 L21.232958,13.6423853 L18.6735747,13.6423853 L18.8264185,12.957419 L20.3611827,12.957419 L20.3685085,12.863848 L20.3685085,12.7776028 L20.3631806,12.6963525 L20.3481959,12.6220951 L20.3288824,12.5558295 L20.3042409,12.4942259 L20.2722736,12.439948 L20.2353114,12.3906651 L20.1936872,12.346377 L20.1467352,12.3097478 L20.0974523,12.2801114 L20.0458384,12.255137 L19.9885636,12.2354904 L19.9299569,12.2205057 L19.8683532,12.2138459 L19.8047516,12.2108489 L19.735156,12.2108489 L19.6712214,12.2205057 L19.6076198,12.2328265 L19.5476811,12.252806 L19.4910723,12.2801114 L19.4371274,12.3120788 L19.3858465,12.349041 L19.3382285,12.3906651 L19.2946065,12.439948 L19.2549803,12.4918949 L19.2180181,12.5485037 L19.1833868,12.6101074 L19.1540835,12.674042 L19.128776,12.7429715 L19.1101284,12.817229 L19.0918138,12.8934843 L18.9546207,13.6297316" id="Stroke-27" stroke="#FFFFFF" stroke-width="0.215"></path>
                                <path d="M17.585021,14.4921831 L17.444498,15.2783793 L16.554741,15.2783793 L16.5740546,15.1298645 L16.5943672,15.0019952 L16.604024,14.9503813 L16.6120158,14.9060933 L16.6210066,14.8764569 L16.6313294,14.8594743 L16.5847104,14.9134191 L16.5247717,14.967364 L16.4591721,15.0199769 L16.3822507,15.0689268 L16.3016665,15.1155458 L16.2127574,15.1598339 L16.1188534,15.199127 L16.0226184,15.2360892 L15.9217216,15.2680566 L15.8184938,15.295695 L15.714933,15.3146756 L15.6110392,15.3296602 L15.5081444,15.3373191 L15.4069146,15.33965 L15.3086817,15.3326572 L15.2117808,15.3173395 L15.0869084,15.2880361 L14.9763548,15.24841 L14.874792,15.201458 L14.7862159,15.1498441 L14.7076295,15.0932353 L14.641364,15.0293007 L14.5814252,14.9627021 L14.5321423,14.8891107 L14.4905182,14.8151862 L14.4558869,14.7382649 L14.4285815,14.6593456 L14.406604,14.5784283 L14.3922853,14.499509 L14.3822955,14.4182587 L14.3773006,14.3396724 L14.3746367,14.263084 L14.3842935,14.125225 L14.406604,13.9946918 L14.4389043,13.8684875 L14.4858563,13.750608 L14.5424651,13.6400544 L14.6060667,13.5364936 L14.6829881,13.4402586 L14.7635723,13.3490186 L14.8551454,13.2677683 L14.9507143,13.1965078 L15.0549411,13.1302423 L15.1628308,13.0729675 L15.2767144,13.0240175 L15.3925959,12.9843914 L15.5101424,12.955088 L15.6310188,12.9327775 L15.6356807,12.9327775 L15.6533293,12.9304465 L15.6806347,12.9274496 L15.716931,12.9227877 L15.7592211,12.9181258 L15.808171,12.9131309 L15.8627818,12.9054721 L15.9217216,12.9011432 L15.9809943,12.8958153 L16.0396011,12.8884894 L16.1015377,12.8834945 L16.1611435,12.8784996 L16.2144223,12.8735048 L16.2667022,12.8711738 L16.3133212,12.8688429 L16.4784857,12.8688429 L16.5227737,12.8711738 L16.5643978,12.8711738 L16.604024,12.8735048 L16.6829433,12.8735048 L16.7172416,12.8761687 L16.7498749,12.8761687 L16.7765143,12.8784996 L16.8011558,12.8784996 L16.8208024,12.8811636 L16.8481078,12.8811636 L16.8557666,12.8565221 L16.8720833,12.7975824 L16.88507,12.7279869 L16.88507,12.6670492 L16.8797421,12.6220951 L16.8720833,12.580471 L16.8604285,12.5408449 L16.8434459,12.5042157 L16.8231333,12.4695844 L16.7991578,12.4379501 L16.7738504,12.4083137 L16.744547,12.3783443 L16.7125797,12.3540359 L16.6802794,12.3340563 L16.6429842,12.3144097 L16.6066879,12.2970941 L16.5677278,12.2851063 L16.5247717,12.2747836 L16.4831476,12.2681237 L16.4415235,12.2627958 L16.3406266,12.2601319 L16.2347349,12.2627958 L16.1241813,12.2651268 L16.0109637,12.2724526 L15.8970801,12.2801114 L15.7838625,12.2897682 L15.670312,12.302422 L15.5594253,12.3144097 L15.4535336,12.3313923 L15.3526367,12.346377 L15.2610637,12.3636927 L15.1751515,12.3836722 L15.0992292,12.4029858 L15.0346285,12.4226324 L14.9833476,12.442612 L14.9463854,12.4645895 L15.199793,11.6271124 L15.2740504,11.5928141 L15.3526367,11.5608468 L15.4315561,11.5335414 L15.5154703,11.5112309 L15.6020484,11.4939153 L15.6902915,11.4792636 L15.7838625,11.4669428 L15.8800975,11.457286 L15.9783304,11.4522911 L16.0792272,11.4472962 L16.182788,11.4449653 L16.5181118,11.4449653 L16.6366573,11.4472962 L16.7595317,11.4499602 L16.8604285,11.459617 L16.9663202,11.4742687 L17.0768739,11.5015741 L17.1880935,11.5335414 L17.2993131,11.5751655 L17.4098668,11.6271124 L17.5134275,11.6860521 L17.6116604,11.7553147 L17.7032335,11.833901 L17.7838178,11.9201461 L17.8534133,12.0163811 L17.9073581,12.1219398 L17.9463183,12.2381543 L17.9692948,12.3636927 L17.9712928,12.4965568 L17.9516462,12.6420747 L17.585021,14.4921831" id="Fill-28" fill="#FFFFFF"></path>
                                <path d="M17.585021,14.4921831 L17.444498,15.2783793 L16.554741,15.2783793 L16.5740546,15.1298645 L16.5943672,15.0019952 L16.604024,14.9503813 L16.6120158,14.9060933 L16.6210066,14.8764569 L16.6313294,14.8594743 L16.5847104,14.9134191 L16.5247717,14.967364 L16.4591721,15.0199769 L16.3822507,15.0689268 L16.3016665,15.1155458 L16.2127574,15.1598339 L16.1188534,15.199127 L16.0226184,15.2360892 L15.9217216,15.2680566 L15.8184938,15.295695 L15.714933,15.3146756 L15.6110392,15.3296602 L15.5081444,15.3373191 L15.4069146,15.33965 L15.3086817,15.3326572 L15.2117808,15.3173395 L15.0869084,15.2880361 L14.9763548,15.24841 L14.874792,15.201458 L14.7862159,15.1498441 L14.7076295,15.0932353 L14.641364,15.0293007 L14.5814252,14.9627021 L14.5321423,14.8891107 L14.4905182,14.8151862 L14.4558869,14.7382649 L14.4285815,14.6593456 L14.406604,14.5784283 L14.3922853,14.499509 L14.3822955,14.4182587 L14.3773006,14.3396724 L14.3746367,14.263084 L14.3842935,14.125225 L14.406604,13.9946918 L14.4389043,13.8684875 L14.4858563,13.750608 L14.5424651,13.6400544 L14.6060667,13.5364936 L14.6829881,13.4402586 L14.7635723,13.3490186 L14.8551454,13.2677683 L14.9507143,13.1965078 L15.0549411,13.1302423 L15.1628308,13.0729675 L15.2767144,13.0240175 L15.3925959,12.9843914 L15.5101424,12.955088 L15.6310188,12.9327775 L15.6356807,12.9327775 L15.6533293,12.9304465 L15.6806347,12.9274496 L15.716931,12.9227877 L15.7592211,12.9181258 L15.808171,12.9131309 L15.8627818,12.9054721 L15.9217216,12.9011432 L15.9809943,12.8958153 L16.0396011,12.8884894 L16.1015377,12.8834945 L16.1611435,12.8784996 L16.2144223,12.8735048 L16.2667022,12.8711738 L16.3133212,12.8688429 L16.4784857,12.8688429 L16.5227737,12.8711738 L16.5643978,12.8711738 L16.604024,12.8735048 L16.6829433,12.8735048 L16.7172416,12.8761687 L16.7498749,12.8761687 L16.7765143,12.8784996 L16.8011558,12.8784996 L16.8208024,12.8811636 L16.8481078,12.8811636 L16.8557666,12.8565221 L16.8720833,12.7975824 L16.88507,12.7279869 L16.88507,12.6670492 L16.8797421,12.6220951 L16.8720833,12.580471 L16.8604285,12.5408449 L16.8434459,12.5042157 L16.8231333,12.4695844 L16.7991578,12.4379501 L16.7738504,12.4083137 L16.744547,12.3783443 L16.7125797,12.3540359 L16.6802794,12.3340563 L16.6429842,12.3144097 L16.6066879,12.2970941 L16.5677278,12.2851063 L16.5247717,12.2747836 L16.4831476,12.2681237 L16.4415235,12.2627958 L16.3406266,12.2601319 L16.2347349,12.2627958 L16.1241813,12.2651268 L16.0109637,12.2724526 L15.8970801,12.2801114 L15.7838625,12.2897682 L15.670312,12.302422 L15.5594253,12.3144097 L15.4535336,12.3313923 L15.3526367,12.346377 L15.2610637,12.3636927 L15.1751515,12.3836722 L15.0992292,12.4029858 L15.0346285,12.4226324 L14.9833476,12.442612 L14.9463854,12.4645895 L15.199793,11.6271124 L15.2740504,11.5928141 L15.3526367,11.5608468 L15.4315561,11.5335414 L15.5154703,11.5112309 L15.6020484,11.4939153 L15.6902915,11.4792636 L15.7838625,11.4669428 L15.8800975,11.457286 L15.9783304,11.4522911 L16.0792272,11.4472962 L16.182788,11.4449653 L16.5181118,11.4449653 L16.6366573,11.4472962 L16.7595317,11.4499602 L16.8604285,11.459617 L16.9663202,11.4742687 L17.0768739,11.5015741 L17.1880935,11.5335414 L17.2993131,11.5751655 L17.4098668,11.6271124 L17.5134275,11.6860521 L17.6116604,11.7553147 L17.7032335,11.833901 L17.7838178,11.9201461 L17.8534133,12.0163811 L17.9073581,12.1219398 L17.9463183,12.2381543 L17.9692948,12.3636927 L17.9712928,12.4965568 L17.9516462,12.6420747 L17.585021,14.4921831" id="Stroke-29" stroke="#FFFFFF" stroke-width="0.215"></path>
                                <path d="M16.7348902,13.565797 L16.7322263,13.5461504 L16.7172416,13.5311657 L16.6926001,13.5191779 L16.6612988,13.5118521 L16.6190087,13.5068572 L16.5740546,13.5041933 L16.4688289,13.5041933 L16.4122201,13.5091882 L16.3529474,13.516514 L16.2963386,13.5238398 L16.2400628,13.5341626 L16.1851189,13.5434864 L16.133838,13.5534762 L16.088884,13.565797 L16.0499238,13.5781177 L16.0272803,13.5831126 L15.997977,13.5927694 L15.9616807,13.6054231 L15.9217216,13.6224057 L15.8800975,13.6400544 L15.8328125,13.6620319 L15.7858605,13.6890043 L15.7392415,13.7163097 L15.6929555,13.750608 L15.6480014,13.7879032 L15.6063773,13.8268634 L15.5694151,13.8718174 L15.5347839,13.9181034 L15.5101424,13.9703833 L15.4908288,14.0266591 L15.4781751,14.0855988 L15.4738462,14.2064753 L15.4908288,14.3000463 L15.5197992,14.3736377 L15.5647532,14.4282485 L15.6186981,14.4648777 L15.6753068,14.4895192 L15.7372435,14.5021729 L15.7955173,14.5048369 L15.9050719,14.5021729 L16.0006409,14.4921831 L16.091548,14.4748675 L16.1727982,14.45289 L16.2470556,14.4282485 L16.3133212,14.3986121 L16.3725939,14.3643139 L16.4238748,14.3273517 L16.4708268,14.2903895 L16.511119,14.2484324 L16.5447513,14.2088062 L16.5740546,14.1671821 L16.5996951,14.125225 L16.6190087,14.0855988 L16.6333274,14.0466387 L16.6463141,14.0093435 L16.6586348,13.9550656 L16.6702896,13.8981238 L16.6829433,13.8391841 L16.695264,13.7775804 L16.7049208,13.7186407 L16.7145776,13.6643628 L16.7252334,13.6127489 L16.7348902,13.565797" id="Fill-30" fill="#0084C4"></path>
                                <path d="M10.149623,15.2783793 L9.18660758,15.2783793 L9.99677926,10.6391225 L11.6723994,10.6391225 L11.8375639,13.4009655 L12.9777315,10.6391225 L14.7172863,10.6391225 L13.9044507,15.2783793 L12.9411023,15.2783793 L13.5498133,11.8042646 L13.5121851,11.8042646 L12.0786507,15.2783793 L10.9997538,15.2783793 L10.990097,15.1325285 L10.9677865,14.7459237 L10.898191,13.5711248 L10.8618948,12.9374394 L10.8292615,12.3783443 L10.8072839,11.974424 L10.7976271,11.8042646 L10.7480112,11.8042646 L10.758667,11.8042646 L10.149623,15.2783793" id="Fill-31" fill="#FFFFFF"></path>
                                <path d="M10.149623,15.2783793 L9.18660758,15.2783793 L9.99677926,10.6391225 L11.6723994,10.6391225 L11.8375639,13.4009655 L12.9777315,10.6391225 L14.7172863,10.6391225 L13.9044507,15.2783793 L12.9411023,15.2783793 L13.5498133,11.8042646 L13.5121851,11.8042646 L12.0786507,15.2783793 L10.9997538,15.2783793 L10.990097,15.1325285 L10.9677865,14.7459237 L10.898191,13.5711248 L10.8618948,12.9374394 L10.8292615,12.3783443 L10.8072839,11.974424 L10.7976271,11.8042646 L10.7480112,11.8042646 L10.758667,11.8042646 L10.149623,15.2783793" id="Stroke-32" stroke="#FFFFFF" stroke-width="0.215"></path>
                                <path d="M26.2438349,15.2783793 L27.2461435,15.2783793 L27.5891261,13.2754272 L27.6037778,13.1965078 L27.6207604,13.1199195 L27.641073,13.0436641 L27.6650485,12.9724036 L27.6923539,12.9011432 L27.7269852,12.8342116 L27.7686093,12.770277 L27.8152283,12.7090063 L27.8718371,12.6540624 L27.9364377,12.6051125 L28.0123601,12.5608244 L28.0969403,12.5211983 L28.1958392,12.489231 L28.3057268,12.4645895 L28.4292672,12.4499378 L28.5671262,12.439948 L28.5794469,12.439948 L28.5944316,12.442612 L28.6140782,12.4449429 L28.6333918,12.4449429 L28.6503744,12.4472739 L28.6653591,12.4499378 L28.6750159,12.4522688 L28.6803438,12.4522688 L28.6830077,12.4379501 L28.6933305,12.39566 L28.7049853,12.3313923 L28.7246318,12.2504751 L28.7492733,12.159568 L28.7765787,12.0606691 L28.8085461,11.9621032 L28.8455083,11.8688652 L28.8728137,11.7996027 L28.9364153,11.6667386 L28.9710466,11.6051349 L29.0010159,11.553188 L29.0249914,11.5112309 L29.04264,11.4839255 L29.046969,11.4742687 L29.04264,11.4742687 L29.0303193,11.4692738 L29.0126707,11.4669428 L28.9880292,11.4619479 L28.9633877,11.457286 L28.9340844,11.4546221 L28.9071119,11.4499602 L28.8824705,11.4499602 L28.7739148,11.457286 L28.6750159,11.4692738 L28.5847748,11.4892534 L28.5001946,11.5112309 L28.4212753,11.5405343 L28.3500149,11.5728346 L28.2810853,11.6121277 L28.2198146,11.6544178 L28.157878,11.7013698 L28.1016022,11.7526507 L28.0499883,11.8069286 L27.9953774,11.8658683 L27.9434305,11.927472 L27.8944806,11.9944036 L27.8425337,12.0633331 L27.7912528,12.1345936 L27.9071343,11.5015741 L26.9041598,11.4892534 L26.2438349,15.2783793" id="Fill-33" fill="#FFFFFF"></path>
                                <path d="M26.2438349,15.2783793 L27.2461435,15.2783793 L27.5891261,13.2754272 L27.6037778,13.1965078 L27.6207604,13.1199195 L27.641073,13.0436641 L27.6650485,12.9724036 L27.6923539,12.9011432 L27.7269852,12.8342116 L27.7686093,12.770277 L27.8152283,12.7090063 L27.8718371,12.6540624 L27.9364377,12.6051125 L28.0123601,12.5608244 L28.0969403,12.5211983 L28.1958392,12.489231 L28.3057268,12.4645895 L28.4292672,12.4499378 L28.5671262,12.439948 L28.5794469,12.439948 L28.5944316,12.442612 L28.6140782,12.4449429 L28.6333918,12.4449429 L28.6503744,12.4472739 L28.6653591,12.4499378 L28.6750159,12.4522688 L28.6803438,12.4522688 L28.6830077,12.4379501 L28.6933305,12.39566 L28.7049853,12.3313923 L28.7246318,12.2504751 L28.7492733,12.159568 L28.7765787,12.0606691 L28.8085461,11.9621032 L28.8455083,11.8688652 L28.8728137,11.7996027 L28.9364153,11.6667386 L28.9710466,11.6051349 L29.0010159,11.553188 L29.0249914,11.5112309 L29.04264,11.4839255 L29.046969,11.4742687 L29.04264,11.4742687 L29.0303193,11.4692738 L29.0126707,11.4669428 L28.9880292,11.4619479 L28.9633877,11.457286 L28.9340844,11.4546221 L28.9071119,11.4499602 L28.8824705,11.4499602 L28.7739148,11.457286 L28.6750159,11.4692738 L28.5847748,11.4892534 L28.5001946,11.5112309 L28.4212753,11.5405343 L28.3500149,11.5728346 L28.2810853,11.6121277 L28.2198146,11.6544178 L28.157878,11.7013698 L28.1016022,11.7526507 L28.0499883,11.8069286 L27.9953774,11.8658683 L27.9434305,11.927472 L27.8944806,11.9944036 L27.8425337,12.0633331 L27.7912528,12.1345936 L27.9071343,11.5015741 L26.9041598,11.4892534 L26.2438349,15.2783793" id="Stroke-34" stroke="#FFFFFF" stroke-width="0.215"></path>
                                <path d="M30.5820661,11.4499602 L30.6932858,11.4522911 L30.8018414,11.459617 L30.9070672,11.4692738 L31.010628,11.4839255 L31.1095269,11.503905 L31.2050958,11.5285465 L31.2960029,11.5558519 L31.3872429,11.5874863 L31.4738211,11.6244485 L31.5550713,11.6640746 L31.6363216,11.7060317 L31.710579,11.7526507 L31.7845034,11.8042646 L31.8534329,11.8585425 L31.9173676,11.9154842 L31.9789713,11.9770879 L32.037578,12.0410226 L32.0921888,12.1099521 L32.1414718,12.1792146 L32.1877578,12.252806 L32.2320459,12.3290614 L32.269674,12.4106447 L32.3069693,12.4918949 L32.3359396,12.5781401 L32.363245,12.6643852 L32.3855556,12.7556253 L32.4055351,12.8491963 L32.4198538,12.9450982 L32.4298436,13.0410002 L32.4341725,13.14223 L32.4375025,13.2457908 L32.4341725,13.3490186 L32.4271797,13.4748899 L32.412195,13.5957663 L32.3952124,13.7113148 L32.3732348,13.8245324 L32.3485934,13.9330881 L32.316626,14.0363159 L32.2813288,14.1375457 L32.2450326,14.2331147 L32.2007445,14.3246877 L32.1564565,14.4132638 L32.1045096,14.496845 L32.0532287,14.5757644 L31.9959539,14.6523527 L31.9340172,14.7236132 L31.8704156,14.7905448 L31.80415,14.8544794 L31.7352205,14.9134191 L31.663627,14.9703609 L31.5873716,15.0216418 L31.5107833,15.0689268 L31.429533,15.1128819 L31.3456188,15.152508 L31.2623706,15.1894702 L31.1731285,15.2211046 L31.0848854,15.2507409 L30.9916474,15.2757154 L30.8974104,15.295695 L30.8038394,15.3126776 L30.7056065,15.3249983 L30.6067076,15.3346551 L30.5058108,15.33965 L30.4052469,15.341981 L30.3036841,15.33965 L30.2027872,15.3346551 L30.1072183,15.3249983 L30.0109833,15.3100137 L29.9174123,15.292698 L29.8231754,15.2730515 L29.7345993,15.24841 L29.6486871,15.2191066 L29.5621089,15.1868063 L29.4808587,15.1498441 L29.4022724,15.1105509 L29.325351,15.0662629 L29.2520926,15.0199769 L29.183163,14.967364 L29.1142335,14.9134191 L29.0496329,14.8544794 L28.9906932,14.7925427 L28.9320864,14.7262771 L28.8798065,14.6573476 L28.8278596,14.5834232 L28.7835716,14.5068348 L28.7396165,14.4259176 L28.7023213,14.3416704 L28.6680231,14.2557582 L28.6387197,14.1645182 L28.6107483,14.0686162 L28.5891037,13.9703833 L28.5717881,13.8684875 L28.5594674,13.7629287 L28.5521415,13.6543731 L28.5494776,13.5414885 L28.5521415,13.425607 L28.5594674,13.3073945 L28.5717881,13.1938439 L28.5891037,13.0829573 L28.6107483,12.9770655 L28.6360557,12.8735048 L28.6653591,12.7722749 L28.6973264,12.676373 L28.7349546,12.583135 L28.7739148,12.4918949 L28.8182028,12.4056498 L28.8668198,12.3240665 L28.9190997,12.2431492 L28.9737105,12.1692248 L29.0326503,12.0953004 L29.0939209,12.0283688 L29.1581886,11.9621032 L29.2271181,11.9004996 L29.2980456,11.8438908 L29.372969,11.7899459 L29.4488914,11.740663 L29.5304746,11.6963749 L29.6137228,11.6520869 L29.699968,11.6147917 L29.7865461,11.5801604 L29.8777862,11.55119 L29.9706912,11.5235516 L30.0675921,11.5015741 L30.165825,11.4815945 L30.2667219,11.4692738 L30.3699497,11.457286 L30.4758414,11.4522911 L30.5820661,11.4499602" id="Fill-35" fill="#FFFFFF"></path>
                                <path d="M30.5820661,11.4499602 L30.5820661,11.4499602 L30.6932858,11.4522911 L30.8018414,11.459617 L30.9070672,11.4692738 L31.010628,11.4839255 L31.1095269,11.503905 L31.2050958,11.5285465 L31.2960029,11.5558519 L31.3872429,11.5874863 L31.4738211,11.6244485 L31.5550713,11.6640746 L31.6363216,11.7060317 L31.710579,11.7526507 L31.7845034,11.8042646 L31.8534329,11.8585425 L31.9173676,11.9154842 L31.9789713,11.9770879 L32.037578,12.0410226 L32.0921888,12.1099521 L32.1414718,12.1792146 L32.1877578,12.252806 L32.2320459,12.3290614 L32.269674,12.4106447 L32.3069693,12.4918949 L32.3359396,12.5781401 L32.363245,12.6643852 L32.3855556,12.7556253 L32.4055351,12.8491963 L32.4198538,12.9450982 L32.4298436,13.0410002 L32.4341725,13.14223 L32.4375025,13.2457908 L32.4341725,13.3490186 L32.4271797,13.4748899 L32.412195,13.5957663 L32.3952124,13.7113148 L32.3732348,13.8245324 L32.3485934,13.9330881 L32.316626,14.0363159 L32.2813288,14.1375457 L32.2450326,14.2331147 L32.2007445,14.3246877 L32.1564565,14.4132638 L32.1045096,14.496845 L32.0532287,14.5757644 L31.9959539,14.6523527 L31.9340172,14.7236132 L31.8704156,14.7905448 L31.80415,14.8544794 L31.7352205,14.9134191 L31.663627,14.9703609 L31.5873716,15.0216418 L31.5107833,15.0689268 L31.429533,15.1128819 L31.3456188,15.152508 L31.2623706,15.1894702 L31.1731285,15.2211046 L31.0848854,15.2507409 L30.9916474,15.2757154 L30.8974104,15.295695 L30.8038394,15.3126776 L30.7056065,15.3249983 L30.6067076,15.3346551 L30.5058108,15.33965 L30.4052469,15.341981 L30.3036841,15.33965 L30.2027872,15.3346551 L30.1072183,15.3249983 L30.0109833,15.3100137 L29.9174123,15.292698 L29.8231754,15.2730515 L29.7345993,15.24841 L29.6486871,15.2191066 L29.5621089,15.1868063 L29.4808587,15.1498441 L29.4022724,15.1105509 L29.325351,15.0662629 L29.2520926,15.0199769 L29.183163,14.967364 L29.1142335,14.9134191 L29.0496329,14.8544794 L28.9906932,14.7925427 L28.9320864,14.7262771 L28.8798065,14.6573476 L28.8278596,14.5834232 L28.7835716,14.5068348 L28.7396165,14.4259176 L28.7023213,14.3416704 L28.6680231,14.2557582 L28.6387197,14.1645182 L28.6107483,14.0686162 L28.5891037,13.9703833 L28.5717881,13.8684875 L28.5594674,13.7629287 L28.5521415,13.6543731 L28.5494776,13.5414885 L28.5521415,13.425607 L28.5594674,13.3073945 L28.5717881,13.1938439 L28.5891037,13.0829573 L28.6107483,12.9770655 L28.6360557,12.8735048 L28.6653591,12.7722749 L28.6973264,12.676373 L28.7349546,12.583135 L28.7739148,12.4918949 L28.8182028,12.4056498 L28.8668198,12.3240665 L28.9190997,12.2431492 L28.9737105,12.1692248 L29.0326503,12.0953004 L29.0939209,12.0283688 L29.1581886,11.9621032 L29.2271181,11.9004996 L29.2980456,11.8438908 L29.372969,11.7899459 L29.4488914,11.740663 L29.5304746,11.6963749 L29.6137228,11.6520869 L29.699968,11.6147917 L29.7865461,11.5801604 L29.8777862,11.55119 L29.9706912,11.5235516 L30.0675921,11.5015741 L30.165825,11.4815945 L30.2667219,11.4692738 L30.3699497,11.457286 L30.4758414,11.4522911 L30.5820661,11.4499602" id="Stroke-36" stroke="#FFFFFF" stroke-width="0.215"></path>
                                <path id="Fill-37" fill="#FFFFFF" d="M32.0558926,15.0882404 L32.3459294,15.0882404 L32.3459294,15.1252026 L32.2320459,15.1252026 L32.2320459,15.3666224 L32.1687772,15.3666224 L32.1687772,15.1252026 L32.0558926,15.1252026 L32.0558926,15.0882404"></path>
                                <path id="Stroke-38" stroke="#FFFFFF" stroke-width="0.215" d="M32.0558926,15.0882404 L32.3459294,15.0882404 L32.3459294,15.1252026 L32.2320459,15.1252026 L32.2320459,15.3666224 L32.1687772,15.3666224 L32.1687772,15.1252026 L32.0558926,15.1252026 L32.0558926,15.0882404"></path>
                                <path id="Fill-39" fill="#FFFFFF" d="M32.3828916,15.0882404 L32.4721337,15.0882404 L32.5746955,15.3026878 L32.6762584,15.0882404 L32.7651675,15.0882404 L32.7651675,15.3666224 L32.7002338,15.3666224 L32.7002338,15.152508 L32.599337,15.3666224 L32.5480561,15.3666224 L32.4464933,15.152508 L32.4464933,15.3666224 L32.3828916,15.3666224 L32.3828916,15.0882404"></path>
                                <path id="Stroke-40" stroke="#FFFFFF" stroke-width="0.215" d="M32.3828916,15.0882404 L32.4721337,15.0882404 L32.5746955,15.3026878 L32.6762584,15.0882404 L32.7651675,15.0882404 L32.7651675,15.3666224 L32.7002338,15.3666224 L32.7002338,15.152508 L32.599337,15.3666224 L32.5480561,15.3666224 L32.4464933,15.152508 L32.4464933,15.3666224 L32.3828916,15.3666224 L32.3828916,15.0882404"></path>
                                <path d="M29.7962029,13.2601095 L29.7812183,13.3983015 L29.7735594,13.5265038 L29.7735594,13.6423853 L29.7812183,13.750608 L29.7962029,13.8491739 L29.8185135,13.935419 L29.8458189,14.0143384 L29.8794512,14.0855988 L29.9217412,14.1468695 L29.9686932,14.1988164 L30.0199741,14.2431045 L30.0772489,14.2780687 L30.1391856,14.3047082 L30.2081151,14.3246877 L30.2790426,14.3343445 L30.355631,14.3396724 L30.4395452,14.3370085 L30.5207954,14.3273517 L30.5970508,14.309703 L30.6703092,14.2830636 L30.7399048,14.2484324 L30.8065033,14.2041443 L30.867441,14.1521974 L30.9267138,14.0902607 L30.9786607,14.0216642 L31.0282766,13.9424119 L31.0748956,13.8541688 L31.1138558,13.7579338 L31.151151,13.6523751 L31.1831183,13.5364936 L31.2077598,13.4106223 L31.2304033,13.2754272 L31.242724,13.1692024 L31.2493839,13.0683056 L31.2493839,12.9697397 L31.242724,12.8761687 L31.2304033,12.7899235 L31.2104237,12.7060093 L31.1831183,12.629754 L31.151151,12.5584935 L31.1121908,12.4942259 L31.0672368,12.439948 L31.0159559,12.3906651 L30.9593471,12.3513719 L30.8947464,12.3190716 L30.8258169,12.299425 L30.7525585,12.2874373 L30.6703092,12.2874373 L30.5697454,12.2947631 L30.4758414,12.3120788 L30.3895962,12.3410491 L30.309012,12.3783443 L30.2347546,12.4276273 L30.165825,12.4819051 L30.1038884,12.5435088 L30.0499435,12.6127713 L29.9986626,12.6863628 L29.9537086,12.7652821 L29.9140824,12.8438684 L29.8821151,12.9274496 L29.8528117,13.0113638 L29.8281703,13.095278 L29.8111876,13.1791922 L29.7962029,13.2601095" id="Fill-41" fill="#EC1C2E"></path>
                            </g>
                        </g>
                    </g>
                </g>
            </g>
        </g>
    </g>
</svg>