<svg width="44" height="27" viewBox="0 0 44 27" xmlns="http://www.w3.org/2000/svg" xmlns:sketch="http://www.bohemiancoding.com/sketch/ns"><title>creditcard-jcb</title><desc>Created with Sketch.</desc><defs><linearGradient x1="0%" y1="50%" x2="100.001%" y2="50%" id="a"><stop stop-color="#007B40" offset="0%"/><stop stop-color="#55B330" offset="100%"/></linearGradient><linearGradient x1="0%" y1="50%" y2="50%" id="b"><stop stop-color="#1D2970" offset="0%"/><stop stop-color="#006DBA" offset="100%"/></linearGradient><linearGradient x1="0%" y1="50%" y2="50%" id="c"><stop stop-color="#6E2B2F" offset="0%"/><stop stop-color="#E30138" offset="100%"/></linearGradient></defs><g sketch:type="MSShapeGroup" fill="none"><path d="M43.244 25.025c0 .775-.632 1.403-1.41 1.403h-39.471c-.779 0-1.409-.628-1.409-1.403v-23.498c0-.775.631-1.403 1.409-1.403h39.471c.779 0 1.41.628 1.41 1.403v23.498" fill="#016AB7"/><g><path d="M36.12 19.696c0 2.332-1.888 4.224-4.218 4.224h-22.902v-16.696c0-2.333 1.888-4.224 4.219-4.224h22.901v16.696z" id="Shape" fill="#fff"/><path d="M28.654 13.827h1.7549999999999983l.029.001.029.002.029.002.029.003.029.004.029.004.018.003.011.003.029.007.029.009.029.01.029.011.029.013.029.014.029.016.029.017.029.019.029.021.029.023.029.026.029.028.029.031.029.035.029.04.029.046.029.055.029.069.029.098.02.185-.02.186-.029.099-.029.069-.029.055-.029.046-.029.04-.029.035-.029.031-.029.028-.029.025-.029.023-.029.021-.029.019-.029.017-.029.015-.029.014-.029.013-.029.011-.029.01-.029.009-.029.007-.011.003-.018.004-.029.004-.029.004-.029.003-.029.002-.029.002-.029.001h-1.7559999999999985v-1.592zm2.342-1.802l.018.17-.018.169-.029.099-.029.067-.029.053-.029.044-.029.038-.029.033-.029.029-.029.026-.029.023-.029.021-.029.019-.029.017-.029.015-.029.014-.029.012-.029.011-.029.009-.029.008-.029.007-.029.006-.007.001-.022.003-.029.003-.029.003-.029.002-.029.002-.029.001h-1.5809999999999989v-1.469h1.5929999999999989l.017.001.029.002.029.002.029.003.029.003.022.003.007.001.029.006.029.007.029.008.029.01.029.011.029.012.029.014.029.015.029.017.029.019.029.021.029.023.029.026.029.029.029.033.029.038.029.044.029.053.029.067.029.099zm3.607-7.617h.012v15.087l-.012.267-.029.23-.029.151-.029.121-.029.103-.029.092-.029.082-.029.075-.029.07-.029.066-.029.062-.029.058-.029.055-.029.052-.029.05-.029.048-.029.046-.029.044-.029.043-.029.041-.029.04-.029.038-.029.037-.029.036-.029.035-.029.034-.029.033-.029.032-.029.031-.029.03-.029.03-.029.028-.029.028-.029.027-.029.027-.029.026-.029.025-.029.025-.029.024-.029.023-.029.023-.029.022-.029.021-.029.021-.029.02-.029.02-.029.019-.029.019-.029.019-.029.018-.029.018-.029.017-.029.017-.029.016-.029.016-.029.015-.029.015-.029.015-.029.014-.029.014-.029.014-.029.013-.029.013-.029.013-.029.012-.029.012-.029.011-.029.011-.029.011-.029.01-.029.01-.029.009-.029.009-.029.009-.029.009-.029.009-.029.008-.029.008-.029.007-.029.007-.029.007-.029.006-.029.006-.029.006-.029.006-.029.005-.029.005-.029.005-.029.004-.029.004-.029.004-.029.003-.029.003-.029.003-.029.003-.029.003-.029.002-.029.002-.029.002-.029.001-.029.001-.029.001h-4.47099999999999v-6.151h4.7029999999999905l.029-.001.029-.001.029-.001.029-.001.029-.002.029-.002.029-.002.029-.003.029-.003.029-.003.029-.004.029-.004.029-.004.029-.004.029-.005.029-.005.029-.005.029-.006.029-.006.029-.007.029-.007.029-.007.029-.008.029-.008.029-.009.029-.009.029-.01.029-.01.029-.01.029-.011.029-.011.029-.012.029-.013.029-.013.029-.014.029-.014.029-.015.029-.016.029-.016.029-.017.029-.018.029-.019.029-.019.029-.02.029-.021.029-.022.029-.023.029-.024.029-.026.029-.027.029-.029.029-.03.029-.032.029-.034.029-.037.029-.039.029-.043.029-.046.029-.051.029-.057.029-.066.029-.078.029-.099.029-.152.013-.194-.013-.189-.029-.147-.029-.096-.029-.076-.029-.063-.029-.055-.029-.05-.029-.045-.029-.041-.029-.038-.029-.035-.029-.033-.029-.031-.029-.029-.029-.028-.029-.026-.029-.025-.029-.024-.029-.022-.029-.021-.029-.02-.029-.02-.029-.019-.029-.018-.029-.017-.029-.016-.029-.016-.029-.015-.029-.014-.029-.014-.029-.013-.029-.013-.029-.012-.029-.012-.029-.011-.029-.011-.029-.01-.029-.01-.029-.009-.029-.009-.029-.009-.029-.008-.029-.008-.029-.007-.029-.007-.029-.007-.029-.006-.029-.006-.029-.006-.029-.005-.029-.005-.029-.005-.029-.004-.029-.004-.029-.004-.029-.003-.029-.003-.029-.003-.029-.002-.027-.002v-.035l.027-.004.029-.005.029-.005.029-.006.029-.006.029-.006.029-.007.029-.007.029-.008.029-.008.029-.009.029-.009.029-.01.029-.01.029-.011.029-.011.029-.012.029-.012.029-.013.029-.014.029-.014.029-.015.029-.016.029-.017.029-.017.029-.018.029-.019.029-.02.029-.021.029-.022.029-.024.029-.025.029-.026.029-.028.029-.03.029-.032.029-.034.029-.036.029-.039.029-.042.029-.046.029-.051.029-.058.029-.067.029-.08.029-.103.029-.173.007-.14-.007-.146-.029-.176-.029-.104-.029-.079-.029-.066-.029-.057-.029-.05-.029-.045-.029-.041-.029-.038-.029-.035-.029-.032-.029-.03-.029-.029-.029-.027-.029-.025-.029-.024-.029-.023-.029-.022-.029-.02-.029-.019-.029-.019-.029-.018-.029-.017-.029-.016-.029-.015-.029-.015-.029-.014-.029-.013-.029-.013-.029-.012-.029-.012-.029-.011-.029-.011-.029-.01-.029-.01-.029-.009-.029-.009-.029-.008-.029-.008-.029-.007-.029-.007-.029-.007-.029-.006-.029-.006-.029-.005-.029-.005-.029-.005-.029-.004-.029-.004-.029-.004-.029-.003-.029-.003-.029-.003-.029-.003-.029-.002-.029-.002-.029-.002-.012-.001-.018-.001-.029-.002-.029-.002-.029-.002-.029-.001-.029-.001-.029-.001-.029-.001-.029-.001h-4.296999999999991v-3.133c0-.211.022-.417.063-.615l.029-.127.029-.107.029-.094.029-.085.029-.077.029-.071.029-.067.029-.062.029-.059.029-.056.029-.053.029-.051.029-.049.029-.047.029-.045.029-.043.029-.042.029-.04.029-.039.029-.038.029-.036.029-.035.029-.034.029-.033.029-.032.029-.031.029-.031.029-.03.029-.029.029-.028.029-.027.029-.027.029-.026.029-.025.029-.025.029-.024.029-.023.029-.023.029-.022.029-.022.029-.021.029-.021.029-.02.029-.02.029-.019.029-.019.029-.018.029-.018.029-.017.029-.017.029-.016.029-.016.029-.015.029-.015.029-.015.029-.014.029-.014.029-.014.029-.013.029-.013.029-.013.029-.012.029-.012.029-.011.029-.011.029-.011.029-.01.029-.01.029-.01.029-.009.029-.009.029-.009.029-.009.029-.008.029-.008.029-.008.029-.007.029-.007.029-.006.029-.006.029-.006.029-.006.029-.006.029-.005.029-.005.029-.005.029-.004.029-.004.029-.004.029-.003.029-.003.029-.003.029-.003.029-.002.029-.002.029-.002.029-.001.029-.001.029-.001h4.46599999999999z" id="Shape" fill="url(#a)"/><path d="M10.569 14.907l-.062-.03v-7.452c0-.21.022-.415.062-.613l.029-.127.029-.107.029-.094.029-.085.029-.077.029-.071.029-.066.029-.062.029-.059.029-.056.029-.053.029-.051.029-.049.029-.047.029-.045.029-.043.029-.042.029-.04.029-.039.029-.038.029-.036.029-.035.029-.034.029-.033.029-.032.029-.031.029-.031.029-.03.029-.029.029-.028.029-.027.029-.027.029-.026.029-.025.029-.025.029-.024.029-.023.029-.023.029-.022.029-.022.029-.021.029-.021.029-.02.029-.02.029-.019.029-.019.029-.018.029-.018.029-.017.029-.017.029-.016.029-.016.029-.015.029-.015.029-.015.029-.014.029-.014.029-.014.029-.014.029-.013.029-.013.029-.012.029-.012.029-.012.029-.011.029-.011.029-.01.029-.01.029-.01.029-.009.029-.009.029-.009.029-.009.029-.008.029-.008.029-.008.029-.007.029-.007.029-.006.029-.006.029-.006.029-.006.029-.006.029-.005.029-.005.029-.005.029-.004.029-.004.029-.004.029-.003.029-.003.029-.003.029-.003.029-.002.029-.002.029-.002.029-.001.029-.001.029-.001h4.490999999999991v15.087l-.025.387-.029.181-.029.135-.029.112-.029.097-.029.087-.029.079-.029.073-.029.068-.029.064-.029.06-.029.057-.029.054-.029.052-.029.049-.029.047-.029.045-.029.044-.029.042-.029.041-.029.039-.029.038-.029.037-.029.036-.029.034-.029.034-.029.033-.029.031-.029.031-.029.03-.029.029-.029.028-.029.027-.029.027-.029.026-.029.026-.029.025-.029.024-.029.023-.029.023-.029.022-.029.022-.029.021-.029.021-.029.02-.029.02-.029.019-.029.019-.029.018-.029.018-.029.017-.029.017-.029.017-.029.016-.029.016-.029.015-.029.015-.029.014-.029.014-.029.014-.029.014-.029.013-.029.013-.029.012-.029.012-.029.012-.029.011-.029.011-.029.01-.029.01-.029.01-.029.009-.029.009-.029.009-.029.009-.029.008-.029.008-.029.008-.029.007-.029.007-.029.007-.029.006-.029.006-.029.006-.029.006-.029.005-.029.005-.029.005-.029.004-.029.004-.029.004-.029.003-.029.003-.029.003-.029.003-.029.003-.029.002-.029.002-.029.002-.029.001-.029.001-.029.001h-4.469999999999991v-6.359l.062.016.029.007.029.007.029.007.029.007.029.007.029.007.029.007.029.006.029.006.029.006.029.006.029.006.029.006.029.006.029.006.029.006.029.006.029.006.029.006.029.006.029.005.029.005.029.005.029.005.029.005.029.005.029.005.029.005.029.005.029.005.029.005.029.005.029.005.029.005.029.005.029.004.029.004.029.004.029.004.029.004.029.004.029.004.029.004.029.004.029.004.029.004.029.004.029.004.029.004.029.004.029.004.029.003.029.003.029.003.029.003.029.003.029.003.029.003.029.003.029.003.029.003.029.003.029.003.029.003.029.003.029.003.029.003.029.002.029.002.029.002.029.002.029.002.029.002.029.002.029.002.029.002.029.002.029.002.029.002.029.002.029.002.029.002.029.001.029.001.029.001.029.001.029.001.029.001.029.001.029.001.029.001.029.001.029.001.029.001.029.001.029.001h.3770000000000001l.029-.001.029-.001.029-.001.029-.001.029-.001.029-.001.029-.001.029-.001.029-.001.029-.001.029-.001.029-.001.029-.001.029-.002.029-.002.029-.002.029-.002.029-.002.029-.002.029-.002.029-.002.029-.002.029-.003.029-.003.029-.003.029-.003.029-.003.029-.003.029-.003.029-.003.029-.003.029-.003.029-.003.029-.004.029-.004.029-.004.029-.004.029-.004.029-.004.029-.004.029-.005.029-.005.029-.005.029-.005.029-.005.029-.005.029-.005.029-.006.029-.006.029-.006.029-.006.029-.007.029-.007.029-.007.029-.007.029-.007.029-.007.029-.008.029-.008.029-.008.029-.008.029-.008.029-.008.029-.009.029-.009.029-.009.029-.01.029-.01.029-.01.029-.011.029-.011.029-.011.029-.011.029-.011.029-.012.029-.012.029-.012.029-.013.029-.013.029-.014.029-.014.029-.014.029-.015.029-.015.029-.016.029-.016.029-.016.029-.017.029-.017.029-.018.029-.018.029-.019.029-.02.029-.021.029-.021.029-.022.029-.023.029-.023.029-.024.029-.025.029-.026.029-.027.029-.028.029-.029.029-.03.029-.032.029-.034.029-.035.029-.037.029-.039.029-.041.029-.044.029-.046.029-.05.029-.053.029-.058.029-.063.029-.07.029-.078.029-.091.029-.108.029-.137.029-.209.015-.3v-3.501h-2.588999999999996v3.501l-.007.162-.029.197-.029.116-.029.089-.029.074-.029.064-.029.056-.029.05-.029.046-.029.042-.029.039-.029.036-.029.034-.029.031-.029.029-.029.028-.029.026-.029.024-.029.023-.029.022-.029.021-.029.02-.029.019-.029.018-.029.017-.029.016-.029.015-.029.014-.029.013-.029.013-.029.012-.029.011-.029.011-.029.01-.029.009-.029.009-.029.008-.029.008-.029.007-.029.007-.029.006-.029.006-.029.005-.029.005-.029.004-.029.004-.029.004-.029.003-.029.003-.029.003-.029.002-.029.002-.029.001-.029.001-.029.001h-.11599999999999999l-.029-.001-.029-.001-.029-.001-.029-.001-.029-.001-.029-.001-.029-.002-.029-.002-.029-.002-.029-.002-.029-.002-.029-.003-.029-.003-.029-.003-.029-.003-.029-.003-.029-.004-.029-.004-.029-.004-.029-.004-.029-.004-.029-.004-.029-.005-.029-.005-.029-.005-.029-.005-.029-.005-.029-.005-.029-.006-.029-.006-.029-.006-.029-.006-.029-.006-.029-.006-.029-.007-.029-.007-.029-.007-.029-.007-.029-.007-.029-.007-.029-.008-.029-.008-.029-.008-.029-.008-.029-.008-.029-.008-.029-.008-.029-.009-.029-.009-.029-.009-.029-.009-.029-.009-.029-.009-.029-.009-.029-.01-.029-.01-.029-.01-.029-.01-.029-.01-.029-.01-.029-.01-.029-.011-.029-.011-.029-.011-.029-.011-.029-.011-.029-.011-.029-.012-.029-.012-.029-.012-.029-.012-.029-.012-.029-.012-.029-.012-.029-.012-.029-.013-.029-.013-.029-.013-.029-.013-.029-.013-.029-.013-.029-.013-.029-.013-.029-.014-.029-.014z" id="Shape" fill="url(#b)"/><path d="M18.906 11.324l-.062.052v-3.95c0-.21.022-.415.062-.613l.029-.126.029-.107.029-.094.029-.085.029-.077.029-.071.029-.067.029-.062.029-.059.029-.056.029-.053.029-.051.029-.049.029-.047.029-.045.029-.043.029-.042.029-.04.029-.039.029-.038.029-.036.029-.035.029-.034.029-.033.029-.033.029-.031.029-.031.029-.03.029-.029.029-.028.029-.027.029-.027.029-.026.029-.025.029-.025.029-.024.029-.023.029-.023.029-.022.029-.022.029-.021.029-.021.029-.02.029-.02.029-.019.029-.019.029-.018.029-.018.029-.017.029-.017.029-.016.029-.016.029-.015.029-.015.029-.015.029-.014.029-.014.029-.014.029-.014.029-.013.029-.013.029-.012.029-.012.029-.012.029-.011.029-.011.029-.01.029-.01.029-.01.029-.009.029-.009.029-.009.029-.009.029-.008.029-.008.029-.008.029-.007.029-.007.029-.006.029-.006.029-.006.029-.006.029-.006.029-.005.029-.005.029-.005.029-.004.029-.004.029-.004.029-.003.029-.003.029-.003.029-.003.029-.002.029-.002.029-.002.029-.001.029-.001.029-.001h4.490999999999991v15.087l-.025.387-.029.181-.029.136-.029.112-.029.097-.029.087-.029.079-.029.073-.029.068-.029.064-.029.06-.029.057-.029.054-.029.052-.029.049-.029.047-.029.045-.029.044-.029.042-.029.041-.029.039-.029.038-.029.037-.029.036-.029.034-.029.033-.029.033-.029.031-.029.031-.029.03-.029.029-.029.028-.029.027-.029.027-.029.026-.029.026-.029.025-.029.024-.029.023-.029.023-.029.022-.029.022-.029.021-.029.021-.029.02-.029.02-.029.019-.029.019-.029.018-.029.018-.029.017-.029.017-.029.017-.029.016-.029.016-.029.015-.029.015-.029.014-.029.014-.029.014-.029.014-.029.013-.029.013-.029.012-.029.012-.029.012-.029.011-.029.011-.029.01-.029.01-.029.01-.029.009-.029.009-.029.009-.029.009-.029.008-.029.008-.029.008-.029.007-.029.007-.029.007-.029.006-.029.006-.029.006-.029.006-.029.005-.029.005-.029.005-.029.004-.029.004-.029.004-.029.003-.029.003-.029.003-.029.003-.029.003-.029.002-.029.002-.029.002-.029.001-.029.001-.029.001h-4.469999999999991v-6.967l.062.052.029.023.029.023.029.022.029.021.029.021.029.02.029.02.029.019.029.019.029.019.029.018.029.018.029.017.029.017.029.017.029.016.029.016.029.015.029.015.029.015.029.014.029.014.029.014.029.013.029.013.029.013.029.013.029.012.029.012.029.012.029.012.029.011.029.011.029.011.029.011.029.011.029.01.029.01.029.01.029.01.029.009.029.009.029.009.029.009.029.009.029.008.029.008.029.008.029.008.029.008.029.008.029.007.029.007.029.007.029.007.029.007.029.007.029.006.029.006.029.006.029.006.029.006.029.006.029.006.029.006.029.005.029.005.029.005.029.005.029.005.029.005.029.005.029.004.029.004.029.004.029.004.029.004.029.004.029.004.029.004.029.004.029.004.029.003.029.003.029.003.029.003.029.003.029.003.029.003.029.003.029.003.029.002.029.002.029.002.029.002.029.002.029.002.029.002.029.002.029.002.029.002.029.002.029.001.029.001.029.001.029.001.029.001.029.001.029.001.029.001.029.001.029.001.029.001.029.001.029.001h.029l.029.001h.3770000000000001l.029-.001.029-.001.029-.001.029-.001.029-.001.029-.001.029-.001.029-.001.029-.001.029-.001.029-.001.029-.001.029-.001.014-.001.015-.001.029-.001.029-.002.029-.002.029-.002.029-.002.029-.002.029-.002.029-.002.029-.002.029-.002.029-.002.029-.002.029-.003.029-.003.029-.003.029-.003.029-.003.029-.003.029-.003.029-.003.029-.003.029-.003.029-.003.029-.003.029-.003.029-.004.029-.004.029-.004.029-.004.029-.004.029-.004.029-.004.029-.004.029-.004.029-.004.029-.004.029-.004.029-.004.029-.004.029-.005.029-.005.029-.005.029-.005.029-.005.029-.005.029-.005.029-.005.029-.005.029-.005.029-.005.029-.005.029-.005.029-.005.029-.005.029-.005.029-.005.029-.006.029-.006.029-.006.029-.006.029-.006.029-.006.029-.006.029-.006.029-.006.029-.006.029-.006.029-.006.029-.006.029-.006.029-.006.029-.006.029-.006.029-.006.029-.007.029-.007.029-.007.029-.007.029-.007.029-.007.029-.007v-1.276l-.029.014-.029.014-.029.014-.029.014-.029.014-.029.014-.029.014-.029.014-.029.013-.029.013-.029.013-.029.013-.029.013-.029.013-.029.013-.029.012-.029.012-.029.012-.029.012-.029.012-.029.012-.029.011-.029.011-.029.011-.029.011-.029.011-.029.011-.029.01-.029.01-.029.01-.029.01-.029.01-.029.01-.029.009-.029.009-.029.009-.029.009-.029.009-.029.009-.029.008-.029.008-.029.008-.029.008-.029.008-.029.008-.029.007-.029.007-.029.007-.029.007-.029.007-.029.007-.029.006-.029.006-.029.006-.029.006-.029.006-.029.006-.029.005-.029.005-.029.005-.029.005-.029.005-.029.005-.029.005-.029.004-.029.004-.029.004-.029.004-.029.004-.029.004-.029.003-.029.003-.029.003-.029.003-.029.003-.029.003-.029.003-.029.002-.018.001-.011.001-.029.002-.029.002-.029.002-.029.001-.029.001-.029.001-.029.001-.029.001h-.14500000000000002l-.029-.001-.029-.001-.029-.001-.029-.001-.029-.002-.029-.002-.029-.002-.029-.002-.029-.002-.029-.003-.029-.003-.029-.003-.029-.004-.029-.004-.029-.004-.029-.004-.029-.005-.029-.005-.029-.005-.029-.005-.029-.006-.029-.006-.029-.007-.029-.007-.029-.007-.029-.008-.029-.008-.029-.008-.029-.009-.029-.009-.029-.01-.029-.01-.029-.01-.029-.011-.029-.011-.029-.012-.029-.012-.029-.013-.029-.013-.029-.014-.029-.014-.029-.015-.029-.015-.029-.016-.029-.017-.029-.018-.029-.018-.029-.019-.029-.02-.029-.021-.029-.021-.029-.022-.029-.023-.029-.024-.029-.026-.029-.027-.029-.028-.029-.029-.029-.031-.029-.032-.029-.034-.029-.036-.029-.038-.029-.04-.029-.042-.029-.045-.029-.049-.029-.052-.029-.057-.029-.062-.029-.069-.029-.078-.029-.089-.029-.107-.029-.138-.029-.214-.012-.261.012-.261.029-.214.029-.138.029-.107.029-.089.029-.078.029-.069.029-.062.029-.057.029-.053.029-.049.029-.045.029-.042.029-.04.029-.038.029-.036.029-.034.029-.032.029-.031.029-.029.029-.028.029-.027.029-.026.029-.024.029-.023.029-.023.029-.021.029-.021.029-.02.029-.019.029-.018.029-.018.029-.017.029-.016.029-.015.029-.015.029-.014.029-.014.029-.013.029-.013.029-.012.029-.012.029-.011.029-.011.029-.011.029-.01.029-.01.029-.009.029-.009.029-.008.029-.008.029-.008.029-.007.029-.007.029-.007.029-.006.029-.006.029-.005.029-.005.029-.005.029-.005.029-.004.029-.004.029-.004.029-.004.029-.003.029-.003.029-.003.029-.002.029-.002.029-.002.029-.002.029-.002.029-.001.029-.001.029-.001.029-.001h.14500000000000002l.029.001.029.001.029.001.029.001.029.001.029.002.029.002.029.002.011.001.018.001.029.002.029.003.029.003.029.003.029.003.029.003.029.003.029.003.029.004.029.004.029.004.029.004.029.004.029.004.029.005.029.005.029.005.029.005.029.005.029.005.029.005.029.006.029.006.029.006.029.006.029.006.029.006.029.007.029.007.029.007.029.007.029.007.029.007.029.008.029.008.029.008.029.008.029.008.029.008.029.009.029.009.029.009.029.009.029.009.029.009.029.01.029.01.029.01.029.01.029.01.029.01.029.011.029.011.029.011.029.011.029.011.029.011.029.012.029.012.029.012.029.012.029.012.029.012.029.013.029.013.029.013.029.013.029.013.029.013.029.014.029.014.029.014.029.014.029.014.029.014.029.014.029.015.029.015v-1.277l-.029-.007-.029-.007-.029-.007-.029-.007-.029-.007-.029-.007-.029-.007-.029-.007-.029-.006-.029-.006-.029-.006-.029-.006-.029-.006-.029-.006-.029-.006-.029-.006-.029-.006-.029-.006-.029-.006-.029-.006-.029-.006-.029-.006-.029-.006-.029-.006-.029-.005-.029-.005-.029-.005-.029-.005-.029-.005-.029-.005-.029-.005-.029-.005-.029-.005-.029-.005-.029-.005-.029-.005-.029-.005-.029-.005-.029-.005-.029-.005-.029-.005-.029-.005-.029-.004-.029-.004-.029-.004-.029-.004-.029-.004-.029-.004-.029-.004-.029-.004-.029-.004-.029-.004-.029-.004-.029-.004-.029-.004-.029-.004-.029-.003-.029-.003-.029-.003-.029-.003-.029-.003-.029-.003-.029-.003-.029-.003-.029-.003-.029-.003-.029-.003-.029-.003-.029-.003-.029-.002-.029-.002-.029-.002-.029-.002-.029-.002-.029-.002-.029-.002-.029-.002-.029-.002-.029-.002-.029-.002-.029-.001-.015-.001-.014-.001-.029-.001-.029-.001-.029-.001-.029-.001-.029-.001-.029-.001-.029-.001-.029-.001-.029-.001-.029-.001-.029-.001-.029-.001-.029-.001h-.3770000000000001l-.029.001h-.029l-.029.001-.029.001-.029.001-.029.001-.029.001-.029.001-.029.001-.029.001-.029.001-.029.001-.029.001-.029.001-.029.001-.029.002-.029.002-.029.002-.029.002-.029.002-.029.002-.029.002-.029.002-.029.002-.029.002-.029.002-.029.003-.029.003-.029.003-.029.003-.029.003-.029.003-.029.003-.029.003-.029.003-.029.004-.029.004-.029.004-.029.004-.029.004-.029.004-.029.004-.029.004-.029.004-.029.004-.029.005-.029.005-.029.005-.029.005-.029.005-.029.005-.029.005-.029.006-.029.006-.029.006-.029.006-.029.006-.029.006-.029.006-.029.006-.029.007-.029.007-.029.007-.029.007-.029.007-.029.007-.029.008-.029.008-.029.008-.029.008-.029.008-.029.009-.029.009-.029.009-.029.009-.029.009-.029.009-.029.01-.029.01-.029.01-.029.01-.029.011-.029.011-.029.011-.029.011-.029.011-.029.012-.029.012-.029.012-.029.012-.029.013-.029.013-.029.013-.029.013-.029.014-.029.014-.029.014-.029.015-.029.015-.029.016-.029.016-.029.016-.029.017-.029.017-.029.017-.029.018-.029.018-.029.019-.029.019-.029.019-.029.02-.029.02-.029.021-.029.021-.029.022-.029.023-.029.023z" fill="url(#c)"/></g></g></svg>