<svg width="43" height="28" viewBox="0 0 43 28" xmlns="http://www.w3.org/2000/svg" xmlns:sketch="http://www.bohemiancoding.com/sketch/ns"><title>creditcard-visa</title><desc>Created with Sketch.</desc><g sketch:type="MSShapeGroup" fill="none"><path d="M42.62 24.954c0 .769-.624 1.392-1.392 1.392h-38.983c-.769 0-1.392-.623-1.392-1.392v-23.32c0-.769.623-1.393 1.392-1.393h38.983c.769 0 1.392.623 1.392 1.393v23.32" fill="#3957A7"/><path d="M20.073 17.215h-2.04l1.275-7.837h2.04l-1.275 7.837" fill="#fff"/><path d="M16.317 9.378l-1.945 5.39-.23-1.161-.686-3.524s-.083-.706-.968-.706h-3.216l-.037.133s.983.204 2.134.896l1.772 6.808h2.126l3.247-7.837h-2.196" fill="#fff"/><path d="M32.366 17.215h1.873l-1.633-7.837h-1.64c-.758 0-.942.584-.942.584l-3.043 7.253h2.127l.425-1.164h2.594l.239 1.164zm-2.245-2.772l1.072-2.933.603 2.933h-1.675z" fill="#fff"/><path d="M27.14 11.263l.291-1.683s-.898-.342-1.835-.342c-1.013 0-3.417.443-3.417 2.594 0 2.025 2.822 2.05 2.822 3.113 0 1.063-2.532.873-3.367.203l-.304 1.759s.911.443 2.303.443 3.493-.721 3.493-2.683c0-2.038-2.847-2.228-2.847-3.113 0-.886 1.988-.772 2.86-.291" fill="#fff"/><path d="M14.142 13.608l-.686-3.524s-.083-.706-.968-.706h-3.216l-.037.133s1.545.32 3.027 1.52c1.417 1.147 1.88 2.577 1.88 2.577" fill="#F9A533"/></g></svg>