<svg width="44" height="28" viewBox="0 0 44 28" xmlns="http://www.w3.org/2000/svg" xmlns:sketch="http://www.bohemiancoding.com/sketch/ns"><title>creditcard-paypal</title><desc>Created with Sketch.</desc><g sketch:type="MSShapeGroup" fill="none"><path d="M42.957 26.195c0 .789-.639 1.429-1.427 1.429h-39.952c-.788 0-1.427-.64-1.427-1.429v-23.935c0-.79.639-1.429 1.427-1.429h39.952c.788 0 1.427.639 1.427 1.429v23.935" fill="#fff"/><path d="M29.798 12.78c-.271-.151-.694-.228-1.274-.228-.286 0-.574.023-.863.068l-.366.066c-.271.059-.313.331-.313.331l-.087.359c-.049.229.081.219.139.202.119-.036.183-.072.424-.126.231-.052.474-.092.669-.09.285 0 .502.031.647.092.144.063.215.17.215.324l-.012.101-.103.065c-.407.024-.699.061-1.051.113-.347.049-.651.133-.905.249-.271.12-.473.281-.613.485-.135.205-.204.453-.204.745 0 .276.099.502.291.676.194.173.446.258.752.258.19-.001.34-.015.447-.042l.344-.118.293-.163.269-.179.003.005-.026.116-.002.002.001.002c-.03.138.053.253.19.268l.002.002h.012l.001.001.548-.001h.101l.01-.004c.139-.017.273-.131.305-.268l.52-2.249.027-.185.013-.172c.001-.318-.136-.553-.405-.705zm-1.261 2.68l-.279.145c-.132.053-.256.081-.372.081-.177 0-.314-.025-.405-.079-.092-.051-.141-.139-.139-.266 0-.146.034-.26.103-.349.07-.085.175-.154.304-.206.129-.044.287-.08.47-.105l.525-.058c.041 0 .069-.023.051.086l-.144.603c-.012.052-.081.128-.113.148z" fill="#369"/><path d="M20.845 12.602c-.152 0-.353.124-.447.273l-1.121 1.928c-.055.094-.11.035-.12 0l-.315-1.916c-.035-.151-.193-.28-.389-.28l-.636.001c-.154 0-.25.123-.216.272 0 0 .487 2.763.582 3.413.047.359-.005.423-.005.423l-.631 1.102c-.092.149-.042.272.111.272h.738c.153 0 .355-.122.447-.272l2.838-4.808s.271-.41.021-.407h-.856" fill="#036"/><path d="M11.884 13.58c-.215.157-.513.236-.899.236h-.175c-.154 0-.251-.122-.217-.273l.214-.926c.032-.149.186-.273.34-.271l.233-.002c.272 0 .479.046.619.14.138.09.207.233.204.425.004.289-.105.512-.321.671m1.539-1.427c-.089-.173-.221-.313-.391-.419-.175-.109-.381-.184-.619-.229-.24-.043-.52-.064-.841-.067l-1.487.001c-.155.002-.306.123-.342.272l-1.003 4.368c-.035.149.061.272.216.272h.713c.153 0 .307-.12.341-.272l.246-1.06c.033-.148.185-.271.34-.271h.203c.872-.001 1.548-.179 2.033-.537.485-.356.728-.829.727-1.414.001-.257-.043-.471-.136-.643" fill="#036"/><path d="M24.822 13.597c-.213.156-.513.234-.899.234h-.177c-.154.001-.252-.123-.216-.271l.214-.927c.032-.147.187-.272.339-.27l.234-.002c.274.002.478.048.619.138.139.092.206.235.207.426.001.29-.106.514-.321.673m1.538-1.429c-.089-.173-.223-.312-.392-.42-.174-.109-.381-.184-.619-.228-.236-.042-.518-.066-.838-.066h-1.491c-.154.003-.304.124-.34.272l-1.002 4.368c-.037.148.062.272.214.271l.715-.001c.151.001.306-.122.342-.27l.242-1.06c.034-.149.188-.273.342-.271h.203c.873 0 1.55-.179 2.034-.537.483-.36.726-.83.726-1.416-.001-.256-.045-.471-.136-.643" fill="#369"/><path d="M16.857 12.776c-.271-.151-.693-.227-1.273-.227-.286 0-.574.023-.863.068l-.365.067c-.271.059-.312.331-.312.331l-.087.358c-.049.23.082.22.14.202.118-.036.182-.071.424-.126.23-.053.474-.092.669-.09.285 0 .502.031.646.091.144.063.215.171.215.324l-.012.101-.103.065c-.407.025-.698.062-1.051.113-.347.049-.651.133-.905.249-.271.121-.473.281-.613.485-.136.205-.204.453-.204.745 0 .276.099.501.291.676.194.173.447.258.751.258.191-.001.34-.015.447-.042l.343-.118.293-.163.269-.179.003.005-.026.115-.001.003.001.002c-.03.139.053.254.19.267l.002.003h.012v.001l.548-.001h.102l.01-.004c.14-.018.273-.131.305-.267l.52-2.25.027-.184.012-.171c.001-.319-.135-.554-.405-.706zm-1.261 2.681l-.28.144c-.131.053-.257.081-.372.081-.176 0-.313-.025-.405-.079-.092-.051-.14-.139-.139-.266 0-.146.034-.259.104-.349.07-.086.174-.154.303-.206.129-.044.288-.079.47-.105l.525-.058c.041 0 .068-.023.05.086l-.144.603c-.013.053-.081.128-.113.148z" fill="#036"/><path d="M32.471 11.761l-.956 4.329c-.036.149-.189.272-.342.272h-.638c-.153 0-.248-.123-.215-.272l.953-4.328c.034-.151.189-.273.342-.273" fill="#FCBA63"/><path d="M30.319 16.09c.041-.149.955-4.329.955-4.329.037-.149.19-.272.343-.272h.638c.153 0 .248.123.215.272l-.954 4.328c-.033.15-.189.273-.342.273h-.661" fill="#187FAD"/><path fill="#369" d="M33.222 12.371l-.071.014-.069.006c-.071 0-.125-.019-.161-.057-.037-.038-.055-.099-.055-.184v-.369h-.079v-.098h.079v-.199h.116v.199h.241v.098h-.241v.316l.002.085.017.058.038.037.073.011.059-.009.045-.014h.006v.105"/><path d="M34.376 12.378h-.117v-.396l-.004-.086-.017-.067-.041-.04-.076-.014-.098.025-.098.062.002.033.002.037v.445h-.116v-.396l-.004-.087-.017-.066-.041-.041-.077-.013-.096.024-.096.06v.519h-.116v-.695h.116v.077l.11-.07.116-.026.12.03.074.083.129-.086.125-.027c.076 0 .133.024.169.069.036.046.055.111.055.194v.451" fill="#369"/></g></svg>