<svg width="43" height="28" viewBox="0 0 43 28" xmlns="http://www.w3.org/2000/svg" xmlns:sketch="http://www.bohemiancoding.com/sketch/ns"><title>creditcard-discover</title><desc>Created with Sketch.</desc><g sketch:type="MSShapeGroup" fill="none"><path d="M41.921 25.152c0 .769-.624 1.393-1.393 1.393h-38.982c-.769 0-1.392-.624-1.392-1.393v-23.32c0-.77.623-1.393 1.392-1.393h38.982c.769 0 1.393.623 1.393 1.393v23.32" stroke="#F58220" fill="#fff"/><path d="M11.635 26.545h28.893c.769 0 1.393-.624 1.393-1.393v-9.774c-2.773 1.758-13.229 7.819-30.286 11.167" fill="#F6821F"/><path d="M21.548 11.459c-1.151 0-2.084.899-2.084 2.008 0 1.18.892 2.061 2.084 2.061 1.161 0 2.078-.893 2.078-2.038 0-1.138-.911-2.031-2.078-2.031" fill="#F6821F"/><path d="M9.714 11.532h-1.12v3.909h1.115c.591 0 1.019-.141 1.394-.451.445-.37.709-.927.709-1.502 0-1.154-.862-1.956-2.098-1.956zm.892 2.936c-.241.217-.551.311-1.045.311h-.205v-2.585h.205c.494 0 .792.088 1.045.316.263.235.42.598.42.972 0 .376-.157.752-.42.985z" fill="#001722"/><path d="M12.164 11.532h.761v3.909h-.761v-3.909z" fill="#001722"/><path d="M14.789 13.031c-.458-.169-.592-.281-.592-.492 0-.246.24-.433.568-.433.228 0 .416.094.616.316l.398-.52c-.328-.288-.721-.434-1.149-.434-.691 0-1.219.481-1.219 1.119 0 .54.246.815.961 1.073.299.105.452.175.527.223.153.1.229.24.229.404 0 .317-.252.551-.592.551-.364 0-.656-.181-.832-.521l-.492.476c.351.515.773.744 1.354.744.791 0 1.347-.528 1.347-1.284 0-.621-.257-.903-1.125-1.22" fill="#001722"/><path d="M16.155 13.488c0 1.15.903 2.04 2.064 2.04.329 0 .609-.064.956-.228v-.897c-.305.305-.575.427-.92.427-.768 0-1.313-.557-1.313-1.348 0-.749.562-1.342 1.278-1.342.363 0 .639.13.956.44v-.897c-.334-.17-.61-.239-.938-.239-1.155 0-2.081.909-2.081 2.044" fill="#001722"/><path d="M25.35 14.158l-1.043-2.626h-.833l1.66 4.009h.41l1.689-4.009h-.826l-1.056 2.626" fill="#001722"/><path d="M27.579 15.441h2.162v-.662h-1.401v-1.056h1.348v-.661h-1.348v-.868h1.401v-.662h-2.162v3.909" fill="#001722"/><path d="M32.759 12.686c0-.733-.503-1.154-1.383-1.154h-1.132v3.909h.763v-1.571h.099l1.055 1.571h.937l-1.231-1.647c.575-.117.891-.51.891-1.108zm-1.529.645h-.222v-1.184h.234c.475 0 .733.2.733.58 0 .393-.258.604-.745.604z" fill="#001722"/><path d="M33.184 11.588c-.167 0-.301.134-.301.301 0 .166.134.301.301.301.163 0 .297-.136.297-.301 0-.165-.134-.301-.297-.301zm-.001.547c-.134 0-.241-.109-.241-.246 0-.138.106-.247.241-.247.13 0 .237.111.237.247 0 .135-.107.246-.237.246z" fill="#231F1F"/></g></svg>