<svg width="43" height="28" viewBox="0 0 43 28" xmlns="http://www.w3.org/2000/svg" xmlns:sketch="http://www.bohemiancoding.com/sketch/ns"><title>creditcard-meastro</title><desc>Created with Sketch.</desc><g sketch:type="MSShapeGroup" fill="none"><path d="M41.853 24.954c0 .769-.623 1.392-1.392 1.392h-38.983c-.769 0-1.392-.623-1.392-1.392v-23.32c0-.769.623-1.393 1.392-1.393h38.983c.769 0 1.392.623 1.392 1.393v23.32" fill="#13457C"/><path d="M25.941 20.79l.387-.01.382-.029.375-.047.369-.067.364-.083.357-.102.348-.118.342-.136.333-.15.322-.165.315-.18.304-.197.295-.209.284-.221.273-.236.261-.249.246-.261.237-.273.224-.283.209-.293.194-.305.179-.315.168-.323.151-.332.133-.343.118-.347.101-.357.083-.362.067-.372.047-.375.029-.382.01-.387-.01-.384-.029-.38-.047-.372-.067-.369-.083-.36-.101-.355-.118-.348-.133-.34-.151-.33-.168-.323-.179-.313-.194-.305-.209-.293-.224-.284-.237-.271-.246-.261-.261-.247-.273-.236-.284-.222-.295-.209-.304-.194-.315-.18-.322-.168-.333-.15-.342-.134-.348-.118-.357-.101-.364-.084-.369-.067-.375-.047-.382-.03-.387-.01-.387.01-.382.03-.374.047-.37.067-.364.084-.355.101-.35.118-.339.134-.333.15-.322.168-.313.18-.306.194-.293.209-.284.222-.27.236-.26.247-.248.261-.236.271-.222.284-.209.293-.195.305-.18.313-.165.323-.148.33-.135.34-.119.348-.099.355-.084.36-.066.369-.047.372-.029.38-.01.384.01.387.029.382.047.375.066.372.084.362.099.357.119.347.135.343.148.332.165.323.18.315.195.305.209.293.222.283.236.273.248.261.26.249.27.236.284.221.293.209.306.197.313.18.322.165.333.15.339.136.35.118.355.102.364.083.37.067.374.047.382.029.387.01" fill="#EC1C2E"/><path d="M15.998 20.79l.387-.01.382-.029.375-.047.369-.067.365-.083.354-.102.351-.118.339-.136.332-.15.323-.165.313-.18.306-.197.293-.209.283-.221.271-.236.261-.249.246-.261.237-.273.222-.283.209-.293.195-.305.179-.315.165-.323.15-.332.133-.343.118-.347.099-.357.085-.362.066-.372.046-.375.03-.382.01-.387-.01-.384-.03-.38-.046-.372-.066-.369-.085-.36-.099-.355-.118-.348-.133-.34-.15-.33-.165-.323-.179-.313-.195-.305-.209-.293-.222-.284-.237-.271-.246-.261-.261-.247-.271-.236-.283-.222-.293-.209-.306-.194-.313-.18-.323-.168-.332-.15-.339-.134-.351-.118-.354-.101-.365-.084-.369-.067-.375-.047-.382-.03-.387-.01-.386.01-.382.03-.375.047-.369.067-.365.084-.357.101-.347.118-.343.134-.332.15-.323.168-.315.18-.303.194-.296.209-.283.222-.274.236-.259.247-.249.261-.236.271-.224.284-.209.293-.194.305-.18.313-.168.323-.15.33-.133.34-.118.348-.101.355-.084.36-.066.369-.047.372-.03.38-.01.384.01.387.03.382.047.375.066.372.084.362.101.357.118.347.133.343.15.332.168.323.18.315.194.305.209.293.224.283.236.273.249.261.259.249.274.236.283.221.296.209.303.197.315.18.323.165.332.15.343.136.347.118.357.102.365.083.369.067.375.047.382.029.386.01" fill="#0084C4"/><path fill="#EC1C2E" d="M20.046 8.653h3.801v-.419h-3.434l-.367.419"/><path fill="#EC1C2E" d="M19.45 9.54h4.397v-.417h-4.131l-.266.417"/><path fill="#EC1C2E" d="M19.003 10.441h4.843v-.419h-4.638l-.205.419"/><path fill="#EC1C2E" d="M18.713 11.328h5.133v-.417h-5.005l-.128.417"/><path fill="#EC1C2E" d="M18.524 12.217h5.323v-.419h-5.247l-.076.419"/><path fill="#EC1C2E" d="M18.484 13.939h5.363v-.419h-5.399l.037.419"/><path fill="#EC1C2E" d="M18.613 14.878h5.234v-.419h-5.311l.077.419"/><path fill="#EC1C2E" d="M18.866 15.639h4.981v-.419h-5.109l.129.419"/><path fill="#EC1C2E" d="M19.245 16.565h4.602v-.419h-4.804l.202.419"/><path fill="#EC1C2E" d="M19.779 17.504h4.068v-.419h-4.348l.28.419"/><path fill="#EC1C2E" d="M20.45 18.405h3.361v-.419h-3.728l.367.419"/><path fill="#EC1C2E" d="M32.216 17.883l.022-.067.037-.062.047-.054.054-.045.061-.034.067-.022.072-.007.074.007.07.022.061.034.054.045.044.054.035.062.022.067h-.076l-.016-.047-.027-.052-.035-.044-.042-.035-.049-.027-.057-.017-.059-.005-.059.005-.056.017-.05.027-.045.035-.034.044-.027.052-.015.047h-.074"/><path fill="#EC1C2E" d="M32.447 17.883v-.089h.14l.033.002.027.003.025.008.019.01.016.012.012.015.007.017.002.022h-.064l-.003-.012-.005-.01-.008-.01-.01-.007-.013-.005-.012-.002-.012-.002h-.091v.049h-.065"/><path fill="#EC1C2E" d="M32.211 17.948l.005-.062v-.002h.074l-.003.012-.005.052h-.072"/><path fill="#EC1C2E" d="M32.447 17.948v-.064h.065v.052h.105l.014-.002.012-.005.008-.005.008-.01.005-.012v-.017h.064l-.002.022-.004.02-.008.015-.007.008h-.259"/><path fill="#EC1C2E" d="M32.866 17.948l-.005-.052-.002-.012h.076v.002l.007.062h-.076"/><path fill="#EC1C2E" d="M32.211 17.948l-.002.012.007.074.022.069.037.059.047.054.054.042.061.032.067.019.072.008.074-.008.07-.019.061-.032.054-.042.044-.054.035-.059.022-.069.007-.074v-.012h-.076v.012l-.005.064-.018.059-.027.052-.035.044-.042.037-.049.027-.057.017-.059.005-.059-.005-.056-.017-.05-.027-.045-.037-.034-.044-.027-.052-.018-.059-.005-.064v-.012h-.072"/><path fill="#EC1C2E" d="M32.447 17.948v.152h.065v-.125h.064l.076.125h.064l-.091-.125.022-.003.022-.003.017-.007.015-.01.005-.005h-.259"/><path d="M24.318 12.648l-.049-.002-.05-.005-.044-.008-.044-.004-.044-.008-.044-.007-.047-.007-.05-.007-.052-.005-.054-.005-.062-.005-.066-.003h-.074l-.082.003-.091.005-.098.007-.071.01-.067.015-.062.02-.055.022-.049.027-.044.03-.037.034-.029.034-.023.04-.015.042-.007.042v.044l.01.047.017.047.027.047.035.047.071.064.084.052.099.044.106.037.111.037.116.037.119.042.113.05.106.059.101.072.088.091.074.108.057.133.038.158.012.187-.012.222-.027.165-.045.148-.057.133-.071.118-.084.104-.091.089-.102.076-.109.067-.113.054-.118.044-.12.037-.121.027-.12.02-.118.012-.113.008-.111.003h-.153l-.139-.003-.126-.003-.116-.002-.105-.005-.095-.005-.089-.007-.078-.01-.074-.01-.068-.013-.065-.012-.064-.017-.058-.017-.06-.017-.059-.022-.062-.022.153-.773.035.007.042.012.051.012.057.015.067.013.074.017.079.014.083.015.089.012.094.013.096.01.101.01.101.005.104.002h.104l.106-.005.099-.017.081-.027.062-.039.049-.044.037-.052.027-.054.022-.054.015-.054.008-.057-.003-.05-.012-.047-.019-.039-.027-.04-.035-.034-.042-.032-.047-.03-.052-.027-.057-.027-.062-.027-.064-.025-.133-.052-.068-.027-.072-.03-.069-.03-.07-.032-.069-.037-.066-.039-.065-.042-.058-.047-.057-.054-.052-.057-.047-.064-.042-.069-.035-.077-.029-.081-.02-.091-.012-.099-.003-.109.008-.116.007-.071.01-.069.01-.066.015-.064.014-.062.018-.061.022-.057.023-.057.026-.052.027-.052.033-.047.034-.047.037-.044.04-.042.042-.039.046-.037.05-.034.052-.032.057-.03.059-.03.062-.025.066-.025.069-.02.073-.02.079-.017.082-.015.084-.012.088-.01.094-.007.098-.005.102-.005h.236l.118.002.106.003.099.005.086.005.079.005.072.007.062.005.057.007.049.007.047.005.039.008.035.005.031.005.03.005.027.003-.177.798" fill="#fff"/><path d="M24.318 12.648l-.049-.002-.05-.005-.044-.008-.044-.004-.044-.008-.044-.007-.047-.007-.05-.007-.052-.005-.054-.005-.062-.005-.066-.003h-.074l-.082.003-.091.005-.098.007-.071.01-.067.015-.062.02-.055.022-.049.027-.044.03-.037.034-.029.034-.023.04-.015.042-.007.042v.044l.01.047.017.047.027.047.035.047.071.064.084.052.099.044.106.037.111.037.116.037.119.042.113.05.106.059.101.072.088.091.074.108.057.133.038.158.012.187-.012.222-.027.165-.045.148-.057.133-.071.118-.084.104-.091.089-.102.076-.109.067-.113.054-.118.044-.12.037-.121.027-.12.02-.118.012-.113.008-.111.003h-.153l-.139-.003-.126-.003-.116-.002-.105-.005-.095-.005-.089-.007-.078-.01-.074-.01-.068-.013-.065-.012-.064-.017-.058-.017-.06-.017-.059-.022-.062-.022.153-.773.035.007.042.012.051.012.057.015.067.013.074.017.079.014.083.015.089.012.094.013.096.01.101.01.101.005.104.002h.104l.106-.005.099-.017.081-.027.062-.039.049-.044.037-.052.027-.054.022-.054.015-.054.008-.057-.003-.05-.012-.047-.019-.039-.027-.04-.035-.034-.042-.032-.047-.03-.052-.027-.057-.027-.062-.027-.064-.025-.133-.052-.068-.027-.072-.03-.069-.03-.07-.032-.069-.037-.066-.039-.065-.042-.058-.047-.057-.054-.052-.057-.047-.064-.042-.069-.035-.077-.029-.081-.02-.091-.012-.099-.003-.109.008-.116.007-.071.01-.069.01-.066.015-.064.014-.062.018-.061.022-.057.023-.057.026-.052.027-.052.033-.047.034-.047.037-.044.04-.042.042-.039.046-.037.05-.034.052-.032.057-.03.059-.03.062-.025.066-.025.069-.02.073-.02.079-.017.082-.015.084-.012.088-.01.094-.007.098-.005.102-.005h.236l.118.002.106.003.099.005.086.005.079.005.072.007.062.005.057.007.049.007.047.005.039.008.035.005.031.005.03.005.027.003-.177.798" stroke="#fff" stroke-width=".215"/><path d="M25.128 11h.991l-.153.862h.609l-.138.786-.624-.013-.327 1.964-.005.042v.037l.005.032.01.03.014.025.017.025.023.02.025.014.029.015.03.012.034.01.035.005.04.007.039.002.042.003h.121l.069-.005.064-.01.055-.013.042-.012.032-.013.02-.01.007-.002-.101.672-.026.015-.027.012-.027.012-.027.012-.027.01-.031.01-.029.01-.035.01-.034.01-.037.008-.042.007-.044.007-.047.007-.049.007-.057.008-.06.008h-.266l-.141-.01-.126-.014-.111-.02-.096-.027-.081-.029-.069-.037-.057-.042-.046-.047-.037-.052-.027-.057-.017-.061-.01-.069-.003-.071.003-.079.007-.082.012-.089.658-3.853" fill="#fff"/><path d="M25.128 11h.991l-.153.862h.609l-.138.786-.624-.013-.327 1.964-.005.042v.037l.005.032.01.03.014.025.017.025.023.02.025.014.029.015.03.012.034.01.035.005.04.007.039.002.042.003h.121l.069-.005.064-.01.055-.013.042-.012.032-.013.02-.01.007-.002-.101.672-.026.015-.027.012-.027.012-.027.012-.027.01-.031.01-.029.01-.035.01-.034.01-.037.008-.042.007-.044.007-.047.007-.049.007-.057.008-.06.008h-.266l-.141-.01-.126-.014-.111-.02-.096-.027-.081-.029-.069-.037-.057-.042-.046-.047-.037-.052-.027-.057-.017-.061-.01-.069-.003-.071.003-.079.007-.082.012-.089.658-3.853" stroke="#fff" stroke-width=".215"/><path d="M19.095 14.053l-.003.062.005.066.015.064.019.067.03.066.034.064.042.062.046.059.055.057.056.049.063.047.066.039.07.032.074.024.073.017.089.012.089.012.091.01.091.005.094.002h.091l.096-.004.094-.008.096-.014.099-.018.098-.025.099-.032.098-.037.104-.044.101-.054.104-.059-.153.874-.057.03-.057.027-.052.023-.054.019-.055.02-.054.015-.057.013-.061.012-.064.008-.069.007-.077.007-.081.003-.089.005h-.099l-.109.003h-.204l-.089-.005-.086-.005-.089-.01-.091-.012-.089-.015-.089-.019-.088-.02-.087-.027-.086-.027-.084-.032-.083-.037-.081-.042-.079-.044-.075-.049-.074-.054-.069-.059-.066-.064-.064-.069-.057-.074-.054-.081-.05-.084-.044-.091-.04-.097-.034-.103-.027-.109-.023-.113-.014-.123-.01-.129v-.133l.005-.143.012-.149.007-.051.008-.059.01-.059.012-.064.012-.067.017-.069.02-.071.019-.074.025-.077.028-.074.032-.076.035-.076.039-.077.042-.076.047-.076.05-.074.056-.071.059-.072.064-.069.072-.064.074-.064.082-.059.086-.055.094-.052.099-.044.106-.042.111-.037.118-.03.126-.024.134-.017.138-.01.148-.005h.069l.069.005.072.005.072.007.072.01.073.015.072.017.072.02.072.022.071.027.069.029.067.035.064.039.065.042.059.05.059.052.053.057.052.062.047.069.042.072.039.079.035.084.029.092.022.096.02.104.012.108.005.116v.123l-.008.131-.012.138-.022.146-.03.153-.04.217h-2.559l.153-.685h1.535l.007-.094v-.086l-.005-.081-.015-.074-.019-.066-.025-.062-.032-.054-.037-.049-.042-.044-.047-.037-.049-.03-.052-.025-.057-.02-.059-.015-.062-.007-.064-.003h-.07l-.064.01-.064.012-.06.02-.057.027-.054.032-.051.037-.048.042-.044.049-.04.052-.037.057-.035.062-.029.064-.025.069-.019.074-.018.076-.069.368-.069.368-.012.062z" fill="#fff"/><path d="M19.108 13.991l-.012.062-.003.062.005.066.015.064.019.067.03.066.034.064.042.062.046.059.055.057.056.049.063.047.066.039.07.032.074.024.073.017.089.012.089.012.091.01.091.005.094.002h.091l.096-.004.094-.008.096-.014.099-.018.098-.025.099-.032.098-.037.104-.044.101-.054.104-.059-.153.874-.057.03-.057.027-.052.023-.054.019-.055.02-.054.015-.057.013-.061.012-.064.008-.069.007-.077.007-.081.003-.089.005h-.099l-.109.003h-.204l-.089-.005-.086-.005-.089-.01-.091-.012-.089-.015-.089-.019-.088-.02-.087-.027-.086-.027-.084-.032-.083-.037-.081-.042-.079-.044-.075-.049-.074-.054-.069-.059-.066-.064-.064-.069-.057-.074-.054-.081-.05-.084-.044-.091-.04-.097-.034-.103-.027-.109-.023-.113-.014-.123-.01-.129v-.133l.005-.143.012-.149.007-.051.008-.059.01-.059.012-.064.012-.067.017-.069.02-.071.019-.074.025-.077.028-.074.032-.076.035-.076.039-.077.042-.076.047-.076.05-.074.056-.071.059-.072.064-.069.072-.064.074-.064.082-.059.086-.055.094-.052.099-.044.106-.042.111-.037.118-.03.126-.024.134-.017.138-.01.148-.005h.069l.069.005.072.005.072.007.072.01.073.015.072.017.072.02.072.022.071.027.069.029.067.035.064.039.065.042.059.05.059.052.053.057.052.062.047.069.042.072.039.079.035.084.029.092.022.096.02.104.012.108.005.116v.123l-.008.131-.012.138-.022.146-.03.153-.04.217h-2.559l.153-.685h1.535l.007-.094v-.086l-.005-.081-.015-.074-.019-.066-.025-.062-.032-.054-.037-.049-.042-.044-.047-.037-.049-.03-.052-.025-.057-.02-.059-.015-.062-.007-.064-.003h-.07l-.064.01-.064.012-.06.02-.057.027-.054.032-.051.037-.048.042-.044.049-.04.052-.037.057-.035.062-.029.064-.025.069-.019.074-.018.076-.137.736" stroke="#fff" stroke-width=".215"/><path d="M17.738 14.853l-.141.786h-.89l.019-.149.02-.128.01-.052.008-.044.009-.03.01-.017-.047.054-.06.054-.066.053-.077.049-.081.047-.089.044-.094.039-.096.037-.101.032-.103.028-.104.019-.104.015-.103.008-.101.002-.098-.007-.097-.015-.125-.029-.111-.04-.102-.047-.089-.052-.079-.057-.066-.064-.06-.067-.049-.074-.042-.074-.035-.077-.027-.079-.022-.081-.014-.079-.01-.081-.005-.079-.003-.077.01-.138.022-.131.032-.126.047-.118.057-.111.064-.104.077-.096.081-.091.092-.081.096-.071.104-.066.108-.057.114-.049.116-.04.118-.029.121-.022h.005l.018-.002.027-.003.036-.005.042-.005.049-.005.055-.008.059-.004.059-.005.059-.007.062-.005.06-.005.053-.005.052-.002.047-.002h.165l.044.002h.042l.04.002h.079l.034.003h.033l.027.002h.025l.02.003h.027l.008-.025.016-.059.013-.07v-.061l-.005-.045-.008-.042-.012-.04-.017-.037-.02-.035-.024-.032-.025-.03-.029-.03-.032-.024-.032-.02-.037-.02-.036-.017-.039-.012-.043-.01-.042-.007-.042-.005-.101-.003-.106.003-.111.002-.113.007-.114.008-.113.01-.114.013-.111.012-.106.017-.101.015-.092.017-.086.02-.076.019-.065.02-.051.02-.037.022.253-.837.074-.034.079-.032.079-.027.084-.022.087-.017.088-.015.094-.012.096-.01.098-.005.101-.005.104-.002h.335l.119.002.123.003.101.01.106.015.111.027.111.032.111.042.111.052.104.059.098.069.092.079.081.086.07.096.054.106.039.116.023.126.002.133-.02.146-.367 1.85" fill="#fff"/><path d="M17.738 14.853l-.141.786h-.89l.019-.149.02-.128.01-.052.008-.044.009-.03.01-.017-.047.054-.06.054-.066.053-.077.049-.081.047-.089.044-.094.039-.096.037-.101.032-.103.028-.104.019-.104.015-.103.008-.101.002-.098-.007-.097-.015-.125-.029-.111-.04-.102-.047-.089-.052-.079-.057-.066-.064-.06-.067-.049-.074-.042-.074-.035-.077-.027-.079-.022-.081-.014-.079-.01-.081-.005-.079-.003-.077.01-.138.022-.131.032-.126.047-.118.057-.111.064-.104.077-.096.081-.091.092-.081.096-.071.104-.066.108-.057.114-.049.116-.04.118-.029.121-.022h.005l.018-.002.027-.003.036-.005.042-.005.049-.005.055-.008.059-.004.059-.005.059-.007.062-.005.06-.005.053-.005.052-.002.047-.002h.165l.044.002h.042l.04.002h.079l.034.003h.033l.027.002h.025l.02.003h.027l.008-.025.016-.059.013-.07v-.061l-.005-.045-.008-.042-.012-.04-.017-.037-.02-.035-.024-.032-.025-.03-.029-.03-.032-.024-.032-.02-.037-.02-.036-.017-.039-.012-.043-.01-.042-.007-.042-.005-.101-.003-.106.003-.111.002-.113.007-.114.008-.113.01-.114.013-.111.012-.106.017-.101.015-.092.017-.086.02-.076.019-.065.02-.051.02-.037.022.253-.837.074-.034.079-.032.079-.027.084-.022.087-.017.088-.015.094-.012.096-.01.098-.005.101-.005.104-.002h.335l.119.002.123.003.101.01.106.015.111.027.111.032.111.042.111.052.104.059.098.069.092.079.081.086.07.096.054.106.039.116.023.126.002.133-.02.146-.367 1.85" stroke="#fff" stroke-width=".215"/><path d="M16.888 13.927l-.003-.02-.015-.015-.025-.012-.031-.007-.042-.005-.045-.003h-.105l-.057.005-.059.007-.057.007-.056.01-.055.009-.051.01-.045.012-.039.012-.023.005-.029.01-.036.013-.04.017-.042.018-.047.022-.047.027-.047.027-.046.034-.045.037-.042.039-.037.045-.035.046-.025.052-.019.056-.013.059-.004.121.017.094.029.074.045.055.054.037.057.025.062.013.058.003.11-.003.096-.01.091-.017.081-.022.074-.025.066-.03.059-.034.051-.037.047-.037.04-.042.034-.04.029-.042.026-.042.019-.04.014-.039.013-.037.012-.054.012-.057.013-.059.012-.062.01-.059.01-.054.011-.052.01-.047" fill="#0084C4"/><path d="M10.303 15.639h-.963l.81-4.639h1.676l.165 2.762 1.14-2.762h1.74l-.813 4.639h-.963l.609-3.474h-.038l-1.434 3.474h-1.079l-.01-.146-.022-.387-.07-1.175-.036-.634-.033-.559-.022-.404-.01-.17h-.05.011l-.609 3.474" fill="#fff"/><path d="M10.303 15.639h-.963l.81-4.639h1.676l.165 2.762 1.14-2.762h1.74l-.813 4.639h-.963l.609-3.474h-.038l-1.434 3.474h-1.079l-.01-.146-.022-.387-.07-1.175-.036-.634-.033-.559-.022-.404-.01-.17h-.05.011l-.609 3.474" stroke="#fff" stroke-width=".215"/><path d="M26.397 15.639h1.002l.343-2.003.015-.079.017-.077.02-.076.024-.071.027-.071.035-.067.042-.064.047-.061.057-.055.065-.049.076-.044.085-.04.099-.032.11-.025.124-.015.138-.01h.012l.015.003.02.002h.019l.017.002.015.003.01.002h.005l.003-.014.01-.042.012-.064.02-.081.025-.091.027-.099.032-.099.037-.093.027-.069.064-.133.035-.062.03-.052.024-.042.018-.027.004-.01h-.004l-.012-.005-.018-.002-.025-.005-.025-.005-.029-.003-.027-.005h-.025l-.109.007-.099.012-.09.02-.085.022-.079.029-.071.032-.069.039-.061.042-.062.047-.056.051-.052.054-.055.059-.052.062-.049.067-.052.069-.051.071.116-.633-1.003-.012-.66 3.789" fill="#fff"/><path d="M26.397 15.639h1.002l.343-2.003.015-.079.017-.077.02-.076.024-.071.027-.071.035-.067.042-.064.047-.061.057-.055.065-.049.076-.044.085-.04.099-.032.11-.025.124-.015.138-.01h.012l.015.003.02.002h.019l.017.002.015.003.01.002h.005l.003-.014.01-.042.012-.064.02-.081.025-.091.027-.099.032-.099.037-.093.027-.069.064-.133.035-.062.03-.052.024-.042.018-.027.004-.01h-.004l-.012-.005-.018-.002-.025-.005-.025-.005-.029-.003-.027-.005h-.025l-.109.007-.099.012-.09.02-.085.022-.079.029-.071.032-.069.039-.061.042-.062.047-.056.051-.052.054-.055.059-.052.062-.049.067-.052.069-.051.071.116-.633-1.003-.012-.66 3.789" stroke="#fff" stroke-width=".215"/><path d="M30.735 11.811l.111.002.109.007.105.01.104.015.099.02.096.025.091.027.091.032.087.037.081.04.081.042.074.047.074.052.069.054.064.057.062.062.059.064.055.069.049.069.046.074.044.076.038.082.037.081.029.086.027.086.022.091.02.094.014.096.01.096.004.101.003.104-.003.103-.007.126-.015.121-.017.116-.022.113-.025.109-.032.103-.035.101-.036.096-.044.092-.044.089-.052.084-.051.079-.057.077-.062.071-.064.067-.066.064-.069.059-.072.057-.076.051-.077.047-.081.044-.084.04-.083.037-.089.032-.088.03-.093.025-.094.02-.094.017-.098.012-.099.01-.101.005-.101.002-.102-.002-.101-.005-.096-.01-.096-.015-.094-.017-.094-.02-.089-.025-.086-.029-.087-.032-.081-.037-.079-.039-.077-.044-.073-.046-.069-.053-.069-.054-.065-.059-.059-.062-.059-.066-.052-.069-.052-.074-.044-.077-.044-.081-.037-.084-.034-.086-.029-.091-.028-.096-.022-.098-.017-.102-.012-.106-.007-.109-.003-.113.003-.116.007-.118.012-.114.017-.111.022-.106.025-.104.029-.101.032-.096.038-.093.039-.091.044-.086.049-.082.052-.081.055-.074.059-.074.061-.067.064-.066.069-.062.071-.057.075-.054.076-.049.082-.044.083-.044.086-.037.087-.035.091-.029.093-.028.097-.022.098-.02.101-.012.103-.012.106-.005.106-.002" fill="#fff"/><path d="M30.735 11.811l.111.002.109.007.105.01.104.015.099.02.096.025.091.027.091.032.087.037.081.04.081.042.074.047.074.052.069.054.064.057.062.062.059.064.055.069.049.069.046.074.044.076.038.082.037.081.029.086.027.086.022.091.02.094.014.096.01.096.004.101.003.104-.003.103-.007.126-.015.121-.017.116-.022.113-.025.109-.032.103-.035.101-.036.096-.044.092-.044.089-.052.084-.051.079-.057.077-.062.071-.064.067-.066.064-.069.059-.072.057-.076.051-.077.047-.081.044-.084.04-.083.037-.089.032-.088.03-.093.025-.094.02-.094.017-.098.012-.099.01-.101.005-.101.002-.102-.002-.101-.005-.096-.01-.096-.015-.094-.017-.094-.02-.089-.025-.086-.029-.087-.032-.081-.037-.079-.039-.077-.044-.073-.046-.069-.053-.069-.054-.065-.059-.059-.062-.059-.066-.052-.069-.052-.074-.044-.077-.044-.081-.037-.084-.034-.086-.029-.091-.028-.096-.022-.098-.017-.102-.012-.106-.007-.109-.003-.113.003-.116.007-.118.012-.114.017-.111.022-.106.025-.104.029-.101.032-.096.038-.093.039-.091.044-.086.049-.082.052-.081.055-.074.059-.074.061-.067.064-.066.069-.062.071-.057.075-.054.076-.049.082-.044.083-.044.086-.037.087-.035.091-.029.093-.028.097-.022.098-.02.101-.012.103-.012.106-.005.106-.002" stroke="#fff" stroke-width=".215"/><path fill="#fff" d="M32.209 15.449h.29v.037h-.114v.241h-.063v-.241h-.113v-.037"/><path stroke="#fff" stroke-width=".215" d="M32.209 15.449h.29v.037h-.114v.241h-.063v-.241h-.113v-.037"/><path fill="#fff" d="M32.536 15.449h.089l.103.214.102-.214h.089v.278h-.065v-.214l-.101.214h-.051l-.102-.214v.214h-.064v-.278"/><path stroke="#fff" stroke-width=".215" d="M32.536 15.449h.089l.103.214.102-.214h.089v.278h-.065v-.214l-.101.214h-.051l-.102-.214v.214h-.064v-.278"/><path d="M29.949 13.621l-.015.138-.008.128v.116l.008.108.015.099.022.086.027.079.034.071.042.061.047.052.051.044.057.035.062.027.069.02.071.01.077.005.084-.003.081-.01.076-.018.073-.027.07-.035.067-.044.061-.052.059-.062.052-.069.05-.079.047-.088.039-.096.037-.106.032-.116.025-.126.023-.135.012-.106.007-.101v-.099l-.007-.094-.012-.086-.02-.084-.027-.076-.032-.071-.039-.064-.045-.054-.051-.049-.057-.039-.065-.032-.069-.02-.073-.012h-.082l-.101.007-.094.017-.086.029-.081.037-.074.049-.069.054-.062.062-.054.069-.051.074-.045.079-.04.079-.032.084-.029.084-.025.084-.017.084-.015.081" fill="#EC1C2E"/></g></svg>