<?xml version="1.0" encoding="UTF-8" standalone="no"?>
<svg width="43px" height="28px" viewBox="0 0 43 28" version="1.1" xmlns="http://www.w3.org/2000/svg" xmlns:xlink="http://www.w3.org/1999/xlink" xmlns:sketch="http://www.bohemiancoding.com/sketch/ns">
    <!-- Generator: Sketch 3.0.4 (8053) - http://www.bohemiancoding.com/sketch -->
    <title>Visa</title>
    <desc>Created with Sketch.</desc>
    <defs></defs>
    <g id="Campaign-Detail" stroke="none" stroke-width="1" fill="none" fill-rule="evenodd" sketch:type="MSPage">
        <g id="Desktop" sketch:type="MSArtboardGroup" transform="translate(-591.000000, -283.000000)">
            <g id="Lightbox---Support" sketch:type="MSLayerGroup" transform="translate(-9.000000, -29.000000)">
                <g id="2" transform="translate(367.000000, 91.000000)" sketch:type="MSShapeGroup">
                    <g id="Payment---Paypal" transform="translate(26.000000, 140.000000)">
                        <g id="Cards" transform="translate(162.000000, 81.000000)">
                            <g id="Visa" transform="translate(46.000000, 0.360570)">
                                <path d="M41.6201141,24.5931892 C41.6201141,25.3617367 40.9964185,25.9847664 40.2278709,25.9847664 L1.24472739,25.9847664 C0.476179819,25.9847664 -0.14684986,25.3617367 -0.14684986,24.5931892 L-0.14684986,1.27303178 C-0.14684986,0.503818228 0.476179819,-0.119544444 1.24472739,-0.119544444 L40.2278709,-0.119544444 C40.9964185,-0.119544444 41.6201141,0.503818228 41.6201141,1.27303178 L41.6201141,24.5931892" id="Fill-1" fill="#3957A7"></path>
                                <path d="M19.0734992,16.8537687 L17.0332518,16.8537687 L18.3086145,9.01711421 L20.3488619,9.01711421 L19.0734992,16.8537687" id="Fill-2" fill="#FFFFFF"></path>
                                <path d="M15.3170065,9.01711421 L13.3716621,14.40727 L13.141564,13.2464568 L13.141564,13.2467898 L12.4552657,9.72272612 C12.4552657,9.72272612 12.3720175,9.01711421 11.4875884,9.01711421 L8.27154315,9.01711421 L8.23458094,9.14964537 C8.23458094,9.14964537 9.21790891,9.354103 10.3683993,10.0453962 L12.1405874,16.8537687 L14.266747,16.8537687 L17.5134275,9.01711421 L15.3170065,9.01711421" id="Fill-3" fill="#FFFFFF"></path>
                                <path d="M31.3655984,16.8537687 L33.2386833,16.8537687 L31.6056862,9.01711421 L29.9653633,9.01711421 C29.2078045,9.01711421 29.0229935,9.60085073 29.0229935,9.60085073 L25.9804375,16.8537687 L28.107263,16.8537687 L28.532162,15.6899585 L31.1265095,15.6899585 L31.3655984,16.8537687 L31.3655984,16.8537687 Z M29.1205604,14.0819359 L30.1924645,11.1486016 L30.7958476,14.0819359 L29.1205604,14.0819359 L29.1205604,14.0819359 Z" id="Fill-4" fill="#FFFFFF"></path>
                                <path d="M26.1399411,10.9015209 L26.4306439,9.2185749 C26.4306439,9.2185749 25.5325621,8.8769242 24.5958531,8.8769242 C23.5832218,8.8769242 21.1790132,9.31947174 21.1790132,11.4712717 C21.1790132,13.4962014 24.0014608,13.5215089 24.0014608,14.5840892 C24.0014608,15.6473354 21.469716,15.4575295 20.6345698,14.7868818 L20.3308803,16.5460832 C20.3308803,16.5460832 21.2419488,16.9889638 22.6338591,16.9889638 C24.0261023,16.9889638 26.1269544,16.2677012 26.1269544,14.3060401 C26.1269544,12.2684567 23.2795323,12.0783178 23.2795323,11.1925567 C23.2795323,10.3064626 25.2671668,10.4203462 26.1399411,10.9015209" id="Fill-5" fill="#FFFFFF"></path>
                                <path d="M13.141564,13.2467898 L12.4552657,9.72272612 C12.4552657,9.72272612 12.3720175,9.01711421 11.4875884,9.01711421 L8.27154315,9.01711421 L8.23458094,9.14964537 C8.23458094,9.14964537 9.7796679,9.46998452 11.2618192,10.6697579 C12.6790369,11.8172513 13.141564,13.2467898 13.141564,13.2467898" id="Fill-6" fill="#F9A533"></path>
                            </g>
                        </g>
                    </g>
                </g>
            </g>
        </g>
    </g>
</svg>