<?xml version="1.0" encoding="UTF-8" standalone="no"?>
<svg width="44px" height="28px" viewBox="0 0 44 28" version="1.1" xmlns="http://www.w3.org/2000/svg" xmlns:xlink="http://www.w3.org/1999/xlink" xmlns:sketch="http://www.bohemiancoding.com/sketch/ns">
    <!-- Generator: Sketch 3.0.4 (8053) - http://www.bohemiancoding.com/sketch -->
    <title>MasterCard</title>
    <desc>Created with Sketch.</desc>
    <defs></defs>
    <g id="Campaign-Detail" stroke="none" stroke-width="1" fill="none" fill-rule="evenodd" sketch:type="MSPage">
        <g id="Desktop" sketch:type="MSArtboardGroup" transform="translate(-635.000000, -283.000000)">
            <g id="Lightbox---Support" sketch:type="MSLayerGroup" transform="translate(-9.000000, -29.000000)">
                <g id="2" transform="translate(367.000000, 91.000000)" sketch:type="MSShapeGroup">
                    <g id="Payment---Paypal" transform="translate(26.000000, 140.000000)">
                        <g id="Cards" transform="translate(162.000000, 81.000000)">
                            <g id="MasterCard" transform="translate(89.289074, 0.360570)">
                                <path d="M41.721677,24.5931892 C41.721677,25.3620697 41.0979813,25.9847664 40.3291007,25.9847664 L1.34629022,25.9847664 C0.577409655,25.9847664 -0.0456200246,25.3620697 -0.0456200246,24.5931892 L-0.0456200246,1.27303178 C-0.0456200246,0.503818228 0.577409655,-0.119544444 1.34629022,-0.119544444 L40.3291007,-0.119544444 C41.0979813,-0.119544444 41.721677,0.503818228 41.721677,1.27303178 L41.721677,24.5931892" id="Fill-1" fill="#13457C"></path>
                                <path d="M25.8499043,20.4261163 L26.236842,20.4161265 L26.6187849,20.3881551 L26.9927359,20.3408701 L27.3646889,20.2746045 L27.7263192,20.1913563 L28.0826216,20.0901265 L28.4312651,19.971248 L28.7719168,19.8373849 L29.1055757,19.6858731 L29.4295778,19.5213746 L29.7429241,19.3392275 L30.0486115,19.1447597 L30.3419783,18.9353071 L30.6250222,18.7125349 L30.8980764,18.4774419 L31.1581438,18.2273643 L31.4085545,17.9669639 L31.6433144,17.6935767 L31.8664197,17.4108657 L32.0758722,17.117499 L32.27034,16.8118116 L32.4524871,16.4977993 L32.6163196,16.1744632 L32.7678314,15.8411373 L32.9020275,15.4994866 L33.020906,15.1508431 L33.1224688,14.7948737 L33.205717,14.4332434 L33.2713166,14.0619563 L33.3196006,13.6876723 L33.347572,13.3057295 L33.3572288,12.9191248 L33.347572,12.534851 L33.3196006,12.1555721 L33.2713166,11.7816211 L33.205717,11.4149959 L33.1224688,11.0536987 L33.020906,10.6997272 L32.9020275,10.3510837 L32.7678314,10.0120969 L32.6163196,9.681435 L32.4524871,9.35743293 L32.27034,9.04675057 L32.0758722,8.74106311 L31.8664197,8.44769638 L31.6433144,8.16698338 L31.4085545,7.89459521 L31.1581438,7.63386178 L30.8980764,7.38611508 L30.6250222,7.15102211 L30.3419783,6.92858286 L30.0486115,6.71879735 L29.7429241,6.52399651 L29.4295778,6.34484634 L29.1055757,6.18068085 L28.7719168,6.02850311 L28.4312651,5.89463997 L28.0826216,5.7760945 L27.7263192,5.67486467 L27.3646889,5.59161645 L26.9927359,5.52601685 L26.6187849,5.47773288 L26.236842,5.44976148 L25.8499043,5.4394387 L25.4662965,5.44976148 L25.0843537,5.47773288 L24.7104027,5.52601685 L24.3411136,5.59161645 L23.9794833,5.67486467 L23.6228479,5.7760945 L23.2768683,5.89463997 L22.9355506,6.02850311 L22.6045557,6.18068085 L22.2838836,6.34484634 L21.9705373,6.52399651 L21.6665148,6.71879735 L21.374147,6.92858286 L21.0904371,7.15102211 L20.8197139,7.38611508 L20.5596464,7.63386178 L20.3118997,7.89459521 L20.0771397,8.16698338 L19.8547005,8.44769638 L19.6472459,8.74106311 L19.4521121,9.04675057 L19.2732949,9.35743293 L19.1061325,9.681435 L18.9572847,10.0120969 L18.8230885,10.3510837 L18.706874,10.6997272 L18.6059772,11.0536987 L18.522063,11.4149959 L18.4564634,11.7816211 L18.4088454,12.1555721 L18.380874,12.534851 L18.3705512,12.9191248 L18.380874,13.3057295 L18.4088454,13.6876723 L18.4564634,14.0619563 L18.522063,14.4332434 L18.6059772,14.7948737 L18.706874,15.1508431 L18.8230885,15.4994866 L18.9572847,15.8411373 L19.1061325,16.1744632 L19.2732949,16.4977993 L19.4521121,16.8118116 L19.6472459,17.117499 L19.8547005,17.4108657 L20.0771397,17.6935767 L20.3118997,17.9669639 L20.5596464,18.2273643 L20.8197139,18.4774419 L21.0904371,18.7125349 L21.374147,18.9353071 L21.6665148,19.1447597 L21.9705373,19.3392275 L22.2838836,19.5213746 L22.6045557,19.6858731 L22.9355506,19.8373849 L23.2768683,19.971248 L23.6228479,20.0901265 L23.9794833,20.1913563 L24.3411136,20.2746045 L24.7104027,20.3408701 L25.0843537,20.3881551 L25.4662965,20.4161265 L25.8499043,20.4261163" id="Fill-2" fill="#FBB231"></path>
                                <path d="M15.8254866,20.4261163 L16.2094274,20.4161265 L16.5910373,20.3881551 L16.9656543,20.3408701 L17.3346104,20.2746045 L17.6962406,20.1913563 L18.051877,20.0901265 L18.3985226,19.971248 L18.7398403,19.8373849 L19.0708353,19.6858731 L19.3921734,19.5213746 L19.7051867,19.3392275 L20.0088762,19.1447597 L20.3022429,18.9353071 L20.5849539,18.7125349 L20.8556771,18.4774419 L21.1157445,18.2273643 L21.3634912,17.9669639 L21.5989172,17.6935767 L21.8206905,17.4108657 L22.028145,17.117499 L22.2226129,16.8118116 L22.402096,16.4977993 L22.5692585,16.1744632 L22.7184393,15.8411373 L22.8523024,15.4994866 L22.9688499,15.1508431 L23.0694138,14.7948737 L23.153328,14.4332434 L23.2185946,14.0619563 L23.2672115,13.6876723 L23.2945169,13.3057295 L23.3041737,12.9191248 L23.2945169,12.534851 L23.2672115,12.1555721 L23.2185946,11.7816211 L23.153328,11.4149959 L23.0694138,11.0536987 L22.9688499,10.6997272 L22.8523024,10.3510837 L22.7184393,10.0120969 L22.5692585,9.681435 L22.402096,9.35743293 L22.2226129,9.04675057 L22.028145,8.74106311 L21.8206905,8.44769638 L21.5989172,8.16698338 L21.3634912,7.89459521 L21.1157445,7.63386178 L20.8556771,7.38611508 L20.5849539,7.15102211 L20.3022429,6.92858286 L20.0088762,6.71879735 L19.7051867,6.52399651 L19.3921734,6.34484634 L19.0708353,6.18068085 L18.7398403,6.02850311 L18.3985226,5.89463997 L18.051877,5.7760945 L17.6962406,5.67486467 L17.3346104,5.59161645 L16.9656543,5.52601685 L16.5910373,5.47773288 L16.2094274,5.44976148 L15.8254866,5.4394387 L15.4385489,5.44976148 L15.0569391,5.47773288 L14.6829881,5.52601685 L14.311035,5.59161645 L13.9500707,5.67486467 L13.5934354,5.7760945 L13.2444588,5.89463997 L12.9034741,6.02850311 L12.5698152,6.18068085 L12.2464792,6.34484634 L11.9331329,6.52399651 L11.6267794,6.71879735 L11.3334127,6.92858286 L11.0507017,7.15102211 L10.7773146,7.38611508 L10.5172471,7.63386178 L10.2668365,7.89459521 L10.0320765,8.16698338 L9.80963726,8.44769638 L9.59951875,8.74106311 L9.40505091,9.04675057 L9.22290381,9.35743293 L9.05907131,9.681435 L8.90689356,10.0120969 L8.77369641,10.3510837 L8.65448496,10.6997272 L8.55325512,11.0536987 L8.4700069,11.4149959 L8.40407431,11.7816211 L8.35612334,12.1555721 L8.32815194,12.534851 L8.31816215,12.9191248 L8.32815194,13.3057295 L8.35612334,13.6876723 L8.40407431,14.0619563 L8.4700069,14.4332434 L8.55325512,14.7948737 L8.65448496,15.1508431 L8.77369641,15.4994866 L8.90689356,15.8411373 L9.05907131,16.1744632 L9.22290381,16.4977993 L9.40505091,16.8118116 L9.59951875,17.117499 L9.80963726,17.4108657 L10.0320765,17.6935767 L10.2668365,17.9669639 L10.5172471,18.2273643 L10.7773146,18.4774419 L11.0507017,18.7125349 L11.3334127,18.9353071 L11.6267794,19.1447597 L11.9331329,19.3392275 L12.2464792,19.5213746 L12.5698152,19.6858731 L12.9034741,19.8373849 L13.2444588,19.971248 L13.5934354,20.0901265 L13.9500707,20.1913563 L14.311035,20.2746045 L14.6829881,20.3408701 L15.0569391,20.3881551 L15.4385489,20.4161265 L15.8254866,20.4261163" id="Fill-3" fill="#EC1C2E"></path>
                                <path id="Fill-4" fill="#FBB231" d="M19.9605922,8.31383324 L23.9421881,8.31383324 L23.9421881,7.90658295 L20.3042409,7.90658295 L19.9605922,8.31383324"></path>
                                <path id="Fill-5" fill="#FBB231" d="M19.364202,9.2185749 L23.9421881,9.2185749 L23.9421881,8.81132461 L19.6042898,8.81132461 L19.364202,9.2185749"></path>
                                <path id="Fill-6" fill="#FBB231" d="M18.9186575,10.1209856 L23.9421881,10.1209856 L23.9421881,9.71373531 L19.0964757,9.71373531 L18.9186575,10.1209856"></path>
                                <path id="Fill-7" fill="#FBB231" d="M18.613303,11.0257273 L23.9421881,11.0257273 L23.9421881,10.619143 L18.7398403,10.619143 L18.613303,11.0257273"></path>
                                <path id="Fill-8" fill="#FBB231" d="M18.7907882,15.3989228 L23.9548418,15.3989228 L23.9548418,14.9916725 L18.663918,14.9916725 L18.7907882,15.3989228"></path>
                                <path id="Fill-9" fill="#FBB231" d="M19.1717321,16.3036644 L23.9548418,16.3036644 L23.9548418,15.8967471 L18.9825921,15.8967471 L19.1717321,16.3036644"></path>
                                <path id="Fill-10" fill="#FBB231" d="M19.7078506,17.2060751 L23.9548418,17.2060751 L23.9548418,16.7991578 L19.4521121,16.7991578 L19.7078506,17.2060751"></path>
                                <path id="Fill-11" fill="#FBB231" d="M20.4457629,18.1108168 L23.9548418,18.1108168 L23.9548418,17.7012355 L20.0894605,17.7012355 L20.4457629,18.1108168"></path>
                                <path id="Fill-12" fill="#FBB231" d="M18.4341529,11.928138 L23.9421881,11.928138 L23.9421881,11.5212207 L18.5124062,11.5212207 L18.4341529,11.928138"></path>
                                <path id="Fill-13" fill="#FBB231" d="M21.7907211,14.4965121 L23.8909072,14.4965121 L23.8909072,14.0892618 L21.8663105,14.0892618 L21.7907211,14.4965121"></path>
                                <path id="Fill-14" fill="#FBB231" d="M21.9572175,13.5937684 L23.8909072,13.5937684 L23.8909072,13.1845201 L22.0334729,13.1845201 L21.9572175,13.5937684"></path>
                                <path id="Fill-15" fill="#FBB231" d="M18.2949618,13.1845201 L18.8407372,13.1845201 L18.8407372,13.5937684 L18.3206023,13.5937684 L18.2949618,13.1845201"></path>
                                <path d="M17.2760036,12.6913576 L17.2407064,12.6886937 L17.2050761,12.6840318 L17.1724428,12.6790369 L17.1401425,12.674042 L17.1095072,12.6690471 L17.0768739,12.6637192 L17.0439076,12.6590573 L17.0079444,12.6537295 L16.9729801,12.6487346 L16.932688,12.6460706 L16.8870679,12.6434067 L16.83945,12.6407427 L16.7861711,12.6407427 L16.7275644,12.6434067 L16.6619648,12.6487346 L16.5890393,12.6537295 L16.5384244,12.6613883 L16.4904734,12.6690471 L16.4475173,12.6840318 L16.4088902,12.6990165 L16.3739259,12.7166651 L16.3412926,12.7369777 L16.3159852,12.7626181 L16.2933416,12.7852616 L16.277691,12.8129001 L16.2647042,12.8405385 L16.2600423,12.8708408 L16.2600423,12.9014762 L16.2680342,12.9344425 L16.277691,12.9670758 L16.2976705,13.000042 L16.323311,13.0330083 L16.3739259,13.0806263 L16.4348636,13.1185875 L16.5051251,13.1515538 L16.5813805,13.1791922 L16.6619648,13.2048327 L16.745879,13.2324711 L16.8291272,13.2631064 L16.9097115,13.2957397 L16.9859668,13.3386958 L17.0562283,13.3916417 L17.11983,13.4552433 L17.1724428,13.5334966 L17.212735,13.6293986 L17.2383754,13.7429492 L17.2486982,13.8798092 L17.2383754,14.0389798 L17.2207268,14.1578583 L17.1900915,14.2614191 L17.1497993,14.357321 L17.0991844,14.4405692 L17.0412436,14.5141607 L16.975644,14.5770963 L16.9047166,14.6327061 L16.8264632,14.6809901 L16.745879,14.7189513 L16.6619648,14.7515846 L16.5760526,14.7768921 L16.4878095,14.7968716 L16.4018973,14.8125223 L16.3179831,14.8198481 L16.2347349,14.825176 L16.1568146,14.827174 L16.0479259,14.827174 L15.946696,14.825176 L15.8581199,14.825176 L15.7748717,14.8228451 L15.6989493,14.8198481 L15.6306858,14.8148532 L15.5700811,14.8098584 L15.5121403,14.8021995 L15.4588615,14.7968716 L15.4105775,14.7872148 L15.3632925,14.779223 L15.3196705,14.7669023 L15.2767144,14.7565795 L15.2364222,14.7412618 L15.1961301,14.7266101 L15.153174,14.7112925 L15.2670576,14.1525304 L15.2897011,14.1578583 L15.3176725,14.1655171 L15.3529697,14.1751739 L15.3955928,14.1858297 L15.4412129,14.1954865 L15.4914948,14.2058093 L15.5471046,14.21813 L15.6077093,14.2284528 L15.6709779,14.2384426 L15.7365775,14.2487654 L15.8055071,14.2560912 L15.8757686,14.26375 L15.949027,14.266081 L16.0226184,14.2687449 L16.0962099,14.2687449 L16.1691353,14.266081 L16.2423937,14.2510963 L16.3010005,14.2307837 L16.3466205,14.2031453 L16.3815847,14.1678481 L16.4065592,14.1322178 L16.4265388,14.0915927 L16.4395255,14.0516336 L16.4498483,14.0136724 L16.4545102,13.940081 L16.4318667,13.8768123 L16.3889106,13.8261974 L16.3256419,13.7835743 L16.2503856,13.7456131 L16.1611435,13.7076519 L16.0629106,13.6720217 L15.9640117,13.6320625 L15.8634478,13.5864425 L15.7672129,13.5334966 L15.6786368,13.4675641 L15.5980525,13.3893107 L15.5341179,13.2930758 L15.4894968,13.1791922 L15.4665203,13.0429981 L15.4691843,12.8814966 L15.481505,12.7825977 L15.4991536,12.6886937 L15.5244611,12.6031145 L15.5550964,12.5225303 L15.5953886,12.4466079 L15.6410086,12.3806753 L15.6942874,12.3174066 L15.7572231,12.2621298 L15.8308145,12.2141789 L15.9113988,12.1735537 L16.0026389,12.1355925 L16.1038687,12.1079541 L16.2170863,12.0849776 L16.3412926,12.067329 L16.4774867,12.0570062 L16.6270005,12.0543423 L16.7199055,12.0543423 L16.8058177,12.0570062 L16.884404,12.0600031 L16.9553315,12.0623341 L17.0182671,12.067329 L17.0768739,12.0723239 L17.1271558,12.0773188 L17.1724428,12.0826467 L17.2153989,12.0873086 L17.2506962,12.0949674 L17.2843284,12.1002953 L17.3142978,12.1049572 L17.3389393,12.1099521 L17.3625818,12.112949 L17.3852253,12.1179439 L17.4048719,12.1206079 L17.2760036,12.6913576" id="Fill-16" fill="#FFFFFF"></path>
                                <path d="M17.2760036,12.6913576 L17.2760036,12.6913576 L17.2407064,12.6886937 L17.2050761,12.6840318 L17.1724428,12.6790369 L17.1401425,12.674042 L17.1095072,12.6690471 L17.0768739,12.6637192 L17.0439076,12.6590573 L17.0079444,12.6537295 L16.9729801,12.6487346 L16.932688,12.6460706 L16.8870679,12.6434067 L16.83945,12.6407427 L16.7861711,12.6407427 L16.7275644,12.6434067 L16.6619648,12.6487346 L16.5890393,12.6537295 L16.5384244,12.6613883 L16.4904734,12.6690471 L16.4475173,12.6840318 L16.4088902,12.6990165 L16.3739259,12.7166651 L16.3412926,12.7369777 L16.3159852,12.7626181 L16.2933416,12.7852616 L16.277691,12.8129001 L16.2647042,12.8405385 L16.2600423,12.8708408 L16.2600423,12.9014762 L16.2680342,12.9344425 L16.277691,12.9670758 L16.2976705,13.000042 L16.323311,13.0330083 L16.3739259,13.0806263 L16.4348636,13.1185875 L16.5051251,13.1515538 L16.5813805,13.1791922 L16.6619648,13.2048327 L16.745879,13.2324711 L16.8291272,13.2631064 L16.9097115,13.2957397 L16.9859668,13.3386958 L17.0562283,13.3916417 L17.11983,13.4552433 L17.1724428,13.5334966 L17.212735,13.6293986 L17.2383754,13.7429492 L17.2486982,13.8798092 L17.2383754,14.0389798 L17.2207268,14.1578583 L17.1900915,14.2614191 L17.1497993,14.357321 L17.0991844,14.4405692 L17.0412436,14.5141607 L16.975644,14.5770963 L16.9047166,14.6327061 L16.8264632,14.6809901 L16.745879,14.7189513 L16.6619648,14.7515846 L16.5760526,14.7768921 L16.4878095,14.7968716 L16.4018973,14.8125223 L16.3179831,14.8198481 L16.2347349,14.825176 L16.1568146,14.827174 L16.0479259,14.827174 L15.946696,14.825176 L15.8581199,14.825176 L15.7748717,14.8228451 L15.6989493,14.8198481 L15.6306858,14.8148532 L15.5700811,14.8098584 L15.5121403,14.8021995 L15.4588615,14.7968716 L15.4105775,14.7872148 L15.3632925,14.779223 L15.3196705,14.7669023 L15.2767144,14.7565795 L15.2364222,14.7412618 L15.1961301,14.7266101 L15.153174,14.7112925 L15.2670576,14.1525304 L15.2897011,14.1578583 L15.3176725,14.1655171 L15.3529697,14.1751739 L15.3955928,14.1858297 L15.4412129,14.1954865 L15.4914948,14.2058093 L15.5471046,14.21813 L15.6077093,14.2284528 L15.6709779,14.2384426 L15.7365775,14.2487654 L15.8055071,14.2560912 L15.8757686,14.26375 L15.949027,14.266081 L16.0226184,14.2687449 L16.0962099,14.2687449 L16.1691353,14.266081 L16.2423937,14.2510963 L16.3010005,14.2307837 L16.3466205,14.2031453 L16.3815847,14.1678481 L16.4065592,14.1322178 L16.4265388,14.0915927 L16.4395255,14.0516336 L16.4498483,14.0136724 L16.4545102,13.940081 L16.4318667,13.8768123 L16.3889106,13.8261974 L16.3256419,13.7835743 L16.2503856,13.7456131 L16.1611435,13.7076519 L16.0629106,13.6720217 L15.9640117,13.6320625 L15.8634478,13.5864425 L15.7672129,13.5334966 L15.6786368,13.4675641 L15.5980525,13.3893107 L15.5341179,13.2930758 L15.4894968,13.1791922 L15.4665203,13.0429981 L15.4691843,12.8814966 L15.481505,12.7825977 L15.4991536,12.6886937 L15.5244611,12.6031145 L15.5550964,12.5225303 L15.5953886,12.4466079 L15.6410086,12.3806753 L15.6942874,12.3174066 L15.7572231,12.2621298 L15.8308145,12.2141789 L15.9113988,12.1735537 L16.0026389,12.1355925 L16.1038687,12.1079541 L16.2170863,12.0849776 L16.3412926,12.067329 L16.4774867,12.0570062 L16.6270005,12.0543423 L16.7199055,12.0543423 L16.8058177,12.0570062 L16.884404,12.0600031 L16.9553315,12.0623341 L17.0182671,12.067329 L17.0768739,12.0723239 L17.1271558,12.0773188 L17.1724428,12.0826467 L17.2153989,12.0873086 L17.2506962,12.0949674 L17.2843284,12.1002953 L17.3142978,12.1049572 L17.3389393,12.1099521 L17.3625818,12.112949 L17.3852253,12.1179439 L17.4048719,12.1206079 L17.2760036,12.6913576" id="Stroke-17" stroke="#FFFFFF" stroke-width="0.216"></path>
                                <path d="M17.8757238,11.4962462 L18.5753418,11.4962462 L18.4721141,12.1079541 L18.894016,12.1079541 L18.803109,12.6790369 L18.3582305,12.6663832 L18.1154787,14.076608 L18.1131477,14.1272229 L18.1254685,14.170512 L18.1507759,14.2031453 L18.1837422,14.2307837 L18.2293622,14.2487654 L18.2803102,14.26375 L18.335587,14.2737398 L18.3958587,14.2790677 L18.4518015,14.2767368 L18.5027494,14.2714089 L18.5473704,14.26375 L18.5883286,14.2537602 L18.6209619,14.2434375 L18.6436054,14.2361116 L18.6585901,14.2307837 L18.663918,14.2284528 L18.5753418,14.6986387 L18.5576932,14.7112925 L18.5403776,14.7212822 L18.522063,14.731272 L18.5044144,14.7412618 L18.4870987,14.7489207 L18.4667862,14.7565795 L18.4441426,14.7642383 L18.4211661,14.7718972 L18.3958587,14.779223 L18.3705512,14.7845509 L18.3405819,14.7895458 L18.3099465,14.7948737 L18.2769802,14.7998686 L18.239352,14.8048635 L18.1987269,14.8098584 L18.1557708,14.8148532 L17.9639669,14.8148532 L17.8627371,14.8071944 L17.774161,14.7968716 L17.6935767,14.7822199 L17.6253132,14.7642383 L17.5667064,14.7412618 L17.5190884,14.7166203 L17.4764653,14.685985 L17.4431661,14.6530187 L17.4178586,14.6177215 L17.40021,14.5747654 L17.3872232,14.5314763 L17.3798974,14.4838583 L17.3775665,14.4305795 L17.3775665,14.3749697 L17.3852253,14.3170289 L17.3925511,14.2537602 L17.8757238,11.4962462" id="Fill-18" fill="#FFFFFF"></path>
                                <path d="M17.8757238,11.4962462 L18.5753418,11.4962462 L18.4721141,12.1079541 L18.894016,12.1079541 L18.803109,12.6790369 L18.3582305,12.6663832 L18.1154787,14.076608 L18.1131477,14.1272229 L18.1254685,14.170512 L18.1507759,14.2031453 L18.1837422,14.2307837 L18.2293622,14.2487654 L18.2803102,14.26375 L18.335587,14.2737398 L18.3958587,14.2790677 L18.4518015,14.2767368 L18.5027494,14.2714089 L18.5473704,14.26375 L18.5883286,14.2537602 L18.6209619,14.2434375 L18.6436054,14.2361116 L18.6585901,14.2307837 L18.663918,14.2284528 L18.5753418,14.6986387 L18.5576932,14.7112925 L18.5403776,14.7212822 L18.522063,14.731272 L18.5044144,14.7412618 L18.4870987,14.7489207 L18.4667862,14.7565795 L18.4441426,14.7642383 L18.4211661,14.7718972 L18.3958587,14.779223 L18.3705512,14.7845509 L18.3405819,14.7895458 L18.3099465,14.7948737 L18.2769802,14.7998686 L18.239352,14.8048635 L18.1987269,14.8098584 L18.1557708,14.8148532 L17.9639669,14.8148532 L17.8627371,14.8071944 L17.774161,14.7968716 L17.6935767,14.7822199 L17.6253132,14.7642383 L17.5667064,14.7412618 L17.5190884,14.7166203 L17.4764653,14.685985 L17.4431661,14.6530187 L17.4178586,14.6177215 L17.40021,14.5747654 L17.3872232,14.5314763 L17.3798974,14.4838583 L17.3775665,14.4305795 L17.3775665,14.3749697 L17.3852253,14.3170289 L17.3925511,14.2537602 L17.8757238,11.4962462 M19.4521121,13.6320625 L19.4521121,13.6320625 L19.4454522,13.6746856 L19.4431213,13.7199727 L19.4467842,13.7682566 L19.45744,13.8162076 L19.4754216,13.8644916 L19.4957342,13.9104446 L19.5230396,13.9580626 L19.5536749,14.0006857 L19.5893052,14.0439747 L19.6269334,14.0822689 L19.6675585,14.1198971 L19.7128455,14.1498665 L19.7577996,14.1781709 L19.8090805,14.2004814 L19.8593624,14.21813 L19.9099773,14.2284528 L19.9762429,14.2384426 L20.0388456,14.2461014 L20.1044452,14.2537602 L20.1707107,14.2587551 L20.2359773,14.2614191 L20.3042409,14.2614191 L20.3705065,14.2587551 L20.438104,14.2537602 L20.5063676,14.2434375 L20.5752971,14.2307837 L20.6455586,14.2157991 L20.7138221,14.1931555 L20.7847496,14.1655171 L20.858341,14.1345488 L20.9286025,14.0945896 L21.0025269,14.0516336 L20.9012971,14.6733313 L20.861005,14.6936438 L20.8197139,14.7139564 L20.7794217,14.7286081 L20.7417935,14.7442588 L20.7041653,14.7565795 L20.6632072,14.7695662 L20.6229151,14.779223 L20.579959,14.7872148 L20.534339,14.7948737 L20.483724,14.7998686 L20.4307782,14.8048635 L20.3725044,14.8098584 L20.3065718,14.8125223 L20.2383083,14.8125223 L20.160388,14.8148532 L20.0771397,14.8148532 L19.9529334,14.8125223 L19.8267291,14.7998686 L19.7005248,14.7822199 L19.5736545,14.7515846 L19.4501141,14.7139564 L19.3312357,14.6656724 L19.2173521,14.6024038 L19.1114604,14.5291454 L19.0125615,14.4432332 L18.9266493,14.3396724 L18.8537239,14.2231249 L18.7927862,14.0892618 L18.7498301,13.940081 L18.7218587,13.7705876 L18.7145329,13.5837786 L18.7268536,13.376657 L18.7375094,13.2957397 L18.7524941,13.2021687 L18.7724736,13.1039358 L18.800445,12.9970451 L18.8387392,12.8888224 L18.8836933,12.7799338 L18.9423,12.6690471 L19.0125615,12.5628224 L19.0938118,12.4615926 L19.1920447,12.3656906 L19.3032643,12.2797784 L19.4301346,12.2038561 L19.5763184,12.1405874 L19.7408169,12.0949674 L19.922964,12.064998 L20.1277547,12.0543423 L20.2259876,12.0570062 L20.3302143,12.067329 L20.4327761,12.0849776 L20.5370029,12.1099521 L20.6385657,12.1482463 L20.7367986,12.1938663 L20.8277057,12.254471 L20.9109539,12.3250655 L20.9868763,12.4113106 L21.0501449,12.5125405 L21.1007598,12.628422 L21.1360571,12.7626181 L21.1560367,12.9137969 L21.1587006,13.0856212 L21.141052,13.2777581 L21.1034238,13.4905406 L21.0904371,13.6447163 L19.2479875,13.6447163 L19.364202,13.1465589 L20.4714033,13.1465589 L20.4763982,13.0836233 L20.4737343,13.0226856 L20.4687394,12.9670758 L20.4587496,12.9167938 L20.440768,12.8688429 L20.4231193,12.8252208 L20.3978119,12.7875926 L20.3725044,12.7522953 L20.3425351,12.721993 L20.3092358,12.6966855 L20.2716076,12.674042 L20.2333134,12.6537295 L20.1936872,12.6387448 L20.1527291,12.628422 L20.109773,12.6207632 L20.064819,12.6157683 L20.015869,12.6184322 L19.971248,12.626091 L19.9282919,12.6364138 L19.8853358,12.6510655 L19.8417138,12.6713781 L19.8040856,12.6943546 L19.7654584,12.721993 L19.7338241,12.7522953 L19.7005248,12.7875926 L19.6698894,12.8252208 L19.642584,12.8661789 L19.6192745,12.909468 L19.596631,12.954755 L19.5789824,13.0050369 L19.5639977,13.0556519 L19.5536749,13.1085977 L19.4521121,13.6320625" id="Stroke-19" stroke="#FFFFFF" stroke-width="0.216"></path>
                                <path d="M25.4812812,12.2594659 L25.4479819,12.2418173 L25.4153486,12.2264996 L25.3803843,12.208851 L25.3420902,12.1908693 L25.304129,12.1758847 L25.2185498,12.1455823 L25.1729298,12.1305976 L25.1246458,12.1179439 L25.0766948,12.1079541 L25.023416,12.0976313 L24.9704701,12.0899725 L24.9125294,12.0849776 L24.8542556,12.0799827 L24.6674466,12.0799827 L24.601181,12.0849776 L24.5335835,12.0926364 L24.46199,12.1049572 L24.3917285,12.1252698 L24.320801,12.1532412 L24.2505395,12.1888714 L24.178946,12.2338254 L24.1106825,12.2897682 L24.0450829,12.3553678 L23.9821472,12.4362851 L23.9215425,12.5298561 L23.8655997,12.6407427 L23.8129869,12.76728 L23.7653689,12.909468 L23.7244108,13.0709695 L23.7094261,13.1615436 L23.6991033,13.2497867 L23.6937754,13.3386958 L23.6964394,13.424608 L23.7044312,13.5105201 L23.7217468,13.5914374 L23.7447233,13.6673598 L23.7726947,13.7429492 L23.8103229,13.8115457 L23.8559429,13.8768123 L23.9092218,13.9350861 L23.9698265,13.9883649 L24.03809,14.0339849 L24.1160104,14.0716131 L24.2019225,14.1045794 L24.2988235,14.1272229 L24.3311238,14.1345488 L24.369085,14.1422076 L24.414372,14.1475355 L24.4653199,14.1525304 L24.5205967,14.1578583 L24.6421391,14.1578583 L24.7050748,14.1525304 L24.7710074,14.1445386 L24.836607,14.1322178 L24.8995426,14.1145692 L24.9628113,14.0945896 L25.0257469,14.0666182 L25.0843537,14.0339849 L25.1369666,13.9933598 L25.1879145,13.9480728 L25.0740309,14.6230493 L25.0590462,14.6353701 L25.0433956,14.6506878 L25.023416,14.6686694 L25.0004395,14.6829881 L24.9731341,14.7033006 L24.9375038,14.7212822 L24.8972117,14.7389309 L24.8515917,14.7539155 L24.7936509,14.7718972 L24.7280513,14.7845509 L24.6517959,14.7948737 L24.5635528,14.8048635 L24.4653199,14.8098584 L24.3514363,14.8125223 L24.2225681,14.8098584 L24.0800471,14.8021995 L23.9644986,14.7895458 L23.8479511,14.7642383 L23.7317366,14.7266101 L23.6158551,14.6756622 L23.5046355,14.6153905 L23.3987437,14.5391351 L23.2971809,14.450892 L23.2036099,14.3499952 L23.1203617,14.2361116 L23.0494342,14.1099073 L22.9888295,13.9683853 L22.9432095,13.8138766 L22.9135731,13.6447163 L22.9029173,13.4649001 L22.9082452,13.2681013 L22.9355506,13.0579828 L22.9561962,12.954755 L22.9791727,12.8535252 L23.0038142,12.7549593 L23.0291216,12.6613883 L23.057093,12.5728122 L23.0897263,12.4845691 L23.1230256,12.4009879 L23.1579899,12.3227345 L23.196284,12.2444812 L23.2342452,12.1708898 L23.2768683,12.1002953 L23.3224883,12.0346957 L23.3681084,11.971094 L23.4180573,11.9108223 L23.4690052,11.8552125 L23.5222841,11.8019337 L23.5802248,11.7513187 L23.6384986,11.7033678 L23.6991033,11.6604117 L23.7627049,11.6197866 L23.8303025,11.5818254 L23.898899,11.5495251 L23.9698265,11.5188897 L24.0430849,11.4909183 L24.1213383,11.4656109 L24.1992586,11.4456313 L24.2805089,11.4276497 L24.366421,11.412665 L24.4523332,11.3996783 L24.5432402,11.3900215 L24.6344803,11.3850266 L24.7307152,11.3820296 L24.8112995,11.3850266 L24.8898858,11.3900215 L24.9654752,11.3973473 L25.0413976,11.4076701 L25.1123251,11.4176599 L25.1805886,11.4326446 L25.2458552,11.4456313 L25.3067929,11.460616 L25.3647337,11.4756006 L25.4153486,11.4909183 L25.4636326,11.506236 L25.5039247,11.5212207 L25.538889,11.5338744 L25.5695243,11.5441972 L25.5925008,11.554187 L25.6078185,11.5595148 L25.4812812,12.2594659" id="Fill-20" fill="#FFFFFF"></path>
                                <path d="M25.4812812,12.2594659 L25.4812812,12.2594659 L25.4479819,12.2418173 L25.4153486,12.2264996 L25.3803843,12.208851 L25.3420902,12.1908693 L25.304129,12.1758847 L25.2185498,12.1455823 L25.1729298,12.1305976 L25.1246458,12.1179439 L25.0766948,12.1079541 L25.023416,12.0976313 L24.9704701,12.0899725 L24.9125294,12.0849776 L24.8542556,12.0799827 L24.6674466,12.0799827 L24.601181,12.0849776 L24.5335835,12.0926364 L24.46199,12.1049572 L24.3917285,12.1252698 L24.320801,12.1532412 L24.2505395,12.1888714 L24.178946,12.2338254 L24.1106825,12.2897682 L24.0450829,12.3553678 L23.9821472,12.4362851 L23.9215425,12.5298561 L23.8655997,12.6407427 L23.8129869,12.76728 L23.7653689,12.909468 L23.7244108,13.0709695 L23.7094261,13.1615436 L23.6991033,13.2497867 L23.6937754,13.3386958 L23.6964394,13.424608 L23.7044312,13.5105201 L23.7217468,13.5914374 L23.7447233,13.6673598 L23.7726947,13.7429492 L23.8103229,13.8115457 L23.8559429,13.8768123 L23.9092218,13.9350861 L23.9698265,13.9883649 L24.03809,14.0339849 L24.1160104,14.0716131 L24.2019225,14.1045794 L24.2988235,14.1272229 L24.3311238,14.1345488 L24.369085,14.1422076 L24.414372,14.1475355 L24.4653199,14.1525304 L24.5205967,14.1578583 L24.6421391,14.1578583 L24.7050748,14.1525304 L24.7710074,14.1445386 L24.836607,14.1322178 L24.8995426,14.1145692 L24.9628113,14.0945896 L25.0257469,14.0666182 L25.0843537,14.0339849 L25.1369666,13.9933598 L25.1879145,13.9480728 L25.0740309,14.6230493 L25.0590462,14.6353701 L25.0433956,14.6506878 L25.023416,14.6686694 L25.0004395,14.6829881 L24.9731341,14.7033006 L24.9375038,14.7212822 L24.8972117,14.7389309 L24.8515917,14.7539155 L24.7936509,14.7718972 L24.7280513,14.7845509 L24.6517959,14.7948737 L24.5635528,14.8048635 L24.4653199,14.8098584 L24.3514363,14.8125223 L24.2225681,14.8098584 L24.0800471,14.8021995 L23.9644986,14.7895458 L23.8479511,14.7642383 L23.7317366,14.7266101 L23.6158551,14.6756622 L23.5046355,14.6153905 L23.3987437,14.5391351 L23.2971809,14.450892 L23.2036099,14.3499952 L23.1203617,14.2361116 L23.0494342,14.1099073 L22.9888295,13.9683853 L22.9432095,13.8138766 L22.9135731,13.6447163 L22.9029173,13.4649001 L22.9082452,13.2681013 L22.9355506,13.0579828 L22.9561962,12.954755 L22.9791727,12.8535252 L23.0038142,12.7549593 L23.0291216,12.6613883 L23.057093,12.5728122 L23.0897263,12.4845691 L23.1230256,12.4009879 L23.1579899,12.3227345 L23.196284,12.2444812 L23.2342452,12.1708898 L23.2768683,12.1002953 L23.3224883,12.0346957 L23.3681084,11.971094 L23.4180573,11.9108223 L23.4690052,11.8552125 L23.5222841,11.8019337 L23.5802248,11.7513187 L23.6384986,11.7033678 L23.6991033,11.6604117 L23.7627049,11.6197866 L23.8303025,11.5818254 L23.898899,11.5495251 L23.9698265,11.5188897 L24.0430849,11.4909183 L24.1213383,11.4656109 L24.1992586,11.4456313 L24.2805089,11.4276497 L24.366421,11.412665 L24.4523332,11.3996783 L24.5432402,11.3900215 L24.6344803,11.3850266 L24.7307152,11.3820296 L24.8112995,11.3850266 L24.8898858,11.3900215 L24.9654752,11.3973473 L25.0413976,11.4076701 L25.1123251,11.4176599 L25.1805886,11.4326446 L25.2458552,11.4456313 L25.3067929,11.460616 L25.3647337,11.4756006 L25.4153486,11.4909183 L25.4636326,11.506236 L25.5039247,11.5212207 L25.538889,11.5338744 L25.5695243,11.5441972 L25.5925008,11.554187 L25.6078185,11.5595148 L25.4812812,12.2594659" id="Stroke-21" stroke="#FFFFFF" stroke-width="0.216"></path>
                                <path d="M31.7039191,14.8148532 L31.0039681,14.8148532 L31.054916,14.5344732 L31.054916,14.5088328 L31.0139579,14.5597807 L30.9716678,14.6047347 L30.9287117,14.6453599 L30.8830917,14.6809901 L30.8371387,14.7139564 L30.7915187,14.7412618 L30.7458986,14.7642383 L30.6976147,14.7872148 L30.6503297,14.8048635 L30.6020457,14.8175172 L30.5540947,14.8298379 L30.5034798,14.8371638 L30.4525319,14.8451556 L30.4045809,14.8501505 L30.354299,14.8528144 L30.3036841,14.8528144 L30.1721519,14.8424917 L30.0512755,14.8148532 L29.9400559,14.7718972 L29.838826,14.7139564 L29.747586,14.640365 L29.6670017,14.5547858 L29.5960742,14.4608818 L29.5354695,14.3549901 L29.4848546,14.2407735 L29.4445625,14.122561 L29.4165911,13.9986877 L29.3962785,13.8694865 L29.3892856,13.7406182 L29.3912836,13.609419 L29.4042703,13.4802178 L29.4269138,13.3516825 L29.464542,13.2021687 L29.510828,13.0606468 L29.5627749,12.9317785 L29.6267096,12.8105691 L29.6923092,12.6966855 L29.7678985,12.5954557 L29.8464849,12.5048816 L29.9297331,12.4213004 L30.0183092,12.347709 L30.1118802,12.2847733 L30.2081151,12.2291635 L30.3036841,12.1862074 L30.4045809,12.1505772 L30.5058108,12.1279337 L30.6073736,12.112949 L30.7109344,12.1079541 L30.7841928,12.1099521 L30.8544543,12.1179439 L30.9207199,12.1305976 L30.9819906,12.1482463 L31.0392654,12.1688918 L31.0898803,12.1908693 L31.1408282,12.2191737 L31.1861152,12.2468122 L31.2264074,12.2767815 L31.2643685,12.3100808 L31.2966689,12.3427141 L31.3273042,12.3756804 L31.3526117,12.4086467 L31.3762542,12.44128 L31.3955677,12.4719153 L31.4112184,12.5022177 L31.5880376,11.5085669 L32.2756679,11.5085669 L31.7039191,14.8148532" id="Fill-22" fill="#FFFFFF"></path>
                                <path d="M31.7039191,14.8148532 L31.0039681,14.8148532 L31.054916,14.5344732 L31.054916,14.5088328 L31.0139579,14.5597807 L30.9716678,14.6047347 L30.9287117,14.6453599 L30.8830917,14.6809901 L30.8371387,14.7139564 L30.7915187,14.7412618 L30.7458986,14.7642383 L30.6976147,14.7872148 L30.6503297,14.8048635 L30.6020457,14.8175172 L30.5540947,14.8298379 L30.5034798,14.8371638 L30.4525319,14.8451556 L30.4045809,14.8501505 L30.354299,14.8528144 L30.3036841,14.8528144 L30.1721519,14.8424917 L30.0512755,14.8148532 L29.9400559,14.7718972 L29.838826,14.7139564 L29.747586,14.640365 L29.6670017,14.5547858 L29.5960742,14.4608818 L29.5354695,14.3549901 L29.4848546,14.2407735 L29.4445625,14.122561 L29.4165911,13.9986877 L29.3962785,13.8694865 L29.3892856,13.7406182 L29.3912836,13.609419 L29.4042703,13.4802178 L29.4269138,13.3516825 L29.464542,13.2021687 L29.510828,13.0606468 L29.5627749,12.9317785 L29.6267096,12.8105691 L29.6923092,12.6966855 L29.7678985,12.5954557 L29.8464849,12.5048816 L29.9297331,12.4213004 L30.0183092,12.347709 L30.1118802,12.2847733 L30.2081151,12.2291635 L30.3036841,12.1862074 L30.4045809,12.1505772 L30.5058108,12.1279337 L30.6073736,12.112949 L30.7109344,12.1079541 L30.7841928,12.1099521 L30.8544543,12.1179439 L30.9207199,12.1305976 L30.9819906,12.1482463 L31.0392654,12.1688918 L31.0898803,12.1908693 L31.1408282,12.2191737 L31.1861152,12.2468122 L31.2264074,12.2767815 L31.2643685,12.3100808 L31.2966689,12.3427141 L31.3273042,12.3756804 L31.3526117,12.4086467 L31.3762542,12.44128 L31.3955677,12.4719153 L31.4112184,12.5022177 L31.5880376,11.5085669 L32.2756679,11.5085669 L31.7039191,14.8148532" id="Stroke-23" stroke="#FFFFFF" stroke-width="0.216"></path>
                                <path d="M30.5590896,14.2031453 L30.6300171,14.1981504 L30.6959497,14.1831658 L30.7562214,14.1655171 L30.8148282,14.1375457 L30.867441,14.1075764 L30.9183889,14.0692822 L30.9656739,14.0266591 L31.009296,13.9803731 L31.0469242,13.9300912 L31.0822214,13.8741484 L31.1151877,13.8162076 L31.1431591,13.7559359 L31.1681336,13.6923342 L31.1887792,13.6267346 L31.2064278,13.5584711 L31.2187485,13.4905406 L31.2310693,13.4199461 L31.2397271,13.3466876 L31.2397271,13.2777581 L31.2363971,13.2074966 L31.2290713,13.141564 L31.2187485,13.0782954 L31.2010999,13.0176907 L31.1811203,12.9597499 L31.1558129,12.909468 L31.1258435,12.861184 L31.0925442,12.8202259 L31.054916,12.7852616 L31.0119599,12.7549593 L30.9656739,12.7346467 L30.9183889,12.721993 L30.8651101,12.7166651 L30.7965135,12.721993 L30.7335779,12.7319828 L30.6756371,12.7522953 L30.6170304,12.7776028 L30.5664155,12.8105691 L30.5164665,12.8508612 L30.4735105,12.8938173 L30.4305544,12.9421013 L30.3922602,12.9970451 L30.3569629,13.0556519 L30.3236637,13.1162566 L30.2956923,13.1818562 L30.2710508,13.2497867 L30.2510712,13.3187162 L30.2307586,13.3916417 L30.215108,13.4649001 L30.2021213,13.5764527 L30.2081151,13.6976621 L30.2257637,13.8212025 L30.2580641,13.940081 L30.309012,14.0439747 L30.3746116,14.1272229 L30.4578598,14.1831658 L30.5590896,14.2031453" id="Fill-24" fill="#FBB231"></path>
                                <path d="M15.0366265,14.2537602 L14.9353967,14.8148532 L14.2983813,14.8148532 L14.3160299,14.7112925 L14.3290166,14.6177215 L14.3390064,14.547127 L14.3493292,14.5088328 L14.314032,14.5494579 L14.2730738,14.5900831 L14.2257888,14.6280442 L14.17251,14.6630085 L14.1119053,14.6986387 L14.0483036,14.7286081 L13.982371,14.7592434 L13.9147735,14.7845509 L13.8411821,14.8071944 L13.7679236,14.825176 L13.6949982,14.8401607 L13.6190758,14.8501505 L13.5454844,14.8554784 L13.4725589,14.8578093 L13.4016315,14.8501505 L13.3327019,14.8401607 L13.2444588,14.8175172 L13.1635416,14.7918767 L13.0926141,14.7592434 L13.0296784,14.7212822 L12.9744016,14.6809901 L12.9237867,14.6353701 L12.8834945,14.5870861 L12.8475313,14.5368042 L12.817562,14.4838583 L12.7922545,14.4279155 L12.7722749,14.3726387 L12.7572902,14.3170289 L12.7466345,14.2587551 L12.7389756,14.2004814 L12.7336477,14.1445386 L12.7336477,14.0892618 L12.7416396,13.9906959 L12.7572902,13.8971249 L12.7819317,13.8088818 L12.814898,13.7226366 L12.8555231,13.6420523 L12.9008102,13.5687939 L12.954089,13.4981994 L13.0146937,13.4345978 L13.0776294,13.376657 L13.1485569,13.3233781 L13.2214823,13.2754272 L13.2977377,13.234802 L13.378322,13.2001708 L13.4622362,13.1718664 L13.5481483,13.1492229 L13.6363914,13.1339052 L13.6417193,13.1339052 L13.6540401,13.1312412 L13.6716887,13.1289103 L13.6996601,13.1262464 L13.7302954,13.1212515 L13.7652597,13.1185875 L13.8028879,13.1135926 L13.84651,13.1085977 L13.889466,13.1039358 L13.9324221,13.0986079 L13.9780421,13.095944 L14.0183343,13.0909491 L14.0586264,13.0886182 L14.0962546,13.0856212 L14.1315519,13.0836233 L14.217797,13.0836233 L14.2790677,13.0856212 L14.3343445,13.0886182 L14.3896213,13.0886182 L14.4352414,13.0909491 L14.4708716,13.0932801 L14.4955131,13.095944 L14.5035049,13.095944 L14.5084998,13.0782954 L14.5234845,13.0330083 L14.5364712,12.9797295 L14.5411331,12.9317785 L14.5314763,12.8761687 L14.5084998,12.8252208 L14.4781974,12.7799338 L14.4375723,12.7419726 L14.3896213,12.7096723 L14.3370085,12.6866957 L14.2757378,12.6713781 L14.2101382,12.6663832 L14.1392107,12.6637192 L14.0629553,12.6613883 L13.985035,12.6613883 L13.9044507,12.6637192 L13.8212025,12.6690471 L13.7399522,12.676373 L13.659368,12.6840318 L13.5804486,12.6943546 L13.5051922,12.7040114 L13.4316008,12.7166651 L13.3660012,12.7293188 L13.3053965,12.7419726 L13.2494537,12.7576232 L13.2044997,12.7722749 L13.1688694,12.7902565 L13.140898,12.8052412 L13.3203812,12.1961972 L13.376324,12.1735537 L13.4316008,12.1532412 L13.4928715,12.1355925 L13.5531432,12.1226058 L13.6137479,12.1099521 L13.6793475,12.1002953 L13.7449471,12.0899725 L13.8132107,12.0849776 L13.8841381,12.0799827 L13.9570636,12.0773188 L14.033319,12.0746548 L14.2757378,12.0746548 L14.3643139,12.0773188 L14.452557,12.0799827 L14.5234845,12.0849776 L14.5997398,12.0976313 L14.6783262,12.11528 L14.7582445,12.1382565 L14.8364978,12.1688918 L14.9130861,12.2038561 L14.9886755,12.2468122 L15.059603,12.2947631 L15.1225387,12.3507059 L15.1784815,12.4113106 L15.2290964,12.4792412 L15.2670576,12.5551636 L15.292365,12.6364138 L15.3073497,12.721993 L15.3073497,12.8178949 L15.292365,12.9191248 L15.0366265,14.2537602" id="Fill-25" fill="#FFFFFF"></path>
                                <path d="M15.0366265,14.2537602 L14.9353967,14.8148532 L14.2983813,14.8148532 L14.3160299,14.7112925 L14.3290166,14.6177215 L14.3390064,14.547127 L14.3493292,14.5088328 L14.314032,14.5494579 L14.2730738,14.5900831 L14.2257888,14.6280442 L14.17251,14.6630085 L14.1119053,14.6986387 L14.0483036,14.7286081 L13.982371,14.7592434 L13.9147735,14.7845509 L13.8411821,14.8071944 L13.7679236,14.825176 L13.6949982,14.8401607 L13.6190758,14.8501505 L13.5454844,14.8554784 L13.4725589,14.8578093 L13.4016315,14.8501505 L13.3327019,14.8401607 L13.2444588,14.8175172 L13.1635416,14.7918767 L13.0926141,14.7592434 L13.0296784,14.7212822 L12.9744016,14.6809901 L12.9237867,14.6353701 L12.8834945,14.5870861 L12.8475313,14.5368042 L12.817562,14.4838583 L12.7922545,14.4279155 L12.7722749,14.3726387 L12.7572902,14.3170289 L12.7466345,14.2587551 L12.7389756,14.2004814 L12.7336477,14.1445386 L12.7336477,14.0892618 L12.7416396,13.9906959 L12.7572902,13.8971249 L12.7819317,13.8088818 L12.814898,13.7226366 L12.8555231,13.6420523 L12.9008102,13.5687939 L12.954089,13.4981994 L13.0146937,13.4345978 L13.0776294,13.376657 L13.1485569,13.3233781 L13.2214823,13.2754272 L13.2977377,13.234802 L13.378322,13.2001708 L13.4622362,13.1718664 L13.5481483,13.1492229 L13.6363914,13.1339052 L13.6417193,13.1339052 L13.6540401,13.1312412 L13.6716887,13.1289103 L13.6996601,13.1262464 L13.7302954,13.1212515 L13.7652597,13.1185875 L13.8028879,13.1135926 L13.84651,13.1085977 L13.889466,13.1039358 L13.9324221,13.0986079 L13.9780421,13.095944 L14.0183343,13.0909491 L14.0586264,13.0886182 L14.0962546,13.0856212 L14.1315519,13.0836233 L14.217797,13.0836233 L14.2790677,13.0856212 L14.3343445,13.0886182 L14.3896213,13.0886182 L14.4352414,13.0909491 L14.4708716,13.0932801 L14.4955131,13.095944 L14.5035049,13.095944 L14.5084998,13.0782954 L14.5234845,13.0330083 L14.5364712,12.9797295 L14.5411331,12.9317785 L14.5314763,12.8761687 L14.5084998,12.8252208 L14.4781974,12.7799338 L14.4375723,12.7419726 L14.3896213,12.7096723 L14.3370085,12.6866957 L14.2757378,12.6713781 L14.2101382,12.6663832 L14.1392107,12.6637192 L14.0629553,12.6613883 L13.985035,12.6613883 L13.9044507,12.6637192 L13.8212025,12.6690471 L13.7399522,12.676373 L13.659368,12.6840318 L13.5804486,12.6943546 L13.5051922,12.7040114 L13.4316008,12.7166651 L13.3660012,12.7293188 L13.3053965,12.7419726 L13.2494537,12.7576232 L13.2044997,12.7722749 L13.1688694,12.7902565 L13.140898,12.8052412 L13.3203812,12.1961972 L13.376324,12.1735537 L13.4316008,12.1532412 L13.4928715,12.1355925 L13.5531432,12.1226058 L13.6137479,12.1099521 L13.6793475,12.1002953 L13.7449471,12.0899725 L13.8132107,12.0849776 L13.8841381,12.0799827 L13.9570636,12.0773188 L14.033319,12.0746548 L14.2757378,12.0746548 L14.3643139,12.0773188 L14.452557,12.0799827 L14.5234845,12.0849776 L14.5997398,12.0976313 L14.6783262,12.11528 L14.7582445,12.1382565 L14.8364978,12.1688918 L14.9130861,12.2038561 L14.9886755,12.2468122 L15.059603,12.2947631 L15.1225387,12.3507059 L15.1784815,12.4113106 L15.2290964,12.4792412 L15.2670576,12.5551636 L15.292365,12.6364138 L15.3073497,12.721993 L15.3073497,12.8178949 L15.292365,12.9191248 L15.0366265,14.2537602" id="Stroke-26" stroke="#FFFFFF" stroke-width="0.216"></path>
                                <path d="M14.4279155,13.5937684 L14.4252516,13.5814476 L14.4149288,13.5687939 L14.3999441,13.5611351 L14.3746367,13.5561402 L14.3466653,13.5511453 L14.314032,13.5481483 L14.2381096,13.5481483 L14.1971515,13.5511453 L14.1541954,13.5561402 L14.1139032,13.5611351 L14.0736111,13.5664629 L14.0356499,13.5714578 L14.0000197,13.5787837 L13.9700503,13.5864425 L13.9420789,13.5937684 L13.9244303,13.5987632 L13.9044507,13.6067551 L13.8764793,13.6167449 L13.8485079,13.6293986 L13.8158746,13.6447163 L13.7829083,13.6623649 L13.7476111,13.6796805 L13.7146448,13.7003261 L13.6793475,13.7253005 L13.6467142,13.750608 L13.6164119,13.7812433 L13.5884405,13.8115457 L13.5628,13.844179 L13.5454844,13.8798092 L13.5298337,13.9201014 L13.5225079,13.9603935 L13.5201769,14.0466387 L13.5331637,14.1145692 L13.5578051,14.1655171 L13.5907714,14.2031453 L13.6287326,14.2284528 L13.6716887,14.2434375 L13.7119808,14.2510963 L13.752939,14.2537602 L13.8288613,14.2510963 L13.8971249,14.2434375 L13.9630575,14.2331147 L14.0203322,14.21813 L14.0716131,14.2004814 L14.1188981,14.1781709 L14.1618542,14.1551944 L14.2004814,14.1272229 L14.2334477,14.1019155 L14.263417,14.0716131 L14.2887245,14.0439747 L14.3090371,14.0136724 L14.3263527,13.98337 L14.3413374,13.9530677 L14.3546571,13.9250963 L14.3616499,13.8971249 L14.3822955,13.8241994 L14.3999441,13.7406182 L14.4149288,13.6600339 L14.4279155,13.5937684" id="Fill-27" fill="#EC1C2E"></path>
                                <path d="M9.71873021,14.8148532 L9.03109991,14.8148532 L9.60484664,11.4962462 L10.8009571,11.4962462 L10.9138417,13.4649001 L11.740663,11.4962462 L12.9893863,11.4962462 L12.4026528,14.8148532 L11.7153555,14.8148532 L12.1495782,12.3353883 L12.1222728,12.3353883 L11.0933248,14.8148532 L10.3174514,14.8148532 L10.3131225,14.7112925 L10.2948079,14.4355744 L10.2721644,14.0439747 L10.2212165,13.141564 L10.1985729,12.7449695 L10.1809243,12.4569307 L10.1759294,12.3353883 L10.1379682,12.3353883 L9.71873021,14.8148532" id="Fill-28" fill="#FFFFFF"></path>
                                <path d="M9.71873021,14.8148532 L9.03109991,14.8148532 L9.60484664,11.4962462 L10.8009571,11.4962462 L10.9138417,13.4649001 L11.740663,11.4962462 L12.9893863,11.4962462 L12.4026528,14.8148532 L11.7153555,14.8148532 L12.1495782,12.3353883 L12.1222728,12.3353883 L11.0933248,14.8148532 L10.3174514,14.8148532 L10.3131225,14.7112925 L10.2948079,14.4355744 L10.2721644,14.0439747 L10.2212165,13.141564 L10.1985729,12.7449695 L10.1809243,12.4569307 L10.1759294,12.3353883 L10.1379682,12.3353883 L9.71873021,14.8148532" id="Stroke-29" stroke="#FFFFFF" stroke-width="0.216"></path>
                                <path d="M27.5818003,14.2537602 L27.4785725,14.8148532 L26.8435551,14.8148532 L26.8488829,14.7112925 L26.8515469,14.6203854 L26.8515469,14.5521219 L26.8565418,14.5218195 L26.8235755,14.5597807 L26.7852813,14.5974089 L26.7396613,14.6327061 L26.6893794,14.6686694 L26.6361005,14.7009697 L26.5758288,14.731272 L26.5125601,14.7619074 L26.4496245,14.7872148 L26.380695,14.8071944 L26.3104335,14.827174 L26.239506,14.8401607 L26.1692445,14.8501505 L26.0949871,14.8554784 L26.0247256,14.8578093 L25.955796,14.8501505 L25.8881985,14.8401607 L25.7972914,14.8175172 L25.7167072,14.7918767 L25.6457797,14.7592434 L25.5798471,14.7212822 L25.5239043,14.6809901 L25.4759533,14.6353701 L25.4356612,14.5870861 L25.3996979,14.5368042 L25.3700616,14.4838583 L25.3470851,14.4279155 L25.3271055,14.3726387 L25.3144518,14.3170289 L25.304129,14.2587551 L25.2964701,14.2004814 L25.2911423,14.1445386 L25.2911423,14.0892618 L25.2964701,13.9906959 L25.3121208,13.8971249 L25.3347643,13.8088818 L25.3673976,13.7226366 L25.4050258,13.6420523 L25.4536428,13.5687939 L25.5065886,13.4981994 L25.5641964,13.4345978 L25.630795,13.376657 L25.6983925,13.3233781 L25.771984,13.2754272 L25.8499043,13.234802 L25.9284906,13.2001708 L26.0117388,13.1718664 L26.0949871,13.1492229 L26.1808992,13.1339052 L26.1862271,13.1339052 L26.1992138,13.1312412 L26.2168625,13.1289103 L26.2421699,13.1262464 L26.2744702,13.1212515 L26.3104335,13.1185875 L26.3480617,13.1135926 L26.3883538,13.1085977 L26.4313099,13.1039358 L26.4769299,13.0986079 L26.519886,13.095944 L26.5631751,13.0909491 L26.6038002,13.0886182 L26.6387644,13.0856212 L26.6740617,13.0836233 L26.7623048,13.0836233 L26.8235755,13.0856212 L26.8815163,13.0886182 L26.9374591,13.0886182 L26.984744,13.0909491 L27.0257022,13.0932801 L27.0486787,13.095944 L27.0590015,13.095944 L27.0633304,13.0782954 L27.0713222,13.0330083 L27.078315,12.9797295 L27.0836429,12.9317785 L27.0733202,12.8761687 L27.0536736,12.8252208 L27.0207073,12.7799338 L26.9820801,12.7419726 L26.9374591,12.7096723 L26.8838472,12.6866957 L26.8279044,12.6713781 L26.7676327,12.6663832 L26.6967052,12.6637192 L26.6211158,12.6613883 L26.5425295,12.6613883 L26.4619452,12.6637192 L26.378031,12.6690471 L26.2974467,12.676373 L26.2168625,12.6840318 L26.1379432,12.6943546 L26.0626868,12.7040114 L25.9890953,12.7166651 L25.9241617,12.7293188 L25.862891,12.7419726 L25.8069482,12.7576232 L25.7613282,12.7722749 L25.726364,12.7902565 L25.6983925,12.8052412 L25.8758778,12.1961972 L25.9311546,12.1735537 L25.9890953,12.1532412 L26.0470361,12.1355925 L26.1079738,12.1226058 L26.1712424,12.1099521 L26.2341781,12.1002953 L26.2997777,12.0899725 L26.3683742,12.0849776 L26.4389687,12.0799827 L26.5125601,12.0773188 L26.5854856,12.0746548 L26.8235755,12.0746548 L26.9094877,12.0773188 L26.9950668,12.0799827 L27.0659943,12.0849776 L27.1422497,12.0976313 L27.22017,12.11528 L27.3014203,12.1382565 L27.3796736,12.1688918 L27.4575939,12.2038561 L27.5338493,12.2468122 L27.6047768,12.2947631 L27.6677124,12.3507059 L27.7263192,12.4113106 L27.7762681,12.4792412 L27.8138963,12.5551636 L27.8418677,12.6364138 L27.8595163,12.721993 L27.8595163,12.8178949 L27.8471956,12.9191248 L27.5818003,14.2537602" id="Fill-30" fill="#FFFFFF"></path>
                                <path id="Fill-31" fill="#FFFFFF" d="M27.4785725,14.8328349 L27.4935572,14.8175172 L27.596785,14.2560912 L27.5661496,14.2510963 L27.4629218,14.8125223 L27.4785725,14.7968716 L27.4785725,14.8328349 L27.4908932,14.8298379 L27.4935572,14.8175172 L27.4785725,14.8328349"></path>
                                <path id="Fill-32" fill="#FFFFFF" d="M26.8279044,14.8148532 L26.8435551,14.8328349 L27.4785725,14.8328349 L27.4785725,14.7968716 L26.8435551,14.7968716 L26.8585397,14.8148532 L26.8279044,14.8148532 L26.8262394,14.8328349 L26.8435551,14.8328349 L26.8279044,14.8148532"></path>
                                <path id="Fill-33" fill="#FFFFFF" d="M26.8691955,14.5314763 L26.846219,14.5114967 L26.8358962,14.5521219 L26.8332323,14.6203854 L26.8332323,14.7112925 L26.8279044,14.8148532 L26.8585397,14.8148532 L26.8638676,14.7112925 L26.8691955,14.6203854 L26.8658656,14.5521219 L26.8658656,14.5314763 L26.8435551,14.5114967 L26.8691955,14.5314763"></path>
                                <path id="Fill-34" fill="#FFFFFF" d="M25.8855345,14.8554784 L25.8855345,14.8554784 L25.955796,14.8654682 L26.0247256,14.872794 L26.0949871,14.8707961 L26.1692445,14.8654682 L26.2421699,14.8554784 L26.3130974,14.8424917 L26.3833589,14.8228451 L26.4539534,14.8021995 L26.517222,14.7768921 L26.5828216,14.7469227 L26.6434263,14.7166203 L26.6967052,14.6809901 L26.7499841,14.6453599 L26.7956041,14.6103956 L26.8358962,14.5694375 L26.8691955,14.5314763 L26.8435551,14.5114967 L26.8105888,14.5494579 L26.7752915,14.5847552 L26.7300045,14.6203854 L26.6817205,14.6556827 L26.6284417,14.685985 L26.567837,14.7166203 L26.5075652,14.7469227 L26.4442966,14.7718972 L26.378031,14.7918767 L26.3077695,14.8125223 L26.236842,14.825176 L26.1692445,14.8348328 L26.0949871,14.8401607 L26.0247256,14.8424917 L25.955796,14.8348328 L25.8901964,14.825176 L25.8855345,14.8554784"></path>
                                <path d="M25.2734936,14.0892618 L25.2734936,14.0892618 L25.2761576,14.1445386 L25.2814855,14.2004814 L25.2884783,14.2614191 L25.2991341,14.3193598 L25.3121208,14.3749697 L25.3321004,14.4332434 L25.3550769,14.4911842 L25.3873772,14.544463 L25.4233404,14.5974089 L25.4636326,14.6453599 L25.5142475,14.6936438 L25.5721882,14.733936 L25.6377878,14.7745611 L25.7113793,14.8071944 L25.7939615,14.8328349 L25.8855345,14.8554784 L25.8901964,14.825176 L25.7999554,14.8021995 L25.721702,14.7768921 L25.6527725,14.7442588 L25.5871729,14.7086285 L25.5338941,14.6686694 L25.488274,14.6250473 L25.4479819,14.5770963 L25.4126847,14.5291454 L25.3853792,14.4761995 L25.3620697,14.4232536 L25.3420902,14.3703078 L25.3294364,14.3143649 L25.3191137,14.2560912 L25.3121208,14.2004814 L25.3067929,14.1445386 L25.3094569,14.0892618 L25.2734936,14.0892618" id="Fill-35" fill="#FFFFFF"></path>
                                <path d="M26.1808992,13.1185875 L26.1808992,13.1185875 L26.0929891,13.1339052 L26.0074099,13.1568817 L25.9241617,13.1845201 L25.8429115,13.2198173 L25.7639921,13.2601095 L25.6880698,13.3110574 L25.6204722,13.3643363 L25.5545396,13.424608 L25.4936019,13.4878766 L25.4406561,13.5584711 L25.3900411,13.6343935 L25.3524129,13.7179747 L25.3191137,13.8038869 L25.2964701,13.8947939 L25.2814855,13.9906959 L25.2734936,14.0892618 L25.3094569,14.0892618 L25.3121208,13.9906959 L25.3271055,13.8997888 L25.349749,13.8138766 L25.3823823,13.7279645 L25.4206765,13.6493782 L25.4662965,13.5787837 L25.5195754,13.5078562 L25.5748522,13.4449205 L25.6397858,13.3893107 L25.7087153,13.3360319 L25.7789768,13.2907448 L25.8575631,13.2497867 L25.9331525,13.2148225 L26.0170667,13.187184 L26.097651,13.1642075 L26.1808992,13.1492229 L26.1808992,13.1185875" id="Fill-36" fill="#FFFFFF"></path>
                                <path id="Fill-37" fill="#FFFFFF" d="M26.7020331,13.0656416 L26.6740617,13.0656416 L26.6387644,13.0709695 L26.6038002,13.0739665 L26.5631751,13.0759644 L26.519886,13.0806263 L26.4769299,13.0836233 L26.4313099,13.0886182 L26.3883538,13.0932801 L26.3480617,13.0986079 L26.3104335,13.1039358 L26.2744702,13.1059338 L26.2421699,13.1112617 L26.2168625,13.1135926 L26.1965499,13.1162566 L26.1862271,13.1185875 L26.1808992,13.1185875 L26.1808992,13.1492229 L26.1862271,13.1492229 L26.2018778,13.1465589 L26.2168625,13.144228 L26.2421699,13.141564 L26.2744702,13.1365691 L26.3104335,13.1339052 L26.3480617,13.1289103 L26.3883538,13.1235824 L26.4313099,13.1185875 L26.4769299,13.1135926 L26.519886,13.1112617 L26.5631751,13.1059338 L26.6038002,13.1039358 L26.6387644,13.1009389 L26.7020331,13.1009389 L26.7020331,13.0656416"></path>
                                <path id="Fill-38" fill="#FFFFFF" d="M27.0433508,13.0932801 L27.0590015,13.0806263 L27.0486787,13.0806263 L27.0257022,13.0782954 L26.984744,13.0759644 L26.9374591,13.0709695 L26.8235755,13.0709695 L26.7623048,13.0656416 L26.7020331,13.0656416 L26.7020331,13.1009389 L26.8235755,13.1009389 L26.8815163,13.1059338 L26.984744,13.1059338 L27.0257022,13.1085977 L27.0486787,13.1112617 L27.0590015,13.1112617 L27.0733202,13.0986079 L27.0590015,13.1112617 L27.0713222,13.1135926 L27.0733202,13.0986079 L27.0433508,13.0932801"></path>
                                <path id="Fill-39" fill="#FFFFFF" d="M27.0686583,12.9317785 L27.0659943,12.9317785 L27.0633304,12.9797295 L27.0556715,13.0303444 L27.0486787,13.0759644 L27.0433508,13.0932801 L27.0733202,13.0986079 L27.078315,13.0806263 L27.0863069,13.0350063 L27.0939657,12.9797295 L27.1019575,12.9317785 L27.0686583,12.9317785"></path>
                                <path id="Fill-40" fill="#FFFFFF" d="M26.7676327,12.6813679 L26.7676327,12.6840318 L26.8262394,12.6866957 L26.8788523,12.7016804 L26.9294672,12.7243239 L26.9724233,12.7549593 L27.0077206,12.7902565 L27.0380229,12.8332126 L27.0590015,12.8784996 L27.0686583,12.9317785 L27.0986276,12.9317785 L27.0889708,12.8738377 L27.0686583,12.8178949 L27.033028,12.770277 L26.9927359,12.7293188 L26.9444519,12.6943546 L26.8885091,12.6713781 L26.8305683,12.6563934 L26.7676327,12.6487346 L26.7676327,12.6813679"></path>
                                <path id="Fill-41" fill="#FFFFFF" d="M25.6834079,12.8029103 L25.7087153,12.8178949 L25.7340228,12.8052412 L25.7666561,12.7875926 L25.8096122,12.7722749 L25.865555,12.7576232 L25.9258267,12.7449695 L25.9917593,12.7319828 L26.0650177,12.7193291 L26.1379432,12.7096723 L26.2168625,12.6990165 L26.2974467,12.6913576 L26.378031,12.6840318 L26.4619452,12.6790369 L26.6967052,12.6790369 L26.7676327,12.6813679 L26.7676327,12.6510655 L26.6967052,12.6487346 L26.6211158,12.6434067 L26.5425295,12.6434067 L26.4619452,12.6487346 L26.378031,12.6537295 L26.2974467,12.6613883 L26.2168625,12.6690471 L26.1379432,12.6790369 L26.0600228,12.6886937 L25.9864314,12.7016804 L25.9208318,12.7146672 L25.8602271,12.7273209 L25.8049503,12.7419726 L25.7569993,12.7576232 L25.7183721,12.7749389 L25.6880698,12.7925875 L25.7140432,12.8079052 L25.6834079,12.8029103"></path>
                                <path id="Fill-42" fill="#FFFFFF" d="M25.8705499,12.1808796 L25.8602271,12.1938663 L25.6834079,12.8029103 L25.7140432,12.8079052 L25.8901964,12.1985282 L25.8805397,12.2115149 L25.8705499,12.1808796 L25.862891,12.1835435 L25.8602271,12.1938663 L25.8705499,12.1808796"></path>
                                <path id="Fill-43" fill="#FFFFFF" d="M26.9950668,12.064998 L26.9950668,12.064998 L26.9094877,12.0600031 L26.8235755,12.0570062 L26.5854856,12.0570062 L26.5125601,12.0623341 L26.4389687,12.064998 L26.3683742,12.0703259 L26.2997777,12.0746548 L26.2315141,12.0849776 L26.1692445,12.0949674 L26.1056428,12.1079541 L26.0443722,12.1206079 L25.9837674,12.1382565 L25.9258267,12.158236 L25.8705499,12.1808796 L25.8805397,12.2115149 L25.9364825,12.1888714 L25.9944232,12.1688918 L26.0497,12.1505772 L26.1106377,12.1382565 L26.1739064,12.1252698 L26.236842,12.11528 L26.2997777,12.1049572 L26.3683742,12.1002953 L26.4389687,12.0949674 L26.5125601,12.0926364 L26.8235755,12.0926364 L26.9094877,12.0949674 L26.9950668,12.0949674 L26.9950668,12.064998"></path>
                                <path d="M27.8621803,12.9217887 L27.8621803,12.9217887 L27.875167,12.8178949 L27.875167,12.721993 L27.8575184,12.6334169 L27.829547,12.5501687 L27.7892548,12.4719153 L27.7386399,12.4009879 L27.6773692,12.3380522 L27.6144336,12.2821094 L27.5415081,12.2338254 L27.4655858,12.1888714 L27.3846685,12.1532412 L27.3060822,12.1226058 L27.222834,12.1002953 L27.1442476,12.0826467 L27.0659943,12.0703259 L26.9950668,12.064998 L26.9950668,12.0949674 L27.0659943,12.1002953 L27.1389197,12.112949 L27.2175061,12.1305976 L27.2964254,12.1532412 L27.3743457,12.1835435 L27.4499351,12.2191737 L27.5258575,12.2594659 L27.594121,12.3074169 L27.6573897,12.3630267 L27.7126665,12.4213004 L27.7632814,12.486567 L27.7989116,12.5604914 L27.826883,12.6387448 L27.8445317,12.721993 L27.8445317,12.8178949 L27.8315449,12.9167938 L27.8621803,12.9217887" id="Fill-44" fill="#FFFFFF"></path>
                                <path id="Fill-45" fill="#FFFFFF" d="M27.596785,14.2560912 L27.596785,14.2560912 L27.8621803,12.9217887 L27.8315449,12.9167938 L27.5661496,14.2510963 L27.596785,14.2560912"></path>
                                <path d="M26.9697594,13.5937684 L26.9647645,13.5787837 L26.9547747,13.5664629 L26.9374591,13.5584711 L26.9111526,13.5511453 L26.8838472,13.5481483 L26.8515469,13.5458174 L26.8129197,13.5458174 L26.7752915,13.5481483 L26.7343334,13.5534762 L26.6947072,13.5584711 L26.6544151,13.563799 L26.6161209,13.5687939 L26.5781597,13.5764527 L26.5451934,13.5814476 L26.5125601,13.5891065 L26.4872527,13.5937684 L26.4696041,13.5964323 L26.4496245,13.6040911 L26.424317,13.61175 L26.3963456,13.6217398 L26.3630463,13.6367244 L26.332411,13.6523751 L26.2974467,13.6700237 L26.2648134,13.6923342 L26.2315141,13.7153108 L26.1992138,13.7429492 L26.1712424,13.7705876 L26.143271,13.8038869 L26.1209605,13.8391841 L26.1029789,13.8768123 L26.0879942,13.9174374 L26.0800024,13.9603935 L26.0776714,14.0466387 L26.0899922,14.1145692 L26.1106377,14.1655171 L26.1406071,14.2031453 L26.1782353,14.2284528 L26.2218574,14.2434375 L26.2648134,14.2510963 L26.3077695,14.2537602 L26.3833589,14.2510963 L26.4539534,14.2434375 L26.519886,14.2307837 L26.5781597,14.2134681 L26.6334366,14.1931555 L26.6817205,14.170512 L26.7273405,14.1445386 L26.7676327,14.1145692 L26.8032629,14.0869308 L26.8332323,14.0542975 L26.8612037,14.0236622 L26.8838472,13.9906959 L26.9014958,13.9603935 L26.9138166,13.9300912 L26.9241393,13.8997888 L26.9321312,13.8721504 L26.941788,13.8012229 L26.9547747,13.7279645 L26.9647645,13.65737 L26.9697594,13.5937684" id="Fill-46" fill="#FBB231"></path>
                                <path id="Fill-47" fill="#FFFFFF" d="M32.176769,14.4688736 L32.1820969,14.4102669 L32.2020765,14.3420034 L32.2380397,14.2813987 L32.2806628,14.2284528 L32.3336087,14.1858297 L32.3938804,14.1551944 L32.459813,14.1345488 L32.5304075,14.1272229 L32.6020009,14.1345488 L32.6672675,14.1551944 L32.7282052,14.1858297 L32.7808181,14.2284528 L32.8237742,14.2813987 L32.8590714,14.3420034 L32.879717,14.4102669 L32.8850449,14.4688736 L32.8087895,14.4688736 L32.8064586,14.4232536 L32.7914739,14.3673108 L32.7658334,14.3170289 L32.7328671,14.2737398 L32.692575,14.2384426 L32.644957,14.2134681 L32.5890142,14.1954865 L32.5304075,14.1904916 L32.4727997,14.1954865 L32.4175229,14.2134681 L32.3685729,14.2384426 L32.3282808,14.2737398 L32.2956475,14.3170289 L32.27034,14.3673108 L32.2553554,14.4232536 L32.2503605,14.4688736 L32.176769,14.4688736"></path>
                                <path id="Fill-48" fill="#FFFFFF" d="M32.4045362,14.4688736 L32.4045362,14.3170289 L32.5433942,14.3170289 L32.5740295,14.3193598 L32.6020009,14.3243547 L32.6216475,14.3320136 L32.6399621,14.3420034 L32.6522829,14.357321 L32.6619397,14.3726387 L32.6672675,14.3899543 L32.6695985,14.4079359 L32.6672675,14.4305795 L32.6619397,14.4482281 L32.6546138,14.4635458 L32.6496189,14.4688736 L32.5433942,14.4688736 L32.553384,14.4658767 L32.5706996,14.4635458 L32.5863503,14.4585509 L32.59967,14.453556 L32.6093268,14.4458971 L32.6143217,14.4379053 L32.6196496,14.4259176 L32.6196496,14.4079359 L32.6163196,14.3952822 L32.6119907,14.3849594 L32.6033329,14.3802975 L32.5963401,14.3749697 L32.5840193,14.3726387 L32.5706996,14.3703078 L32.4674718,14.3703078 L32.4674718,14.4688736 L32.4045362,14.4688736"></path>
                                <path id="Fill-49" fill="#FFFFFF" d="M32.176769,14.4688736 L32.1747711,14.4838583 L32.1820969,14.5571168 L32.2020765,14.6250473 L32.2380397,14.685985 L32.2806628,14.7365999 L32.3336087,14.779223 L32.3938804,14.8125223 L32.459813,14.8328349 L32.5304075,14.8401607 L32.6020009,14.8328349 L32.6672675,14.8125223 L32.7282052,14.779223 L32.7808181,14.7365999 L32.8237742,14.685985 L32.8590714,14.6250473 L32.879717,14.5571168 L32.8877088,14.4838583 L32.8850449,14.4688736 L32.8087895,14.4688736 L32.8114535,14.4838583 L32.8064586,14.544463 L32.7914739,14.6000728 L32.7658334,14.6483568 L32.7328671,14.6906469 L32.692575,14.7266101 L32.644957,14.7539155 L32.5890142,14.7718972 L32.5304075,14.7768921 L32.4727997,14.7718972 L32.4175229,14.7539155 L32.3685729,14.7266101 L32.3282808,14.6906469 L32.2956475,14.6483568 L32.27034,14.6000728 L32.2553554,14.544463 L32.2503605,14.4838583 L32.2503605,14.4688736 L32.176769,14.4688736"></path>
                                <path id="Fill-50" fill="#FFFFFF" d="M32.4045362,14.4688736 L32.4045362,14.6230493 L32.4674718,14.6230493 L32.4674718,14.4965121 L32.5304075,14.4965121 L32.6066628,14.6230493 L32.6566118,14.6230493 L32.5813554,14.4965121 L32.59967,14.4965121 L32.6163196,14.4911842 L32.6319703,14.4861893 L32.644957,14.4761995 L32.6496189,14.4688736 L32.5433942,14.4688736 L32.5304075,14.4712046 L32.4674718,14.4712046 L32.4674718,14.4688736 L32.4045362,14.4688736"></path>
                                <path d="M32.1747711,14.4838583 L32.1747711,14.4838583 L32.1820969,14.4102669 L32.2020765,14.3420034 L32.2380397,14.2813987 L32.2806628,14.2284528 L32.3336087,14.1858297 L32.3938804,14.1551944 L32.459813,14.1345488 L32.5304075,14.1272229 L32.6020009,14.1345488 L32.6672675,14.1551944 L32.7282052,14.1858297 L32.7808181,14.2284528 L32.8237742,14.2813987 L32.8590714,14.3420034 L32.879717,14.4102669 L32.8877088,14.4838583 L32.879717,14.5571168 L32.8590714,14.6250473 L32.8237742,14.685985 L32.7808181,14.7365999 L32.7282052,14.779223 L32.6672675,14.8125223 L32.6020009,14.8328349 L32.5304075,14.8401607 L32.459813,14.8328349 L32.3938804,14.8125223 L32.3336087,14.779223 L32.2806628,14.7365999 L32.2380397,14.685985 L32.2020765,14.6250473 L32.1820969,14.5571168 L32.1747711,14.4838583 M32.4674718,14.6230493 L32.4045362,14.6230493 L32.4045362,14.3170289 L32.5433942,14.3170289 L32.5740295,14.3193598 L32.6020009,14.3243547 L32.6216475,14.3320136 L32.6399621,14.3420034 L32.6522829,14.357321 L32.6619397,14.3726387 L32.6672675,14.3899543 L32.6695985,14.4079359 L32.6672675,14.4305795 L32.6619397,14.4482281 L32.6546138,14.4635458 L32.644957,14.4761995 L32.6319703,14.4861893 L32.6163196,14.4911842 L32.59967,14.4965121 L32.5813554,14.4965121 L32.6566118,14.6230493 L32.6066628,14.6230493 L32.5304075,14.4965121 L32.4674718,14.4965121 L32.4674718,14.6230493 M32.5304075,14.4712046 L32.5304075,14.4712046 L32.553384,14.4658767 L32.5706996,14.4635458 L32.5863503,14.4585509 L32.59967,14.453556 L32.6093268,14.4458971 L32.6143217,14.4379053 L32.6196496,14.4259176 L32.6196496,14.4079359 L32.6163196,14.3952822 L32.6119907,14.3849594 L32.6033329,14.3802975 L32.5963401,14.3749697 L32.5840193,14.3726387 L32.5706996,14.3703078 L32.4674718,14.3703078 L32.4674718,14.4712046 L32.5304075,14.4712046 M32.5304075,14.7768921 L32.5304075,14.7768921 L32.5890142,14.7718972 L32.644957,14.7539155 L32.692575,14.7266101 L32.7328671,14.6906469 L32.7658334,14.6483568 L32.7914739,14.6000728 L32.8064586,14.544463 L32.8114535,14.4838583 L32.8064586,14.4232536 L32.7914739,14.3673108 L32.7658334,14.3170289 L32.7328671,14.2737398 L32.692575,14.2384426 L32.644957,14.2134681 L32.5890142,14.1954865 L32.5304075,14.1904916 L32.4727997,14.1954865 L32.4175229,14.2134681 L32.3685729,14.2384426 L32.3282808,14.2737398 L32.2956475,14.3170289 L32.27034,14.3673108 L32.2553554,14.4232536 L32.2503605,14.4838583 L32.2553554,14.544463 L32.27034,14.6000728 L32.2956475,14.6483568 L32.3282808,14.6906469 L32.3685729,14.7266101 L32.4175229,14.7539155 L32.4727997,14.7718972 L32.5304075,14.7768921" id="Stroke-51" stroke="#FFFFFF" stroke-width="0.216"></path>
                                <path d="M27.7709402,14.8148532 L28.483878,14.8148532 L28.7396165,13.376657 L28.7492733,13.3213802 L28.764258,13.2654374 L28.7799087,13.2098276 L28.7998882,13.1542178 L28.8251957,13.0986079 L28.8551651,13.0453291 L28.8884643,12.9950472 L28.9294225,12.9467632 L28.9743765,12.9041401 L29.0249914,12.863515 L29.0829322,12.8252208 L29.1485318,12.7949184 L29.2221232,12.770277 L29.3027075,12.7499644 L29.3912836,12.7346467 L29.4901825,12.7293188 L29.5531181,12.7293188 L29.6670017,12.0799827 L29.5960742,12.0849776 L29.5278107,12.0926364 L29.464542,12.1049572 L29.4042703,12.1226058 L29.3483275,12.1429184 L29.2957146,12.1688918 L29.2447667,12.1961972 L29.1974817,12.2264996 L29.1511957,12.2621298 L29.1082396,12.2974271 L29.0679475,12.3380522 L29.0276554,12.3780113 L28.9893612,12.4213004 L28.952066,12.4689184 L28.9137718,12.5145384 L28.8781416,12.5651533 L28.9540639,12.1079541 L28.2437901,12.1079541 L27.7709402,14.8148532" id="Fill-52" fill="#FFFFFF"></path>
                                <path d="M27.7709402,14.8148532 L28.483878,14.8148532 L28.7396165,13.376657 L28.7492733,13.3213802 L28.764258,13.2654374 L28.7799087,13.2098276 L28.7998882,13.1542178 L28.8251957,13.0986079 L28.8551651,13.0453291 L28.8884643,12.9950472 L28.9294225,12.9467632 L28.9743765,12.9041401 L29.0249914,12.863515 L29.0829322,12.8252208 L29.1485318,12.7949184 L29.2221232,12.770277 L29.3027075,12.7499644 L29.3912836,12.7346467 L29.4901825,12.7293188 L29.5531181,12.7293188 L29.6670017,12.0799827 L29.5960742,12.0849776 L29.5278107,12.0926364 L29.464542,12.1049572 L29.4042703,12.1226058 L29.3483275,12.1429184 L29.2957146,12.1688918 L29.2447667,12.1961972 L29.1974817,12.2264996 L29.1511957,12.2621298 L29.1082396,12.2974271 L29.0679475,12.3380522 L29.0276554,12.3780113 L28.9893612,12.4213004 L28.952066,12.4689184 L28.9137718,12.5145384 L28.8781416,12.5651533 L28.9540639,12.1079541 L28.2437901,12.1079541 L27.7709402,14.8148532" id="Stroke-53" stroke="#FFFFFF" stroke-width="0.216"></path>
                                <path d="M21.0781163,14.8148532 L21.8033748,14.8148532 L22.0457936,13.376657 L22.0561164,13.3213802 L22.0684372,13.2681013 L22.0817569,13.2148225 L22.0990725,13.1642075 L22.1193851,13.1135926 L22.1446925,13.0656416 L22.1746619,13.0203546 L22.2102921,12.9773985 L22.2505843,12.9387714 L22.2962043,12.9014762 L22.3514811,12.8708408 L22.4127518,12.8432024 L22.4836793,12.8202259 L22.5615996,12.8005793 L22.6475118,12.7875926 L22.7464107,12.7799338 L22.7534035,12.7799338 L22.7637263,12.7825977 L22.776047,12.7852616 L22.7893667,12.7852616 L22.8023535,12.7875926 L22.8120103,12.7902565 L22.8190031,12.7925875 L22.8216671,12.7925875 L22.824997,12.7825977 L22.8319898,12.7522953 L22.8419796,12.7070083 L22.8549663,12.6510655 L22.872615,12.5854659 L22.8899306,12.5145384 L22.9135731,12.4439439 L22.9355506,12.3726835 L22.9561962,12.3250655 L22.9818366,12.2767815 L23.0064781,12.2291635 L23.0317856,12.1862074 L23.0544291,12.1482463 L23.0720777,12.1179439 L23.0843984,12.1002953 L23.0897263,12.0926364 L23.0870624,12.0926364 L23.0774056,12.0899725 L23.0644189,12.0873086 L23.0467702,12.0849776 L23.0291216,12.0849776 L23.009142,12.0826467 L22.9914934,12.0799827 L22.9738448,12.0799827 L22.8952585,12.0849776 L22.824997,12.0926364 L22.7587314,12.1049572 L22.6981267,12.1206079 L22.6395199,12.1405874 L22.5869071,12.1662279 L22.5389561,12.1908693 L22.4933361,12.2211717 L22.45038,12.254471 L22.4100879,12.2924322 L22.3724597,12.3303934 L22.3338325,12.3726835 L22.2962043,12.4163055 L22.2605741,12.4645895 L22.2226129,12.5145384 L22.1849847,12.5651533 L22.2762247,12.1079541 L21.5509662,12.1079541 L21.0781163,14.8148532" id="Fill-54" fill="#FFFFFF"></path>
                                <path d="M21.0781163,14.8148532 L21.8033748,14.8148532 L22.0457936,13.376657 L22.0561164,13.3213802 L22.0684372,13.2681013 L22.0817569,13.2148225 L22.0990725,13.1642075 L22.1193851,13.1135926 L22.1446925,13.0656416 L22.1746619,13.0203546 L22.2102921,12.9773985 L22.2505843,12.9387714 L22.2962043,12.9014762 L22.3514811,12.8708408 L22.4127518,12.8432024 L22.4836793,12.8202259 L22.5615996,12.8005793 L22.6475118,12.7875926 L22.7464107,12.7799338 L22.7534035,12.7799338 L22.7637263,12.7825977 L22.776047,12.7852616 L22.7893667,12.7852616 L22.8023535,12.7875926 L22.8120103,12.7902565 L22.8190031,12.7925875 L22.8216671,12.7925875 L22.824997,12.7825977 L22.8319898,12.7522953 L22.8419796,12.7070083 L22.8549663,12.6510655 L22.872615,12.5854659 L22.8899306,12.5145384 L22.9135731,12.4439439 L22.9355506,12.3726835 L22.9561962,12.3250655 L22.9818366,12.2767815 L23.0064781,12.2291635 L23.0317856,12.1862074 L23.0544291,12.1482463 L23.0720777,12.1179439 L23.0843984,12.1002953 L23.0897263,12.0926364 L23.0870624,12.0926364 L23.0774056,12.0899725 L23.0644189,12.0873086 L23.0467702,12.0849776 L23.0291216,12.0849776 L23.009142,12.0826467 L22.9914934,12.0799827 L22.9738448,12.0799827 L22.8952585,12.0849776 L22.824997,12.0926364 L22.7587314,12.1049572 L22.6981267,12.1206079 L22.6395199,12.1405874 L22.5869071,12.1662279 L22.5389561,12.1908693 L22.4933361,12.2211717 L22.45038,12.254471 L22.4100879,12.2924322 L22.3724597,12.3303934 L22.3338325,12.3726835 L22.2962043,12.4163055 L22.2605741,12.4645895 L22.2226129,12.5145384 L22.1849847,12.5651533 L22.2762247,12.1079541 L21.5509662,12.1079541 L21.0781163,14.8148532" id="Stroke-55" stroke="#FFFFFF" stroke-width="0.216"></path>
                                <path id="Fill-56" fill="#FBB231" d="M32.1820969,17.4741344 L32.1820969,17.4638116 L32.2020765,17.398212 L32.2380397,17.3399383 L32.2806628,17.2896563 L32.3336087,17.2490312 L32.3938804,17.2183959 L32.459813,17.2010802 L32.5304075,17.1934214 L32.6020009,17.2010802 L32.6672675,17.2183959 L32.7282052,17.2490312 L32.7808181,17.2896563 L32.8237742,17.3399383 L32.8590714,17.398212 L32.879717,17.4638116 L32.879717,17.4741344 L32.8064586,17.4741344 L32.7914739,17.4211885 L32.7658334,17.3729046 L32.7328671,17.3296155 L32.692575,17.2946512 L32.644957,17.2666798 L32.5890142,17.2490312 L32.5304075,17.2440363 L32.4727997,17.2490312 L32.4175229,17.2666798 L32.3685729,17.2946512 L32.3282808,17.3296155 L32.2956475,17.3729046 L32.27034,17.4211885 L32.2553554,17.4741344 L32.1820969,17.4741344"></path>
                                <path id="Fill-57" fill="#FBB231" d="M32.4045362,17.4741344 L32.4045362,17.3858913 L32.5740295,17.3858913 L32.6020009,17.3908862 L32.6216475,17.3952151 L32.6399621,17.4055379 L32.6522829,17.4185246 L32.6619397,17.4338423 L32.6672675,17.4511579 L32.6695985,17.4741344 L32.6196496,17.4741344 L32.6196496,17.4614807 L32.6163196,17.4484939 L32.6119907,17.4385042 L32.6033329,17.4338423 L32.5963401,17.4285144 L32.5840193,17.4258504 L32.5706996,17.4235195 L32.4674718,17.4235195 L32.4674718,17.4741344 L32.4045362,17.4741344"></path>
                                <path id="Fill-58" fill="#FBB231" d="M32.1747711,17.5294112 L32.1820969,17.4741344 L32.2553554,17.4741344 L32.2553554,17.4761323 L32.2503605,17.5294112 L32.1747711,17.5294112"></path>
                                <path id="Fill-59" fill="#FBB231" d="M32.4045362,17.5294112 L32.4045362,17.4741344 L32.4674718,17.4741344 L32.4674718,17.5244163 L32.5304075,17.5244163 L32.553384,17.5197544 L32.5706996,17.5170905 L32.5863503,17.5117626 L32.59967,17.5067677 L32.6093268,17.4994418 L32.6143217,17.49145 L32.6196496,17.4794623 L32.6196496,17.4741344 L32.6695985,17.4741344 L32.6672675,17.49145 L32.6619397,17.5067677 L32.6546138,17.5197544 L32.644957,17.5294112 L32.4045362,17.5294112"></path>
                                <path id="Fill-60" fill="#FBB231" d="M32.8114535,17.5294112 L32.8064586,17.4761323 L32.8064586,17.4741344 L32.879717,17.4741344 L32.8877088,17.5294112 L32.8114535,17.5294112"></path>
                                <path id="Fill-61" fill="#FBB231" d="M32.1747711,17.5294112 L32.1747711,17.53707 L32.1820969,17.6103285 L32.2020765,17.678592 L32.2380397,17.7395297 L32.2806628,17.7924756 L32.3336087,17.8354317 L32.3938804,17.865401 L32.459813,17.8860466 L32.5304075,17.8933724 L32.6020009,17.8860466 L32.6672675,17.865401 L32.7282052,17.8354317 L32.7808181,17.7924756 L32.8237742,17.7395297 L32.8590714,17.678592 L32.879717,17.6103285 L32.8877088,17.53707 L32.8877088,17.5294112 L32.8114535,17.5294112 L32.8114535,17.53707 L32.8064586,17.5980077 L32.7914739,17.6536176 L32.7658334,17.7012355 L32.7328671,17.7438586 L32.692575,17.7801548 L32.644957,17.8074603 L32.5890142,17.8254419 L32.5304075,17.8304368 L32.4727997,17.8254419 L32.4175229,17.8074603 L32.3685729,17.7801548 L32.3282808,17.7438586 L32.2956475,17.7012355 L32.27034,17.6536176 L32.2553554,17.5980077 L32.2503605,17.53707 L32.2503605,17.5294112 L32.1747711,17.5294112"></path>
                                <path id="Fill-62" fill="#FBB231" d="M32.4045362,17.5294112 L32.4045362,17.6762611 L32.4674718,17.6762611 L32.4674718,17.5497238 L32.5304075,17.5497238 L32.6066628,17.6762611 L32.6566118,17.6762611 L32.5813554,17.5497238 L32.59967,17.5497238 L32.6163196,17.5450619 L32.6319703,17.539734 L32.644957,17.5294112 L32.4045362,17.5294112"></path>
                                <path d="M21.1560367,12.9137969 L21.1360571,12.7626181 L21.1007598,12.628422 L21.0501449,12.5125405 L20.9868763,12.4113106 L20.9109539,12.3250655 L20.8277057,12.254471 L20.7367986,12.1938663 L20.6385657,12.1482463 L20.5370029,12.1099521 L20.4327761,12.0849776 L20.3302143,12.067329 L20.2259876,12.0570062 L20.1277547,12.0543423 L19.922964,12.064998 L19.7408169,12.0949674 L19.5763184,12.1405874 L19.4301346,12.2038561 L19.3032643,12.2797784 L19.1920447,12.3656906 L19.0938118,12.4615926 L19.0125615,12.5628224 L18.9423,12.6690471 L18.8836933,12.7799338 L18.8387392,12.8888224 L18.800445,12.9970451 L18.7724736,13.1039358 L18.7524941,13.2021687 L18.7375094,13.2957397 L18.7268536,13.376657 L18.7145329,13.5837786 L18.7218587,13.7705876 L18.7498301,13.940081 L18.7927862,14.0892618 L18.8537239,14.2231249 L18.9266493,14.3396724 L19.0125615,14.4432332 L19.1114604,14.5291454 L19.2173521,14.6024038 L19.3312357,14.6656724 L19.4501141,14.7139564 L19.5736545,14.7515846 L19.7005248,14.7822199 L19.8267291,14.7998686 L19.9529334,14.8125223 L20.0771397,14.8148532 L20.160388,14.8148532 L20.2383083,14.8125223 L20.3065718,14.8125223 L20.3725044,14.8098584 L20.4307782,14.8048635 L20.483724,14.7998686 L20.534339,14.7948737 L20.579959,14.7872148 L20.6229151,14.779223 L20.6632072,14.7695662 L20.7041653,14.7565795 L20.7417935,14.7442588 L20.7794217,14.7286081 L20.8197139,14.7139564 L20.861005,14.6936438 L20.9012971,14.6733313 L21.0025269,14.0516336 L20.9286025,14.0945896 L20.858341,14.1345488 L20.7847496,14.1655171 L20.7138221,14.1931555 L20.6455586,14.2157991 L20.5752971,14.2307837 L20.5063676,14.2434375 L20.438104,14.2537602 L20.3705065,14.2587551 L20.3042409,14.2614191 L20.2359773,14.2614191 L20.1707107,14.2587551 L20.1044452,14.2537602 L20.0388456,14.2461014 L19.9762429,14.2384426 L19.9099773,14.2284528 L19.8593624,14.21813 L19.8090805,14.2004814 L19.7577996,14.1781709 L19.7128455,14.1498665 L19.6675585,14.1198971 L19.6269334,14.0822689 L19.5893052,14.0439747 L19.5536749,14.0006857 L19.5230396,13.9580626 L19.4957342,13.9104446 L19.4754216,13.8644916 L19.45744,13.8162076 L19.4467842,13.7682566 L19.4431213,13.7199727 L19.4451192,13.6773496 L19.4507801,13.6447163 L21.0904371,13.6447163 L21.1034238,13.4905406 L21.141052,13.2777581 L21.1587006,13.0856212 L21.1560367,12.9137969 L21.1560367,12.9137969 Z M20.4714033,13.1465589 L19.5476811,13.1465589 L19.548347,13.144228 L19.5470151,13.143895 L19.5536749,13.1085977 L19.5639977,13.0556519 L19.5789824,13.0050369 L19.596631,12.954755 L19.6192745,12.909468 L19.642584,12.8661789 L19.6698894,12.8252208 L19.7005248,12.7875926 L19.7338241,12.7522953 L19.7654584,12.721993 L19.8040856,12.6943546 L19.8417138,12.6713781 L19.8853358,12.6510655 L19.9282919,12.6364138 L19.971248,12.626091 L20.015869,12.6184322 L20.064819,12.6157683 L20.109773,12.6207632 L20.1527291,12.628422 L20.1936872,12.6387448 L20.2333134,12.6537295 L20.2716076,12.674042 L20.3092358,12.6966855 L20.3425351,12.721993 L20.3725044,12.7522953 L20.3978119,12.7875926 L20.4231193,12.8252208 L20.440768,12.8688429 L20.4587496,12.9167938 L20.4687394,12.9670758 L20.4737343,13.0226856 L20.4763982,13.0836233 L20.4714033,13.1465589 L20.4714033,13.1465589 Z" id="Fill-63" fill="#FFFFFF"></path>
                            </g>
                        </g>
                    </g>
                </g>
            </g>
        </g>
    </g>
</svg>