<?xml version="1.0" encoding="utf-8"?>
<!-- Generator: Adobe Illustrator 18.0.0, SVG Export Plug-In . SVG Version: 6.00 Build 0)  -->
<!DOCTYPE svg PUBLIC "-//W3C//DTD SVG 1.1//EN" "http://www.w3.org/Graphics/SVG/1.1/DTD/svg11.dtd">
<svg version="1.1" id="Layer_1" xmlns:sketch="http://www.bohemiancoding.com/sketch/ns"
	 xmlns="http://www.w3.org/2000/svg" xmlns:xlink="http://www.w3.org/1999/xlink" x="0px" y="0px" viewBox="0 0 17 16"
	 enable-background="new 0 0 17 16" xml:space="preserve">
<title>Check Background</title>
<desc>Created with Sketch.</desc>
<g id="Back-2">
	<g id="Checkbox-_x2F_-Unchecked" transform="translate(0.052000, 0.000000)">
		<g id="Check-Background">
			<g sketch:type="MSShapeGroup">
				<g>
					<path fill="#D8D8D8" d="M13.4,16.1H2.3c-1.3,0-2.4-1.1-2.4-2.4V2.3C-0.1,1,1-0.1,2.3-0.1h11.1c1.3,0,2.4,1.1,2.4,2.4v11.4
						C15.7,15,14.7,16.1,13.4,16.1z M2.3,0.9c-0.8,0-1.4,0.6-1.4,1.4v11.4c0,0.8,0.6,1.4,1.4,1.4h11.1c0.8,0,1.4-0.6,1.4-1.4V2.3
						c0-0.8-0.6-1.4-1.4-1.4H2.3z"/>
				</g>
			</g>
			<g>
			</g>
		</g>
	</g>
</g>
</svg>
