<?xml version="1.0" encoding="UTF-8" standalone="no"?>
<svg width="13px" height="10px" viewBox="0 0 13 10" version="1.1" xmlns="http://www.w3.org/2000/svg" xmlns:xlink="http://www.w3.org/1999/xlink" xmlns:sketch="http://www.bohemiancoding.com/sketch/ns">
    <!-- Generator: Sketch Beta 3.1.1 (8761) - http://www.bohemiancoding.com/sketch -->
    <title>Fill 2</title>
    <desc>Created with Sketch Beta.</desc>
    <defs></defs>
    <g id="Widget" stroke="none" stroke-width="1" fill="none" fill-rule="evenodd" sketch:type="MSPage">
        <g id="Embed" sketch:type="MSArtboardGroup" transform="translate(-74.000000, -118.000000)" fill="#9B9B9B">
            <g id="Sharing-Menu" sketch:type="MSLayerGroup">
                <g id="Share-:Hover" transform="translate(61.000000, 48.000000)" sketch:type="MSShapeGroup">
                    <g id="Dropdown" transform="translate(88.500000, 101.000000) scale(-1, 1) translate(-88.500000, -101.000000) translate(0.000000, 29.000000)">
                        <g id="Twitter" transform="translate(157.000000, 46.000000) scale(-1, 1) translate(-157.000000, -46.000000) translate(147.000000, 36.000000)">
                            <path d="M3.7425,13.86625 C4.85875,14.58 6.19,15 7.615,15 C12.26,15 14.8,11.15375 14.8,7.8175 C14.8,7.7075 14.7975,7.5975 14.7925,7.49 C15.28625,7.13375 15.715,6.69 16.05375,6.18375 C15.6,6.38375 15.115,6.52 14.605,6.5825 C15.125,6.27 15.525,5.775 15.71375,5.185 C15.22625,5.475 14.685,5.685 14.11125,5.79875 C13.65,5.30625 12.99375,5 12.26875,5 C10.87375,5 9.74375,6.13 9.74375,7.52375 C9.74375,7.7225 9.765,7.915 9.81,8.10125 C7.7125,7.995 5.8525,6.99 4.60625,5.4625 C4.39,5.835 4.265,6.27 4.265,6.73125 C4.265,7.6075 4.4625,8.37875 5.14,8.8325 C4.72625,8.82 5,8.70625 3.75,8.515 L3.75,8.55 C3.75,9.77125 4.8675,10.79125 6.02125,11.02375 C5.81,11.08125 5.71,11.11375 5.48125,11.11375 C5.3175,11.11375 5.2225,11.09625 5.0675,11.06625 C5.3875,12.07 6.35125,12.8 7.45625,12.82 C6.59125,13.49625 5.52,13.90125 4.33625,13.90125 C4.13375,13.90125 3.93875,13.88875 3.7425,13.86625" id="Fill-2"></path>
                        </g>
                    </g>
                </g>
            </g>
        </g>
    </g>
</svg>