<?xml version="1.0" encoding="UTF-8" standalone="no"?>
<svg width="10px" height="9px" viewBox="0 0 10 9" version="1.1" xmlns="http://www.w3.org/2000/svg" xmlns:xlink="http://www.w3.org/1999/xlink" xmlns:sketch="http://www.bohemiancoding.com/sketch/ns">
    <!-- Generator: Sketch Beta 3.1.1 (8761) - http://www.bohemiancoding.com/sketch -->
    <title>Fill 2</title>
    <desc>Created with Sketch Beta.</desc>
    <defs></defs>
    <g id="Widget" stroke="none" stroke-width="1" fill="none" fill-rule="evenodd" sketch:type="MSPage">
        <g id="Embed" sketch:type="MSArtboardGroup" transform="translate(-76.000000, -170.000000)" fill="#9B9B9B">
            <g id="Sharing-Menu" sketch:type="MSLayerGroup">
                <g id="Share-:Hover" transform="translate(61.000000, 48.000000)" sketch:type="MSShapeGroup">
                    <g id="Dropdown" transform="translate(88.500000, 101.000000) scale(-1, 1) translate(-88.500000, -101.000000) translate(0.000000, 29.000000)">
                        <g id="Imported-Layers" transform="translate(145.000000, 84.000000)">
                            <path d="M8.25,15 L10.5,15 L10.5,17.25 C10.5,17.664 10.836,18 11.25,18 L12.75,18 C13.164,18 13.5,17.664 13.5,17.25 L13.5,15 L15.75,15 C16.164,15 16.5,14.664 16.5,14.25 L16.5,12.75 C16.5,12.336 16.164,12 15.75,12 L13.5,12 L13.5,9.75 C13.5,9.336 13.164,9 12.75,9 L11.25,9 C10.836,9 10.5,9.336 10.5,9.75 L10.5,12 L8.25,12 C7.836,12 7.5,12.336 7.5,12.75 L7.5,14.25 C7.5,14.664 7.836,15 8.25,15" id="Fill-2" transform="translate(12.000000, 13.500000) scale(-1, 1) translate(-12.000000, -13.500000) "></path>
                        </g>
                    </g>
                </g>
            </g>
        </g>
    </g>
</svg>