<?xml version="1.0" encoding="UTF-8" standalone="no"?>
<svg width="22px" height="23px" viewBox="0 0 22 23" version="1.1" xmlns="http://www.w3.org/2000/svg" xmlns:xlink="http://www.w3.org/1999/xlink" xmlns:sketch="http://www.bohemiancoding.com/sketch/ns">
    <!-- Generator: Sketch Beta 3.1 (8740) - http://www.bohemiancoding.com/sketch -->
    <title>Imported Layers 2</title>
    <desc>Created with Sketch Beta.</desc>
    <defs></defs>
    <g id="Homepage" stroke="none" stroke-width="1" fill="none" fill-rule="evenodd" sketch:type="MSPage">
        <g id="Desktop" sketch:type="MSArtboardGroup" transform="translate(-533.000000, -1047.000000)" fill="#9F9F9F">
            <g id="Campaigns" sketch:type="MSLayerGroup" transform="translate(68.000000, 660.000000)">
                <g id="Campaign-Preview-2" transform="translate(401.000000, 91.000000)" sketch:type="MSShapeGroup">
                    <g id="2-tasks-open-+-Imported-Layers-2" transform="translate(64.000000, 295.000000)">
                        <path d="M21.5,6.20856528 C21.5,5.45990005 20.909375,4.84735577 20.1875,4.84735577 C19.465625,4.84735577 18.875,5.45990005 18.875,6.20856528 C18.875,7.33836918 17.995625,8.25037955 16.90625,8.25037955 C15.816875,8.25037955 14.9375,7.33836918 14.9375,6.20856528 C14.9375,5.07876139 15.816875,4.16675101 16.90625,4.16675101 C17.628125,4.16675101 18.21875,3.55420673 18.21875,2.8055415 C18.21875,2.05687627 17.628125,1.44433198 16.90625,1.44433198 C14.373125,1.44433198 12.3125,3.58143092 12.3125,6.20856528 C12.3125,6.65776442 12.39125,7.07973937 12.49625,7.48810223 L6.3275,13.8857869 C5.93375,13.7768902 5.526875,13.6952176 5.09375,13.6952176 C2.560625,13.6952176 0.5,15.8323165 0.5,18.4594509 C0.5,19.2081161 1.090625,19.8206604 1.8125,19.8206604 C2.534375,19.8206604 3.125,19.2081161 3.125,18.4594509 C3.125,17.329647 4.004375,16.4176366 5.09375,16.4176366 C5.211875,16.4176366 5.33,16.4312487 5.448125,16.4584729 C5.4875,16.4584729 5.51375,16.4584729 5.54,16.472085 C5.645,16.4993092 5.736875,16.5265334 5.82875,16.5673697 C5.88125,16.5809818 5.920625,16.608206 5.973125,16.6490423 C6.35375,16.8259995 6.66875,17.1526898 6.839375,17.5474405 C6.87875,17.6018889 6.905,17.6427252 6.918125,17.6971736 C6.9575,17.7924582 6.98375,17.8877429 7.01,17.9966397 C7.023125,18.0238639 7.023125,18.0510881 7.023125,18.0932856 C7.049375,18.2144332 7.0625,18.3369421 7.0625,18.4594509 C7.0625,19.5892548 6.183125,20.5012652 5.09375,20.5012652 C4.371875,20.5012652 3.78125,21.1138095 3.78125,21.8624747 C3.78125,22.6111399 4.371875,23.2236842 5.09375,23.2236842 C7.626875,23.2236842 9.6875,21.0865853 9.6875,18.4594509 C9.6875,18.0102518 9.60875,17.5882768 9.50375,17.179914 L15.6725,10.7822293 C16.06625,10.891126 16.473125,10.9727986 16.90625,10.9727986 C19.439375,10.9727986 21.5,8.83569965 21.5,6.20856528" id="Imported-Layers-2"></path>
                    </g>
                </g>
            </g>
        </g>
    </g>
</svg>