<?xml version="1.0" encoding="UTF-8" standalone="no"?>
<svg width="16px" height="15px" viewBox="0 0 16 15" version="1.1" xmlns="http://www.w3.org/2000/svg" xmlns:xlink="http://www.w3.org/1999/xlink" xmlns:sketch="http://www.bohemiancoding.com/sketch/ns">
    <!-- Generator: Sketch Beta 3.2 (9885) - http://www.bohemiancoding.com/sketch -->
    <title>share-icon</title>
    <desc>Created with Sketch Beta.</desc>
    <defs></defs>
    <g id="Campaign-Detail---Donations" stroke="none" stroke-width="1" fill="none" fill-rule="evenodd" sketch:type="MSPage">
        <g id="Desktop-HD" sketch:type="MSArtboardGroup" transform="translate(-996.000000, -144.000000)" fill="#FFFFFF">
            <g id="top" sketch:type="MSLayerGroup" transform="translate(0.000000, 84.000000)">
                <g id="share" transform="translate(983.000000, 50.000000)" sketch:type="MSShapeGroup">
                    <g id="Share-:Link" transform="translate(13.000000, 9.000000)">
                        <g id="share-icon">
                            <g>
                                <g>
                                    <g>
                                        <g>
                                            <g>
                                                <g>
                                                    <g>
                                                        <g>
                                                            <path d="M2,12 L2,6 L3.091,6 C3.367,6 3.674,5.791 3.794,5.543 C3.985,5.143 4.209,4.76 4.463,4.399 C4.621,4.174 4.539,4 4.263,4 L1,4 C0.447,4 0,4.447 0,5 L0,15 C0,15.553 0.447,16 1,16 L15,16 C15.553,16 16,15.553 16,15 L16,8.473 C16,8.196 15.826,8.113 15.611,8.287 L14.234,9.406 C14.019,9.58 14,9.813 14,10.089 L14,12 L2,12" id="Fill-1"></path>
                                                            <path d="M5.526,10.533 C6.422,8.332 8.199,6.066 11,7 L11,8.374 C11,8.995 11.375,9.185 11.826,8.796 L15.832,5.35 C16.059,5.155 16.057,4.841 15.83,4.647 L11.824,1.199 C11.375,0.812 11,1.002 11,1.623 L11,3 C7.687,3 5,5.687 5,9 C5,9.526 5.071,10.036 5.2,10.522 C5.272,10.789 5.422,10.789 5.526,10.533" id="Fill-2"></path>
                                                        </g>
                                                    </g>
                                                </g>
                                            </g>
                                        </g>
                                    </g>
                                </g>
                            </g>
                        </g>
                    </g>
                </g>
            </g>
        </g>
    </g>
</svg>