<?xml version="1.0" encoding="UTF-8" standalone="no"?>
<svg width="16px" height="15px" viewBox="0 0 16 15" version="1.1" xmlns="http://www.w3.org/2000/svg" xmlns:xlink="http://www.w3.org/1999/xlink" xmlns:sketch="http://www.bohemiancoding.com/sketch/ns">
    <!-- Generator: Sketch Beta 3.2 (9885) - http://www.bohemiancoding.com/sketch -->
    <title>share-icon 2</title>
    <desc>Created with Sketch Beta.</desc>
    <defs></defs>
    <g id="Campaign-Detail---Donations" stroke="none" stroke-width="1" fill="none" fill-rule="evenodd" sketch:type="MSPage">
        <g id="Desktop-HD" sketch:type="MSArtboardGroup" transform="translate(-996.000000, -144.000000)" fill="#00C051">
            <g id="top" sketch:type="MSLayerGroup" transform="translate(0.000000, 84.000000)">
                <g id="share" transform="translate(983.000000, 50.000000)" sketch:type="MSShapeGroup">
                    <g id="share-hover">
                        <g id="share-icon-2" transform="translate(13.000000, 10.000000)">
                            <path d="M2,11 L2,5 L3.091,5 C3.367,5 3.674,4.791 3.794,4.543 C3.985,4.143 4.209,3.76 4.463,3.399 C4.621,3.174 4.539,3 4.263,3 L1,3 C0.447,3 0,3.447 0,4 L0,14 C0,14.553 0.447,15 1,15 L15,15 C15.553,15 16,14.553 16,14 L16,7.473 C16,7.196 15.826,7.113 15.611,7.287 L14.234,8.406 C14.019,8.58 14,8.813 14,9.089 L14,11 L2,11" id="Fill-1"></path>
                            <path d="M5.526,9.533 C6.422,7.332 8.199,5.066 11,6 L11,7.374 C11,7.995 11.375,8.185 11.826,7.796 L15.832,4.35 C16.059,4.155 16.057,3.841 15.83,3.647 L11.824,0.199 C11.375,-0.188 11,0.002 11,0.623 L11,2 C7.687,2 5,4.687 5,8 C5,8.526 5.071,9.036 5.2,9.522 C5.272,9.789 5.422,9.789 5.526,9.533" id="Fill-2"></path>
                        </g>
                    </g>
                </g>
            </g>
        </g>
    </g>
</svg>