<svg xmlns="http://www.w3.org/2000/svg" width="16" height="18"><g fill="none"><g><g id="Back-2"><path fill="#D8D8D8" d="M14.4,17.1 L3.3,17.1 C2,17.1 0.9,16 0.9,14.7 L0.9,3.3 C0.9,2 2,0.9 3.3,0.9 L14.4,0.9 C15.7,0.9 16.8,2 16.8,3.3 L16.8,14.7 C16.7,16 15.7,17.1 14.4,17.1 L14.4,17.1 Z" transform="translate(-4.000000, 0.000000) translate(0.052000, 0.000000) translate(1.000000, 0.000000) translate(1.000000, 0.000000) translate(0.052000, 0.000000) translate(1.000000, 0.000000)"/><path fill="#fff" d="M3.3,1.9 C2.5,1.9 1.9,2.5 1.9,3.3 L1.9,14.7 C1.9,15.5 2.5,16.1 3.3,16.1 L14.4,16.1 C15.2,16.1 15.8,15.5 15.8,14.7 L15.8,3.3 C15.8,2.5 15.2,1.9 14.4,1.9 L3.3,1.9 L3.3,1.9 Z" transform="translate(-4.000000, 0.000000) translate(0.052000, 0.000000) translate(1.000000, 0.000000) translate(1.000000, 0.000000) translate(0.052000, 0.000000) translate(1.000000, 0.000000)"/></g></g></g></svg>