<svg xmlns="http://www.w3.org/2000/svg" width="16" height="18"><g fill="none"><g><g id="Back-2"><path fill="#D8D8D8" d="M14.4,17.1 L3.3,17.1 C2,17.1 0.9,16 0.9,14.7 L0.9,3.3 C0.9,2 2,0.9 3.3,0.9 L14.4,0.9 C15.7,0.9 16.8,2 16.8,3.3 L16.8,14.7 C16.7,16 15.7,17.1 14.4,17.1 L14.4,17.1 Z" transform="translate(-4.000000, 0.000000) translate(0.052000, 0.000000) translate(1.000000, 0.000000) translate(1.000000, 0.000000) translate(0.052000, 0.000000) translate(1.000000, 0.000000)"/><path fill="#fff" d="M3.3,1.9 C2.5,1.9 1.9,2.5 1.9,3.3 L1.9,14.7 C1.9,15.5 2.5,16.1 3.3,16.1 L14.4,16.1 C15.2,16.1 15.8,15.5 15.8,14.7 L15.8,3.3 C15.8,2.5 15.2,1.9 14.4,1.9 L3.3,1.9 L3.3,1.9 Z" transform="translate(-4.000000, 0.000000) translate(0.052000, 0.000000) translate(1.000000, 0.000000) translate(1.000000, 0.000000) translate(0.052000, 0.000000) translate(1.000000, 0.000000)"/></g></g><path fill="#00C051" d="M4.3,7.9 L1.1,4.9 C0.9,4.7 0.9,4.5 1.1,4.3 L1.7,3.7 C1.9,3.5 2.2,3.5 2.3,3.7 L4.5,5.8 L9.4,1.1 C9.6,0.9 9.9,0.9 10,1.1 L10.6,1.7 C10.8,1.9 10.8,2.1 10.6,2.3 L4.7,7.9 C4.8,8 4.5,8 4.3,7.9" transform="translate(-4.000000, 0.000000) translate(6.000000, 5.000000) translate(0.052000, 0.000000)"/></g></svg>