<?xml version="1.0" encoding="UTF-8" standalone="no"?>
<svg width="11px" height="13px" viewBox="0 0 11 13" version="1.1" xmlns="http://www.w3.org/2000/svg" xmlns:xlink="http://www.w3.org/1999/xlink" xmlns:sketch="http://www.bohemiancoding.com/sketch/ns">
    <!-- Generator: Sketch Beta 3.2 (9954) - http://www.bohemiancoding.com/sketch -->
    <title>icon-wallpost-delete</title>
    <desc>Created with Sketch Beta.</desc>
    <defs></defs>
    <g id="Campaign-Detail" stroke="none" stroke-width="1" fill="none" fill-rule="evenodd" sketch:type="MSPage">
        <g sketch:type="MSArtboardGroup" transform="translate(-700.000000, -833.000000)" id="Wallposts" fill="#999999">
            <g sketch:type="MSLayerGroup" transform="translate(0.000000, 608.000000)">
                <g transform="translate(250.000000, 2.000000)" id="Wallpost" sketch:type="MSShapeGroup">
                    <g transform="translate(0.000000, 157.000000)">
                        <g id="content">
                            <g id="edit" transform="translate(440.000000, 11.000000)">
                                <g id="dropdown">
                                    <g id="remove-icon" transform="translate(10.911133, 55.362956)">
                                        <path d="M9.28571429,2.25 L7.14285714,2.25 L7.14285714,0.75 C7.14285714,0.33525 6.89428571,0 6.5,0 L3.5,0 C3.10571429,0 2.85714286,0.33525 2.85714286,0.75 L2.85714286,2.25 L0.714285714,2.25 C0.319285714,2.25 0,2.58525 0,3 C0,3.41475 0.319285714,3.75 0.714285714,3.75 L9.28571429,3.75 C9.68071429,3.75 10,3.41475 10,3 C10,2.58525 9.68071429,2.25 9.28571429,2.25 L9.28571429,2.25 Z M4.28571429,1.5 L5.71428571,1.5 L5.71428571,2.25 L4.28571429,2.25 L4.28571429,1.5 Z M0.714285714,11.25 C0.714285714,11.66475 1.03357143,12 1.42857143,12 L8.57142857,12 C8.96642857,12 9.28571429,11.66475 9.28571429,11.25 L9.28571429,4.875 C9.28571429,4.668 9.12571429,4.5 8.92857143,4.5 L1.07142857,4.5 C0.874285714,4.5 0.714285714,4.668 0.714285714,4.875 L0.714285714,11.25 Z" id="icon-wallpost-delete"></path>
                                    </g>
                                </g>
                            </g>
                        </g>
                    </g>
                </g>
            </g>
        </g>
    </g>
</svg>