<svg xmlns="http://www.w3.org/2000/svg" width="13" height="12"><path fill="#F8F7F8" fill-rule="evenodd" d="M1.62487272,10.8003335 L1.62487272,6.00083385 L2.51124079,6.00083385 C2.73547323,6.00083385 2.98489119,5.83365128 3.08238355,5.63527196 C3.2375589,5.31530531 3.41954464,5.00893725 3.62590348,4.72016735 C3.75426842,4.54018611 3.68764864,4.40100062 3.46341621,4.40100062 L0.812436361,4.40100062 C0.363159053,4.40100062 0,4.75856335 0,5.20091724 L0,13.2000834 C0,13.6424373 0.363159053,14 0.812436361,14 L12.1865454,14 C12.6358227,14 12.9989818,13.6424373 12.9989818,13.2000834 L12.9989818,7.97902764 C12.9989818,7.75745074 12.8576178,7.69105766 12.682944,7.83024315 L11.5642192,8.72534984 C11.3895453,8.86453533 11.374109,9.0509159 11.374109,9.27169289 L11.374109,10.8003335 L1.62487272,10.8003335 Z M4.48952333,9.62685587 C5.21746631,7.8662394 6.66116572,6.05362835 8.93679997,6.80075047 L8.93679997,7.89983589 C8.93679997,8.39658411 9.2414636,8.54856827 9.6078724,8.23740071 L12.8624925,5.48088805 C13.0469155,5.32490431 13.0452906,5.07373049 12.8608676,4.91854667 L9.60624753,2.16043418 C9.2414636,1.85086645 8.93679997,2.00285061 8.93679997,2.49959883 L8.93679997,3.60108401 C6.2451983,3.60108401 4.0621818,5.75045995 4.0621818,8.4005837 C4.0621818,8.82133984 4.11986478,9.22929731 4.22466908,9.61805678 C4.28316449,9.83163452 4.40502995,9.83163452 4.48952333,9.62685587 Z" transform="translate(-1018.000000, -136.000000) translate(1009.000000, 127.000000) translate(9.000000, 7.000000)"/></svg>