<svg xmlns="http://www.w3.org/2000/svg" width="9" height="10"><path fill="#999" fill-rule="evenodd" d="M11.75,129.6395 L14,129.6395 L14,131.8895 C14,132.3035 14.336,132.6395 14.75,132.6395 L16.25,132.6395 C16.664,132.6395 17,132.3035 17,131.8895 L17,129.6395 L19.25,129.6395 C19.664,129.6395 20,129.3035 20,128.8895 L20,127.3895 C20,126.9755 19.664,126.6395 19.25,126.6395 L17,126.6395 L17,124.3895 C17,123.9755 16.664,123.6395 16.25,123.6395 L14.75,123.6395 C14.336,123.6395 14,123.9755 14,124.3895 L14,126.6395 L11.75,126.6395 C11.336,126.6395 11,126.9755 11,127.3895 L11,128.8895 C11,129.3035 11.336,129.6395 11.75,129.6395" transform="translate(-1020.000000, -250.000000) translate(1009.000000, 127.000000) translate(15.500000, 128.139500) scale(-1, 1) translate(-15.500000, -128.139500)"/></svg>