<?xml version="1.0" encoding="UTF-8" standalone="no"?>
<svg width="9px" height="10px" viewBox="0 0 9 10" version="1.1" xmlns="http://www.w3.org/2000/svg" xmlns:xlink="http://www.w3.org/1999/xlink" xmlns:sketch="http://www.bohemiancoding.com/sketch/ns">
    <!-- Generator: Sketch Beta 3.2 (9961) - http://www.bohemiancoding.com/sketch -->
    <title>icon-share-link</title>
    <desc>Created with Sketch Beta.</desc>
    <defs></defs>
    <g id="Campaign-Detail" stroke="none" stroke-width="1" fill="none" fill-rule="evenodd" sketch:type="MSPage">
        <g sketch:type="MSArtboardGroup" transform="translate(-1020.000000, -276.000000)" id="Campaign-Overview" fill="#999999">
            <g sketch:type="MSLayerGroup">
                <g id="Share" transform="translate(1009.000000, 127.000000)" sketch:type="MSShapeGroup">
                    <g id="State:-Hover">
                        <g id="Dropdown">
                            <path d="M16.3305806,149.38365 L14.6683978,151.229254 C14.5243487,151.390432 14.4814405,151.610633 14.5192406,151.817213 C14.5080027,151.818349 14.8614848,153.785403 14.8614848,153.785403 L13.8378171,154.922731 C13.6079516,155.178119 13.6079516,155.59128 13.8378171,155.846668 C14.0676826,156.102056 14.4395539,156.102056 14.6683978,155.846668 L15.1393666,155.324541 L15.2772859,156.094111 L14.2536183,157.232573 C14.0237528,157.485691 13.6518815,157.486826 13.422016,157.232573 L12.5914354,156.308636 C12.3615699,156.053248 12.3615699,155.640087 12.5914354,155.3847 L13.8562064,153.980633 C14.1596288,153.643521 13.9532607,153.204254 13.8378171,153.077127 C13.6079516,152.821739 13.237102,152.821739 13.0072365,153.075992 L11.344032,154.922731 C10.8853227,155.432372 10.8853227,156.260964 11.344032,156.76947 L13.0072365,158.617344 C13.4659459,159.126984 14.2096884,159.12812 14.6683978,158.617344 L16.3305806,156.768335 C16.4756513,156.610562 16.5185595,156.390361 16.481781,156.182645 C16.4919973,156.180375 16.1374936,154.21332 16.1374936,154.21332 L17.1621829,153.075992 C17.3920484,152.821739 17.3920484,152.408578 17.1621829,152.153191 C16.9323174,151.897803 16.5604461,151.897803 16.3305806,152.153191 L15.861655,152.675317 L15.7227141,151.905748 L16.7463817,150.767285 C16.9762472,150.513032 17.3481185,150.513032 17.5769624,150.767285 L18.4085646,151.691222 C18.6384301,151.94661 18.6384301,152.359771 18.4085646,152.614024 L17.1448153,154.019225 C16.925166,154.263263 16.9854419,154.751337 17.1621829,154.922731 C17.3920484,155.178119 17.7639196,155.178119 17.9927635,154.922731 L19.655968,153.075992 C20.1146773,152.566351 20.1146773,151.74003 19.655968,151.229254 L17.9927635,149.382515 C17.5340541,148.871739 16.7903116,148.872874 16.3305806,149.38365" id="icon-share-link" transform="translate(15.500000, 154.000000) scale(-1, 1) translate(-15.500000, -154.000000) "></path>
                        </g>
                    </g>
                </g>
            </g>
        </g>
    </g>
</svg>