<svg xmlns="http://www.w3.org/2000/svg" width="10" height="10"><path fill="#999" fill-rule="evenodd" d="M10,78.619125 C10.906691,79.2615 11.9880191,79.6395 13.145497,79.6395 C16.9184689,79.6395 18.9816225,76.177875 18.9816225,73.17525 C18.9816225,73.07625 18.9795918,72.97725 18.9755305,72.8805 C19.3765865,72.559875 19.7248452,72.1605 20,71.704875 C19.6314347,71.884875 19.237486,72.0075 18.8232308,72.06375 C19.2456087,71.7825 19.5705148,71.337 19.7238298,70.806 C19.3278505,71.067 18.888212,71.256 18.4221748,71.358375 C18.0475175,70.915125 17.5144685,70.6395 16.9255762,70.6395 C15.7924662,70.6395 14.8746066,71.6565 14.8746066,72.910875 C14.8746066,73.08975 14.8918672,73.263 14.9284191,73.430625 C13.2246929,73.335 11.7138796,72.4305 10.7015941,71.05575 C10.5259417,71.391 10.4244086,71.7825 10.4244086,72.197625 C10.4244086,72.98625 10.5848309,73.680375 11.1351406,74.08875 C10.7990659,74.0775 11.0214235,73.975125 10.006092,73.803 L10.006092,73.8345 C10.006092,74.933625 10.9137984,75.851625 11.8509493,76.060875 C11.6793583,76.112625 11.5981318,76.141875 11.4123261,76.141875 C11.2793177,76.141875 11.2021525,76.126125 11.0762514,76.099125 C11.3361763,77.0025 12.1189969,77.6595 13.0165499,77.6775 C12.3139405,78.286125 11.4438014,78.650625 10.4822825,78.650625 C10.3177988,78.650625 10.159407,78.639375 10,78.619125" transform="translate(-1019.000000, -197.000000) translate(1009.000000, 127.000000)"/></svg>