<svg xmlns="http://www.w3.org/2000/svg" width="14" height="12"><path fill="#9F9F9F" fill-rule="evenodd" d="M128.157421,8 L116.782421,8 C116.333108,8 115.969921,8.38314286 115.969921,8.85714286 L115.969921,19.1428571 C115.969921,19.6168571 116.333108,20 116.782421,20 L128.157421,20 C128.606733,20 128.969921,19.6168571 128.969921,19.1428571 L128.969921,8.85714286 C128.969921,8.38314286 128.606733,8 128.157421,8 L128.157421,8 Z M125.719921,9.71428571 L127.344921,9.71428571 L127.344921,11.4285714 L125.719921,11.4285714 L125.719921,9.71428571 Z M125.719921,13.1428571 L127.344921,13.1428571 L127.344921,14.8571429 L125.719921,14.8571429 L125.719921,13.1428571 Z M117.594921,9.71428571 L119.219921,9.71428571 L119.219921,11.4285714 L117.594921,11.4285714 L117.594921,9.71428571 Z M117.594921,13.1428571 L119.219921,13.1428571 L119.219921,14.8571429 L117.594921,14.8571429 L117.594921,13.1428571 Z M117.594921,16.5714286 L119.219921,16.5714286 L119.219921,18.2857143 L117.594921,18.2857143 L117.594921,16.5714286 Z M120.844921,9.71428571 L124.094921,9.71428571 L124.094921,18.2857143 L120.844921,18.2857143 L120.844921,9.71428571 Z M125.719921,16.5714286 L127.344921,16.5714286 L127.344921,18.2857143 L125.719921,18.2857143 L125.719921,16.5714286 Z" transform="translate(-657.000000, -676.000000) translate(0.000000, 623.000000) translate(247.000000, 17.000000) translate(0.000000, 15.000000) translate(295.000000, 13.000000)"/></svg>