<svg xmlns="http://www.w3.org/2000/svg" width="20" height="20"><path fill="#D8D8D8" fill-rule="evenodd" d="M18.75,0 L1.25,0 C0.55875,0 0,0.55875 0,1.25 L0,15 C0,15.69125 0.55875,16.25 1.25,16.25 L2.5,16.25 L2.5,18.75 C2.5,19.44125 3.05875,20 3.75,20 L5,20 C5.2275,20 5.44875,19.93875 5.64375,19.82125 L11.59625,16.25 L18.75,16.25 C19.44125,16.25 20,15.69125 20,15 L20,1.25 C20,0.55875 19.44125,0 18.75,0 L18.75,0 Z M17.5,13.75 L11.25,13.75 C11.0225,13.75 10.80125,13.81125 10.60625,13.92875 L5,17.2925 L5,15 C5,14.30875 4.44125,13.75 3.75,13.75 L2.5,13.75 L2.5,2.5 L17.5,2.5 L17.5,13.75 L17.5,13.75 Z" transform="translate(-270.000000, -1643.000000) translate(0.000000, 608.000000) translate(250.000000, 2.000000) translate(0.000000, 157.000000) translate(0.000000, 860.000000) translate(30.000000, 26.000000) scale(-1, 1) translate(-30.000000, -26.000000) translate(20.000000, 16.000000)"/></svg>