<svg xmlns="http://www.w3.org/2000/svg" width="21" height="21"><path fill="#00C051" fill-rule="evenodd" d="M19.688 0c-.726 0-1.313.587-1.313 1.313v.25L1.037 5.28C.432 5.41 0 5.943 0 6.562v5.25c0 .62.432 1.154 1.037 1.283l2.9.622v3.345c0 .537.327 1.02.826 1.22l6.563 2.625c.156.063.32.093.486.093.26 0 .516-.077.736-.226.36-.244.577-.65.577-1.087v-4l5.25 1.125v.25c0 .726.587 1.313 1.313 1.313.725 0 1.312-.587 1.312-1.313V1.313C21 .588 20.413 0 19.687 0zM10.5 17.75l-3.938-1.576V14.28l3.938.844v2.625zm-7.875-7V7.625l15.75-3.375v9.876L2.625 10.75z"/></svg>