<svg xmlns="http://www.w3.org/2000/svg" width="10" height="10"><g fill="none" transform="translate(-115.000000, -848.000000) translate(49.000000, 720.000000) translate(20.000000, 124.000000) translate(46.000000, 4.000000)"><circle cx="5" cy="5" r="5" fill="#000"/><path fill="#fff" d="M7.453125,6.56890625 L5.90625,5.02203125 L7.453125,3.47515625 C7.575625,3.35328125 7.575625,3.15578125 7.453125,3.03328125 L7.01125,2.59140625 C6.88875,2.46953125 6.69125,2.46953125 6.569375,2.59140625 L5.0225,4.13828125 L3.475625,2.59140625 C3.35375,2.46953125 3.15625,2.46953125 3.03375,2.59140625 L2.591875,3.03328125 C2.469375,3.15578125 2.469375,3.35328125 2.591875,3.47515625 L4.13875,5.02203125 L2.591875,6.56890625 C2.469375,6.69078125 2.469375,6.88828125 2.591875,7.01078125 L3.03375,7.45265625 C3.15625,7.57453125 3.35375,7.57453125 3.475625,7.45265625 L5.0225,5.90578125 L6.569375,7.45265625 C6.69125,7.57453125 6.88875,7.57453125 7.01125,7.45265625 L7.453125,7.01078125 C7.575625,6.88828125 7.575625,6.69078125 7.453125,6.56890625"/></g></svg>