<svg xmlns="http://www.w3.org/2000/svg" width="19" height="22"><path fill="#999" fill-rule="evenodd" d="M12.8928571,1 L6.78571429,1 C6.03521429,1 5.42857143,1.614625 5.42857143,2.375 L5.42857143,5.125 L1.35714286,5.125 C0.610714286,5.125 0,5.74375 0,6.5 L0,21.625 C0,22.38125 0.610714286,23 1.35714286,23 L13.5714286,23 C14.3178571,23 14.9285714,22.38125 14.9285714,21.625 L14.9285714,18.875 L17.6428571,18.875 C18.3933571,18.875 19,18.260375 19,17.5 L19,7.1875 C19,6.808 18.7855714,6.28275 18.5209286,6.01325 L14.0505,1.48675 C13.7858571,1.21725 13.2674286,1 12.8928571,1 L12.8928571,1 Z M12.2142857,20.25 L2.71428571,20.25 L2.71428571,7.875 L5.42857143,7.875 L5.42857143,17.5 C5.42857143,18.260375 6.03521429,18.875 6.78571429,18.875 L12.2142857,18.875 L12.2142857,20.25 L12.2142857,20.25 Z M8.14285714,16.125 L8.14285714,3.75 L12.2142857,3.75 L12.2142857,7.1875 C12.2142857,7.567 12.5182857,7.875 12.8928571,7.875 L16.2857143,7.875 L16.2857143,16.125 L8.14285714,16.125 L8.14285714,16.125 Z" transform="translate(-833.000000, -872.000000) translate(0.000000, 528.000000) translate(831.000000, 47.000000) translate(0.000000, 296.000000) translate(2.000000, 0.000000)"/></svg>