<svg xmlns="http://www.w3.org/2000/svg" width="21" height="21"><path fill="#999" fill-rule="evenodd" d="M19.6875,4.625 L17.0625,4.625 L17.0625,3.3125 C17.0625,2.5866875 16.4758125,2 15.75,2 L5.25,2 C4.5241875,2 3.9375,2.5866875 3.9375,3.3125 L3.9375,4.625 L1.3125,4.625 C0.5866875,4.625 0,5.2116875 0,5.9375 L0,8.5625 C0,10.512875 1.22325,13.3150625 4.4506875,13.7285 C5.284125,15.7064375 7.06125,17.1895625 9.21375,17.6200625 C9.2098125,17.6646875 9.1875,17.7040625 9.1875,17.75 L9.1875,20.375 L7.875,20.375 C6.426,20.375 5.25,21.551 5.25,23 L15.75,23 C15.75,21.551 14.5753125,20.375 13.125,20.375 L11.8125,20.375 L11.8125,17.75 C11.8125,17.7040625 11.7901875,17.6646875 11.7875625,17.6200625 C13.93875,17.1895625 15.715875,15.7064375 16.5493125,13.7285 C19.77675,13.3150625 21,10.512875 21,8.5625 L21,5.9375 C21,5.2116875 20.4133125,4.625 19.6875,4.625 L19.6875,4.625 Z M2.625,8.5625 L2.625,7.25 L3.9375,7.25 L3.9375,10.904 C2.7759375,10.33175 2.632875,9.032375 2.625,8.5625 L2.625,8.5625 Z M10.5,15.125 C8.329125,15.125 6.5625,13.358375 6.5625,11.1875 L6.5625,4.625 L14.4375,4.625 L14.4375,11.1875 C14.4375,13.358375 12.670875,15.125 10.5,15.125 L10.5,15.125 Z M18.375,8.5625 C18.375,8.9050625 18.2818125,10.297625 17.0625,10.89875 L17.0625,7.25 L18.375,7.25 L18.375,8.5625 L18.375,8.5625 Z" transform="translate(-830.000000, -656.000000) translate(0.000000, 608.000000) translate(830.000000, 46.000000)"/></svg>