<svg xmlns="http://www.w3.org/2000/svg" width="22" height="23"><path fill="#999" fill-rule="evenodd" d="M21.5,18.4594509 C21.5,19.2081161 20.909375,19.8206604 20.1875,19.8206604 C19.465625,19.8206604 18.875,19.2081161 18.875,18.4594509 C18.875,17.329647 17.995625,16.4176366 16.90625,16.4176366 C15.816875,16.4176366 14.9375,17.329647 14.9375,18.4594509 C14.9375,19.5892548 15.816875,20.5012652 16.90625,20.5012652 C17.628125,20.5012652 18.21875,21.1138095 18.21875,21.8624747 C18.21875,22.6111399 17.628125,23.2236842 16.90625,23.2236842 C14.373125,23.2236842 12.3125,21.0865853 12.3125,18.4594509 C12.3125,18.0102518 12.39125,17.5882768 12.49625,17.179914 L6.3275,10.7822293 C5.93375,10.891126 5.526875,10.9727986 5.09375,10.9727986 C2.560625,10.9727986 0.5,8.83569965 0.5,6.20856528 C0.5,5.45990005 1.090625,4.84735577 1.8125,4.84735577 C2.534375,4.84735577 3.125,5.45990005 3.125,6.20856528 C3.125,7.33836918 4.004375,8.25037955 5.09375,8.25037955 C5.211875,8.25037955 5.33,8.23676746 5.448125,8.20954327 C5.4875,8.20954327 5.51375,8.20954327 5.54,8.19593117 C5.645,8.16870698 5.736875,8.14148279 5.82875,8.10064651 C5.88125,8.08703441 5.920625,8.05981022 5.973125,8.01897394 C6.35375,7.8420167 6.66875,7.51532642 6.839375,7.12057566 C6.87875,7.06612728 6.905,7.02529099 6.918125,6.97084261 C6.9575,6.87555795 6.98375,6.78027328 7.01,6.67137652 C7.023125,6.64415233 7.023125,6.61692814 7.023125,6.57473064 C7.049375,6.453583 7.0625,6.33107414 7.0625,6.20856528 C7.0625,5.07876139 6.183125,4.16675101 5.09375,4.16675101 C4.371875,4.16675101 3.78125,3.55420673 3.78125,2.8055415 C3.78125,2.05687627 4.371875,1.44433198 5.09375,1.44433198 C7.626875,1.44433198 9.6875,3.58143092 9.6875,6.20856528 C9.6875,6.65776442 9.60875,7.07973937 9.50375,7.48810223 L15.6725,13.8857869 C16.06625,13.7768902 16.473125,13.6952176 16.90625,13.6952176 C19.439375,13.6952176 21.5,15.8323165 21.5,18.4594509" transform="translate(-831.000000, -924.000000) translate(0.000000, 608.000000) translate(830.000000, 46.000000) translate(0.000000, 269.000000) translate(1.000000, 0.000000) translate(11.000000, 12.334008) scale(1, -1) translate(-11.000000, -12.334008)"/></svg>